M48
; DRILL file {KiCad 8.0.4} date 2024-12-09T12:19:38+0100
; FORMAT={-:-/ absolute / metric / decimal}
; #@! TF.CreationDate,2024-12-09T12:19:38+01:00
; #@! TF.GenerationSoftware,Kicad,Pcbnew,8.0.4
; #@! TF.FileFunction,Plated,5,6,Blind
FMAT,2
METRIC
; #@! TA.AperFunction,Plated,Buried,ViaDrill
T1C0.300
%
G90
G05
T1
X94.35Y-103.8
X94.4Y-104.8
X94.5Y-106.3
X94.5Y-107.35
X94.5Y-108.5
X94.5Y-109.6
X94.5Y-110.6
X94.5Y-111.9
X94.5Y-112.95
X94.5Y-114.1
X94.5Y-115.2
X94.5Y-116.2
X94.8Y-81.7
X94.8Y-118.1
X94.8Y-119.1
X94.8Y-126.65
X94.9Y-75.0
X94.95Y-76.0
X95.4Y-103.8
X95.45Y-104.8
X95.5Y-106.25
X95.5Y-107.3
X95.5Y-108.45
X95.5Y-109.55
X95.5Y-110.55
X95.5Y-111.85
X95.5Y-112.9
X95.5Y-114.05
X95.5Y-115.15
X95.5Y-116.15
X95.7Y-91.1
X95.7Y-92.2
X95.7Y-93.25
X95.7Y-94.4
X95.7Y-95.4
X95.7Y-96.55
X95.7Y-97.6
X95.7Y-98.7
X95.7Y-99.85
X95.7Y-100.8
X95.8Y-118.05
X95.8Y-119.05
X95.85Y-81.7
X95.95Y-75.0
X96.0Y-76.0
X96.5Y-106.25
X96.5Y-107.3
X96.5Y-108.45
X96.5Y-109.55
X96.5Y-110.55
X96.5Y-111.85
X96.5Y-112.9
X96.5Y-114.05
X96.5Y-115.15
X96.5Y-116.15
X96.55Y-103.8
X96.6Y-104.8
X96.8Y-81.7
X96.9Y-75.0
X96.95Y-76.0
X97.65Y-103.8
X97.7Y-104.8
X97.7Y-123.4
X97.8Y-125.6
X97.85Y-81.7
X97.95Y-75.0
X98.0Y-76.0
X98.65Y-103.8
X98.7Y-104.8
X98.8Y-81.6
X98.8Y-123.4
X98.9Y-74.9
X98.95Y-75.9
X99.6Y-96.5
X99.8Y-123.4
X99.85Y-124.4
X100.5Y-68.2
X100.55Y-69.2
X100.55Y-96.5
X100.9Y-109.5
X100.9Y-110.55
X100.9Y-111.7
X100.9Y-112.8
X100.9Y-113.8
X101.55Y-68.2
X101.6Y-69.2
X101.7Y-96.5
X101.7Y-115.2
X101.7Y-116.2
X101.7Y-117.35
X101.7Y-118.35
X101.7Y-119.45
X101.7Y-120.5
X101.7Y-121.65
X101.7Y-122.75
X101.7Y-123.75
X101.9Y-75.7
X101.9Y-76.8
X101.9Y-77.85
X101.9Y-79.0
X101.9Y-80.0
X101.9Y-81.1
X101.9Y-82.15
X101.9Y-83.3
X101.9Y-84.3
X101.9Y-85.45
X101.9Y-86.5
X101.9Y-109.45
X101.9Y-110.5
X101.9Y-111.65
X101.9Y-112.75
X101.9Y-113.75
X102.1Y-126.6
X102.15Y-127.6
X102.15Y-128.6
X102.15Y-129.7
X102.2Y-130.7
X102.5Y-68.2
X102.55Y-69.2
X102.7Y-117.3
X102.7Y-118.4
X102.7Y-119.4
X102.7Y-120.45
X102.7Y-121.6
X102.7Y-122.7
X102.7Y-123.7
X102.8Y-96.5
X102.85Y-104.25
X102.9Y-105.4
X102.9Y-106.5
X102.9Y-109.45
X102.9Y-110.5
X102.9Y-111.65
X102.9Y-112.75
X102.9Y-113.75
X102.95Y-107.65
X103.0Y-108.75
X103.1Y-126.6
X103.15Y-127.6
X103.15Y-128.6
X103.15Y-129.7
X103.2Y-130.7
X103.2Y-133.8
X103.55Y-68.2
X103.6Y-69.2
X103.85Y-96.5
X103.95Y-104.25
X104.0Y-105.4
X104.0Y-106.5
X104.05Y-107.65
X104.1Y-108.75
X104.2Y-126.6
X104.25Y-127.6
X104.25Y-128.6
X104.25Y-129.7
X104.3Y-130.7
X104.3Y-131.7
X104.3Y-132.8
X104.3Y-133.8
X104.5Y-68.1
X104.55Y-69.1
X104.8Y-89.45
X104.8Y-90.45
X105.0Y-96.5
X105.1Y-104.25
X105.15Y-105.4
X105.15Y-106.5
X105.2Y-107.65
X105.25Y-108.75
X105.35Y-126.6
X105.4Y-127.6
X105.4Y-128.6
X105.4Y-129.7
X105.45Y-130.7
X105.45Y-131.7
X105.45Y-132.8
X105.45Y-133.8
X105.65Y-89.95
X106.1Y-96.5
X106.2Y-104.3
X106.25Y-105.45
X106.25Y-106.55
X106.3Y-107.7
X106.4Y-126.6
X106.45Y-127.6
X106.45Y-128.6
X106.45Y-129.7
X106.5Y-89.45
X106.5Y-90.45
X106.5Y-130.7
X106.5Y-131.7
X106.5Y-132.8
X106.5Y-133.8
X107.1Y-96.5
X107.3Y-104.3
X107.35Y-105.45
X107.35Y-106.55
X107.4Y-107.7
X107.45Y-114.25
X107.45Y-127.6
X107.45Y-128.6
X107.45Y-129.7
X107.5Y-126.6
X107.5Y-130.7
X107.5Y-131.7
X107.5Y-132.8
X107.5Y-133.8
X108.1Y-96.5
X108.45Y-104.3
X108.45Y-114.3
X108.5Y-105.45
X108.5Y-106.55
X108.5Y-126.6
X108.55Y-107.7
X108.55Y-127.6
X108.55Y-128.6
X108.55Y-129.7
X108.6Y-130.7
X108.6Y-131.7
X108.6Y-132.8
X108.6Y-133.8
X109.15Y-124.75
X109.25Y-96.5
X109.25Y-103.9
X109.3Y-105.05
X109.55Y-106.05
X109.6Y-107.2
X109.65Y-126.6
X109.7Y-127.6
X109.7Y-128.6
X109.7Y-129.7
X109.75Y-130.7
X109.75Y-131.7
X109.75Y-132.8
X109.75Y-133.8
X110.35Y-96.5
X110.35Y-103.9
X110.4Y-105.05
X110.65Y-106.05
X110.65Y-126.6
X110.7Y-107.2
X110.7Y-127.6
X110.7Y-128.6
X110.7Y-129.7
X110.75Y-130.7
X110.75Y-131.7
X110.75Y-132.8
X110.75Y-133.8
X111.35Y-96.5
X111.8Y-106.05
X111.8Y-128.5
X111.8Y-129.6
X111.85Y-107.2
X111.85Y-127.5
X111.85Y-131.6
X111.85Y-132.7
X111.85Y-133.7
X111.9Y-130.6
X112.45Y-96.5
X112.6Y-117.95
X112.95Y-106.25
X112.95Y-107.2
X112.95Y-127.5
X112.95Y-128.5
X112.95Y-129.6
X113.0Y-130.6
X113.0Y-131.6
X113.0Y-132.7
X113.0Y-133.7
X113.6Y-96.5
X113.6Y-118.0
X113.9Y-106.65
X113.95Y-127.5
X113.95Y-128.5
X113.95Y-129.6
X114.0Y-130.6
X114.0Y-131.6
X114.0Y-132.7
X114.0Y-133.7
X114.15Y-68.2
X114.2Y-69.2
X114.4Y-118.0
X114.65Y-106.1
X114.7Y-96.5
X114.7Y-107.25
X115.05Y-127.6
X115.05Y-128.6
X115.05Y-129.7
X115.1Y-130.7
X115.1Y-131.7
X115.1Y-132.8
X115.1Y-133.8
X115.2Y-68.2
X115.25Y-69.2
X115.4Y-118.05
X115.7Y-96.5
X116.0Y-116.0
X116.05Y-116.75
X116.05Y-127.6
X116.05Y-128.6
X116.05Y-129.7
X116.1Y-130.7
X116.1Y-131.7
X116.1Y-132.8
X116.1Y-133.8
X116.35Y-68.2
X116.4Y-69.2
X116.7Y-96.5
X116.95Y-116.75
X117.0Y-116.05
X117.15Y-127.6
X117.15Y-128.6
X117.15Y-129.7
X117.2Y-130.7
X117.2Y-131.7
X117.2Y-132.8
X117.2Y-133.8
X117.25Y-68.2
X117.3Y-69.2
X117.85Y-96.5
X117.9Y-117.9
X117.95Y-116.9
X118.0Y-116.05
X118.3Y-68.2
X118.3Y-127.6
X118.3Y-128.6
X118.3Y-129.7
X118.35Y-69.2
X118.35Y-130.7
X118.35Y-131.7
X118.35Y-132.8
X118.35Y-133.8
X118.95Y-96.5
X119.0Y-117.95
X119.0Y-121.7
X119.05Y-116.05
X119.05Y-116.95
X119.05Y-118.95
X119.05Y-119.8
X119.05Y-120.7
X119.25Y-110.65
X119.3Y-127.6
X119.3Y-128.6
X119.3Y-129.7
X119.35Y-130.7
X119.35Y-131.7
X119.35Y-132.8
X119.35Y-133.8
X119.45Y-68.2
X119.5Y-69.2
X119.675Y-105.675
X119.95Y-96.5
X120.4Y-127.5
X120.4Y-128.5
X120.4Y-129.6
X120.45Y-130.6
X120.45Y-131.6
X120.45Y-132.7
X120.45Y-133.7
X120.55Y-68.2
X120.6Y-69.2
X120.95Y-96.5
X121.55Y-68.2
X121.55Y-127.5
X121.55Y-128.5
X121.55Y-129.6
X121.6Y-69.2
X121.6Y-130.6
X121.6Y-131.6
X121.6Y-132.7
X121.6Y-133.7
X122.1Y-96.5
X122.55Y-68.2
X122.55Y-127.5
X122.55Y-128.5
X122.55Y-129.6
X122.6Y-69.2
X122.6Y-130.6
X122.6Y-131.6
X122.6Y-132.7
X122.6Y-133.7
X123.2Y-96.5
X123.6Y-68.2
X123.65Y-69.2
X123.65Y-106.85
X123.65Y-107.95
X123.65Y-127.6
X123.65Y-128.6
X123.65Y-129.7
X123.7Y-130.7
X123.7Y-131.7
X123.7Y-132.8
X123.7Y-133.8
X123.75Y-111.25
X124.2Y-96.5
X124.65Y-127.6
X124.65Y-128.6
X124.65Y-129.7
X124.7Y-130.7
X124.7Y-131.7
X124.7Y-132.8
X124.7Y-133.8
X124.75Y-68.2
X124.8Y-69.2
X124.9Y-111.25
X125.2Y-96.5
X125.55Y-109.5
X125.55Y-110.6
X125.55Y-111.75
X125.55Y-112.75
X125.55Y-113.85
X125.55Y-115.0
X125.75Y-127.6
X125.75Y-128.6
X125.75Y-129.7
X125.8Y-130.7
X125.8Y-131.7
X125.8Y-132.8
X125.8Y-133.8
X125.85Y-68.2
X125.9Y-69.2
X126.35Y-96.5
X126.9Y-127.6
X126.9Y-128.6
X126.9Y-129.7
X126.95Y-130.7
X126.95Y-131.7
X126.95Y-132.8
X126.95Y-133.8
X127.2Y-120.55
X127.2Y-121.65
X127.2Y-122.8
X127.2Y-123.75
X127.2Y-124.85
X127.2Y-126.0
X127.45Y-96.5
X127.9Y-127.6
X127.9Y-128.6
X127.9Y-129.7
X127.95Y-130.7
X127.95Y-131.7
X127.95Y-132.8
X127.95Y-133.8
X128.45Y-96.5
X128.9Y-122.3
X128.9Y-123.3
X128.9Y-124.4
X128.9Y-125.4
X128.9Y-126.5
X128.9Y-127.5
X128.9Y-128.6
X128.9Y-129.6
X129.05Y-130.6
X129.05Y-131.6
X129.05Y-132.7
X129.05Y-133.7
X129.6Y-96.55
X129.9Y-122.3
X129.9Y-123.3
X129.9Y-124.4
X129.9Y-125.4
X129.9Y-126.5
X129.9Y-127.5
X129.9Y-128.6
X129.9Y-129.6
X130.0Y-108.5
X130.2Y-130.6
X130.2Y-131.6
X130.2Y-132.7
X130.2Y-133.7
X130.75Y-96.55
X131.0Y-122.3
X131.0Y-123.3
X131.0Y-124.4
X131.0Y-125.4
X131.0Y-126.5
X131.0Y-127.5
X131.0Y-128.6
X131.0Y-129.6
X131.2Y-130.6
X131.2Y-131.6
X131.2Y-132.7
X131.2Y-133.7
X131.85Y-96.55
X132.15Y-122.3
X132.15Y-123.3
X132.15Y-124.4
X132.15Y-125.4
X132.15Y-126.5
X132.15Y-127.5
X132.15Y-128.6
X132.15Y-129.6
X132.45Y-101.55
X132.525Y-109.975
X132.85Y-96.55
X133.15Y-122.3
X133.15Y-123.3
X133.15Y-124.4
X133.15Y-125.4
X133.15Y-126.5
X133.15Y-127.5
X133.15Y-128.6
X133.15Y-129.6
X133.85Y-96.55
X134.25Y-122.3
X134.25Y-123.3
X134.25Y-124.4
X134.25Y-125.4
X134.25Y-126.4
X134.25Y-127.4
X134.25Y-128.5
X134.25Y-129.5
X135.0Y-96.55
X135.4Y-122.3
X135.4Y-123.3
X135.4Y-124.4
X135.4Y-125.4
X135.4Y-126.4
X135.4Y-128.5
X135.4Y-129.5
X135.55Y-68.3
X135.6Y-69.3
X136.1Y-96.55
X136.4Y-122.3
X136.4Y-123.3
X136.4Y-124.4
X136.4Y-125.4
X136.4Y-126.4
X136.4Y-127.4
X136.4Y-128.5
X136.4Y-129.5
X136.4Y-131.8
X136.6Y-68.3
X136.65Y-69.3
X137.1Y-96.55
X137.75Y-68.3
X137.8Y-69.3
X138.25Y-96.55
X138.65Y-68.3
X138.7Y-69.3
X138.9Y-129.5
X138.9Y-130.5
X139.4Y-96.55
X139.55Y-102.25
X139.6Y-126.6
X139.6Y-127.6
X139.7Y-68.3
X139.7Y-132.3
X139.7Y-133.3
X139.75Y-69.3
X140.05Y-129.5
X140.05Y-130.5
X140.5Y-96.55
X140.6Y-126.6
X140.6Y-127.6
X140.85Y-68.3
X140.85Y-132.3
X140.85Y-133.3
X140.9Y-69.3
X141.05Y-108.55
X141.5Y-96.55
X141.7Y-126.6
X141.7Y-127.6
X141.85Y-132.3
X141.85Y-133.3
X141.95Y-68.3
X142.0Y-69.3
X142.45Y-100.1
X142.5Y-96.55
X142.85Y-126.6
X142.85Y-127.6
X142.95Y-68.3
X143.0Y-69.3
X143.0Y-132.3
X143.0Y-133.3
X143.65Y-96.55
X143.85Y-126.6
X143.85Y-127.6
X143.95Y-68.3
X144.0Y-69.3
X144.0Y-132.3
X144.0Y-133.3
X144.75Y-96.55
X145.0Y-68.3
X145.05Y-69.3
X145.1Y-126.7
X145.1Y-127.7
X145.1Y-132.3
X145.1Y-133.3
X145.35Y-101.9
X145.35Y-103.3
X145.75Y-96.55
X146.15Y-68.3
X146.2Y-69.3
X146.25Y-132.3
X146.25Y-133.3
X146.45Y-99.45
X146.45Y-100.45
X146.75Y-96.55
X147.2Y-126.7
X147.2Y-127.7
X147.25Y-68.3
X147.25Y-132.3
X147.25Y-133.3
X147.3Y-69.3
X147.6Y-109.7
X147.8Y-107.325
X147.9Y-96.55
X148.25Y-68.3
X148.3Y-69.3
X148.35Y-126.7
X148.35Y-127.7
X148.5Y-132.3
X148.5Y-133.3
X149.0Y-96.55
X149.35Y-126.7
X149.35Y-127.7
X149.5Y-132.3
X149.5Y-133.3
X150.0Y-96.55
X150.6Y-132.3
X150.6Y-133.3
X150.7Y-126.95
X150.7Y-127.95
X150.7Y-129.1
X150.7Y-130.2
X150.7Y-131.2
X151.0Y-96.55
X151.7Y-126.95
X151.7Y-127.95
X151.7Y-129.1
X151.7Y-130.2
X151.7Y-131.2
X151.75Y-132.3
X151.75Y-133.3
X152.15Y-96.55
X152.75Y-132.3
X152.75Y-133.3
X153.25Y-96.55
X154.1Y-132.3
X154.1Y-133.3
X154.25Y-96.55
X154.7Y-127.4
X155.1Y-132.3
X155.1Y-133.3
X155.35Y-96.6
X155.7Y-126.4
X155.7Y-127.4
X156.2Y-132.3
X156.2Y-133.3
X156.5Y-96.6
X156.8Y-126.4
X156.8Y-127.4
X157.1Y-89.5
X157.1Y-90.5
X157.2Y-114.7
X157.2Y-115.7
X157.2Y-116.7
X157.35Y-132.3
X157.35Y-133.3
X157.6Y-96.6
X157.95Y-90.0
X157.95Y-126.4
X157.95Y-127.4
X158.2Y-114.7
X158.2Y-115.7
X158.2Y-116.7
X158.3Y-68.7
X158.35Y-132.3
X158.35Y-133.3
X158.6Y-96.6
X158.8Y-89.5
X158.8Y-90.5
X158.95Y-126.4
X158.95Y-127.4
X159.0Y-110.4
X159.0Y-111.4
X159.0Y-112.4
X159.3Y-68.7
X159.3Y-114.7
X159.3Y-115.7
X159.3Y-116.7
X159.6Y-96.6
X159.9Y-118.1
X159.9Y-119.1
X159.9Y-120.2
X159.9Y-121.2
X159.9Y-122.3
X159.9Y-123.3
X159.9Y-124.4
X159.9Y-125.4
X159.9Y-126.4
X159.9Y-127.4
X160.0Y-110.4
X160.0Y-111.4
X160.0Y-112.4
X160.1Y-128.55
X160.1Y-129.55
X160.1Y-130.7
X160.1Y-131.8
X160.1Y-132.8
X160.4Y-68.7
X160.45Y-114.7
X160.45Y-115.7
X160.45Y-116.7
X160.75Y-96.6
X160.9Y-118.1
X160.9Y-119.1
X160.9Y-120.2
X160.9Y-121.2
X160.9Y-122.3
X160.9Y-123.3
X160.9Y-124.4
X160.9Y-125.4
X160.9Y-126.4
X160.9Y-127.4
X161.1Y-110.4
X161.1Y-111.4
X161.1Y-112.4
X161.1Y-128.55
X161.1Y-129.55
X161.1Y-130.7
X161.1Y-131.8
X161.1Y-132.8
X161.45Y-114.7
X161.45Y-115.7
X161.45Y-116.7
X161.85Y-96.6
X162.0Y-118.1
X162.0Y-119.1
X162.0Y-123.3
X162.0Y-124.4
X162.0Y-127.4
X162.2Y-128.55
X162.2Y-129.55
X162.2Y-130.7
X162.2Y-131.8
X162.2Y-132.8
X162.4Y-102.8
X162.85Y-96.6
X163.15Y-118.1
X163.15Y-119.1
X163.15Y-123.3
X163.15Y-127.4
X163.2Y-128.55
X163.2Y-129.55
X163.2Y-130.7
X163.2Y-131.8
X163.2Y-132.8
X163.4Y-69.6
X163.4Y-70.6
X163.4Y-71.7
X163.4Y-72.85
X163.4Y-73.85
X163.6Y-102.9
X164.1Y-75.7
X164.1Y-76.7
X164.1Y-77.8
X164.1Y-78.95
X164.1Y-79.95
X164.1Y-80.95
X164.1Y-82.05
X164.15Y-118.1
X164.15Y-119.1
X164.15Y-120.2
X164.15Y-121.2
X164.15Y-122.3
X164.15Y-123.3
X164.15Y-124.4
X164.15Y-125.4
X164.15Y-126.4
X164.15Y-127.4
X164.9Y-75.0
X165.5Y-118.1
X165.5Y-119.1
X165.5Y-120.2
X165.5Y-121.2
X165.5Y-122.3
X165.5Y-123.3
X165.5Y-124.4
X165.5Y-125.4
X165.9Y-75.0
X166.5Y-118.1
X166.5Y-119.1
X166.5Y-120.2
X166.5Y-121.2
X166.5Y-122.3
X166.5Y-123.3
X166.5Y-124.4
X166.5Y-125.4
X167.0Y-75.0
X167.6Y-118.1
X167.6Y-119.1
X167.6Y-120.2
X167.6Y-121.2
X167.6Y-122.3
X167.6Y-123.3
X167.6Y-124.4
X167.6Y-125.4
X168.15Y-75.0
X168.2Y-100.0
X168.2Y-101.0
X168.2Y-102.1
X168.2Y-103.25
X168.2Y-104.25
X168.2Y-105.2
X168.2Y-106.2
X168.2Y-107.3
X168.2Y-108.45
X168.2Y-109.45
X168.75Y-118.1
X168.75Y-119.1
X168.75Y-120.2
X168.75Y-121.2
X168.75Y-122.3
X168.75Y-123.3
X168.75Y-124.4
X168.75Y-125.4
X169.15Y-75.0
X169.4Y-92.5
X169.4Y-93.5
X169.4Y-94.6
X169.4Y-95.75
X169.4Y-96.75
X169.4Y-97.75
X169.4Y-98.85
X169.4Y-100.0
X169.4Y-101.0
X169.4Y-102.1
X169.4Y-103.25
X169.4Y-104.25
X169.4Y-105.3
X169.4Y-106.3
X169.4Y-107.4
X169.4Y-108.55
X169.4Y-109.55
X169.7Y-75.9
X169.7Y-76.9
X169.7Y-78.0
X169.7Y-79.15
X169.7Y-80.15
X169.7Y-81.15
X169.7Y-82.25
X169.7Y-110.9
X169.7Y-111.9
X169.7Y-113.0
X169.7Y-114.15
X169.7Y-115.15
X169.75Y-118.1
X169.75Y-119.1
X169.75Y-120.2
X169.75Y-121.2
X169.75Y-122.3
X169.75Y-123.3
X169.75Y-124.4
X169.75Y-125.4
M30
