%TF.GenerationSoftware,KiCad,Pcbnew,8.0.4*%
%TF.CreationDate,2024-12-09T12:19:38+01:00*%
%TF.ProjectId,BLDC motor controller,424c4443-206d-46f7-946f-7220636f6e74,1.1*%
%TF.SameCoordinates,Original*%
%TF.FileFunction,Drillmap*%
%TF.FilePolarity,Positive*%
%FSLAX45Y45*%
G04 Gerber Fmt 4.5, Leading zero omitted, Abs format (unit mm)*
G04 Created by KiCad (PCBNEW 8.0.4) date 2024-12-09 12:19:38*
%MOMM*%
%LPD*%
G01*
G04 APERTURE LIST*
%ADD10C,0.100000*%
%ADD11C,0.200000*%
G04 APERTURE END LIST*
D10*
X9725000Y-6750000D02*
X16700000Y-6750000D01*
X9375000Y-7100000D02*
G75*
G02*
X9725000Y-6750000I350000J0D01*
G01*
X9375000Y-13100000D02*
X9375000Y-8750000D01*
X16700000Y-6750000D02*
G75*
G02*
X17049111Y-7124936I0J-350000D01*
G01*
X9725000Y-13450000D02*
X16700000Y-13450000D01*
X17050000Y-13100000D02*
X17050000Y-7125000D01*
X17050000Y-13100000D02*
G75*
G02*
X16700000Y-13450000I-350000J0D01*
G01*
X9725000Y-13450000D02*
G75*
G02*
X9375000Y-13100000I0J350000D01*
G01*
X9375000Y-8750000D02*
X9375000Y-7100000D01*
D11*
D10*
X9447500Y-11997500D02*
X9472500Y-12022500D01*
X9472500Y-11997500D02*
X9447500Y-12022500D01*
X9447500Y-12097500D02*
X9472500Y-12122500D01*
X9472500Y-12097500D02*
X9447500Y-12122500D01*
X9447500Y-12177500D02*
X9472500Y-12202500D01*
X9472500Y-12177500D02*
X9447500Y-12202500D01*
X9447500Y-12287500D02*
X9472500Y-12312500D01*
X9472500Y-12287500D02*
X9447500Y-12312500D01*
X9457500Y-12417500D02*
X9482500Y-12442500D01*
X9482500Y-12417500D02*
X9457500Y-12442500D01*
X9457500Y-12517500D02*
X9482500Y-12542500D01*
X9482500Y-12517500D02*
X9457500Y-12542500D01*
X9457500Y-12597500D02*
X9482500Y-12622500D01*
X9482500Y-12597500D02*
X9457500Y-12622500D01*
X9457500Y-12707500D02*
X9482500Y-12732500D01*
X9482500Y-12707500D02*
X9457500Y-12732500D01*
X9547500Y-11997500D02*
X9572500Y-12022500D01*
X9572500Y-11997500D02*
X9547500Y-12022500D01*
X9547500Y-12097500D02*
X9572500Y-12122500D01*
X9572500Y-12097500D02*
X9547500Y-12122500D01*
X9547500Y-12187500D02*
X9572500Y-12212500D01*
X9572500Y-12187500D02*
X9547500Y-12212500D01*
X9547500Y-12287500D02*
X9572500Y-12312500D01*
X9572500Y-12287500D02*
X9547500Y-12312500D01*
X9557500Y-12417500D02*
X9582500Y-12442500D01*
X9582500Y-12417500D02*
X9557500Y-12442500D01*
X9557500Y-12517500D02*
X9582500Y-12542500D01*
X9582500Y-12517500D02*
X9557500Y-12542500D01*
X9557500Y-12607500D02*
X9582500Y-12632500D01*
X9582500Y-12607500D02*
X9557500Y-12632500D01*
X9557500Y-12707500D02*
X9582500Y-12732500D01*
X9582500Y-12707500D02*
X9557500Y-12732500D01*
X9687500Y-12387500D02*
X9712500Y-12412500D01*
X9712500Y-12387500D02*
X9687500Y-12412500D01*
X9687500Y-12487500D02*
X9712500Y-12512500D01*
X9712500Y-12487500D02*
X9687500Y-12512500D01*
X9687500Y-12597500D02*
X9712500Y-12622500D01*
X9712500Y-12597500D02*
X9687500Y-12622500D01*
X9687500Y-12697500D02*
X9712500Y-12722500D01*
X9712500Y-12697500D02*
X9687500Y-12722500D01*
X9787500Y-12387500D02*
X9812500Y-12412500D01*
X9812500Y-12387500D02*
X9787500Y-12412500D01*
X9787500Y-12487500D02*
X9812500Y-12512500D01*
X9812500Y-12487500D02*
X9787500Y-12512500D01*
X9787500Y-12597500D02*
X9812500Y-12622500D01*
X9812500Y-12597500D02*
X9787500Y-12622500D01*
X9787500Y-12697500D02*
X9812500Y-12722500D01*
X9812500Y-12697500D02*
X9787500Y-12722500D01*
X9817500Y-9547500D02*
X9842500Y-9572500D01*
X9842500Y-9547500D02*
X9817500Y-9572500D01*
X9817500Y-9777500D02*
X9842500Y-9802500D01*
X9842500Y-9777500D02*
X9817500Y-9802500D01*
X9817500Y-9877500D02*
X9842500Y-9902500D01*
X9842500Y-9877500D02*
X9817500Y-9902500D01*
X9827500Y-9327500D02*
X9852500Y-9352500D01*
X9852500Y-9327500D02*
X9827500Y-9352500D01*
X9827500Y-9427500D02*
X9852500Y-9452500D01*
X9852500Y-9427500D02*
X9827500Y-9452500D01*
X9827500Y-10027500D02*
X9852500Y-10052500D01*
X9852500Y-10027500D02*
X9827500Y-10052500D01*
X9827500Y-10127500D02*
X9852500Y-10152500D01*
X9852500Y-10127500D02*
X9827500Y-10152500D01*
X9867500Y-12487500D02*
X9892500Y-12512500D01*
X9892500Y-12487500D02*
X9867500Y-12512500D01*
X9867500Y-12697500D02*
X9892500Y-12722500D01*
X9892500Y-12697500D02*
X9867500Y-12722500D01*
X9877500Y-12387500D02*
X9902500Y-12412500D01*
X9902500Y-12387500D02*
X9877500Y-12412500D01*
X9877500Y-12597500D02*
X9902500Y-12622500D01*
X9902500Y-12597500D02*
X9877500Y-12622500D01*
X9907500Y-9547500D02*
X9932500Y-9572500D01*
X9932500Y-9547500D02*
X9907500Y-9572500D01*
X9917500Y-9877500D02*
X9942500Y-9902500D01*
X9942500Y-9877500D02*
X9917500Y-9902500D01*
X9927500Y-9327500D02*
X9952500Y-9352500D01*
X9952500Y-9327500D02*
X9927500Y-9352500D01*
X9927500Y-9427500D02*
X9952500Y-9452500D01*
X9952500Y-9427500D02*
X9927500Y-9452500D01*
X9927500Y-9777500D02*
X9952500Y-9802500D01*
X9952500Y-9777500D02*
X9927500Y-9802500D01*
X9927500Y-10127500D02*
X9952500Y-10152500D01*
X9952500Y-10127500D02*
X9927500Y-10152500D01*
X9937500Y-10027500D02*
X9962500Y-10052500D01*
X9962500Y-10027500D02*
X9937500Y-10052500D01*
X9977500Y-12597500D02*
X10002500Y-12622500D01*
X10002500Y-12597500D02*
X9977500Y-12622500D01*
X9977500Y-12697500D02*
X10002500Y-12722500D01*
X10002500Y-12697500D02*
X9977500Y-12722500D01*
X10007500Y-9547500D02*
X10032500Y-9572500D01*
X10032500Y-9547500D02*
X10007500Y-9572500D01*
X10007500Y-9777500D02*
X10032500Y-9802500D01*
X10032500Y-9777500D02*
X10007500Y-9802500D01*
X10007500Y-9877500D02*
X10032500Y-9902500D01*
X10032500Y-9877500D02*
X10007500Y-9902500D01*
X10017500Y-9327500D02*
X10042500Y-9352500D01*
X10042500Y-9327500D02*
X10017500Y-9352500D01*
X10017500Y-9427500D02*
X10042500Y-9452500D01*
X10042500Y-9427500D02*
X10017500Y-9452500D01*
X10017500Y-10027500D02*
X10042500Y-10052500D01*
X10042500Y-10027500D02*
X10017500Y-10052500D01*
X10017500Y-10127500D02*
X10042500Y-10152500D01*
X10042500Y-10127500D02*
X10017500Y-10152500D01*
X10077500Y-13147500D02*
X10102500Y-13172500D01*
X10102500Y-13147500D02*
X10077500Y-13172500D01*
X10077500Y-13257500D02*
X10102500Y-13282500D01*
X10102500Y-13257500D02*
X10077500Y-13282500D01*
X10077500Y-13357500D02*
X10102500Y-13382500D01*
X10102500Y-13357500D02*
X10077500Y-13382500D01*
X10107500Y-9547500D02*
X10132500Y-9572500D01*
X10132500Y-9547500D02*
X10107500Y-9572500D01*
X10107500Y-9777500D02*
X10132500Y-9802500D01*
X10132500Y-9777500D02*
X10107500Y-9802500D01*
X10107500Y-9877500D02*
X10132500Y-9902500D01*
X10132500Y-9877500D02*
X10107500Y-9902500D01*
X10117500Y-9327500D02*
X10142500Y-9352500D01*
X10142500Y-9327500D02*
X10117500Y-9352500D01*
X10117500Y-9427500D02*
X10142500Y-9452500D01*
X10142500Y-9427500D02*
X10117500Y-9452500D01*
X10117500Y-10027500D02*
X10142500Y-10052500D01*
X10142500Y-10027500D02*
X10117500Y-10052500D01*
X10117500Y-10127500D02*
X10142500Y-10152500D01*
X10142500Y-10127500D02*
X10117500Y-10152500D01*
X10167500Y-13147500D02*
X10192500Y-13172500D01*
X10192500Y-13147500D02*
X10167500Y-13172500D01*
X10167500Y-13257500D02*
X10192500Y-13282500D01*
X10192500Y-13257500D02*
X10167500Y-13282500D01*
X10167500Y-13357500D02*
X10192500Y-13382500D01*
X10192500Y-13357500D02*
X10167500Y-13382500D01*
X10247500Y-9547500D02*
X10272500Y-9572500D01*
X10272500Y-9547500D02*
X10247500Y-9572500D01*
X10247500Y-9777500D02*
X10272500Y-9802500D01*
X10272500Y-9777500D02*
X10247500Y-9802500D01*
X10247500Y-9877500D02*
X10272500Y-9902500D01*
X10272500Y-9877500D02*
X10247500Y-9902500D01*
X10247500Y-13357500D02*
X10272500Y-13382500D01*
X10272500Y-13357500D02*
X10247500Y-13382500D01*
X10257500Y-9327500D02*
X10282500Y-9352500D01*
X10282500Y-9327500D02*
X10257500Y-9352500D01*
X10257500Y-9427500D02*
X10282500Y-9452500D01*
X10282500Y-9427500D02*
X10257500Y-9452500D01*
X10257500Y-10027500D02*
X10282500Y-10052500D01*
X10282500Y-10027500D02*
X10257500Y-10052500D01*
X10257500Y-10127500D02*
X10282500Y-10152500D01*
X10282500Y-10127500D02*
X10257500Y-10152500D01*
X10257500Y-13147500D02*
X10282500Y-13172500D01*
X10282500Y-13147500D02*
X10257500Y-13172500D01*
X10257500Y-13257500D02*
X10282500Y-13282500D01*
X10282500Y-13257500D02*
X10257500Y-13282500D01*
X10337500Y-9547500D02*
X10362500Y-9572500D01*
X10362500Y-9547500D02*
X10337500Y-9572500D01*
X10347500Y-9877500D02*
X10372500Y-9902500D01*
X10372500Y-9877500D02*
X10347500Y-9902500D01*
X10357500Y-9327500D02*
X10382500Y-9352500D01*
X10382500Y-9327500D02*
X10357500Y-9352500D01*
X10357500Y-9427500D02*
X10382500Y-9452500D01*
X10382500Y-9427500D02*
X10357500Y-9452500D01*
X10357500Y-9777500D02*
X10382500Y-9802500D01*
X10382500Y-9777500D02*
X10357500Y-9802500D01*
X10357500Y-10127500D02*
X10382500Y-10152500D01*
X10382500Y-10127500D02*
X10357500Y-10152500D01*
X10367500Y-10027500D02*
X10392500Y-10052500D01*
X10392500Y-10027500D02*
X10367500Y-10052500D01*
X10437500Y-9547500D02*
X10462500Y-9572500D01*
X10462500Y-9547500D02*
X10437500Y-9572500D01*
X10437500Y-9777500D02*
X10462500Y-9802500D01*
X10462500Y-9777500D02*
X10437500Y-9802500D01*
X10437500Y-9877500D02*
X10462500Y-9902500D01*
X10462500Y-9877500D02*
X10437500Y-9902500D01*
X10447500Y-9327500D02*
X10472500Y-9352500D01*
X10472500Y-9327500D02*
X10447500Y-9352500D01*
X10447500Y-9427500D02*
X10472500Y-9452500D01*
X10472500Y-9427500D02*
X10447500Y-9452500D01*
X10447500Y-10027500D02*
X10472500Y-10052500D01*
X10472500Y-10027500D02*
X10447500Y-10052500D01*
X10447500Y-10127500D02*
X10472500Y-10152500D01*
X10472500Y-10127500D02*
X10447500Y-10152500D01*
X10537500Y-9547500D02*
X10562500Y-9572500D01*
X10562500Y-9547500D02*
X10537500Y-9572500D01*
X10537500Y-9777500D02*
X10562500Y-9802500D01*
X10562500Y-9777500D02*
X10537500Y-9802500D01*
X10537500Y-9877500D02*
X10562500Y-9902500D01*
X10562500Y-9877500D02*
X10537500Y-9902500D01*
X10547500Y-9327500D02*
X10572500Y-9352500D01*
X10572500Y-9327500D02*
X10547500Y-9352500D01*
X10547500Y-9427500D02*
X10572500Y-9452500D01*
X10572500Y-9427500D02*
X10547500Y-9452500D01*
X10547500Y-10027500D02*
X10572500Y-10052500D01*
X10572500Y-10027500D02*
X10547500Y-10052500D01*
X11477500Y-9357500D02*
X11502500Y-9382500D01*
X11502500Y-9357500D02*
X11477500Y-9382500D01*
X11577500Y-9357500D02*
X11602500Y-9382500D01*
X11602500Y-9357500D02*
X11577500Y-9382500D01*
X11587500Y-9257500D02*
X11612500Y-9282500D01*
X11612500Y-9257500D02*
X11587500Y-9282500D01*
X11667500Y-9057500D02*
X11692500Y-9082500D01*
X11692500Y-9057500D02*
X11667500Y-9082500D01*
X11667500Y-9157500D02*
X11692500Y-9182500D01*
X11692500Y-9157500D02*
X11667500Y-9182500D01*
X11667500Y-9257500D02*
X11692500Y-9282500D01*
X11692500Y-9257500D02*
X11667500Y-9282500D01*
X11667500Y-9357500D02*
X11692500Y-9382500D01*
X11692500Y-9357500D02*
X11667500Y-9382500D01*
X11767500Y-9057500D02*
X11792500Y-9082500D01*
X11792500Y-9057500D02*
X11767500Y-9082500D01*
X11767500Y-9157500D02*
X11792500Y-9182500D01*
X11792500Y-9157500D02*
X11767500Y-9182500D01*
X11767500Y-9257500D02*
X11792500Y-9282500D01*
X11792500Y-9257500D02*
X11767500Y-9282500D01*
X11767500Y-9357500D02*
X11792500Y-9382500D01*
X11792500Y-9357500D02*
X11767500Y-9382500D01*
X11877500Y-9057500D02*
X11902500Y-9082500D01*
X11902500Y-9057500D02*
X11877500Y-9082500D01*
X11977500Y-9057500D02*
X12002500Y-9082500D01*
X12002500Y-9057500D02*
X11977500Y-9082500D01*
X12057500Y-9057500D02*
X12082500Y-9082500D01*
X12082500Y-9057500D02*
X12057500Y-9082500D01*
X12157500Y-9057500D02*
X12182500Y-9082500D01*
X12182500Y-9057500D02*
X12157500Y-9082500D01*
X13977500Y-9617500D02*
X14002500Y-9642500D01*
X14002500Y-9617500D02*
X13977500Y-9642500D01*
X13987500Y-9517500D02*
X14012500Y-9542500D01*
X14012500Y-9517500D02*
X13987500Y-9542500D01*
X14067500Y-9517500D02*
X14092500Y-9542500D01*
X14092500Y-9517500D02*
X14067500Y-9542500D01*
X14167500Y-9517500D02*
X14192500Y-9542500D01*
X14192500Y-9517500D02*
X14167500Y-9542500D01*
X14307500Y-9517500D02*
X14332500Y-9542500D01*
X14332500Y-9517500D02*
X14307500Y-9542500D01*
X14417500Y-9517500D02*
X14442500Y-9542500D01*
X14442500Y-9517500D02*
X14417500Y-9542500D01*
X14497500Y-9517500D02*
X14522500Y-9542500D01*
X14522500Y-9517500D02*
X14497500Y-9542500D01*
X14597500Y-9517500D02*
X14622500Y-9542500D01*
X14622500Y-9517500D02*
X14597500Y-9542500D01*
X15207500Y-9877500D02*
X15232500Y-9902500D01*
X15232500Y-9877500D02*
X15207500Y-9902500D01*
X15207500Y-9977500D02*
X15232500Y-10002500D01*
X15232500Y-9977500D02*
X15207500Y-10002500D01*
X15227500Y-9517500D02*
X15252500Y-9542500D01*
X15252500Y-9517500D02*
X15227500Y-9542500D01*
X15307500Y-9977500D02*
X15332500Y-10002500D01*
X15332500Y-9977500D02*
X15307500Y-10002500D01*
X15317500Y-9877500D02*
X15342500Y-9902500D01*
X15342500Y-9877500D02*
X15317500Y-9902500D01*
X15337500Y-9517500D02*
X15362500Y-9542500D01*
X15362500Y-9517500D02*
X15337500Y-9542500D01*
X15397500Y-9877500D02*
X15422500Y-9902500D01*
X15422500Y-9877500D02*
X15397500Y-9902500D01*
X15397500Y-9977500D02*
X15422500Y-10002500D01*
X15422500Y-9977500D02*
X15397500Y-10002500D01*
X15417500Y-9517500D02*
X15442500Y-9542500D01*
X15442500Y-9517500D02*
X15417500Y-9542500D01*
X15497500Y-9877500D02*
X15522500Y-9902500D01*
X15522500Y-9877500D02*
X15497500Y-9902500D01*
X15497500Y-9977500D02*
X15522500Y-10002500D01*
X15522500Y-9977500D02*
X15497500Y-10002500D01*
X15517500Y-9517500D02*
X15542500Y-9542500D01*
X15542500Y-9517500D02*
X15517500Y-9542500D01*
X15627500Y-9867500D02*
X15652500Y-9892500D01*
X15652500Y-9867500D02*
X15627500Y-9892500D01*
X15627500Y-9967500D02*
X15652500Y-9992500D01*
X15652500Y-9967500D02*
X15627500Y-9992500D01*
X15727500Y-9967500D02*
X15752500Y-9992500D01*
X15752500Y-9967500D02*
X15727500Y-9992500D01*
X15737500Y-9867500D02*
X15762500Y-9892500D01*
X15762500Y-9867500D02*
X15737500Y-9892500D01*
X15817500Y-9867500D02*
X15842500Y-9892500D01*
X15842500Y-9867500D02*
X15817500Y-9892500D01*
X15817500Y-9967500D02*
X15842500Y-9992500D01*
X15842500Y-9967500D02*
X15817500Y-9992500D01*
X15917500Y-9867500D02*
X15942500Y-9892500D01*
X15942500Y-9867500D02*
X15917500Y-9892500D01*
X15917500Y-9967500D02*
X15942500Y-9992500D01*
X15942500Y-9967500D02*
X15917500Y-9992500D01*
X16197500Y-11957500D02*
X16222500Y-11982500D01*
X16222500Y-11957500D02*
X16197500Y-11982500D01*
X16197500Y-12057500D02*
X16222500Y-12082500D01*
X16222500Y-12057500D02*
X16197500Y-12082500D01*
X16197500Y-12137500D02*
X16222500Y-12162500D01*
X16222500Y-12137500D02*
X16197500Y-12162500D01*
X16197500Y-12247500D02*
X16222500Y-12272500D01*
X16222500Y-12247500D02*
X16197500Y-12272500D01*
X16207500Y-12377500D02*
X16232500Y-12402500D01*
X16232500Y-12377500D02*
X16207500Y-12402500D01*
X16207500Y-12477500D02*
X16232500Y-12502500D01*
X16232500Y-12477500D02*
X16207500Y-12502500D01*
X16207500Y-12557500D02*
X16232500Y-12582500D01*
X16232500Y-12557500D02*
X16207500Y-12582500D01*
X16207500Y-12667500D02*
X16232500Y-12692500D01*
X16232500Y-12667500D02*
X16207500Y-12692500D01*
X16237500Y-7997500D02*
X16262500Y-8022500D01*
X16262500Y-7997500D02*
X16237500Y-8022500D01*
X16237500Y-8097500D02*
X16262500Y-8122500D01*
X16262500Y-8097500D02*
X16237500Y-8122500D01*
X16237500Y-8187500D02*
X16262500Y-8212500D01*
X16262500Y-8187500D02*
X16237500Y-8212500D01*
X16237500Y-8287500D02*
X16262500Y-8312500D01*
X16262500Y-8287500D02*
X16237500Y-8312500D01*
X16297500Y-11957500D02*
X16322500Y-11982500D01*
X16322500Y-11957500D02*
X16297500Y-11982500D01*
X16297500Y-12057500D02*
X16322500Y-12082500D01*
X16322500Y-12057500D02*
X16297500Y-12082500D01*
X16297500Y-12147500D02*
X16322500Y-12172500D01*
X16322500Y-12147500D02*
X16297500Y-12172500D01*
X16297500Y-12247500D02*
X16322500Y-12272500D01*
X16322500Y-12247500D02*
X16297500Y-12272500D01*
X16307500Y-9537500D02*
X16332500Y-9562500D01*
X16332500Y-9537500D02*
X16307500Y-9562500D01*
X16307500Y-9727500D02*
X16332500Y-9752500D01*
X16332500Y-9727500D02*
X16307500Y-9752500D01*
X16307500Y-12377500D02*
X16332500Y-12402500D01*
X16332500Y-12377500D02*
X16307500Y-12402500D01*
X16307500Y-12477500D02*
X16332500Y-12502500D01*
X16332500Y-12477500D02*
X16307500Y-12502500D01*
X16307500Y-12567500D02*
X16332500Y-12592500D01*
X16332500Y-12567500D02*
X16307500Y-12592500D01*
X16307500Y-12667500D02*
X16332500Y-12692500D01*
X16332500Y-12667500D02*
X16307500Y-12692500D01*
X16337500Y-7607500D02*
X16362500Y-7632500D01*
X16362500Y-7607500D02*
X16337500Y-7632500D01*
X16337500Y-7717500D02*
X16362500Y-7742500D01*
X16362500Y-7717500D02*
X16337500Y-7742500D01*
X16337500Y-7797500D02*
X16362500Y-7822500D01*
X16362500Y-7797500D02*
X16337500Y-7822500D01*
X16337500Y-7897500D02*
X16362500Y-7922500D01*
X16362500Y-7897500D02*
X16337500Y-7922500D01*
X16337500Y-7997500D02*
X16362500Y-8022500D01*
X16362500Y-7997500D02*
X16337500Y-8022500D01*
X16337500Y-8107500D02*
X16362500Y-8132500D01*
X16362500Y-8107500D02*
X16337500Y-8132500D01*
X16337500Y-8187500D02*
X16362500Y-8212500D01*
X16362500Y-8187500D02*
X16337500Y-8212500D01*
X16337500Y-8287500D02*
X16362500Y-8312500D01*
X16362500Y-8287500D02*
X16337500Y-8312500D01*
X16407500Y-9437500D02*
X16432500Y-9462500D01*
X16432500Y-9437500D02*
X16407500Y-9462500D01*
X16407500Y-9547500D02*
X16432500Y-9572500D01*
X16432500Y-9547500D02*
X16407500Y-9572500D01*
X16407500Y-9627500D02*
X16432500Y-9652500D01*
X16432500Y-9627500D02*
X16407500Y-9652500D01*
X16407500Y-9727500D02*
X16432500Y-9752500D01*
X16432500Y-9727500D02*
X16407500Y-9752500D01*
D11*
X9630777Y-13766484D02*
X9630777Y-13566484D01*
X9630777Y-13566484D02*
X9678396Y-13566484D01*
X9678396Y-13566484D02*
X9706967Y-13576008D01*
X9706967Y-13576008D02*
X9726015Y-13595055D01*
X9726015Y-13595055D02*
X9735539Y-13614103D01*
X9735539Y-13614103D02*
X9745063Y-13652198D01*
X9745063Y-13652198D02*
X9745063Y-13680769D01*
X9745063Y-13680769D02*
X9735539Y-13718865D01*
X9735539Y-13718865D02*
X9726015Y-13737912D01*
X9726015Y-13737912D02*
X9706967Y-13756960D01*
X9706967Y-13756960D02*
X9678396Y-13766484D01*
X9678396Y-13766484D02*
X9630777Y-13766484D01*
X9830777Y-13766484D02*
X9830777Y-13633150D01*
X9830777Y-13671246D02*
X9840301Y-13652198D01*
X9840301Y-13652198D02*
X9849824Y-13642674D01*
X9849824Y-13642674D02*
X9868872Y-13633150D01*
X9868872Y-13633150D02*
X9887920Y-13633150D01*
X9954586Y-13766484D02*
X9954586Y-13633150D01*
X9954586Y-13566484D02*
X9945063Y-13576008D01*
X9945063Y-13576008D02*
X9954586Y-13585531D01*
X9954586Y-13585531D02*
X9964110Y-13576008D01*
X9964110Y-13576008D02*
X9954586Y-13566484D01*
X9954586Y-13566484D02*
X9954586Y-13585531D01*
X10078396Y-13766484D02*
X10059348Y-13756960D01*
X10059348Y-13756960D02*
X10049824Y-13737912D01*
X10049824Y-13737912D02*
X10049824Y-13566484D01*
X10183158Y-13766484D02*
X10164110Y-13756960D01*
X10164110Y-13756960D02*
X10154586Y-13737912D01*
X10154586Y-13737912D02*
X10154586Y-13566484D01*
X10411729Y-13766484D02*
X10411729Y-13566484D01*
X10411729Y-13566484D02*
X10478396Y-13709341D01*
X10478396Y-13709341D02*
X10545063Y-13566484D01*
X10545063Y-13566484D02*
X10545063Y-13766484D01*
X10726015Y-13766484D02*
X10726015Y-13661722D01*
X10726015Y-13661722D02*
X10716491Y-13642674D01*
X10716491Y-13642674D02*
X10697444Y-13633150D01*
X10697444Y-13633150D02*
X10659348Y-13633150D01*
X10659348Y-13633150D02*
X10640301Y-13642674D01*
X10726015Y-13756960D02*
X10706967Y-13766484D01*
X10706967Y-13766484D02*
X10659348Y-13766484D01*
X10659348Y-13766484D02*
X10640301Y-13756960D01*
X10640301Y-13756960D02*
X10630777Y-13737912D01*
X10630777Y-13737912D02*
X10630777Y-13718865D01*
X10630777Y-13718865D02*
X10640301Y-13699817D01*
X10640301Y-13699817D02*
X10659348Y-13690293D01*
X10659348Y-13690293D02*
X10706967Y-13690293D01*
X10706967Y-13690293D02*
X10726015Y-13680769D01*
X10821253Y-13633150D02*
X10821253Y-13833150D01*
X10821253Y-13642674D02*
X10840301Y-13633150D01*
X10840301Y-13633150D02*
X10878396Y-13633150D01*
X10878396Y-13633150D02*
X10897444Y-13642674D01*
X10897444Y-13642674D02*
X10906967Y-13652198D01*
X10906967Y-13652198D02*
X10916491Y-13671246D01*
X10916491Y-13671246D02*
X10916491Y-13728388D01*
X10916491Y-13728388D02*
X10906967Y-13747436D01*
X10906967Y-13747436D02*
X10897444Y-13756960D01*
X10897444Y-13756960D02*
X10878396Y-13766484D01*
X10878396Y-13766484D02*
X10840301Y-13766484D01*
X10840301Y-13766484D02*
X10821253Y-13756960D01*
X11002205Y-13747436D02*
X11011729Y-13756960D01*
X11011729Y-13756960D02*
X11002205Y-13766484D01*
X11002205Y-13766484D02*
X10992682Y-13756960D01*
X10992682Y-13756960D02*
X11002205Y-13747436D01*
X11002205Y-13747436D02*
X11002205Y-13766484D01*
X11002205Y-13642674D02*
X11011729Y-13652198D01*
X11011729Y-13652198D02*
X11002205Y-13661722D01*
X11002205Y-13661722D02*
X10992682Y-13652198D01*
X10992682Y-13652198D02*
X11002205Y-13642674D01*
X11002205Y-13642674D02*
X11002205Y-13661722D01*
D10*
X9345000Y-14082500D02*
X9370000Y-14107500D01*
X9370000Y-14082500D02*
X9345000Y-14107500D01*
D11*
X9668872Y-13986484D02*
X9687920Y-13986484D01*
X9687920Y-13986484D02*
X9706967Y-13996008D01*
X9706967Y-13996008D02*
X9716491Y-14005531D01*
X9716491Y-14005531D02*
X9726015Y-14024579D01*
X9726015Y-14024579D02*
X9735539Y-14062674D01*
X9735539Y-14062674D02*
X9735539Y-14110293D01*
X9735539Y-14110293D02*
X9726015Y-14148388D01*
X9726015Y-14148388D02*
X9716491Y-14167436D01*
X9716491Y-14167436D02*
X9706967Y-14176960D01*
X9706967Y-14176960D02*
X9687920Y-14186484D01*
X9687920Y-14186484D02*
X9668872Y-14186484D01*
X9668872Y-14186484D02*
X9649824Y-14176960D01*
X9649824Y-14176960D02*
X9640301Y-14167436D01*
X9640301Y-14167436D02*
X9630777Y-14148388D01*
X9630777Y-14148388D02*
X9621253Y-14110293D01*
X9621253Y-14110293D02*
X9621253Y-14062674D01*
X9621253Y-14062674D02*
X9630777Y-14024579D01*
X9630777Y-14024579D02*
X9640301Y-14005531D01*
X9640301Y-14005531D02*
X9649824Y-13996008D01*
X9649824Y-13996008D02*
X9668872Y-13986484D01*
X9821253Y-14167436D02*
X9830777Y-14176960D01*
X9830777Y-14176960D02*
X9821253Y-14186484D01*
X9821253Y-14186484D02*
X9811729Y-14176960D01*
X9811729Y-14176960D02*
X9821253Y-14167436D01*
X9821253Y-14167436D02*
X9821253Y-14186484D01*
X9906967Y-14005531D02*
X9916491Y-13996008D01*
X9916491Y-13996008D02*
X9935539Y-13986484D01*
X9935539Y-13986484D02*
X9983158Y-13986484D01*
X9983158Y-13986484D02*
X10002205Y-13996008D01*
X10002205Y-13996008D02*
X10011729Y-14005531D01*
X10011729Y-14005531D02*
X10021253Y-14024579D01*
X10021253Y-14024579D02*
X10021253Y-14043627D01*
X10021253Y-14043627D02*
X10011729Y-14072198D01*
X10011729Y-14072198D02*
X9897444Y-14186484D01*
X9897444Y-14186484D02*
X10021253Y-14186484D01*
X10202205Y-13986484D02*
X10106967Y-13986484D01*
X10106967Y-13986484D02*
X10097444Y-14081722D01*
X10097444Y-14081722D02*
X10106967Y-14072198D01*
X10106967Y-14072198D02*
X10126015Y-14062674D01*
X10126015Y-14062674D02*
X10173634Y-14062674D01*
X10173634Y-14062674D02*
X10192682Y-14072198D01*
X10192682Y-14072198D02*
X10202205Y-14081722D01*
X10202205Y-14081722D02*
X10211729Y-14100769D01*
X10211729Y-14100769D02*
X10211729Y-14148388D01*
X10211729Y-14148388D02*
X10202205Y-14167436D01*
X10202205Y-14167436D02*
X10192682Y-14176960D01*
X10192682Y-14176960D02*
X10173634Y-14186484D01*
X10173634Y-14186484D02*
X10126015Y-14186484D01*
X10126015Y-14186484D02*
X10106967Y-14176960D01*
X10106967Y-14176960D02*
X10097444Y-14167436D01*
X10335539Y-13986484D02*
X10354586Y-13986484D01*
X10354586Y-13986484D02*
X10373634Y-13996008D01*
X10373634Y-13996008D02*
X10383158Y-14005531D01*
X10383158Y-14005531D02*
X10392682Y-14024579D01*
X10392682Y-14024579D02*
X10402205Y-14062674D01*
X10402205Y-14062674D02*
X10402205Y-14110293D01*
X10402205Y-14110293D02*
X10392682Y-14148388D01*
X10392682Y-14148388D02*
X10383158Y-14167436D01*
X10383158Y-14167436D02*
X10373634Y-14176960D01*
X10373634Y-14176960D02*
X10354586Y-14186484D01*
X10354586Y-14186484D02*
X10335539Y-14186484D01*
X10335539Y-14186484D02*
X10316491Y-14176960D01*
X10316491Y-14176960D02*
X10306967Y-14167436D01*
X10306967Y-14167436D02*
X10297444Y-14148388D01*
X10297444Y-14148388D02*
X10287920Y-14110293D01*
X10287920Y-14110293D02*
X10287920Y-14062674D01*
X10287920Y-14062674D02*
X10297444Y-14024579D01*
X10297444Y-14024579D02*
X10306967Y-14005531D01*
X10306967Y-14005531D02*
X10316491Y-13996008D01*
X10316491Y-13996008D02*
X10335539Y-13986484D01*
X10487920Y-14186484D02*
X10487920Y-14053150D01*
X10487920Y-14072198D02*
X10497444Y-14062674D01*
X10497444Y-14062674D02*
X10516491Y-14053150D01*
X10516491Y-14053150D02*
X10545063Y-14053150D01*
X10545063Y-14053150D02*
X10564110Y-14062674D01*
X10564110Y-14062674D02*
X10573634Y-14081722D01*
X10573634Y-14081722D02*
X10573634Y-14186484D01*
X10573634Y-14081722D02*
X10583158Y-14062674D01*
X10583158Y-14062674D02*
X10602205Y-14053150D01*
X10602205Y-14053150D02*
X10630777Y-14053150D01*
X10630777Y-14053150D02*
X10649825Y-14062674D01*
X10649825Y-14062674D02*
X10659348Y-14081722D01*
X10659348Y-14081722D02*
X10659348Y-14186484D01*
X10754586Y-14186484D02*
X10754586Y-14053150D01*
X10754586Y-14072198D02*
X10764110Y-14062674D01*
X10764110Y-14062674D02*
X10783158Y-14053150D01*
X10783158Y-14053150D02*
X10811729Y-14053150D01*
X10811729Y-14053150D02*
X10830777Y-14062674D01*
X10830777Y-14062674D02*
X10840301Y-14081722D01*
X10840301Y-14081722D02*
X10840301Y-14186484D01*
X10840301Y-14081722D02*
X10849825Y-14062674D01*
X10849825Y-14062674D02*
X10868872Y-14053150D01*
X10868872Y-14053150D02*
X10897444Y-14053150D01*
X10897444Y-14053150D02*
X10916491Y-14062674D01*
X10916491Y-14062674D02*
X10926015Y-14081722D01*
X10926015Y-14081722D02*
X10926015Y-14186484D01*
X11316491Y-13976960D02*
X11145063Y-14234103D01*
X11573634Y-13986484D02*
X11592682Y-13986484D01*
X11592682Y-13986484D02*
X11611729Y-13996008D01*
X11611729Y-13996008D02*
X11621253Y-14005531D01*
X11621253Y-14005531D02*
X11630777Y-14024579D01*
X11630777Y-14024579D02*
X11640301Y-14062674D01*
X11640301Y-14062674D02*
X11640301Y-14110293D01*
X11640301Y-14110293D02*
X11630777Y-14148388D01*
X11630777Y-14148388D02*
X11621253Y-14167436D01*
X11621253Y-14167436D02*
X11611729Y-14176960D01*
X11611729Y-14176960D02*
X11592682Y-14186484D01*
X11592682Y-14186484D02*
X11573634Y-14186484D01*
X11573634Y-14186484D02*
X11554586Y-14176960D01*
X11554586Y-14176960D02*
X11545063Y-14167436D01*
X11545063Y-14167436D02*
X11535539Y-14148388D01*
X11535539Y-14148388D02*
X11526015Y-14110293D01*
X11526015Y-14110293D02*
X11526015Y-14062674D01*
X11526015Y-14062674D02*
X11535539Y-14024579D01*
X11535539Y-14024579D02*
X11545063Y-14005531D01*
X11545063Y-14005531D02*
X11554586Y-13996008D01*
X11554586Y-13996008D02*
X11573634Y-13986484D01*
X11726015Y-14167436D02*
X11735539Y-14176960D01*
X11735539Y-14176960D02*
X11726015Y-14186484D01*
X11726015Y-14186484D02*
X11716491Y-14176960D01*
X11716491Y-14176960D02*
X11726015Y-14167436D01*
X11726015Y-14167436D02*
X11726015Y-14186484D01*
X11859348Y-13986484D02*
X11878396Y-13986484D01*
X11878396Y-13986484D02*
X11897444Y-13996008D01*
X11897444Y-13996008D02*
X11906967Y-14005531D01*
X11906967Y-14005531D02*
X11916491Y-14024579D01*
X11916491Y-14024579D02*
X11926015Y-14062674D01*
X11926015Y-14062674D02*
X11926015Y-14110293D01*
X11926015Y-14110293D02*
X11916491Y-14148388D01*
X11916491Y-14148388D02*
X11906967Y-14167436D01*
X11906967Y-14167436D02*
X11897444Y-14176960D01*
X11897444Y-14176960D02*
X11878396Y-14186484D01*
X11878396Y-14186484D02*
X11859348Y-14186484D01*
X11859348Y-14186484D02*
X11840301Y-14176960D01*
X11840301Y-14176960D02*
X11830777Y-14167436D01*
X11830777Y-14167436D02*
X11821253Y-14148388D01*
X11821253Y-14148388D02*
X11811729Y-14110293D01*
X11811729Y-14110293D02*
X11811729Y-14062674D01*
X11811729Y-14062674D02*
X11821253Y-14024579D01*
X11821253Y-14024579D02*
X11830777Y-14005531D01*
X11830777Y-14005531D02*
X11840301Y-13996008D01*
X11840301Y-13996008D02*
X11859348Y-13986484D01*
X12049825Y-13986484D02*
X12068872Y-13986484D01*
X12068872Y-13986484D02*
X12087920Y-13996008D01*
X12087920Y-13996008D02*
X12097444Y-14005531D01*
X12097444Y-14005531D02*
X12106967Y-14024579D01*
X12106967Y-14024579D02*
X12116491Y-14062674D01*
X12116491Y-14062674D02*
X12116491Y-14110293D01*
X12116491Y-14110293D02*
X12106967Y-14148388D01*
X12106967Y-14148388D02*
X12097444Y-14167436D01*
X12097444Y-14167436D02*
X12087920Y-14176960D01*
X12087920Y-14176960D02*
X12068872Y-14186484D01*
X12068872Y-14186484D02*
X12049825Y-14186484D01*
X12049825Y-14186484D02*
X12030777Y-14176960D01*
X12030777Y-14176960D02*
X12021253Y-14167436D01*
X12021253Y-14167436D02*
X12011729Y-14148388D01*
X12011729Y-14148388D02*
X12002206Y-14110293D01*
X12002206Y-14110293D02*
X12002206Y-14062674D01*
X12002206Y-14062674D02*
X12011729Y-14024579D01*
X12011729Y-14024579D02*
X12021253Y-14005531D01*
X12021253Y-14005531D02*
X12030777Y-13996008D01*
X12030777Y-13996008D02*
X12049825Y-13986484D01*
X12211729Y-14186484D02*
X12249825Y-14186484D01*
X12249825Y-14186484D02*
X12268872Y-14176960D01*
X12268872Y-14176960D02*
X12278396Y-14167436D01*
X12278396Y-14167436D02*
X12297444Y-14138865D01*
X12297444Y-14138865D02*
X12306967Y-14100769D01*
X12306967Y-14100769D02*
X12306967Y-14024579D01*
X12306967Y-14024579D02*
X12297444Y-14005531D01*
X12297444Y-14005531D02*
X12287920Y-13996008D01*
X12287920Y-13996008D02*
X12268872Y-13986484D01*
X12268872Y-13986484D02*
X12230777Y-13986484D01*
X12230777Y-13986484D02*
X12211729Y-13996008D01*
X12211729Y-13996008D02*
X12202206Y-14005531D01*
X12202206Y-14005531D02*
X12192682Y-14024579D01*
X12192682Y-14024579D02*
X12192682Y-14072198D01*
X12192682Y-14072198D02*
X12202206Y-14091246D01*
X12202206Y-14091246D02*
X12211729Y-14100769D01*
X12211729Y-14100769D02*
X12230777Y-14110293D01*
X12230777Y-14110293D02*
X12268872Y-14110293D01*
X12268872Y-14110293D02*
X12287920Y-14100769D01*
X12287920Y-14100769D02*
X12297444Y-14091246D01*
X12297444Y-14091246D02*
X12306967Y-14072198D01*
X12421253Y-14072198D02*
X12402206Y-14062674D01*
X12402206Y-14062674D02*
X12392682Y-14053150D01*
X12392682Y-14053150D02*
X12383158Y-14034103D01*
X12383158Y-14034103D02*
X12383158Y-14024579D01*
X12383158Y-14024579D02*
X12392682Y-14005531D01*
X12392682Y-14005531D02*
X12402206Y-13996008D01*
X12402206Y-13996008D02*
X12421253Y-13986484D01*
X12421253Y-13986484D02*
X12459348Y-13986484D01*
X12459348Y-13986484D02*
X12478396Y-13996008D01*
X12478396Y-13996008D02*
X12487920Y-14005531D01*
X12487920Y-14005531D02*
X12497444Y-14024579D01*
X12497444Y-14024579D02*
X12497444Y-14034103D01*
X12497444Y-14034103D02*
X12487920Y-14053150D01*
X12487920Y-14053150D02*
X12478396Y-14062674D01*
X12478396Y-14062674D02*
X12459348Y-14072198D01*
X12459348Y-14072198D02*
X12421253Y-14072198D01*
X12421253Y-14072198D02*
X12402206Y-14081722D01*
X12402206Y-14081722D02*
X12392682Y-14091246D01*
X12392682Y-14091246D02*
X12383158Y-14110293D01*
X12383158Y-14110293D02*
X12383158Y-14148388D01*
X12383158Y-14148388D02*
X12392682Y-14167436D01*
X12392682Y-14167436D02*
X12402206Y-14176960D01*
X12402206Y-14176960D02*
X12421253Y-14186484D01*
X12421253Y-14186484D02*
X12459348Y-14186484D01*
X12459348Y-14186484D02*
X12478396Y-14176960D01*
X12478396Y-14176960D02*
X12487920Y-14167436D01*
X12487920Y-14167436D02*
X12497444Y-14148388D01*
X12497444Y-14148388D02*
X12497444Y-14110293D01*
X12497444Y-14110293D02*
X12487920Y-14091246D01*
X12487920Y-14091246D02*
X12478396Y-14081722D01*
X12478396Y-14081722D02*
X12459348Y-14072198D01*
X12573634Y-13986484D02*
X12573634Y-14024579D01*
X12649825Y-13986484D02*
X12649825Y-14024579D01*
X12945063Y-14262674D02*
X12935539Y-14253150D01*
X12935539Y-14253150D02*
X12916491Y-14224579D01*
X12916491Y-14224579D02*
X12906968Y-14205531D01*
X12906968Y-14205531D02*
X12897444Y-14176960D01*
X12897444Y-14176960D02*
X12887920Y-14129341D01*
X12887920Y-14129341D02*
X12887920Y-14091246D01*
X12887920Y-14091246D02*
X12897444Y-14043627D01*
X12897444Y-14043627D02*
X12906968Y-14015055D01*
X12906968Y-14015055D02*
X12916491Y-13996008D01*
X12916491Y-13996008D02*
X12935539Y-13967436D01*
X12935539Y-13967436D02*
X12945063Y-13957912D01*
X13126015Y-14186484D02*
X13011729Y-14186484D01*
X13068872Y-14186484D02*
X13068872Y-13986484D01*
X13068872Y-13986484D02*
X13049825Y-14015055D01*
X13049825Y-14015055D02*
X13030777Y-14034103D01*
X13030777Y-14034103D02*
X13011729Y-14043627D01*
X13192682Y-13986484D02*
X13326015Y-13986484D01*
X13326015Y-13986484D02*
X13240301Y-14186484D01*
X13506968Y-14186484D02*
X13392682Y-14186484D01*
X13449825Y-14186484D02*
X13449825Y-13986484D01*
X13449825Y-13986484D02*
X13430777Y-14015055D01*
X13430777Y-14015055D02*
X13411729Y-14034103D01*
X13411729Y-14034103D02*
X13392682Y-14043627D01*
X13745063Y-14186484D02*
X13745063Y-13986484D01*
X13830777Y-14186484D02*
X13830777Y-14081722D01*
X13830777Y-14081722D02*
X13821253Y-14062674D01*
X13821253Y-14062674D02*
X13802206Y-14053150D01*
X13802206Y-14053150D02*
X13773634Y-14053150D01*
X13773634Y-14053150D02*
X13754587Y-14062674D01*
X13754587Y-14062674D02*
X13745063Y-14072198D01*
X13954587Y-14186484D02*
X13935539Y-14176960D01*
X13935539Y-14176960D02*
X13926015Y-14167436D01*
X13926015Y-14167436D02*
X13916491Y-14148388D01*
X13916491Y-14148388D02*
X13916491Y-14091246D01*
X13916491Y-14091246D02*
X13926015Y-14072198D01*
X13926015Y-14072198D02*
X13935539Y-14062674D01*
X13935539Y-14062674D02*
X13954587Y-14053150D01*
X13954587Y-14053150D02*
X13983158Y-14053150D01*
X13983158Y-14053150D02*
X14002206Y-14062674D01*
X14002206Y-14062674D02*
X14011730Y-14072198D01*
X14011730Y-14072198D02*
X14021253Y-14091246D01*
X14021253Y-14091246D02*
X14021253Y-14148388D01*
X14021253Y-14148388D02*
X14011730Y-14167436D01*
X14011730Y-14167436D02*
X14002206Y-14176960D01*
X14002206Y-14176960D02*
X13983158Y-14186484D01*
X13983158Y-14186484D02*
X13954587Y-14186484D01*
X14135539Y-14186484D02*
X14116491Y-14176960D01*
X14116491Y-14176960D02*
X14106968Y-14157912D01*
X14106968Y-14157912D02*
X14106968Y-13986484D01*
X14287920Y-14176960D02*
X14268872Y-14186484D01*
X14268872Y-14186484D02*
X14230777Y-14186484D01*
X14230777Y-14186484D02*
X14211730Y-14176960D01*
X14211730Y-14176960D02*
X14202206Y-14157912D01*
X14202206Y-14157912D02*
X14202206Y-14081722D01*
X14202206Y-14081722D02*
X14211730Y-14062674D01*
X14211730Y-14062674D02*
X14230777Y-14053150D01*
X14230777Y-14053150D02*
X14268872Y-14053150D01*
X14268872Y-14053150D02*
X14287920Y-14062674D01*
X14287920Y-14062674D02*
X14297444Y-14081722D01*
X14297444Y-14081722D02*
X14297444Y-14100769D01*
X14297444Y-14100769D02*
X14202206Y-14119817D01*
X14373634Y-14176960D02*
X14392682Y-14186484D01*
X14392682Y-14186484D02*
X14430777Y-14186484D01*
X14430777Y-14186484D02*
X14449825Y-14176960D01*
X14449825Y-14176960D02*
X14459349Y-14157912D01*
X14459349Y-14157912D02*
X14459349Y-14148388D01*
X14459349Y-14148388D02*
X14449825Y-14129341D01*
X14449825Y-14129341D02*
X14430777Y-14119817D01*
X14430777Y-14119817D02*
X14402206Y-14119817D01*
X14402206Y-14119817D02*
X14383158Y-14110293D01*
X14383158Y-14110293D02*
X14373634Y-14091246D01*
X14373634Y-14091246D02*
X14373634Y-14081722D01*
X14373634Y-14081722D02*
X14383158Y-14062674D01*
X14383158Y-14062674D02*
X14402206Y-14053150D01*
X14402206Y-14053150D02*
X14430777Y-14053150D01*
X14430777Y-14053150D02*
X14449825Y-14062674D01*
X14526015Y-14262674D02*
X14535539Y-14253150D01*
X14535539Y-14253150D02*
X14554587Y-14224579D01*
X14554587Y-14224579D02*
X14564111Y-14205531D01*
X14564111Y-14205531D02*
X14573634Y-14176960D01*
X14573634Y-14176960D02*
X14583158Y-14129341D01*
X14583158Y-14129341D02*
X14583158Y-14091246D01*
X14583158Y-14091246D02*
X14573634Y-14043627D01*
X14573634Y-14043627D02*
X14564111Y-14015055D01*
X14564111Y-14015055D02*
X14554587Y-13996008D01*
X14554587Y-13996008D02*
X14535539Y-13967436D01*
X14535539Y-13967436D02*
X14526015Y-13957912D01*
M02*
