M48
; DRILL file {KiCad 8.0.4} date 2024-12-09T12:19:38+0100
; FORMAT={-:-/ absolute / metric / decimal}
; #@! TF.CreationDate,2024-12-09T12:19:38+01:00
; #@! TF.GenerationSoftware,Kicad,Pcbnew,8.0.4
; #@! TF.FileFunction,Plated,1,4,Blind
FMAT,2
METRIC
; #@! TA.AperFunction,Plated,Buried,ViaDrill
T1C0.250
; #@! TA.AperFunction,Plated,Buried,ViaDrill
T2C0.300
%
G90
G05
T1
X106.0Y-87.325
X106.0Y-88.175
X122.125Y-96.875
X122.125Y-97.625
X126.837Y-93.512
X127.687Y-93.512
X129.222Y-93.397
X130.072Y-93.397
X131.5Y-87.575
X131.5Y-88.425
X144.782Y-87.518
X144.782Y-88.368
T2
X102.0Y-118.05
X102.05Y-120.7
X110.2Y-105.8
X116.2Y-108.5
X117.7Y-107.2
X119.6Y-106.7
X119.9Y-105.2
X123.5Y-109.6
X123.5Y-110.8
X123.6Y-104.8
X123.922Y-124.379
X124.0Y-106.9
X124.099Y-122.675
X124.6Y-115.6
X124.9Y-101.8
X124.9Y-106.8
X124.9Y-114.8
X125.9Y-104.9
X128.5Y-110.9
X129.2Y-112.0
X129.5Y-103.3
X130.2Y-106.0
X130.45Y-124.4
X131.0Y-102.3
X131.7Y-101.2
X132.2Y-114.0
X132.95Y-103.75
X135.8Y-111.9
X136.15Y-110.5
X137.45Y-110.65
X152.0Y-111.2
X152.0Y-112.0
X157.0Y-108.6
X157.8Y-111.2
X158.75Y-94.1
X160.75Y-94.1
M30
