M48
; DRILL file {KiCad 8.0.4} date 2024-12-09T12:19:38+0100
; FORMAT={-:-/ absolute / metric / decimal}
; #@! TF.CreationDate,2024-12-09T12:19:38+01:00
; #@! TF.GenerationSoftware,Kicad,Pcbnew,8.0.4
; #@! TF.FileFunction,Plated,1,3,Blind
FMAT,2
METRIC
; #@! TA.AperFunction,Plated,Buried,ViaDrill
T1C0.250
; #@! TA.AperFunction,Plated,Buried,ViaDrill
T2C0.300
%
G90
G05
T1
X109.05Y-108.05
X110.025Y-133.475
X114.1Y-111.5
X115.0Y-112.3
X120.5Y-115.5
X121.5Y-102.4
X121.6Y-132.0
X126.0Y-125.3
X127.57Y-132.13
X142.625Y-125.125
X150.9Y-125.3
X154.05Y-125.15
T2
X125.866Y-107.0
X129.5Y-106.5
X132.179Y-108.1
X137.45Y-127.65
X138.2Y-113.204
X138.808Y-111.526
X139.396Y-119.9
X151.55Y-109.325
X156.25Y-111.6
X157.5Y-92.0
X159.65Y-102.85
X162.7Y-111.85
X169.1Y-123.7
X169.1Y-124.75
M30
