M48
; DRILL file {KiCad 8.0.4} date 2024-12-09T12:19:38+0100
; FORMAT={-:-/ absolute / metric / decimal}
; #@! TF.CreationDate,2024-12-09T12:19:38+01:00
; #@! TF.GenerationSoftware,Kicad,Pcbnew,8.0.4
; #@! TF.FileFunction,Plated,1,5,Blind
FMAT,2
METRIC
; #@! TA.AperFunction,Plated,Buried,ViaDrill
T1C0.250
%
G90
G05
T1
X94.6Y-120.1
X94.6Y-121.1
X94.6Y-121.9
X94.6Y-123.0
X94.7Y-124.3
X94.7Y-125.3
X94.7Y-126.1
X94.7Y-127.2
X95.6Y-120.1
X95.6Y-121.1
X95.6Y-122.0
X95.6Y-123.0
X95.7Y-124.3
X95.7Y-125.3
X95.7Y-126.2
X95.7Y-127.2
X97.0Y-124.0
X97.0Y-125.0
X97.0Y-126.1
X97.0Y-127.1
X98.0Y-124.0
X98.0Y-125.0
X98.0Y-126.1
X98.0Y-127.1
X98.3Y-95.6
X98.3Y-97.9
X98.3Y-98.9
X98.4Y-93.4
X98.4Y-94.4
X98.4Y-100.4
X98.4Y-101.4
X98.8Y-125.0
X98.8Y-127.1
X98.9Y-124.0
X98.9Y-126.1
X99.2Y-95.6
X99.3Y-98.9
X99.4Y-93.4
X99.4Y-94.4
X99.4Y-97.9
X99.4Y-101.4
X99.5Y-100.4
X99.9Y-126.1
X99.9Y-127.1
X100.2Y-95.6
X100.2Y-97.9
X100.2Y-98.9
X100.3Y-93.4
X100.3Y-94.4
X100.3Y-100.4
X100.3Y-101.4
X100.9Y-131.6
X100.9Y-132.7
X100.9Y-133.7
X101.2Y-95.6
X101.2Y-97.9
X101.2Y-98.9
X101.3Y-93.4
X101.3Y-94.4
X101.3Y-100.4
X101.3Y-101.4
X101.8Y-131.6
X101.8Y-132.7
X101.8Y-133.7
X102.6Y-95.6
X102.6Y-97.9
X102.6Y-98.9
X102.6Y-133.7
X102.7Y-93.4
X102.7Y-94.4
X102.7Y-100.4
X102.7Y-101.4
X102.7Y-131.6
X102.7Y-132.7
X103.5Y-95.6
X103.6Y-98.9
X103.7Y-93.4
X103.7Y-94.4
X103.7Y-97.9
X103.7Y-101.4
X103.8Y-100.4
X104.5Y-95.6
X104.5Y-97.9
X104.5Y-98.9
X104.6Y-93.4
X104.6Y-94.4
X104.6Y-100.4
X104.6Y-101.4
X105.5Y-95.6
X105.5Y-97.9
X105.5Y-98.9
X105.6Y-93.4
X105.6Y-94.4
X105.6Y-100.4
X114.9Y-93.7
X115.9Y-93.7
X116.0Y-92.7
X116.8Y-90.7
X116.8Y-91.7
X116.8Y-92.7
X116.8Y-93.7
X117.8Y-90.7
X117.8Y-91.7
X117.8Y-92.7
X117.8Y-93.7
X118.9Y-90.7
X119.9Y-90.7
X120.7Y-90.7
X121.7Y-90.7
X139.9Y-96.3
X140.0Y-95.3
X140.8Y-95.3
X141.8Y-95.3
X143.2Y-95.3
X144.3Y-95.3
X145.1Y-95.3
X146.1Y-95.3
X152.2Y-98.9
X152.2Y-99.9
X152.4Y-95.3
X153.2Y-99.9
X153.3Y-98.9
X153.5Y-95.3
X154.1Y-98.9
X154.1Y-99.9
X154.3Y-95.3
X155.1Y-98.9
X155.1Y-99.9
X155.3Y-95.3
X156.4Y-98.8
X156.4Y-99.8
X157.4Y-99.8
X157.5Y-98.8
X158.3Y-98.8
X158.3Y-99.8
X159.3Y-98.8
X159.3Y-99.8
X162.1Y-119.7
X162.1Y-120.7
X162.1Y-121.5
X162.1Y-122.6
X162.2Y-123.9
X162.2Y-124.9
X162.2Y-125.7
X162.2Y-126.8
X162.5Y-80.1
X162.5Y-81.1
X162.5Y-82.0
X162.5Y-83.0
X163.1Y-119.7
X163.1Y-120.7
X163.1Y-121.6
X163.1Y-122.6
X163.2Y-95.5
X163.2Y-97.4
X163.2Y-123.9
X163.2Y-124.9
X163.2Y-125.8
X163.2Y-126.8
X163.5Y-76.2
X163.5Y-77.3
X163.5Y-78.1
X163.5Y-79.1
X163.5Y-80.1
X163.5Y-81.2
X163.5Y-82.0
X163.5Y-83.0
X164.2Y-94.5
X164.2Y-95.6
X164.2Y-96.4
X164.2Y-97.4
M30
