M48
; DRILL file {KiCad 8.0.4} date 2024-12-09T12:19:38+0100
; FORMAT={-:-/ absolute / metric / decimal}
; #@! TF.CreationDate,2024-12-09T12:19:38+01:00
; #@! TF.GenerationSoftware,Kicad,Pcbnew,8.0.4
; #@! TF.FileFunction,MixedPlating,1,6
FMAT,2
METRIC
; #@! TA.AperFunction,Plated,PTH,ViaDrill
T1C0.250
; #@! TA.AperFunction,Plated,PTH,ComponentDrill
T2C0.250
; #@! TA.AperFunction,Plated,PTH,ViaDrill
T3C0.300
; #@! TA.AperFunction,Plated,PTH,ComponentDrill
T4C0.500
; #@! TA.AperFunction,Plated,PTH,ComponentDrill
T5C0.600
; #@! TA.AperFunction,Plated,PTH,ComponentDrill
T6C1.500
; #@! TA.AperFunction,Plated,PTH,ComponentDrill
T7C2.700
; #@! TA.AperFunction,Plated,PTH,ComponentDrill
T8C3.000
; #@! TA.AperFunction,Plated,PTH,ComponentDrill
T9C3.200
; #@! TA.AperFunction,NonPlated,NPTH,ComponentDrill
T10C0.991
%
G90
G05
T1
X111.95Y-83.8
X111.95Y-86.9
X112.0Y-87.5
X112.6Y-83.8
X112.6Y-86.9
X112.65Y-87.5
X112.95Y-79.9
X112.95Y-80.7
X112.95Y-81.5
X113.0Y-79.2
X113.1Y-84.4
X113.1Y-84.95
X113.1Y-85.6
X113.1Y-86.2
X113.25Y-83.8
X113.3Y-86.9
X113.3Y-87.5
X113.6Y-79.9
X113.6Y-80.7
X113.6Y-81.5
X113.65Y-79.2
X113.95Y-86.9
X113.95Y-87.5
X114.0Y-83.7
X114.3Y-79.9
X114.3Y-80.7
X114.3Y-81.5
X114.35Y-79.2
X114.6Y-86.9
X114.6Y-87.5
X114.85Y-83.75
X115.0Y-79.9
X115.0Y-80.7
X115.0Y-81.5
X115.05Y-79.2
X115.25Y-84.25
X115.25Y-84.9
X115.25Y-85.55
X115.25Y-86.2
X115.25Y-86.85
X115.25Y-87.5
X115.65Y-79.9
X115.65Y-80.7
X115.65Y-81.5
X115.7Y-79.2
X116.25Y-79.9
X116.25Y-80.7
X116.25Y-81.5
X116.3Y-79.2
X116.95Y-79.9
X116.95Y-80.7
X116.95Y-81.5
X117.0Y-79.2
X117.85Y-82.35
X117.85Y-83.0
X119.95Y-83.0
X120.0Y-82.25
X120.65Y-78.95
X120.65Y-79.6
X120.65Y-80.25
X120.65Y-80.9
X120.65Y-81.65
X120.65Y-82.3
X120.65Y-82.95
X124.6Y-79.8
X124.6Y-80.6
X124.6Y-81.4
X124.65Y-79.1
X125.25Y-79.8
X125.25Y-80.6
X125.25Y-81.4
X125.25Y-83.55
X125.25Y-84.2
X125.25Y-84.85
X125.25Y-85.5
X125.25Y-86.2
X125.25Y-86.85
X125.3Y-79.1
X125.9Y-86.9
X125.95Y-79.8
X125.95Y-80.6
X125.95Y-81.4
X125.95Y-83.55
X126.0Y-79.1
X126.55Y-86.9
X126.6Y-83.55
X126.65Y-79.8
X126.65Y-80.6
X126.65Y-81.4
X126.7Y-79.1
X127.2Y-86.3
X127.2Y-86.9
X127.25Y-84.25
X127.25Y-84.9
X127.25Y-85.6
X127.3Y-79.8
X127.3Y-80.6
X127.3Y-81.4
X127.3Y-83.55
X127.35Y-79.1
X127.85Y-86.3
X127.85Y-86.9
X127.9Y-79.8
X127.9Y-80.6
X127.9Y-81.4
X127.95Y-79.1
X127.95Y-83.55
X128.5Y-86.3
X128.5Y-86.9
X128.6Y-79.8
X128.6Y-80.6
X128.6Y-81.4
X128.6Y-83.6
X128.65Y-79.1
X129.1Y-85.4
X129.15Y-84.05
X129.15Y-84.7
X129.15Y-86.25
X129.15Y-86.9
X133.25Y-132.15
X137.4Y-94.75
X151.95Y-86.9
X152.25Y-83.55
X152.5Y-79.5
X152.5Y-80.3
X152.5Y-81.1
X152.55Y-78.8
X152.6Y-86.9
X152.85Y-84.25
X152.85Y-84.9
X152.85Y-85.55
X152.85Y-86.2
X152.95Y-83.55
X153.15Y-79.5
X153.15Y-80.3
X153.15Y-81.1
X153.2Y-78.8
X153.25Y-86.9
X153.65Y-83.55
X153.85Y-79.5
X153.85Y-80.3
X153.85Y-81.1
X153.9Y-78.8
X153.9Y-86.9
X154.3Y-83.55
X154.55Y-79.5
X154.55Y-80.3
X154.55Y-81.1
X154.55Y-86.9
X154.6Y-78.8
X154.65Y-84.15
X154.65Y-84.9
X154.65Y-85.55
X154.65Y-86.2
X155.2Y-79.5
X155.2Y-80.3
X155.2Y-81.1
X155.25Y-78.8
X155.8Y-79.5
X155.8Y-80.3
X155.8Y-81.1
X155.85Y-78.8
X156.5Y-79.5
X156.5Y-80.3
X156.5Y-81.1
X156.55Y-78.8
X157.55Y-82.15
X157.55Y-82.9
T2
X106.55Y-69.14
X106.55Y-71.07
X106.55Y-71.58
X106.55Y-72.09
X106.55Y-72.6
X106.55Y-73.11
X106.55Y-75.04
X107.0Y-71.325
X107.0Y-71.835
X107.0Y-72.345
X107.0Y-72.855
X107.45Y-71.07
X107.45Y-71.58
X107.45Y-72.09
X107.45Y-72.6
X107.45Y-73.11
X108.48Y-69.14
X108.48Y-70.04
X108.48Y-74.14
X108.48Y-75.04
X108.735Y-69.59
X108.735Y-74.59
X108.99Y-69.14
X108.99Y-70.04
X108.99Y-74.14
X108.99Y-75.04
X109.245Y-69.59
X109.245Y-74.59
X109.5Y-69.14
X109.5Y-70.04
X109.5Y-74.14
X109.5Y-75.04
X109.755Y-69.59
X109.755Y-74.59
X110.01Y-69.14
X110.01Y-70.04
X110.01Y-74.14
X110.01Y-75.04
X110.265Y-69.59
X110.265Y-74.59
X110.52Y-69.14
X110.52Y-70.04
X110.52Y-74.14
X110.52Y-75.04
X111.55Y-71.07
X111.55Y-71.58
X111.55Y-72.09
X111.55Y-72.6
X111.55Y-73.11
X112.0Y-71.325
X112.0Y-71.835
X112.0Y-72.345
X112.0Y-72.855
X112.45Y-69.14
X112.45Y-71.07
X112.45Y-71.58
X112.45Y-72.09
X112.45Y-72.6
X112.45Y-73.11
X112.45Y-75.04
X128.05Y-69.15
X128.05Y-71.08
X128.05Y-71.59
X128.05Y-72.1
X128.05Y-72.61
X128.05Y-73.12
X128.05Y-75.05
X128.5Y-71.335
X128.5Y-71.845
X128.5Y-72.355
X128.5Y-72.865
X128.95Y-71.08
X128.95Y-71.59
X128.95Y-72.1
X128.95Y-72.61
X128.95Y-73.12
X129.98Y-69.15
X129.98Y-70.05
X129.98Y-74.15
X129.98Y-75.05
X130.235Y-69.6
X130.235Y-74.6
X130.49Y-69.15
X130.49Y-70.05
X130.49Y-74.15
X130.49Y-75.05
X130.745Y-69.6
X130.745Y-74.6
X131.0Y-69.15
X131.0Y-70.05
X131.0Y-74.15
X131.0Y-75.05
X131.255Y-69.6
X131.255Y-74.6
X131.51Y-69.15
X131.51Y-70.05
X131.51Y-74.15
X131.51Y-75.05
X131.765Y-69.6
X131.765Y-74.6
X132.02Y-69.15
X132.02Y-70.05
X132.02Y-74.15
X132.02Y-75.05
X133.05Y-71.08
X133.05Y-71.59
X133.05Y-72.1
X133.05Y-72.61
X133.05Y-73.12
X133.5Y-71.335
X133.5Y-71.845
X133.5Y-72.355
X133.5Y-72.865
X133.95Y-69.15
X133.95Y-71.08
X133.95Y-71.59
X133.95Y-72.1
X133.95Y-72.61
X133.95Y-73.12
X133.95Y-75.05
X150.3Y-69.13
X150.3Y-71.06
X150.3Y-71.57
X150.3Y-72.08
X150.3Y-72.59
X150.3Y-73.1
X150.3Y-75.03
X150.75Y-71.315
X150.75Y-71.825
X150.75Y-72.335
X150.75Y-72.845
X151.2Y-71.06
X151.2Y-71.57
X151.2Y-72.08
X151.2Y-72.59
X151.2Y-73.1
X152.23Y-69.13
X152.23Y-70.03
X152.23Y-74.13
X152.23Y-75.03
X152.485Y-69.58
X152.485Y-74.58
X152.74Y-69.13
X152.74Y-70.03
X152.74Y-74.13
X152.74Y-75.03
X152.995Y-69.58
X152.995Y-74.58
X153.25Y-69.13
X153.25Y-70.03
X153.25Y-74.13
X153.25Y-75.03
X153.505Y-69.58
X153.505Y-74.58
X153.76Y-69.13
X153.76Y-70.03
X153.76Y-74.13
X153.76Y-75.03
X154.015Y-69.58
X154.015Y-74.58
X154.27Y-69.13
X154.27Y-70.03
X154.27Y-74.13
X154.27Y-75.03
X155.3Y-71.06
X155.3Y-71.57
X155.3Y-72.08
X155.3Y-72.59
X155.3Y-73.1
X155.75Y-71.315
X155.75Y-71.825
X155.75Y-72.335
X155.75Y-72.845
X156.2Y-69.13
X156.2Y-71.06
X156.2Y-71.57
X156.2Y-72.08
X156.2Y-72.59
X156.2Y-73.1
X156.2Y-75.03
T3
X129.05Y-120.4
X129.55Y-118.2
X129.65Y-119.15
X129.8Y-116.35
X129.8Y-117.44
X130.165Y-115.115
X131.8Y-115.35
X132.8Y-115.4
X138.45Y-123.25
X138.511Y-122.252
X140.35Y-120.95
X140.45Y-116.6
X143.55Y-120.9
X146.7Y-120.95
X149.95Y-121.05
X155.75Y-120.75
X157.35Y-120.8
T4
X95.0Y-71.0
X95.0Y-130.9
X95.659Y-69.409
X95.659Y-72.591
X95.659Y-129.309
X95.659Y-132.491
X97.25Y-68.75
X97.25Y-73.25
X97.25Y-128.65
X97.25Y-133.15
X98.6Y-106.625
X98.6Y-107.875
X98.6Y-118.75
X98.6Y-120.0
X98.6Y-121.25
X98.65Y-112.05
X98.65Y-113.3
X98.65Y-114.55
X98.841Y-69.409
X98.841Y-72.591
X98.841Y-129.309
X98.841Y-132.491
X99.5Y-71.0
X99.5Y-130.9
X142.0Y-129.75
X143.25Y-129.75
X144.5Y-129.75
X145.75Y-129.75
X147.0Y-129.75
X148.25Y-129.75
X149.5Y-129.75
X153.75Y-129.75
X155.0Y-129.75
X156.25Y-129.75
X157.5Y-129.75
X158.75Y-129.75
X164.75Y-71.25
X164.75Y-131.0
X165.3Y-101.275
X165.3Y-102.525
X165.3Y-103.775
X165.3Y-108.025
X165.3Y-109.275
X165.3Y-110.525
X165.3Y-114.875
X165.3Y-116.125
X165.409Y-69.659
X165.409Y-72.841
X165.409Y-129.409
X165.409Y-132.591
X167.0Y-69.0
X167.0Y-73.5
X167.0Y-128.75
X167.0Y-133.25
X168.591Y-69.659
X168.591Y-72.841
X168.591Y-129.409
X168.591Y-132.591
X169.25Y-71.25
X169.25Y-131.0
T6
X107.35Y-69.94
X107.35Y-74.24
X111.65Y-69.94
X111.65Y-74.24
X128.85Y-69.95
X128.85Y-74.25
X133.15Y-69.95
X133.15Y-74.25
X151.1Y-69.93
X151.1Y-74.23
X155.4Y-69.93
X155.4Y-74.23
T7
X96.75Y-78.95
X96.75Y-86.15
X166.905Y-79.525
X166.905Y-86.725
T8
X97.25Y-71.0
X97.25Y-130.9
X167.0Y-71.25
X167.0Y-131.0
T9
X109.5Y-72.09
X131.0Y-72.1
X153.25Y-72.08
T10
X132.54Y-130.915
X137.62Y-129.899
X137.62Y-131.931
T5
G00X91.3Y-75.8
M15
G01X90.2Y-75.8
M16
G05
G00X91.3Y-89.3
M15
G01X90.2Y-89.3
M16
G05
G00X172.355Y-76.375
M15
G01X173.455Y-76.375
M16
G05
G00X172.355Y-89.875
M15
G01X173.455Y-89.875
M16
G05
M30
