M48
; DRILL file {KiCad 8.0.4} date 2024-12-09T12:19:05+0100
; FORMAT={-:-/ absolute / metric / decimal}
; #@! TF.CreationDate,2024-12-09T12:19:05+01:00
; #@! TF.GenerationSoftware,Kicad,Pcbnew,8.0.4
; #@! TF.FileFunction,Plated,1,2,Blind
FMAT,2
METRIC
; #@! TA.AperFunction,Plated,Buried,ViaDrill
T1C0.250
%
G90
G05
T1
X94.6Y-76.0
X94.7Y-75.0
X95.5Y-75.0
X95.5Y-76.0
X96.5Y-75.0
X96.5Y-76.0
X97.5Y-75.0
X97.5Y-76.0
X101.4Y-89.7
X101.4Y-90.5
X101.4Y-91.3
X102.05Y-125.75
X102.2Y-89.7
X102.2Y-90.5
X102.2Y-91.3
X103.0Y-89.5
X103.45Y-107.8
X103.9Y-108.35
X104.3Y-89.5
X104.35Y-107.8
X104.95Y-108.35
X105.1Y-89.5
X105.15Y-113.3
X105.8Y-108.35
X105.85Y-126.2
X105.9Y-89.5
X106.5Y-110.5
X106.5Y-111.5
X106.5Y-112.5
X106.5Y-113.5
X106.5Y-114.5
X106.5Y-115.5
X106.75Y-108.35
X107.3Y-97.2
X107.3Y-98.2
X107.4Y-99.7
X107.4Y-100.7
X107.5Y-111.5
X107.5Y-113.5
X107.5Y-115.5
X107.55Y-108.35
X107.6Y-110.5
X107.6Y-112.5
X107.6Y-114.5
X107.65Y-87.85
X108.3Y-98.2
X108.4Y-97.2
X108.4Y-100.7
X108.4Y-110.5
X108.4Y-111.5
X108.4Y-112.5
X108.4Y-113.5
X108.4Y-114.5
X108.4Y-115.5
X108.45Y-133.4
X108.5Y-99.7
X109.2Y-97.2
X109.2Y-98.2
X109.3Y-99.7
X109.3Y-100.7
X109.4Y-110.5
X109.4Y-111.5
X109.4Y-112.5
X109.4Y-113.5
X109.4Y-114.5
X109.4Y-115.5
X110.2Y-97.2
X110.2Y-98.2
X110.3Y-99.7
X110.3Y-100.7
X111.5Y-97.2
X111.5Y-98.2
X111.6Y-99.7
X111.6Y-100.7
X112.5Y-98.2
X112.6Y-97.2
X112.6Y-100.7
X112.7Y-99.7
X113.4Y-97.2
X113.4Y-98.2
X113.45Y-123.65
X113.5Y-99.7
X113.5Y-100.7
X114.4Y-97.2
X114.4Y-98.2
X114.5Y-99.7
X114.5Y-100.7
X115.696Y-109.2
X116.7Y-128.9
X116.8Y-87.6
X117.0Y-114.0
X117.5Y-87.6
X117.8Y-114.4
X118.3Y-84.1
X118.3Y-84.8
X118.3Y-85.5
X118.3Y-86.2
X118.3Y-86.9
X118.3Y-87.6
X118.5Y-118.9
X118.977Y-133.273
X119.0Y-84.1
X119.0Y-84.8
X119.0Y-85.5
X119.0Y-86.2
X119.0Y-86.9
X119.0Y-87.6
X119.8Y-84.1
X119.8Y-84.8
X119.8Y-85.5
X119.8Y-86.2
X119.8Y-86.9
X119.8Y-87.6
X120.1Y-120.3
X120.6Y-84.1
X120.6Y-84.8
X120.6Y-85.5
X120.6Y-86.2
X120.6Y-86.9
X120.6Y-87.6
X121.5Y-121.8
X122.3Y-87.6
X122.4Y-110.6
X122.7Y-103.4
X122.8Y-111.2
X122.95Y-128.9
X123.1Y-87.6
X123.2Y-133.347
X123.8Y-87.6
X125.311Y-124.511
X126.2Y-98.1
X126.9Y-97.6
X126.9Y-98.8
X127.6Y-98.3
X127.6Y-99.5
X127.7Y-96.9
X128.2Y-96.3
X128.3Y-99.0
X128.4Y-97.6
X128.4Y-100.2
X128.6Y-88.5
X128.9Y-97.0
X129.1Y-98.3
X129.1Y-99.7
X129.6Y-97.7
X129.9Y-99.0
X130.4Y-98.4
X131.4Y-107.5
X133.321Y-102.6
X133.75Y-94.5
X133.9Y-89.2
X134.6Y-89.2
X134.8Y-101.2
X135.1Y-125.75
X135.4Y-89.2
X136.2Y-89.2
X136.2Y-90.0
X136.35Y-132.3
X137.55Y-126.1
X138.3Y-121.0
X138.8Y-132.8
X138.8Y-133.8
X139.2Y-114.4
X139.8Y-133.8
X139.9Y-97.5
X139.9Y-98.5
X139.9Y-132.8
X140.0Y-100.0
X140.0Y-101.0
X140.1Y-102.1
X140.1Y-103.1
X140.2Y-104.6
X140.2Y-105.6
X140.35Y-124.35
X140.7Y-132.8
X140.7Y-133.8
X140.9Y-98.5
X141.0Y-97.5
X141.0Y-101.0
X141.075Y-125.225
X141.1Y-100.0
X141.1Y-103.1
X141.2Y-102.1
X141.2Y-105.6
X141.3Y-104.6
X141.7Y-132.8
X141.7Y-133.8
X141.8Y-97.5
X141.8Y-98.5
X141.9Y-100.0
X141.9Y-101.0
X142.0Y-102.1
X142.0Y-103.1
X142.1Y-89.4
X142.1Y-104.6
X142.1Y-105.6
X142.8Y-89.4
X142.8Y-97.5
X142.8Y-98.5
X142.9Y-100.0
X142.9Y-101.0
X142.9Y-132.7
X142.9Y-133.7
X143.0Y-102.1
X143.0Y-103.1
X143.1Y-104.6
X143.1Y-105.6
X143.6Y-89.4
X143.633Y-113.4
X143.9Y-133.7
X144.0Y-97.4
X144.0Y-98.4
X144.0Y-132.7
X144.1Y-99.9
X144.1Y-100.9
X144.2Y-102.0
X144.2Y-103.0
X144.3Y-89.4
X144.3Y-104.5
X144.3Y-105.5
X144.8Y-132.7
X144.8Y-133.7
X145.0Y-98.4
X145.1Y-89.4
X145.1Y-97.4
X145.1Y-100.9
X145.2Y-99.9
X145.2Y-103.0
X145.3Y-102.0
X145.3Y-105.5
X145.4Y-104.5
X145.8Y-132.7
X145.8Y-133.7
X145.85Y-125.5
X145.9Y-89.4
X145.9Y-90.2
X145.9Y-97.4
X145.9Y-98.4
X145.95Y-124.25
X146.0Y-99.9
X146.0Y-100.9
X146.1Y-102.0
X146.1Y-103.0
X146.2Y-104.5
X146.2Y-105.5
X146.75Y-87.85
X146.8Y-133.6
X146.9Y-97.4
X146.9Y-98.4
X147.0Y-99.9
X147.0Y-100.9
X147.1Y-102.0
X147.1Y-103.0
X147.2Y-104.5
X147.2Y-105.5
X147.8Y-133.6
X147.9Y-97.3
X147.9Y-98.3
X148.0Y-99.8
X148.0Y-100.8
X148.1Y-101.9
X148.1Y-102.9
X148.2Y-104.4
X148.2Y-105.4
X148.7Y-132.6
X148.7Y-133.6
X148.9Y-98.3
X149.0Y-97.3
X149.0Y-100.8
X149.1Y-99.8
X149.1Y-102.9
X149.2Y-101.9
X149.2Y-105.4
X149.3Y-104.4
X149.35Y-125.25
X149.8Y-97.3
X149.8Y-98.3
X149.9Y-99.8
X149.9Y-100.8
X150.0Y-101.9
X150.0Y-102.9
X150.1Y-104.4
X150.1Y-105.4
X150.1Y-132.6
X150.1Y-133.6
X150.8Y-97.3
X150.8Y-98.3
X150.9Y-99.8
X150.9Y-100.8
X151.0Y-101.9
X151.0Y-102.9
X151.1Y-133.6
X151.2Y-132.6
X151.5Y-108.2
X151.55Y-124.35
X152.0Y-132.6
X152.0Y-133.6
X152.475Y-125.125
X153.0Y-132.6
X153.0Y-133.6
X154.2Y-133.5
X155.175Y-116.175
X155.2Y-133.5
X155.6Y-87.3
X155.6Y-88.1
X155.6Y-88.8
X155.6Y-89.6
X156.1Y-133.5
X156.4Y-87.3
X156.4Y-88.1
X156.4Y-88.8
X156.4Y-89.6
X156.65Y-126.6
X157.1Y-133.5
X157.9Y-84.3
X157.9Y-85.1
X157.9Y-85.8
X157.9Y-86.6
X158.1Y-113.7
X158.1Y-133.4
X159.1Y-113.1
X159.1Y-133.4
X159.3Y-101.45
X159.45Y-111.45
X159.45Y-112.2
X159.85Y-113.1
X160.0Y-133.4
X160.3Y-111.45
X160.3Y-112.2
X160.7Y-113.1
X160.8Y-133.4
X161.15Y-111.45
X161.15Y-112.2
X161.15Y-118.5
X161.2Y-102.8
X161.8Y-133.3
X162.75Y-105.45
X162.8Y-133.3
X162.9Y-117.85
X163.25Y-89.5
X163.25Y-90.2
X163.25Y-91.0
X163.7Y-133.3
X164.05Y-89.45
X164.05Y-90.15
X164.05Y-90.95
X164.5Y-121.75
X164.5Y-122.75
X164.5Y-123.75
X164.5Y-124.75
M30
