%TF.GenerationSoftware,KiCad,Pcbnew,8.0.4*%
%TF.CreationDate,2024-12-09T12:19:06+01:00*%
%TF.ProjectId,BLDC motor controller,424c4443-206d-46f7-946f-7220636f6e74,1.1*%
%TF.SameCoordinates,Original*%
%TF.FileFunction,Drillmap*%
%TF.FilePolarity,Positive*%
%FSLAX45Y45*%
G04 Gerber Fmt 4.5, Leading zero omitted, Abs format (unit mm)*
G04 Created by KiCad (PCBNEW 8.0.4) date 2024-12-09 12:19:06*
%MOMM*%
%LPD*%
G01*
G04 APERTURE LIST*
%ADD10C,0.100000*%
%ADD11C,0.200000*%
G04 APERTURE END LIST*
D10*
X9725000Y-6750000D02*
X16700000Y-6750000D01*
X9375000Y-7100000D02*
G75*
G02*
X9725000Y-6750000I350000J0D01*
G01*
X9375000Y-13100000D02*
X9375000Y-8750000D01*
X16700000Y-6750000D02*
G75*
G02*
X17049111Y-7124936I0J-350000D01*
G01*
X9725000Y-13450000D02*
X16700000Y-13450000D01*
X17050000Y-13100000D02*
X17050000Y-7125000D01*
X17050000Y-13100000D02*
G75*
G02*
X16700000Y-13450000I-350000J0D01*
G01*
X9725000Y-13450000D02*
G75*
G02*
X9375000Y-13100000I0J350000D01*
G01*
X9375000Y-8750000D02*
X9375000Y-7100000D01*
D11*
D10*
X10587500Y-8720000D02*
X10612500Y-8745000D01*
X10612500Y-8720000D02*
X10587500Y-8745000D01*
X10587500Y-8805000D02*
X10612500Y-8830000D01*
X10612500Y-8805000D02*
X10587500Y-8830000D01*
X12200000Y-9675000D02*
X12225000Y-9700000D01*
X12225000Y-9675000D02*
X12200000Y-9700000D01*
X12200000Y-9750000D02*
X12225000Y-9775000D01*
X12225000Y-9750000D02*
X12200000Y-9775000D01*
X12671151Y-9338651D02*
X12696151Y-9363651D01*
X12696151Y-9338651D02*
X12671151Y-9363651D01*
X12756151Y-9338651D02*
X12781151Y-9363651D01*
X12781151Y-9338651D02*
X12756151Y-9363651D01*
X12909670Y-9327170D02*
X12934670Y-9352170D01*
X12934670Y-9327170D02*
X12909670Y-9352170D01*
X12994670Y-9327170D02*
X13019670Y-9352170D01*
X13019670Y-9327170D02*
X12994670Y-9352170D01*
X13137500Y-8745000D02*
X13162500Y-8770000D01*
X13162500Y-8745000D02*
X13137500Y-8770000D01*
X13137500Y-8830000D02*
X13162500Y-8855000D01*
X13162500Y-8830000D02*
X13137500Y-8855000D01*
X14465701Y-8739259D02*
X14490701Y-8764259D01*
X14490701Y-8739259D02*
X14465701Y-8764259D01*
X14465701Y-8824259D02*
X14490701Y-8849259D01*
X14490701Y-8824259D02*
X14465701Y-8849259D01*
X10215000Y-11805000D02*
G75*
G02*
X10185000Y-11805000I-15000J0D01*
G01*
X10185000Y-11805000D02*
G75*
G02*
X10215000Y-11805000I15000J0D01*
G01*
X10220000Y-12070000D02*
G75*
G02*
X10190000Y-12070000I-15000J0D01*
G01*
X10190000Y-12070000D02*
G75*
G02*
X10220000Y-12070000I15000J0D01*
G01*
X11035000Y-10580000D02*
G75*
G02*
X11005000Y-10580000I-15000J0D01*
G01*
X11005000Y-10580000D02*
G75*
G02*
X11035000Y-10580000I15000J0D01*
G01*
X11635000Y-10850000D02*
G75*
G02*
X11605000Y-10850000I-15000J0D01*
G01*
X11605000Y-10850000D02*
G75*
G02*
X11635000Y-10850000I15000J0D01*
G01*
X11785000Y-10720000D02*
G75*
G02*
X11755000Y-10720000I-15000J0D01*
G01*
X11755000Y-10720000D02*
G75*
G02*
X11785000Y-10720000I15000J0D01*
G01*
X11975000Y-10670000D02*
G75*
G02*
X11945000Y-10670000I-15000J0D01*
G01*
X11945000Y-10670000D02*
G75*
G02*
X11975000Y-10670000I15000J0D01*
G01*
X12005000Y-10520000D02*
G75*
G02*
X11975000Y-10520000I-15000J0D01*
G01*
X11975000Y-10520000D02*
G75*
G02*
X12005000Y-10520000I15000J0D01*
G01*
X12365000Y-10960000D02*
G75*
G02*
X12335000Y-10960000I-15000J0D01*
G01*
X12335000Y-10960000D02*
G75*
G02*
X12365000Y-10960000I15000J0D01*
G01*
X12365000Y-11080000D02*
G75*
G02*
X12335000Y-11080000I-15000J0D01*
G01*
X12335000Y-11080000D02*
G75*
G02*
X12365000Y-11080000I15000J0D01*
G01*
X12375000Y-10480000D02*
G75*
G02*
X12345000Y-10480000I-15000J0D01*
G01*
X12345000Y-10480000D02*
G75*
G02*
X12375000Y-10480000I15000J0D01*
G01*
X12407233Y-12437871D02*
G75*
G02*
X12377233Y-12437871I-15000J0D01*
G01*
X12377233Y-12437871D02*
G75*
G02*
X12407233Y-12437871I15000J0D01*
G01*
X12415000Y-10690000D02*
G75*
G02*
X12385000Y-10690000I-15000J0D01*
G01*
X12385000Y-10690000D02*
G75*
G02*
X12415000Y-10690000I15000J0D01*
G01*
X12424903Y-12267505D02*
G75*
G02*
X12394903Y-12267505I-15000J0D01*
G01*
X12394903Y-12267505D02*
G75*
G02*
X12424903Y-12267505I15000J0D01*
G01*
X12475000Y-11560000D02*
G75*
G02*
X12445000Y-11560000I-15000J0D01*
G01*
X12445000Y-11560000D02*
G75*
G02*
X12475000Y-11560000I15000J0D01*
G01*
X12505000Y-10180000D02*
G75*
G02*
X12475000Y-10180000I-15000J0D01*
G01*
X12475000Y-10180000D02*
G75*
G02*
X12505000Y-10180000I15000J0D01*
G01*
X12505000Y-10680000D02*
G75*
G02*
X12475000Y-10680000I-15000J0D01*
G01*
X12475000Y-10680000D02*
G75*
G02*
X12505000Y-10680000I15000J0D01*
G01*
X12505000Y-11480000D02*
G75*
G02*
X12475000Y-11480000I-15000J0D01*
G01*
X12475000Y-11480000D02*
G75*
G02*
X12505000Y-11480000I15000J0D01*
G01*
X12605000Y-10490000D02*
G75*
G02*
X12575000Y-10490000I-15000J0D01*
G01*
X12575000Y-10490000D02*
G75*
G02*
X12605000Y-10490000I15000J0D01*
G01*
X12865000Y-11090000D02*
G75*
G02*
X12835000Y-11090000I-15000J0D01*
G01*
X12835000Y-11090000D02*
G75*
G02*
X12865000Y-11090000I15000J0D01*
G01*
X12935000Y-11200000D02*
G75*
G02*
X12905000Y-11200000I-15000J0D01*
G01*
X12905000Y-11200000D02*
G75*
G02*
X12935000Y-11200000I15000J0D01*
G01*
X12965000Y-10330000D02*
G75*
G02*
X12935000Y-10330000I-15000J0D01*
G01*
X12935000Y-10330000D02*
G75*
G02*
X12965000Y-10330000I15000J0D01*
G01*
X13035000Y-10600000D02*
G75*
G02*
X13005000Y-10600000I-15000J0D01*
G01*
X13005000Y-10600000D02*
G75*
G02*
X13035000Y-10600000I15000J0D01*
G01*
X13060000Y-12440000D02*
G75*
G02*
X13030000Y-12440000I-15000J0D01*
G01*
X13030000Y-12440000D02*
G75*
G02*
X13060000Y-12440000I15000J0D01*
G01*
X13115000Y-10230000D02*
G75*
G02*
X13085000Y-10230000I-15000J0D01*
G01*
X13085000Y-10230000D02*
G75*
G02*
X13115000Y-10230000I15000J0D01*
G01*
X13185000Y-10120000D02*
G75*
G02*
X13155000Y-10120000I-15000J0D01*
G01*
X13155000Y-10120000D02*
G75*
G02*
X13185000Y-10120000I15000J0D01*
G01*
X13235000Y-11400000D02*
G75*
G02*
X13205000Y-11400000I-15000J0D01*
G01*
X13205000Y-11400000D02*
G75*
G02*
X13235000Y-11400000I15000J0D01*
G01*
X13310000Y-10375000D02*
G75*
G02*
X13280000Y-10375000I-15000J0D01*
G01*
X13280000Y-10375000D02*
G75*
G02*
X13310000Y-10375000I15000J0D01*
G01*
X13595000Y-11190000D02*
G75*
G02*
X13565000Y-11190000I-15000J0D01*
G01*
X13565000Y-11190000D02*
G75*
G02*
X13595000Y-11190000I15000J0D01*
G01*
X13630000Y-11050000D02*
G75*
G02*
X13600000Y-11050000I-15000J0D01*
G01*
X13600000Y-11050000D02*
G75*
G02*
X13630000Y-11050000I15000J0D01*
G01*
X13760000Y-11065000D02*
G75*
G02*
X13730000Y-11065000I-15000J0D01*
G01*
X13730000Y-11065000D02*
G75*
G02*
X13760000Y-11065000I15000J0D01*
G01*
X15215000Y-11120000D02*
G75*
G02*
X15185000Y-11120000I-15000J0D01*
G01*
X15185000Y-11120000D02*
G75*
G02*
X15215000Y-11120000I15000J0D01*
G01*
X15215000Y-11200000D02*
G75*
G02*
X15185000Y-11200000I-15000J0D01*
G01*
X15185000Y-11200000D02*
G75*
G02*
X15215000Y-11200000I15000J0D01*
G01*
X15715000Y-10860000D02*
G75*
G02*
X15685000Y-10860000I-15000J0D01*
G01*
X15685000Y-10860000D02*
G75*
G02*
X15715000Y-10860000I15000J0D01*
G01*
X15795000Y-11120000D02*
G75*
G02*
X15765000Y-11120000I-15000J0D01*
G01*
X15765000Y-11120000D02*
G75*
G02*
X15795000Y-11120000I15000J0D01*
G01*
X15890000Y-9410000D02*
G75*
G02*
X15860000Y-9410000I-15000J0D01*
G01*
X15860000Y-9410000D02*
G75*
G02*
X15890000Y-9410000I15000J0D01*
G01*
X16090000Y-9410000D02*
G75*
G02*
X16060000Y-9410000I-15000J0D01*
G01*
X16060000Y-9410000D02*
G75*
G02*
X16090000Y-9410000I15000J0D01*
G01*
D11*
X9630777Y-13766484D02*
X9630777Y-13566484D01*
X9630777Y-13566484D02*
X9678396Y-13566484D01*
X9678396Y-13566484D02*
X9706967Y-13576008D01*
X9706967Y-13576008D02*
X9726015Y-13595055D01*
X9726015Y-13595055D02*
X9735539Y-13614103D01*
X9735539Y-13614103D02*
X9745063Y-13652198D01*
X9745063Y-13652198D02*
X9745063Y-13680769D01*
X9745063Y-13680769D02*
X9735539Y-13718865D01*
X9735539Y-13718865D02*
X9726015Y-13737912D01*
X9726015Y-13737912D02*
X9706967Y-13756960D01*
X9706967Y-13756960D02*
X9678396Y-13766484D01*
X9678396Y-13766484D02*
X9630777Y-13766484D01*
X9830777Y-13766484D02*
X9830777Y-13633150D01*
X9830777Y-13671246D02*
X9840301Y-13652198D01*
X9840301Y-13652198D02*
X9849824Y-13642674D01*
X9849824Y-13642674D02*
X9868872Y-13633150D01*
X9868872Y-13633150D02*
X9887920Y-13633150D01*
X9954586Y-13766484D02*
X9954586Y-13633150D01*
X9954586Y-13566484D02*
X9945063Y-13576008D01*
X9945063Y-13576008D02*
X9954586Y-13585531D01*
X9954586Y-13585531D02*
X9964110Y-13576008D01*
X9964110Y-13576008D02*
X9954586Y-13566484D01*
X9954586Y-13566484D02*
X9954586Y-13585531D01*
X10078396Y-13766484D02*
X10059348Y-13756960D01*
X10059348Y-13756960D02*
X10049824Y-13737912D01*
X10049824Y-13737912D02*
X10049824Y-13566484D01*
X10183158Y-13766484D02*
X10164110Y-13756960D01*
X10164110Y-13756960D02*
X10154586Y-13737912D01*
X10154586Y-13737912D02*
X10154586Y-13566484D01*
X10411729Y-13766484D02*
X10411729Y-13566484D01*
X10411729Y-13566484D02*
X10478396Y-13709341D01*
X10478396Y-13709341D02*
X10545063Y-13566484D01*
X10545063Y-13566484D02*
X10545063Y-13766484D01*
X10726015Y-13766484D02*
X10726015Y-13661722D01*
X10726015Y-13661722D02*
X10716491Y-13642674D01*
X10716491Y-13642674D02*
X10697444Y-13633150D01*
X10697444Y-13633150D02*
X10659348Y-13633150D01*
X10659348Y-13633150D02*
X10640301Y-13642674D01*
X10726015Y-13756960D02*
X10706967Y-13766484D01*
X10706967Y-13766484D02*
X10659348Y-13766484D01*
X10659348Y-13766484D02*
X10640301Y-13756960D01*
X10640301Y-13756960D02*
X10630777Y-13737912D01*
X10630777Y-13737912D02*
X10630777Y-13718865D01*
X10630777Y-13718865D02*
X10640301Y-13699817D01*
X10640301Y-13699817D02*
X10659348Y-13690293D01*
X10659348Y-13690293D02*
X10706967Y-13690293D01*
X10706967Y-13690293D02*
X10726015Y-13680769D01*
X10821253Y-13633150D02*
X10821253Y-13833150D01*
X10821253Y-13642674D02*
X10840301Y-13633150D01*
X10840301Y-13633150D02*
X10878396Y-13633150D01*
X10878396Y-13633150D02*
X10897444Y-13642674D01*
X10897444Y-13642674D02*
X10906967Y-13652198D01*
X10906967Y-13652198D02*
X10916491Y-13671246D01*
X10916491Y-13671246D02*
X10916491Y-13728388D01*
X10916491Y-13728388D02*
X10906967Y-13747436D01*
X10906967Y-13747436D02*
X10897444Y-13756960D01*
X10897444Y-13756960D02*
X10878396Y-13766484D01*
X10878396Y-13766484D02*
X10840301Y-13766484D01*
X10840301Y-13766484D02*
X10821253Y-13756960D01*
X11002205Y-13747436D02*
X11011729Y-13756960D01*
X11011729Y-13756960D02*
X11002205Y-13766484D01*
X11002205Y-13766484D02*
X10992682Y-13756960D01*
X10992682Y-13756960D02*
X11002205Y-13747436D01*
X11002205Y-13747436D02*
X11002205Y-13766484D01*
X11002205Y-13642674D02*
X11011729Y-13652198D01*
X11011729Y-13652198D02*
X11002205Y-13661722D01*
X11002205Y-13661722D02*
X10992682Y-13652198D01*
X10992682Y-13652198D02*
X11002205Y-13642674D01*
X11002205Y-13642674D02*
X11002205Y-13661722D01*
D10*
X9345000Y-14082500D02*
X9370000Y-14107500D01*
X9370000Y-14082500D02*
X9345000Y-14107500D01*
D11*
X9668872Y-13986484D02*
X9687920Y-13986484D01*
X9687920Y-13986484D02*
X9706967Y-13996008D01*
X9706967Y-13996008D02*
X9716491Y-14005531D01*
X9716491Y-14005531D02*
X9726015Y-14024579D01*
X9726015Y-14024579D02*
X9735539Y-14062674D01*
X9735539Y-14062674D02*
X9735539Y-14110293D01*
X9735539Y-14110293D02*
X9726015Y-14148388D01*
X9726015Y-14148388D02*
X9716491Y-14167436D01*
X9716491Y-14167436D02*
X9706967Y-14176960D01*
X9706967Y-14176960D02*
X9687920Y-14186484D01*
X9687920Y-14186484D02*
X9668872Y-14186484D01*
X9668872Y-14186484D02*
X9649824Y-14176960D01*
X9649824Y-14176960D02*
X9640301Y-14167436D01*
X9640301Y-14167436D02*
X9630777Y-14148388D01*
X9630777Y-14148388D02*
X9621253Y-14110293D01*
X9621253Y-14110293D02*
X9621253Y-14062674D01*
X9621253Y-14062674D02*
X9630777Y-14024579D01*
X9630777Y-14024579D02*
X9640301Y-14005531D01*
X9640301Y-14005531D02*
X9649824Y-13996008D01*
X9649824Y-13996008D02*
X9668872Y-13986484D01*
X9821253Y-14167436D02*
X9830777Y-14176960D01*
X9830777Y-14176960D02*
X9821253Y-14186484D01*
X9821253Y-14186484D02*
X9811729Y-14176960D01*
X9811729Y-14176960D02*
X9821253Y-14167436D01*
X9821253Y-14167436D02*
X9821253Y-14186484D01*
X9906967Y-14005531D02*
X9916491Y-13996008D01*
X9916491Y-13996008D02*
X9935539Y-13986484D01*
X9935539Y-13986484D02*
X9983158Y-13986484D01*
X9983158Y-13986484D02*
X10002205Y-13996008D01*
X10002205Y-13996008D02*
X10011729Y-14005531D01*
X10011729Y-14005531D02*
X10021253Y-14024579D01*
X10021253Y-14024579D02*
X10021253Y-14043627D01*
X10021253Y-14043627D02*
X10011729Y-14072198D01*
X10011729Y-14072198D02*
X9897444Y-14186484D01*
X9897444Y-14186484D02*
X10021253Y-14186484D01*
X10202205Y-13986484D02*
X10106967Y-13986484D01*
X10106967Y-13986484D02*
X10097444Y-14081722D01*
X10097444Y-14081722D02*
X10106967Y-14072198D01*
X10106967Y-14072198D02*
X10126015Y-14062674D01*
X10126015Y-14062674D02*
X10173634Y-14062674D01*
X10173634Y-14062674D02*
X10192682Y-14072198D01*
X10192682Y-14072198D02*
X10202205Y-14081722D01*
X10202205Y-14081722D02*
X10211729Y-14100769D01*
X10211729Y-14100769D02*
X10211729Y-14148388D01*
X10211729Y-14148388D02*
X10202205Y-14167436D01*
X10202205Y-14167436D02*
X10192682Y-14176960D01*
X10192682Y-14176960D02*
X10173634Y-14186484D01*
X10173634Y-14186484D02*
X10126015Y-14186484D01*
X10126015Y-14186484D02*
X10106967Y-14176960D01*
X10106967Y-14176960D02*
X10097444Y-14167436D01*
X10335539Y-13986484D02*
X10354586Y-13986484D01*
X10354586Y-13986484D02*
X10373634Y-13996008D01*
X10373634Y-13996008D02*
X10383158Y-14005531D01*
X10383158Y-14005531D02*
X10392682Y-14024579D01*
X10392682Y-14024579D02*
X10402205Y-14062674D01*
X10402205Y-14062674D02*
X10402205Y-14110293D01*
X10402205Y-14110293D02*
X10392682Y-14148388D01*
X10392682Y-14148388D02*
X10383158Y-14167436D01*
X10383158Y-14167436D02*
X10373634Y-14176960D01*
X10373634Y-14176960D02*
X10354586Y-14186484D01*
X10354586Y-14186484D02*
X10335539Y-14186484D01*
X10335539Y-14186484D02*
X10316491Y-14176960D01*
X10316491Y-14176960D02*
X10306967Y-14167436D01*
X10306967Y-14167436D02*
X10297444Y-14148388D01*
X10297444Y-14148388D02*
X10287920Y-14110293D01*
X10287920Y-14110293D02*
X10287920Y-14062674D01*
X10287920Y-14062674D02*
X10297444Y-14024579D01*
X10297444Y-14024579D02*
X10306967Y-14005531D01*
X10306967Y-14005531D02*
X10316491Y-13996008D01*
X10316491Y-13996008D02*
X10335539Y-13986484D01*
X10487920Y-14186484D02*
X10487920Y-14053150D01*
X10487920Y-14072198D02*
X10497444Y-14062674D01*
X10497444Y-14062674D02*
X10516491Y-14053150D01*
X10516491Y-14053150D02*
X10545063Y-14053150D01*
X10545063Y-14053150D02*
X10564110Y-14062674D01*
X10564110Y-14062674D02*
X10573634Y-14081722D01*
X10573634Y-14081722D02*
X10573634Y-14186484D01*
X10573634Y-14081722D02*
X10583158Y-14062674D01*
X10583158Y-14062674D02*
X10602205Y-14053150D01*
X10602205Y-14053150D02*
X10630777Y-14053150D01*
X10630777Y-14053150D02*
X10649825Y-14062674D01*
X10649825Y-14062674D02*
X10659348Y-14081722D01*
X10659348Y-14081722D02*
X10659348Y-14186484D01*
X10754586Y-14186484D02*
X10754586Y-14053150D01*
X10754586Y-14072198D02*
X10764110Y-14062674D01*
X10764110Y-14062674D02*
X10783158Y-14053150D01*
X10783158Y-14053150D02*
X10811729Y-14053150D01*
X10811729Y-14053150D02*
X10830777Y-14062674D01*
X10830777Y-14062674D02*
X10840301Y-14081722D01*
X10840301Y-14081722D02*
X10840301Y-14186484D01*
X10840301Y-14081722D02*
X10849825Y-14062674D01*
X10849825Y-14062674D02*
X10868872Y-14053150D01*
X10868872Y-14053150D02*
X10897444Y-14053150D01*
X10897444Y-14053150D02*
X10916491Y-14062674D01*
X10916491Y-14062674D02*
X10926015Y-14081722D01*
X10926015Y-14081722D02*
X10926015Y-14186484D01*
X11316491Y-13976960D02*
X11145063Y-14234103D01*
X11573634Y-13986484D02*
X11592682Y-13986484D01*
X11592682Y-13986484D02*
X11611729Y-13996008D01*
X11611729Y-13996008D02*
X11621253Y-14005531D01*
X11621253Y-14005531D02*
X11630777Y-14024579D01*
X11630777Y-14024579D02*
X11640301Y-14062674D01*
X11640301Y-14062674D02*
X11640301Y-14110293D01*
X11640301Y-14110293D02*
X11630777Y-14148388D01*
X11630777Y-14148388D02*
X11621253Y-14167436D01*
X11621253Y-14167436D02*
X11611729Y-14176960D01*
X11611729Y-14176960D02*
X11592682Y-14186484D01*
X11592682Y-14186484D02*
X11573634Y-14186484D01*
X11573634Y-14186484D02*
X11554586Y-14176960D01*
X11554586Y-14176960D02*
X11545063Y-14167436D01*
X11545063Y-14167436D02*
X11535539Y-14148388D01*
X11535539Y-14148388D02*
X11526015Y-14110293D01*
X11526015Y-14110293D02*
X11526015Y-14062674D01*
X11526015Y-14062674D02*
X11535539Y-14024579D01*
X11535539Y-14024579D02*
X11545063Y-14005531D01*
X11545063Y-14005531D02*
X11554586Y-13996008D01*
X11554586Y-13996008D02*
X11573634Y-13986484D01*
X11726015Y-14167436D02*
X11735539Y-14176960D01*
X11735539Y-14176960D02*
X11726015Y-14186484D01*
X11726015Y-14186484D02*
X11716491Y-14176960D01*
X11716491Y-14176960D02*
X11726015Y-14167436D01*
X11726015Y-14167436D02*
X11726015Y-14186484D01*
X11859348Y-13986484D02*
X11878396Y-13986484D01*
X11878396Y-13986484D02*
X11897444Y-13996008D01*
X11897444Y-13996008D02*
X11906967Y-14005531D01*
X11906967Y-14005531D02*
X11916491Y-14024579D01*
X11916491Y-14024579D02*
X11926015Y-14062674D01*
X11926015Y-14062674D02*
X11926015Y-14110293D01*
X11926015Y-14110293D02*
X11916491Y-14148388D01*
X11916491Y-14148388D02*
X11906967Y-14167436D01*
X11906967Y-14167436D02*
X11897444Y-14176960D01*
X11897444Y-14176960D02*
X11878396Y-14186484D01*
X11878396Y-14186484D02*
X11859348Y-14186484D01*
X11859348Y-14186484D02*
X11840301Y-14176960D01*
X11840301Y-14176960D02*
X11830777Y-14167436D01*
X11830777Y-14167436D02*
X11821253Y-14148388D01*
X11821253Y-14148388D02*
X11811729Y-14110293D01*
X11811729Y-14110293D02*
X11811729Y-14062674D01*
X11811729Y-14062674D02*
X11821253Y-14024579D01*
X11821253Y-14024579D02*
X11830777Y-14005531D01*
X11830777Y-14005531D02*
X11840301Y-13996008D01*
X11840301Y-13996008D02*
X11859348Y-13986484D01*
X12049825Y-13986484D02*
X12068872Y-13986484D01*
X12068872Y-13986484D02*
X12087920Y-13996008D01*
X12087920Y-13996008D02*
X12097444Y-14005531D01*
X12097444Y-14005531D02*
X12106967Y-14024579D01*
X12106967Y-14024579D02*
X12116491Y-14062674D01*
X12116491Y-14062674D02*
X12116491Y-14110293D01*
X12116491Y-14110293D02*
X12106967Y-14148388D01*
X12106967Y-14148388D02*
X12097444Y-14167436D01*
X12097444Y-14167436D02*
X12087920Y-14176960D01*
X12087920Y-14176960D02*
X12068872Y-14186484D01*
X12068872Y-14186484D02*
X12049825Y-14186484D01*
X12049825Y-14186484D02*
X12030777Y-14176960D01*
X12030777Y-14176960D02*
X12021253Y-14167436D01*
X12021253Y-14167436D02*
X12011729Y-14148388D01*
X12011729Y-14148388D02*
X12002206Y-14110293D01*
X12002206Y-14110293D02*
X12002206Y-14062674D01*
X12002206Y-14062674D02*
X12011729Y-14024579D01*
X12011729Y-14024579D02*
X12021253Y-14005531D01*
X12021253Y-14005531D02*
X12030777Y-13996008D01*
X12030777Y-13996008D02*
X12049825Y-13986484D01*
X12211729Y-14186484D02*
X12249825Y-14186484D01*
X12249825Y-14186484D02*
X12268872Y-14176960D01*
X12268872Y-14176960D02*
X12278396Y-14167436D01*
X12278396Y-14167436D02*
X12297444Y-14138865D01*
X12297444Y-14138865D02*
X12306967Y-14100769D01*
X12306967Y-14100769D02*
X12306967Y-14024579D01*
X12306967Y-14024579D02*
X12297444Y-14005531D01*
X12297444Y-14005531D02*
X12287920Y-13996008D01*
X12287920Y-13996008D02*
X12268872Y-13986484D01*
X12268872Y-13986484D02*
X12230777Y-13986484D01*
X12230777Y-13986484D02*
X12211729Y-13996008D01*
X12211729Y-13996008D02*
X12202206Y-14005531D01*
X12202206Y-14005531D02*
X12192682Y-14024579D01*
X12192682Y-14024579D02*
X12192682Y-14072198D01*
X12192682Y-14072198D02*
X12202206Y-14091246D01*
X12202206Y-14091246D02*
X12211729Y-14100769D01*
X12211729Y-14100769D02*
X12230777Y-14110293D01*
X12230777Y-14110293D02*
X12268872Y-14110293D01*
X12268872Y-14110293D02*
X12287920Y-14100769D01*
X12287920Y-14100769D02*
X12297444Y-14091246D01*
X12297444Y-14091246D02*
X12306967Y-14072198D01*
X12421253Y-14072198D02*
X12402206Y-14062674D01*
X12402206Y-14062674D02*
X12392682Y-14053150D01*
X12392682Y-14053150D02*
X12383158Y-14034103D01*
X12383158Y-14034103D02*
X12383158Y-14024579D01*
X12383158Y-14024579D02*
X12392682Y-14005531D01*
X12392682Y-14005531D02*
X12402206Y-13996008D01*
X12402206Y-13996008D02*
X12421253Y-13986484D01*
X12421253Y-13986484D02*
X12459348Y-13986484D01*
X12459348Y-13986484D02*
X12478396Y-13996008D01*
X12478396Y-13996008D02*
X12487920Y-14005531D01*
X12487920Y-14005531D02*
X12497444Y-14024579D01*
X12497444Y-14024579D02*
X12497444Y-14034103D01*
X12497444Y-14034103D02*
X12487920Y-14053150D01*
X12487920Y-14053150D02*
X12478396Y-14062674D01*
X12478396Y-14062674D02*
X12459348Y-14072198D01*
X12459348Y-14072198D02*
X12421253Y-14072198D01*
X12421253Y-14072198D02*
X12402206Y-14081722D01*
X12402206Y-14081722D02*
X12392682Y-14091246D01*
X12392682Y-14091246D02*
X12383158Y-14110293D01*
X12383158Y-14110293D02*
X12383158Y-14148388D01*
X12383158Y-14148388D02*
X12392682Y-14167436D01*
X12392682Y-14167436D02*
X12402206Y-14176960D01*
X12402206Y-14176960D02*
X12421253Y-14186484D01*
X12421253Y-14186484D02*
X12459348Y-14186484D01*
X12459348Y-14186484D02*
X12478396Y-14176960D01*
X12478396Y-14176960D02*
X12487920Y-14167436D01*
X12487920Y-14167436D02*
X12497444Y-14148388D01*
X12497444Y-14148388D02*
X12497444Y-14110293D01*
X12497444Y-14110293D02*
X12487920Y-14091246D01*
X12487920Y-14091246D02*
X12478396Y-14081722D01*
X12478396Y-14081722D02*
X12459348Y-14072198D01*
X12573634Y-13986484D02*
X12573634Y-14024579D01*
X12649825Y-13986484D02*
X12649825Y-14024579D01*
X12945063Y-14262674D02*
X12935539Y-14253150D01*
X12935539Y-14253150D02*
X12916491Y-14224579D01*
X12916491Y-14224579D02*
X12906968Y-14205531D01*
X12906968Y-14205531D02*
X12897444Y-14176960D01*
X12897444Y-14176960D02*
X12887920Y-14129341D01*
X12887920Y-14129341D02*
X12887920Y-14091246D01*
X12887920Y-14091246D02*
X12897444Y-14043627D01*
X12897444Y-14043627D02*
X12906968Y-14015055D01*
X12906968Y-14015055D02*
X12916491Y-13996008D01*
X12916491Y-13996008D02*
X12935539Y-13967436D01*
X12935539Y-13967436D02*
X12945063Y-13957912D01*
X13126015Y-14186484D02*
X13011729Y-14186484D01*
X13068872Y-14186484D02*
X13068872Y-13986484D01*
X13068872Y-13986484D02*
X13049825Y-14015055D01*
X13049825Y-14015055D02*
X13030777Y-14034103D01*
X13030777Y-14034103D02*
X13011729Y-14043627D01*
X13202206Y-14005531D02*
X13211729Y-13996008D01*
X13211729Y-13996008D02*
X13230777Y-13986484D01*
X13230777Y-13986484D02*
X13278396Y-13986484D01*
X13278396Y-13986484D02*
X13297444Y-13996008D01*
X13297444Y-13996008D02*
X13306968Y-14005531D01*
X13306968Y-14005531D02*
X13316491Y-14024579D01*
X13316491Y-14024579D02*
X13316491Y-14043627D01*
X13316491Y-14043627D02*
X13306968Y-14072198D01*
X13306968Y-14072198D02*
X13192682Y-14186484D01*
X13192682Y-14186484D02*
X13316491Y-14186484D01*
X13554587Y-14186484D02*
X13554587Y-13986484D01*
X13640301Y-14186484D02*
X13640301Y-14081722D01*
X13640301Y-14081722D02*
X13630777Y-14062674D01*
X13630777Y-14062674D02*
X13611730Y-14053150D01*
X13611730Y-14053150D02*
X13583158Y-14053150D01*
X13583158Y-14053150D02*
X13564110Y-14062674D01*
X13564110Y-14062674D02*
X13554587Y-14072198D01*
X13764110Y-14186484D02*
X13745063Y-14176960D01*
X13745063Y-14176960D02*
X13735539Y-14167436D01*
X13735539Y-14167436D02*
X13726015Y-14148388D01*
X13726015Y-14148388D02*
X13726015Y-14091246D01*
X13726015Y-14091246D02*
X13735539Y-14072198D01*
X13735539Y-14072198D02*
X13745063Y-14062674D01*
X13745063Y-14062674D02*
X13764110Y-14053150D01*
X13764110Y-14053150D02*
X13792682Y-14053150D01*
X13792682Y-14053150D02*
X13811730Y-14062674D01*
X13811730Y-14062674D02*
X13821253Y-14072198D01*
X13821253Y-14072198D02*
X13830777Y-14091246D01*
X13830777Y-14091246D02*
X13830777Y-14148388D01*
X13830777Y-14148388D02*
X13821253Y-14167436D01*
X13821253Y-14167436D02*
X13811730Y-14176960D01*
X13811730Y-14176960D02*
X13792682Y-14186484D01*
X13792682Y-14186484D02*
X13764110Y-14186484D01*
X13945063Y-14186484D02*
X13926015Y-14176960D01*
X13926015Y-14176960D02*
X13916491Y-14157912D01*
X13916491Y-14157912D02*
X13916491Y-13986484D01*
X14097444Y-14176960D02*
X14078396Y-14186484D01*
X14078396Y-14186484D02*
X14040301Y-14186484D01*
X14040301Y-14186484D02*
X14021253Y-14176960D01*
X14021253Y-14176960D02*
X14011730Y-14157912D01*
X14011730Y-14157912D02*
X14011730Y-14081722D01*
X14011730Y-14081722D02*
X14021253Y-14062674D01*
X14021253Y-14062674D02*
X14040301Y-14053150D01*
X14040301Y-14053150D02*
X14078396Y-14053150D01*
X14078396Y-14053150D02*
X14097444Y-14062674D01*
X14097444Y-14062674D02*
X14106968Y-14081722D01*
X14106968Y-14081722D02*
X14106968Y-14100769D01*
X14106968Y-14100769D02*
X14011730Y-14119817D01*
X14183158Y-14176960D02*
X14202206Y-14186484D01*
X14202206Y-14186484D02*
X14240301Y-14186484D01*
X14240301Y-14186484D02*
X14259349Y-14176960D01*
X14259349Y-14176960D02*
X14268872Y-14157912D01*
X14268872Y-14157912D02*
X14268872Y-14148388D01*
X14268872Y-14148388D02*
X14259349Y-14129341D01*
X14259349Y-14129341D02*
X14240301Y-14119817D01*
X14240301Y-14119817D02*
X14211730Y-14119817D01*
X14211730Y-14119817D02*
X14192682Y-14110293D01*
X14192682Y-14110293D02*
X14183158Y-14091246D01*
X14183158Y-14091246D02*
X14183158Y-14081722D01*
X14183158Y-14081722D02*
X14192682Y-14062674D01*
X14192682Y-14062674D02*
X14211730Y-14053150D01*
X14211730Y-14053150D02*
X14240301Y-14053150D01*
X14240301Y-14053150D02*
X14259349Y-14062674D01*
X14335539Y-14262674D02*
X14345063Y-14253150D01*
X14345063Y-14253150D02*
X14364111Y-14224579D01*
X14364111Y-14224579D02*
X14373634Y-14205531D01*
X14373634Y-14205531D02*
X14383158Y-14176960D01*
X14383158Y-14176960D02*
X14392682Y-14129341D01*
X14392682Y-14129341D02*
X14392682Y-14091246D01*
X14392682Y-14091246D02*
X14383158Y-14043627D01*
X14383158Y-14043627D02*
X14373634Y-14015055D01*
X14373634Y-14015055D02*
X14364111Y-13996008D01*
X14364111Y-13996008D02*
X14345063Y-13967436D01*
X14345063Y-13967436D02*
X14335539Y-13957912D01*
D10*
X9370000Y-14359000D02*
G75*
G02*
X9340000Y-14359000I-15000J0D01*
G01*
X9340000Y-14359000D02*
G75*
G02*
X9370000Y-14359000I15000J0D01*
G01*
D11*
X9668872Y-14250484D02*
X9687920Y-14250484D01*
X9687920Y-14250484D02*
X9706967Y-14260008D01*
X9706967Y-14260008D02*
X9716491Y-14269531D01*
X9716491Y-14269531D02*
X9726015Y-14288579D01*
X9726015Y-14288579D02*
X9735539Y-14326674D01*
X9735539Y-14326674D02*
X9735539Y-14374293D01*
X9735539Y-14374293D02*
X9726015Y-14412388D01*
X9726015Y-14412388D02*
X9716491Y-14431436D01*
X9716491Y-14431436D02*
X9706967Y-14440960D01*
X9706967Y-14440960D02*
X9687920Y-14450484D01*
X9687920Y-14450484D02*
X9668872Y-14450484D01*
X9668872Y-14450484D02*
X9649824Y-14440960D01*
X9649824Y-14440960D02*
X9640301Y-14431436D01*
X9640301Y-14431436D02*
X9630777Y-14412388D01*
X9630777Y-14412388D02*
X9621253Y-14374293D01*
X9621253Y-14374293D02*
X9621253Y-14326674D01*
X9621253Y-14326674D02*
X9630777Y-14288579D01*
X9630777Y-14288579D02*
X9640301Y-14269531D01*
X9640301Y-14269531D02*
X9649824Y-14260008D01*
X9649824Y-14260008D02*
X9668872Y-14250484D01*
X9821253Y-14431436D02*
X9830777Y-14440960D01*
X9830777Y-14440960D02*
X9821253Y-14450484D01*
X9821253Y-14450484D02*
X9811729Y-14440960D01*
X9811729Y-14440960D02*
X9821253Y-14431436D01*
X9821253Y-14431436D02*
X9821253Y-14450484D01*
X9897444Y-14250484D02*
X10021253Y-14250484D01*
X10021253Y-14250484D02*
X9954586Y-14326674D01*
X9954586Y-14326674D02*
X9983158Y-14326674D01*
X9983158Y-14326674D02*
X10002205Y-14336198D01*
X10002205Y-14336198D02*
X10011729Y-14345722D01*
X10011729Y-14345722D02*
X10021253Y-14364769D01*
X10021253Y-14364769D02*
X10021253Y-14412388D01*
X10021253Y-14412388D02*
X10011729Y-14431436D01*
X10011729Y-14431436D02*
X10002205Y-14440960D01*
X10002205Y-14440960D02*
X9983158Y-14450484D01*
X9983158Y-14450484D02*
X9926015Y-14450484D01*
X9926015Y-14450484D02*
X9906967Y-14440960D01*
X9906967Y-14440960D02*
X9897444Y-14431436D01*
X10145063Y-14250484D02*
X10164110Y-14250484D01*
X10164110Y-14250484D02*
X10183158Y-14260008D01*
X10183158Y-14260008D02*
X10192682Y-14269531D01*
X10192682Y-14269531D02*
X10202205Y-14288579D01*
X10202205Y-14288579D02*
X10211729Y-14326674D01*
X10211729Y-14326674D02*
X10211729Y-14374293D01*
X10211729Y-14374293D02*
X10202205Y-14412388D01*
X10202205Y-14412388D02*
X10192682Y-14431436D01*
X10192682Y-14431436D02*
X10183158Y-14440960D01*
X10183158Y-14440960D02*
X10164110Y-14450484D01*
X10164110Y-14450484D02*
X10145063Y-14450484D01*
X10145063Y-14450484D02*
X10126015Y-14440960D01*
X10126015Y-14440960D02*
X10116491Y-14431436D01*
X10116491Y-14431436D02*
X10106967Y-14412388D01*
X10106967Y-14412388D02*
X10097444Y-14374293D01*
X10097444Y-14374293D02*
X10097444Y-14326674D01*
X10097444Y-14326674D02*
X10106967Y-14288579D01*
X10106967Y-14288579D02*
X10116491Y-14269531D01*
X10116491Y-14269531D02*
X10126015Y-14260008D01*
X10126015Y-14260008D02*
X10145063Y-14250484D01*
X10335539Y-14250484D02*
X10354586Y-14250484D01*
X10354586Y-14250484D02*
X10373634Y-14260008D01*
X10373634Y-14260008D02*
X10383158Y-14269531D01*
X10383158Y-14269531D02*
X10392682Y-14288579D01*
X10392682Y-14288579D02*
X10402205Y-14326674D01*
X10402205Y-14326674D02*
X10402205Y-14374293D01*
X10402205Y-14374293D02*
X10392682Y-14412388D01*
X10392682Y-14412388D02*
X10383158Y-14431436D01*
X10383158Y-14431436D02*
X10373634Y-14440960D01*
X10373634Y-14440960D02*
X10354586Y-14450484D01*
X10354586Y-14450484D02*
X10335539Y-14450484D01*
X10335539Y-14450484D02*
X10316491Y-14440960D01*
X10316491Y-14440960D02*
X10306967Y-14431436D01*
X10306967Y-14431436D02*
X10297444Y-14412388D01*
X10297444Y-14412388D02*
X10287920Y-14374293D01*
X10287920Y-14374293D02*
X10287920Y-14326674D01*
X10287920Y-14326674D02*
X10297444Y-14288579D01*
X10297444Y-14288579D02*
X10306967Y-14269531D01*
X10306967Y-14269531D02*
X10316491Y-14260008D01*
X10316491Y-14260008D02*
X10335539Y-14250484D01*
X10487920Y-14450484D02*
X10487920Y-14317150D01*
X10487920Y-14336198D02*
X10497444Y-14326674D01*
X10497444Y-14326674D02*
X10516491Y-14317150D01*
X10516491Y-14317150D02*
X10545063Y-14317150D01*
X10545063Y-14317150D02*
X10564110Y-14326674D01*
X10564110Y-14326674D02*
X10573634Y-14345722D01*
X10573634Y-14345722D02*
X10573634Y-14450484D01*
X10573634Y-14345722D02*
X10583158Y-14326674D01*
X10583158Y-14326674D02*
X10602205Y-14317150D01*
X10602205Y-14317150D02*
X10630777Y-14317150D01*
X10630777Y-14317150D02*
X10649825Y-14326674D01*
X10649825Y-14326674D02*
X10659348Y-14345722D01*
X10659348Y-14345722D02*
X10659348Y-14450484D01*
X10754586Y-14450484D02*
X10754586Y-14317150D01*
X10754586Y-14336198D02*
X10764110Y-14326674D01*
X10764110Y-14326674D02*
X10783158Y-14317150D01*
X10783158Y-14317150D02*
X10811729Y-14317150D01*
X10811729Y-14317150D02*
X10830777Y-14326674D01*
X10830777Y-14326674D02*
X10840301Y-14345722D01*
X10840301Y-14345722D02*
X10840301Y-14450484D01*
X10840301Y-14345722D02*
X10849825Y-14326674D01*
X10849825Y-14326674D02*
X10868872Y-14317150D01*
X10868872Y-14317150D02*
X10897444Y-14317150D01*
X10897444Y-14317150D02*
X10916491Y-14326674D01*
X10916491Y-14326674D02*
X10926015Y-14345722D01*
X10926015Y-14345722D02*
X10926015Y-14450484D01*
X11316491Y-14240960D02*
X11145063Y-14498103D01*
X11573634Y-14250484D02*
X11592682Y-14250484D01*
X11592682Y-14250484D02*
X11611729Y-14260008D01*
X11611729Y-14260008D02*
X11621253Y-14269531D01*
X11621253Y-14269531D02*
X11630777Y-14288579D01*
X11630777Y-14288579D02*
X11640301Y-14326674D01*
X11640301Y-14326674D02*
X11640301Y-14374293D01*
X11640301Y-14374293D02*
X11630777Y-14412388D01*
X11630777Y-14412388D02*
X11621253Y-14431436D01*
X11621253Y-14431436D02*
X11611729Y-14440960D01*
X11611729Y-14440960D02*
X11592682Y-14450484D01*
X11592682Y-14450484D02*
X11573634Y-14450484D01*
X11573634Y-14450484D02*
X11554586Y-14440960D01*
X11554586Y-14440960D02*
X11545063Y-14431436D01*
X11545063Y-14431436D02*
X11535539Y-14412388D01*
X11535539Y-14412388D02*
X11526015Y-14374293D01*
X11526015Y-14374293D02*
X11526015Y-14326674D01*
X11526015Y-14326674D02*
X11535539Y-14288579D01*
X11535539Y-14288579D02*
X11545063Y-14269531D01*
X11545063Y-14269531D02*
X11554586Y-14260008D01*
X11554586Y-14260008D02*
X11573634Y-14250484D01*
X11726015Y-14431436D02*
X11735539Y-14440960D01*
X11735539Y-14440960D02*
X11726015Y-14450484D01*
X11726015Y-14450484D02*
X11716491Y-14440960D01*
X11716491Y-14440960D02*
X11726015Y-14431436D01*
X11726015Y-14431436D02*
X11726015Y-14450484D01*
X11859348Y-14250484D02*
X11878396Y-14250484D01*
X11878396Y-14250484D02*
X11897444Y-14260008D01*
X11897444Y-14260008D02*
X11906967Y-14269531D01*
X11906967Y-14269531D02*
X11916491Y-14288579D01*
X11916491Y-14288579D02*
X11926015Y-14326674D01*
X11926015Y-14326674D02*
X11926015Y-14374293D01*
X11926015Y-14374293D02*
X11916491Y-14412388D01*
X11916491Y-14412388D02*
X11906967Y-14431436D01*
X11906967Y-14431436D02*
X11897444Y-14440960D01*
X11897444Y-14440960D02*
X11878396Y-14450484D01*
X11878396Y-14450484D02*
X11859348Y-14450484D01*
X11859348Y-14450484D02*
X11840301Y-14440960D01*
X11840301Y-14440960D02*
X11830777Y-14431436D01*
X11830777Y-14431436D02*
X11821253Y-14412388D01*
X11821253Y-14412388D02*
X11811729Y-14374293D01*
X11811729Y-14374293D02*
X11811729Y-14326674D01*
X11811729Y-14326674D02*
X11821253Y-14288579D01*
X11821253Y-14288579D02*
X11830777Y-14269531D01*
X11830777Y-14269531D02*
X11840301Y-14260008D01*
X11840301Y-14260008D02*
X11859348Y-14250484D01*
X12116491Y-14450484D02*
X12002206Y-14450484D01*
X12059348Y-14450484D02*
X12059348Y-14250484D01*
X12059348Y-14250484D02*
X12040301Y-14279055D01*
X12040301Y-14279055D02*
X12021253Y-14298103D01*
X12021253Y-14298103D02*
X12002206Y-14307627D01*
X12306967Y-14450484D02*
X12192682Y-14450484D01*
X12249825Y-14450484D02*
X12249825Y-14250484D01*
X12249825Y-14250484D02*
X12230777Y-14279055D01*
X12230777Y-14279055D02*
X12211729Y-14298103D01*
X12211729Y-14298103D02*
X12192682Y-14307627D01*
X12421253Y-14336198D02*
X12402206Y-14326674D01*
X12402206Y-14326674D02*
X12392682Y-14317150D01*
X12392682Y-14317150D02*
X12383158Y-14298103D01*
X12383158Y-14298103D02*
X12383158Y-14288579D01*
X12383158Y-14288579D02*
X12392682Y-14269531D01*
X12392682Y-14269531D02*
X12402206Y-14260008D01*
X12402206Y-14260008D02*
X12421253Y-14250484D01*
X12421253Y-14250484D02*
X12459348Y-14250484D01*
X12459348Y-14250484D02*
X12478396Y-14260008D01*
X12478396Y-14260008D02*
X12487920Y-14269531D01*
X12487920Y-14269531D02*
X12497444Y-14288579D01*
X12497444Y-14288579D02*
X12497444Y-14298103D01*
X12497444Y-14298103D02*
X12487920Y-14317150D01*
X12487920Y-14317150D02*
X12478396Y-14326674D01*
X12478396Y-14326674D02*
X12459348Y-14336198D01*
X12459348Y-14336198D02*
X12421253Y-14336198D01*
X12421253Y-14336198D02*
X12402206Y-14345722D01*
X12402206Y-14345722D02*
X12392682Y-14355246D01*
X12392682Y-14355246D02*
X12383158Y-14374293D01*
X12383158Y-14374293D02*
X12383158Y-14412388D01*
X12383158Y-14412388D02*
X12392682Y-14431436D01*
X12392682Y-14431436D02*
X12402206Y-14440960D01*
X12402206Y-14440960D02*
X12421253Y-14450484D01*
X12421253Y-14450484D02*
X12459348Y-14450484D01*
X12459348Y-14450484D02*
X12478396Y-14440960D01*
X12478396Y-14440960D02*
X12487920Y-14431436D01*
X12487920Y-14431436D02*
X12497444Y-14412388D01*
X12497444Y-14412388D02*
X12497444Y-14374293D01*
X12497444Y-14374293D02*
X12487920Y-14355246D01*
X12487920Y-14355246D02*
X12478396Y-14345722D01*
X12478396Y-14345722D02*
X12459348Y-14336198D01*
X12573634Y-14250484D02*
X12573634Y-14288579D01*
X12649825Y-14250484D02*
X12649825Y-14288579D01*
X12945063Y-14526674D02*
X12935539Y-14517150D01*
X12935539Y-14517150D02*
X12916491Y-14488579D01*
X12916491Y-14488579D02*
X12906968Y-14469531D01*
X12906968Y-14469531D02*
X12897444Y-14440960D01*
X12897444Y-14440960D02*
X12887920Y-14393341D01*
X12887920Y-14393341D02*
X12887920Y-14355246D01*
X12887920Y-14355246D02*
X12897444Y-14307627D01*
X12897444Y-14307627D02*
X12906968Y-14279055D01*
X12906968Y-14279055D02*
X12916491Y-14260008D01*
X12916491Y-14260008D02*
X12935539Y-14231436D01*
X12935539Y-14231436D02*
X12945063Y-14221912D01*
X13002206Y-14250484D02*
X13126015Y-14250484D01*
X13126015Y-14250484D02*
X13059348Y-14326674D01*
X13059348Y-14326674D02*
X13087920Y-14326674D01*
X13087920Y-14326674D02*
X13106968Y-14336198D01*
X13106968Y-14336198D02*
X13116491Y-14345722D01*
X13116491Y-14345722D02*
X13126015Y-14364769D01*
X13126015Y-14364769D02*
X13126015Y-14412388D01*
X13126015Y-14412388D02*
X13116491Y-14431436D01*
X13116491Y-14431436D02*
X13106968Y-14440960D01*
X13106968Y-14440960D02*
X13087920Y-14450484D01*
X13087920Y-14450484D02*
X13030777Y-14450484D01*
X13030777Y-14450484D02*
X13011729Y-14440960D01*
X13011729Y-14440960D02*
X13002206Y-14431436D01*
X13297444Y-14250484D02*
X13259348Y-14250484D01*
X13259348Y-14250484D02*
X13240301Y-14260008D01*
X13240301Y-14260008D02*
X13230777Y-14269531D01*
X13230777Y-14269531D02*
X13211729Y-14298103D01*
X13211729Y-14298103D02*
X13202206Y-14336198D01*
X13202206Y-14336198D02*
X13202206Y-14412388D01*
X13202206Y-14412388D02*
X13211729Y-14431436D01*
X13211729Y-14431436D02*
X13221253Y-14440960D01*
X13221253Y-14440960D02*
X13240301Y-14450484D01*
X13240301Y-14450484D02*
X13278396Y-14450484D01*
X13278396Y-14450484D02*
X13297444Y-14440960D01*
X13297444Y-14440960D02*
X13306968Y-14431436D01*
X13306968Y-14431436D02*
X13316491Y-14412388D01*
X13316491Y-14412388D02*
X13316491Y-14364769D01*
X13316491Y-14364769D02*
X13306968Y-14345722D01*
X13306968Y-14345722D02*
X13297444Y-14336198D01*
X13297444Y-14336198D02*
X13278396Y-14326674D01*
X13278396Y-14326674D02*
X13240301Y-14326674D01*
X13240301Y-14326674D02*
X13221253Y-14336198D01*
X13221253Y-14336198D02*
X13211729Y-14345722D01*
X13211729Y-14345722D02*
X13202206Y-14364769D01*
X13554587Y-14450484D02*
X13554587Y-14250484D01*
X13640301Y-14450484D02*
X13640301Y-14345722D01*
X13640301Y-14345722D02*
X13630777Y-14326674D01*
X13630777Y-14326674D02*
X13611730Y-14317150D01*
X13611730Y-14317150D02*
X13583158Y-14317150D01*
X13583158Y-14317150D02*
X13564110Y-14326674D01*
X13564110Y-14326674D02*
X13554587Y-14336198D01*
X13764110Y-14450484D02*
X13745063Y-14440960D01*
X13745063Y-14440960D02*
X13735539Y-14431436D01*
X13735539Y-14431436D02*
X13726015Y-14412388D01*
X13726015Y-14412388D02*
X13726015Y-14355246D01*
X13726015Y-14355246D02*
X13735539Y-14336198D01*
X13735539Y-14336198D02*
X13745063Y-14326674D01*
X13745063Y-14326674D02*
X13764110Y-14317150D01*
X13764110Y-14317150D02*
X13792682Y-14317150D01*
X13792682Y-14317150D02*
X13811730Y-14326674D01*
X13811730Y-14326674D02*
X13821253Y-14336198D01*
X13821253Y-14336198D02*
X13830777Y-14355246D01*
X13830777Y-14355246D02*
X13830777Y-14412388D01*
X13830777Y-14412388D02*
X13821253Y-14431436D01*
X13821253Y-14431436D02*
X13811730Y-14440960D01*
X13811730Y-14440960D02*
X13792682Y-14450484D01*
X13792682Y-14450484D02*
X13764110Y-14450484D01*
X13945063Y-14450484D02*
X13926015Y-14440960D01*
X13926015Y-14440960D02*
X13916491Y-14421912D01*
X13916491Y-14421912D02*
X13916491Y-14250484D01*
X14097444Y-14440960D02*
X14078396Y-14450484D01*
X14078396Y-14450484D02*
X14040301Y-14450484D01*
X14040301Y-14450484D02*
X14021253Y-14440960D01*
X14021253Y-14440960D02*
X14011730Y-14421912D01*
X14011730Y-14421912D02*
X14011730Y-14345722D01*
X14011730Y-14345722D02*
X14021253Y-14326674D01*
X14021253Y-14326674D02*
X14040301Y-14317150D01*
X14040301Y-14317150D02*
X14078396Y-14317150D01*
X14078396Y-14317150D02*
X14097444Y-14326674D01*
X14097444Y-14326674D02*
X14106968Y-14345722D01*
X14106968Y-14345722D02*
X14106968Y-14364769D01*
X14106968Y-14364769D02*
X14011730Y-14383817D01*
X14183158Y-14440960D02*
X14202206Y-14450484D01*
X14202206Y-14450484D02*
X14240301Y-14450484D01*
X14240301Y-14450484D02*
X14259349Y-14440960D01*
X14259349Y-14440960D02*
X14268872Y-14421912D01*
X14268872Y-14421912D02*
X14268872Y-14412388D01*
X14268872Y-14412388D02*
X14259349Y-14393341D01*
X14259349Y-14393341D02*
X14240301Y-14383817D01*
X14240301Y-14383817D02*
X14211730Y-14383817D01*
X14211730Y-14383817D02*
X14192682Y-14374293D01*
X14192682Y-14374293D02*
X14183158Y-14355246D01*
X14183158Y-14355246D02*
X14183158Y-14345722D01*
X14183158Y-14345722D02*
X14192682Y-14326674D01*
X14192682Y-14326674D02*
X14211730Y-14317150D01*
X14211730Y-14317150D02*
X14240301Y-14317150D01*
X14240301Y-14317150D02*
X14259349Y-14326674D01*
X14335539Y-14526674D02*
X14345063Y-14517150D01*
X14345063Y-14517150D02*
X14364111Y-14488579D01*
X14364111Y-14488579D02*
X14373634Y-14469531D01*
X14373634Y-14469531D02*
X14383158Y-14440960D01*
X14383158Y-14440960D02*
X14392682Y-14393341D01*
X14392682Y-14393341D02*
X14392682Y-14355246D01*
X14392682Y-14355246D02*
X14383158Y-14307627D01*
X14383158Y-14307627D02*
X14373634Y-14279055D01*
X14373634Y-14279055D02*
X14364111Y-14260008D01*
X14364111Y-14260008D02*
X14345063Y-14231436D01*
X14345063Y-14231436D02*
X14335539Y-14221912D01*
M02*
