M48
; DRILL file {KiCad 8.0.4} date 2024-12-09T12:19:05+0100
; FORMAT={-:-/ absolute / metric / decimal}
; #@! TF.CreationDate,2024-12-09T12:19:05+01:00
; #@! TF.GenerationSoftware,Kicad,Pcbnew,8.0.4
; #@! TF.FileFunction,Plated,3,6,Blind
FMAT,2
METRIC
; #@! TA.AperFunction,Plated,Buried,ViaDrill
T1C0.300
%
G90
G05
T1
X114.5Y-122.75
X114.55Y-121.05
X114.55Y-121.9
X115.3Y-122.75
X115.35Y-121.05
X115.35Y-121.9
X116.1Y-122.75
X116.15Y-121.05
X116.15Y-121.9
X116.95Y-121.05
X116.95Y-122.75
X117.0Y-121.9
X117.65Y-113.25
X117.7Y-121.05
X117.75Y-122.75
X117.8Y-121.9
X118.25Y-114.75
X118.3Y-114.0
X118.35Y-113.25
X119.05Y-114.8
X119.1Y-114.05
X119.15Y-113.3
X119.3Y-124.7
X120.1Y-124.7
X120.9Y-124.7
X121.7Y-124.7
X122.45Y-124.7
X127.4Y-101.0
X130.975Y-109.925
X140.55Y-111.75
X140.9Y-99.9
X145.3Y-111.75
M30
