%TF.GenerationSoftware,KiCad,Pcbnew,8.0.4*%
%TF.CreationDate,2024-12-09T12:19:06+01:00*%
%TF.ProjectId,BLDC motor controller,424c4443-206d-46f7-946f-7220636f6e74,1.1*%
%TF.SameCoordinates,Original*%
%TF.FileFunction,Drillmap*%
%TF.FilePolarity,Positive*%
%FSLAX45Y45*%
G04 Gerber Fmt 4.5, Leading zero omitted, Abs format (unit mm)*
G04 Created by KiCad (PCBNEW 8.0.4) date 2024-12-09 12:19:06*
%MOMM*%
%LPD*%
G01*
G04 APERTURE LIST*
%ADD10C,0.100000*%
%ADD11C,0.200000*%
G04 APERTURE END LIST*
D10*
X9725000Y-6750000D02*
X16700000Y-6750000D01*
X9375000Y-7100000D02*
G75*
G02*
X9725000Y-6750000I350000J0D01*
G01*
X9375000Y-13100000D02*
X9375000Y-8750000D01*
X16700000Y-6750000D02*
G75*
G02*
X17049111Y-7124936I0J-350000D01*
G01*
X9725000Y-13450000D02*
X16700000Y-13450000D01*
X17050000Y-13100000D02*
X17050000Y-7125000D01*
X17050000Y-13100000D02*
G75*
G02*
X16700000Y-13450000I-350000J0D01*
G01*
X9725000Y-13450000D02*
G75*
G02*
X9375000Y-13100000I0J350000D01*
G01*
X9375000Y-8750000D02*
X9375000Y-7100000D01*
D11*
D10*
X9420000Y-10365000D02*
X9450000Y-10395000D01*
X9450000Y-10365000D02*
X9420000Y-10395000D01*
X9425000Y-10465000D02*
X9455000Y-10495000D01*
X9455000Y-10465000D02*
X9425000Y-10495000D01*
X9435000Y-10615000D02*
X9465000Y-10645000D01*
X9465000Y-10615000D02*
X9435000Y-10645000D01*
X9435000Y-10720000D02*
X9465000Y-10750000D01*
X9465000Y-10720000D02*
X9435000Y-10750000D01*
X9435000Y-10835000D02*
X9465000Y-10865000D01*
X9465000Y-10835000D02*
X9435000Y-10865000D01*
X9435000Y-10945000D02*
X9465000Y-10975000D01*
X9465000Y-10945000D02*
X9435000Y-10975000D01*
X9435000Y-11045000D02*
X9465000Y-11075000D01*
X9465000Y-11045000D02*
X9435000Y-11075000D01*
X9435000Y-11175000D02*
X9465000Y-11205000D01*
X9465000Y-11175000D02*
X9435000Y-11205000D01*
X9435000Y-11280000D02*
X9465000Y-11310000D01*
X9465000Y-11280000D02*
X9435000Y-11310000D01*
X9435000Y-11395000D02*
X9465000Y-11425000D01*
X9465000Y-11395000D02*
X9435000Y-11425000D01*
X9435000Y-11505000D02*
X9465000Y-11535000D01*
X9465000Y-11505000D02*
X9435000Y-11535000D01*
X9435000Y-11605000D02*
X9465000Y-11635000D01*
X9465000Y-11605000D02*
X9435000Y-11635000D01*
X9465000Y-8155000D02*
X9495000Y-8185000D01*
X9495000Y-8155000D02*
X9465000Y-8185000D01*
X9465000Y-11795000D02*
X9495000Y-11825000D01*
X9495000Y-11795000D02*
X9465000Y-11825000D01*
X9465000Y-11895000D02*
X9495000Y-11925000D01*
X9495000Y-11895000D02*
X9465000Y-11925000D01*
X9465000Y-12650000D02*
X9495000Y-12680000D01*
X9495000Y-12650000D02*
X9465000Y-12680000D01*
X9475000Y-7485000D02*
X9505000Y-7515000D01*
X9505000Y-7485000D02*
X9475000Y-7515000D01*
X9480000Y-7585000D02*
X9510000Y-7615000D01*
X9510000Y-7585000D02*
X9480000Y-7615000D01*
X9525000Y-10365000D02*
X9555000Y-10395000D01*
X9555000Y-10365000D02*
X9525000Y-10395000D01*
X9530000Y-10465000D02*
X9560000Y-10495000D01*
X9560000Y-10465000D02*
X9530000Y-10495000D01*
X9535000Y-10610000D02*
X9565000Y-10640000D01*
X9565000Y-10610000D02*
X9535000Y-10640000D01*
X9535000Y-10715000D02*
X9565000Y-10745000D01*
X9565000Y-10715000D02*
X9535000Y-10745000D01*
X9535000Y-10830000D02*
X9565000Y-10860000D01*
X9565000Y-10830000D02*
X9535000Y-10860000D01*
X9535000Y-10940000D02*
X9565000Y-10970000D01*
X9565000Y-10940000D02*
X9535000Y-10970000D01*
X9535000Y-11040000D02*
X9565000Y-11070000D01*
X9565000Y-11040000D02*
X9535000Y-11070000D01*
X9535000Y-11170000D02*
X9565000Y-11200000D01*
X9565000Y-11170000D02*
X9535000Y-11200000D01*
X9535000Y-11275000D02*
X9565000Y-11305000D01*
X9565000Y-11275000D02*
X9535000Y-11305000D01*
X9535000Y-11390000D02*
X9565000Y-11420000D01*
X9565000Y-11390000D02*
X9535000Y-11420000D01*
X9535000Y-11500000D02*
X9565000Y-11530000D01*
X9565000Y-11500000D02*
X9535000Y-11530000D01*
X9535000Y-11600000D02*
X9565000Y-11630000D01*
X9565000Y-11600000D02*
X9535000Y-11630000D01*
X9555000Y-9095000D02*
X9585000Y-9125000D01*
X9585000Y-9095000D02*
X9555000Y-9125000D01*
X9555000Y-9205000D02*
X9585000Y-9235000D01*
X9585000Y-9205000D02*
X9555000Y-9235000D01*
X9555000Y-9310000D02*
X9585000Y-9340000D01*
X9585000Y-9310000D02*
X9555000Y-9340000D01*
X9555000Y-9425000D02*
X9585000Y-9455000D01*
X9585000Y-9425000D02*
X9555000Y-9455000D01*
X9555000Y-9525000D02*
X9585000Y-9555000D01*
X9585000Y-9525000D02*
X9555000Y-9555000D01*
X9555000Y-9640000D02*
X9585000Y-9670000D01*
X9585000Y-9640000D02*
X9555000Y-9670000D01*
X9555000Y-9745000D02*
X9585000Y-9775000D01*
X9585000Y-9745000D02*
X9555000Y-9775000D01*
X9555000Y-9855000D02*
X9585000Y-9885000D01*
X9585000Y-9855000D02*
X9555000Y-9885000D01*
X9555000Y-9970000D02*
X9585000Y-10000000D01*
X9585000Y-9970000D02*
X9555000Y-10000000D01*
X9555000Y-10065000D02*
X9585000Y-10095000D01*
X9585000Y-10065000D02*
X9555000Y-10095000D01*
X9565000Y-11790000D02*
X9595000Y-11820000D01*
X9595000Y-11790000D02*
X9565000Y-11820000D01*
X9565000Y-11890000D02*
X9595000Y-11920000D01*
X9595000Y-11890000D02*
X9565000Y-11920000D01*
X9570000Y-8155000D02*
X9600000Y-8185000D01*
X9600000Y-8155000D02*
X9570000Y-8185000D01*
X9580000Y-7485000D02*
X9610000Y-7515000D01*
X9610000Y-7485000D02*
X9580000Y-7515000D01*
X9585000Y-7585000D02*
X9615000Y-7615000D01*
X9615000Y-7585000D02*
X9585000Y-7615000D01*
X9635000Y-10610000D02*
X9665000Y-10640000D01*
X9665000Y-10610000D02*
X9635000Y-10640000D01*
X9635000Y-10715000D02*
X9665000Y-10745000D01*
X9665000Y-10715000D02*
X9635000Y-10745000D01*
X9635000Y-10830000D02*
X9665000Y-10860000D01*
X9665000Y-10830000D02*
X9635000Y-10860000D01*
X9635000Y-10940000D02*
X9665000Y-10970000D01*
X9665000Y-10940000D02*
X9635000Y-10970000D01*
X9635000Y-11040000D02*
X9665000Y-11070000D01*
X9665000Y-11040000D02*
X9635000Y-11070000D01*
X9635000Y-11170000D02*
X9665000Y-11200000D01*
X9665000Y-11170000D02*
X9635000Y-11200000D01*
X9635000Y-11275000D02*
X9665000Y-11305000D01*
X9665000Y-11275000D02*
X9635000Y-11305000D01*
X9635000Y-11390000D02*
X9665000Y-11420000D01*
X9665000Y-11390000D02*
X9635000Y-11420000D01*
X9635000Y-11500000D02*
X9665000Y-11530000D01*
X9665000Y-11500000D02*
X9635000Y-11530000D01*
X9635000Y-11600000D02*
X9665000Y-11630000D01*
X9665000Y-11600000D02*
X9635000Y-11630000D01*
X9640000Y-10365000D02*
X9670000Y-10395000D01*
X9670000Y-10365000D02*
X9640000Y-10395000D01*
X9645000Y-10465000D02*
X9675000Y-10495000D01*
X9675000Y-10465000D02*
X9645000Y-10495000D01*
X9665000Y-8155000D02*
X9695000Y-8185000D01*
X9695000Y-8155000D02*
X9665000Y-8185000D01*
X9675000Y-7485000D02*
X9705000Y-7515000D01*
X9705000Y-7485000D02*
X9675000Y-7515000D01*
X9680000Y-7585000D02*
X9710000Y-7615000D01*
X9710000Y-7585000D02*
X9680000Y-7615000D01*
X9750000Y-10365000D02*
X9780000Y-10395000D01*
X9780000Y-10365000D02*
X9750000Y-10395000D01*
X9755000Y-10465000D02*
X9785000Y-10495000D01*
X9785000Y-10465000D02*
X9755000Y-10495000D01*
X9755000Y-12325000D02*
X9785000Y-12355000D01*
X9785000Y-12325000D02*
X9755000Y-12355000D01*
X9765000Y-12545000D02*
X9795000Y-12575000D01*
X9795000Y-12545000D02*
X9765000Y-12575000D01*
X9770000Y-8155000D02*
X9800000Y-8185000D01*
X9800000Y-8155000D02*
X9770000Y-8185000D01*
X9780000Y-7485000D02*
X9810000Y-7515000D01*
X9810000Y-7485000D02*
X9780000Y-7515000D01*
X9785000Y-7585000D02*
X9815000Y-7615000D01*
X9815000Y-7585000D02*
X9785000Y-7615000D01*
X9850000Y-10365000D02*
X9880000Y-10395000D01*
X9880000Y-10365000D02*
X9850000Y-10395000D01*
X9855000Y-10465000D02*
X9885000Y-10495000D01*
X9885000Y-10465000D02*
X9855000Y-10495000D01*
X9865000Y-8145000D02*
X9895000Y-8175000D01*
X9895000Y-8145000D02*
X9865000Y-8175000D01*
X9865000Y-12325000D02*
X9895000Y-12355000D01*
X9895000Y-12325000D02*
X9865000Y-12355000D01*
X9875000Y-7475000D02*
X9905000Y-7505000D01*
X9905000Y-7475000D02*
X9875000Y-7505000D01*
X9880000Y-7575000D02*
X9910000Y-7605000D01*
X9910000Y-7575000D02*
X9880000Y-7605000D01*
X9945000Y-9635000D02*
X9975000Y-9665000D01*
X9975000Y-9635000D02*
X9945000Y-9665000D01*
X9965000Y-12325000D02*
X9995000Y-12355000D01*
X9995000Y-12325000D02*
X9965000Y-12355000D01*
X9970000Y-12425000D02*
X10000000Y-12455000D01*
X10000000Y-12425000D02*
X9970000Y-12455000D01*
X10035000Y-6805000D02*
X10065000Y-6835000D01*
X10065000Y-6805000D02*
X10035000Y-6835000D01*
X10040000Y-6905000D02*
X10070000Y-6935000D01*
X10070000Y-6905000D02*
X10040000Y-6935000D01*
X10040000Y-9635000D02*
X10070000Y-9665000D01*
X10070000Y-9635000D02*
X10040000Y-9665000D01*
X10075000Y-10935000D02*
X10105000Y-10965000D01*
X10105000Y-10935000D02*
X10075000Y-10965000D01*
X10075000Y-11040000D02*
X10105000Y-11070000D01*
X10105000Y-11040000D02*
X10075000Y-11070000D01*
X10075000Y-11155000D02*
X10105000Y-11185000D01*
X10105000Y-11155000D02*
X10075000Y-11185000D01*
X10075000Y-11265000D02*
X10105000Y-11295000D01*
X10105000Y-11265000D02*
X10075000Y-11295000D01*
X10075000Y-11365000D02*
X10105000Y-11395000D01*
X10105000Y-11365000D02*
X10075000Y-11395000D01*
X10140000Y-6805000D02*
X10170000Y-6835000D01*
X10170000Y-6805000D02*
X10140000Y-6835000D01*
X10145000Y-6905000D02*
X10175000Y-6935000D01*
X10175000Y-6905000D02*
X10145000Y-6935000D01*
X10155000Y-9635000D02*
X10185000Y-9665000D01*
X10185000Y-9635000D02*
X10155000Y-9665000D01*
X10155000Y-11505000D02*
X10185000Y-11535000D01*
X10185000Y-11505000D02*
X10155000Y-11535000D01*
X10155000Y-11605000D02*
X10185000Y-11635000D01*
X10185000Y-11605000D02*
X10155000Y-11635000D01*
X10155000Y-11720000D02*
X10185000Y-11750000D01*
X10185000Y-11720000D02*
X10155000Y-11750000D01*
X10155000Y-11820000D02*
X10185000Y-11850000D01*
X10185000Y-11820000D02*
X10155000Y-11850000D01*
X10155000Y-11930000D02*
X10185000Y-11960000D01*
X10185000Y-11930000D02*
X10155000Y-11960000D01*
X10155000Y-12035000D02*
X10185000Y-12065000D01*
X10185000Y-12035000D02*
X10155000Y-12065000D01*
X10155000Y-12150000D02*
X10185000Y-12180000D01*
X10185000Y-12150000D02*
X10155000Y-12180000D01*
X10155000Y-12260000D02*
X10185000Y-12290000D01*
X10185000Y-12260000D02*
X10155000Y-12290000D01*
X10155000Y-12360000D02*
X10185000Y-12390000D01*
X10185000Y-12360000D02*
X10155000Y-12390000D01*
X10175000Y-7555000D02*
X10205000Y-7585000D01*
X10205000Y-7555000D02*
X10175000Y-7585000D01*
X10175000Y-7665000D02*
X10205000Y-7695000D01*
X10205000Y-7665000D02*
X10175000Y-7695000D01*
X10175000Y-7770000D02*
X10205000Y-7800000D01*
X10205000Y-7770000D02*
X10175000Y-7800000D01*
X10175000Y-7885000D02*
X10205000Y-7915000D01*
X10205000Y-7885000D02*
X10175000Y-7915000D01*
X10175000Y-7985000D02*
X10205000Y-8015000D01*
X10205000Y-7985000D02*
X10175000Y-8015000D01*
X10175000Y-8095000D02*
X10205000Y-8125000D01*
X10205000Y-8095000D02*
X10175000Y-8125000D01*
X10175000Y-8200000D02*
X10205000Y-8230000D01*
X10205000Y-8200000D02*
X10175000Y-8230000D01*
X10175000Y-8315000D02*
X10205000Y-8345000D01*
X10205000Y-8315000D02*
X10175000Y-8345000D01*
X10175000Y-8415000D02*
X10205000Y-8445000D01*
X10205000Y-8415000D02*
X10175000Y-8445000D01*
X10175000Y-8530000D02*
X10205000Y-8560000D01*
X10205000Y-8530000D02*
X10175000Y-8560000D01*
X10175000Y-8635000D02*
X10205000Y-8665000D01*
X10205000Y-8635000D02*
X10175000Y-8665000D01*
X10175000Y-10930000D02*
X10205000Y-10960000D01*
X10205000Y-10930000D02*
X10175000Y-10960000D01*
X10175000Y-11035000D02*
X10205000Y-11065000D01*
X10205000Y-11035000D02*
X10175000Y-11065000D01*
X10175000Y-11150000D02*
X10205000Y-11180000D01*
X10205000Y-11150000D02*
X10175000Y-11180000D01*
X10175000Y-11260000D02*
X10205000Y-11290000D01*
X10205000Y-11260000D02*
X10175000Y-11290000D01*
X10175000Y-11360000D02*
X10205000Y-11390000D01*
X10205000Y-11360000D02*
X10175000Y-11390000D01*
X10195000Y-12645000D02*
X10225000Y-12675000D01*
X10225000Y-12645000D02*
X10195000Y-12675000D01*
X10200000Y-12745000D02*
X10230000Y-12775000D01*
X10230000Y-12745000D02*
X10200000Y-12775000D01*
X10200000Y-12845000D02*
X10230000Y-12875000D01*
X10230000Y-12845000D02*
X10200000Y-12875000D01*
X10200000Y-12955000D02*
X10230000Y-12985000D01*
X10230000Y-12955000D02*
X10200000Y-12985000D01*
X10205000Y-13055000D02*
X10235000Y-13085000D01*
X10235000Y-13055000D02*
X10205000Y-13085000D01*
X10235000Y-6805000D02*
X10265000Y-6835000D01*
X10265000Y-6805000D02*
X10235000Y-6835000D01*
X10240000Y-6905000D02*
X10270000Y-6935000D01*
X10270000Y-6905000D02*
X10240000Y-6935000D01*
X10255000Y-11715000D02*
X10285000Y-11745000D01*
X10285000Y-11715000D02*
X10255000Y-11745000D01*
X10255000Y-11825000D02*
X10285000Y-11855000D01*
X10285000Y-11825000D02*
X10255000Y-11855000D01*
X10255000Y-11925000D02*
X10285000Y-11955000D01*
X10285000Y-11925000D02*
X10255000Y-11955000D01*
X10255000Y-12030000D02*
X10285000Y-12060000D01*
X10285000Y-12030000D02*
X10255000Y-12060000D01*
X10255000Y-12145000D02*
X10285000Y-12175000D01*
X10285000Y-12145000D02*
X10255000Y-12175000D01*
X10255000Y-12255000D02*
X10285000Y-12285000D01*
X10285000Y-12255000D02*
X10255000Y-12285000D01*
X10255000Y-12355000D02*
X10285000Y-12385000D01*
X10285000Y-12355000D02*
X10255000Y-12385000D01*
X10265000Y-9635000D02*
X10295000Y-9665000D01*
X10295000Y-9635000D02*
X10265000Y-9665000D01*
X10270000Y-10410000D02*
X10300000Y-10440000D01*
X10300000Y-10410000D02*
X10270000Y-10440000D01*
X10275000Y-10525000D02*
X10305000Y-10555000D01*
X10305000Y-10525000D02*
X10275000Y-10555000D01*
X10275000Y-10635000D02*
X10305000Y-10665000D01*
X10305000Y-10635000D02*
X10275000Y-10665000D01*
X10275000Y-10930000D02*
X10305000Y-10960000D01*
X10305000Y-10930000D02*
X10275000Y-10960000D01*
X10275000Y-11035000D02*
X10305000Y-11065000D01*
X10305000Y-11035000D02*
X10275000Y-11065000D01*
X10275000Y-11150000D02*
X10305000Y-11180000D01*
X10305000Y-11150000D02*
X10275000Y-11180000D01*
X10275000Y-11260000D02*
X10305000Y-11290000D01*
X10305000Y-11260000D02*
X10275000Y-11290000D01*
X10275000Y-11360000D02*
X10305000Y-11390000D01*
X10305000Y-11360000D02*
X10275000Y-11390000D01*
X10280000Y-10750000D02*
X10310000Y-10780000D01*
X10310000Y-10750000D02*
X10280000Y-10780000D01*
X10285000Y-10860000D02*
X10315000Y-10890000D01*
X10315000Y-10860000D02*
X10285000Y-10890000D01*
X10295000Y-12645000D02*
X10325000Y-12675000D01*
X10325000Y-12645000D02*
X10295000Y-12675000D01*
X10300000Y-12745000D02*
X10330000Y-12775000D01*
X10330000Y-12745000D02*
X10300000Y-12775000D01*
X10300000Y-12845000D02*
X10330000Y-12875000D01*
X10330000Y-12845000D02*
X10300000Y-12875000D01*
X10300000Y-12955000D02*
X10330000Y-12985000D01*
X10330000Y-12955000D02*
X10300000Y-12985000D01*
X10305000Y-13055000D02*
X10335000Y-13085000D01*
X10335000Y-13055000D02*
X10305000Y-13085000D01*
X10305000Y-13365000D02*
X10335000Y-13395000D01*
X10335000Y-13365000D02*
X10305000Y-13395000D01*
X10340000Y-6805000D02*
X10370000Y-6835000D01*
X10370000Y-6805000D02*
X10340000Y-6835000D01*
X10345000Y-6905000D02*
X10375000Y-6935000D01*
X10375000Y-6905000D02*
X10345000Y-6935000D01*
X10370000Y-9635000D02*
X10400000Y-9665000D01*
X10400000Y-9635000D02*
X10370000Y-9665000D01*
X10380000Y-10410000D02*
X10410000Y-10440000D01*
X10410000Y-10410000D02*
X10380000Y-10440000D01*
X10385000Y-10525000D02*
X10415000Y-10555000D01*
X10415000Y-10525000D02*
X10385000Y-10555000D01*
X10385000Y-10635000D02*
X10415000Y-10665000D01*
X10415000Y-10635000D02*
X10385000Y-10665000D01*
X10390000Y-10750000D02*
X10420000Y-10780000D01*
X10420000Y-10750000D02*
X10390000Y-10780000D01*
X10395000Y-10860000D02*
X10425000Y-10890000D01*
X10425000Y-10860000D02*
X10395000Y-10890000D01*
X10405000Y-12645000D02*
X10435000Y-12675000D01*
X10435000Y-12645000D02*
X10405000Y-12675000D01*
X10410000Y-12745000D02*
X10440000Y-12775000D01*
X10440000Y-12745000D02*
X10410000Y-12775000D01*
X10410000Y-12845000D02*
X10440000Y-12875000D01*
X10440000Y-12845000D02*
X10410000Y-12875000D01*
X10410000Y-12955000D02*
X10440000Y-12985000D01*
X10440000Y-12955000D02*
X10410000Y-12985000D01*
X10415000Y-13055000D02*
X10445000Y-13085000D01*
X10445000Y-13055000D02*
X10415000Y-13085000D01*
X10415000Y-13155000D02*
X10445000Y-13185000D01*
X10445000Y-13155000D02*
X10415000Y-13185000D01*
X10415000Y-13265000D02*
X10445000Y-13295000D01*
X10445000Y-13265000D02*
X10415000Y-13295000D01*
X10415000Y-13365000D02*
X10445000Y-13395000D01*
X10445000Y-13365000D02*
X10415000Y-13395000D01*
X10435000Y-6795000D02*
X10465000Y-6825000D01*
X10465000Y-6795000D02*
X10435000Y-6825000D01*
X10440000Y-6895000D02*
X10470000Y-6925000D01*
X10470000Y-6895000D02*
X10440000Y-6925000D01*
X10465000Y-8930000D02*
X10495000Y-8960000D01*
X10495000Y-8930000D02*
X10465000Y-8960000D01*
X10465000Y-9030000D02*
X10495000Y-9060000D01*
X10495000Y-9030000D02*
X10465000Y-9060000D01*
X10485000Y-9635000D02*
X10515000Y-9665000D01*
X10515000Y-9635000D02*
X10485000Y-9665000D01*
X10495000Y-10410000D02*
X10525000Y-10440000D01*
X10525000Y-10410000D02*
X10495000Y-10440000D01*
X10500000Y-10525000D02*
X10530000Y-10555000D01*
X10530000Y-10525000D02*
X10500000Y-10555000D01*
X10500000Y-10635000D02*
X10530000Y-10665000D01*
X10530000Y-10635000D02*
X10500000Y-10665000D01*
X10505000Y-10750000D02*
X10535000Y-10780000D01*
X10535000Y-10750000D02*
X10505000Y-10780000D01*
X10510000Y-10860000D02*
X10540000Y-10890000D01*
X10540000Y-10860000D02*
X10510000Y-10890000D01*
X10520000Y-12645000D02*
X10550000Y-12675000D01*
X10550000Y-12645000D02*
X10520000Y-12675000D01*
X10525000Y-12745000D02*
X10555000Y-12775000D01*
X10555000Y-12745000D02*
X10525000Y-12775000D01*
X10525000Y-12845000D02*
X10555000Y-12875000D01*
X10555000Y-12845000D02*
X10525000Y-12875000D01*
X10525000Y-12955000D02*
X10555000Y-12985000D01*
X10555000Y-12955000D02*
X10525000Y-12985000D01*
X10530000Y-13055000D02*
X10560000Y-13085000D01*
X10560000Y-13055000D02*
X10530000Y-13085000D01*
X10530000Y-13155000D02*
X10560000Y-13185000D01*
X10560000Y-13155000D02*
X10530000Y-13185000D01*
X10530000Y-13265000D02*
X10560000Y-13295000D01*
X10560000Y-13265000D02*
X10530000Y-13295000D01*
X10530000Y-13365000D02*
X10560000Y-13395000D01*
X10560000Y-13365000D02*
X10530000Y-13395000D01*
X10550000Y-8980000D02*
X10580000Y-9010000D01*
X10580000Y-8980000D02*
X10550000Y-9010000D01*
X10595000Y-9635000D02*
X10625000Y-9665000D01*
X10625000Y-9635000D02*
X10595000Y-9665000D01*
X10605000Y-10415000D02*
X10635000Y-10445000D01*
X10635000Y-10415000D02*
X10605000Y-10445000D01*
X10610000Y-10530000D02*
X10640000Y-10560000D01*
X10640000Y-10530000D02*
X10610000Y-10560000D01*
X10610000Y-10640000D02*
X10640000Y-10670000D01*
X10640000Y-10640000D02*
X10610000Y-10670000D01*
X10615000Y-10755000D02*
X10645000Y-10785000D01*
X10645000Y-10755000D02*
X10615000Y-10785000D01*
X10625000Y-12645000D02*
X10655000Y-12675000D01*
X10655000Y-12645000D02*
X10625000Y-12675000D01*
X10630000Y-12745000D02*
X10660000Y-12775000D01*
X10660000Y-12745000D02*
X10630000Y-12775000D01*
X10630000Y-12845000D02*
X10660000Y-12875000D01*
X10660000Y-12845000D02*
X10630000Y-12875000D01*
X10630000Y-12955000D02*
X10660000Y-12985000D01*
X10660000Y-12955000D02*
X10630000Y-12985000D01*
X10635000Y-8930000D02*
X10665000Y-8960000D01*
X10665000Y-8930000D02*
X10635000Y-8960000D01*
X10635000Y-9030000D02*
X10665000Y-9060000D01*
X10665000Y-9030000D02*
X10635000Y-9060000D01*
X10635000Y-13055000D02*
X10665000Y-13085000D01*
X10665000Y-13055000D02*
X10635000Y-13085000D01*
X10635000Y-13155000D02*
X10665000Y-13185000D01*
X10665000Y-13155000D02*
X10635000Y-13185000D01*
X10635000Y-13265000D02*
X10665000Y-13295000D01*
X10665000Y-13265000D02*
X10635000Y-13295000D01*
X10635000Y-13365000D02*
X10665000Y-13395000D01*
X10665000Y-13365000D02*
X10635000Y-13395000D01*
X10695000Y-9635000D02*
X10725000Y-9665000D01*
X10725000Y-9635000D02*
X10695000Y-9665000D01*
X10715000Y-10415000D02*
X10745000Y-10445000D01*
X10745000Y-10415000D02*
X10715000Y-10445000D01*
X10720000Y-10530000D02*
X10750000Y-10560000D01*
X10750000Y-10530000D02*
X10720000Y-10560000D01*
X10720000Y-10640000D02*
X10750000Y-10670000D01*
X10750000Y-10640000D02*
X10720000Y-10670000D01*
X10725000Y-10755000D02*
X10755000Y-10785000D01*
X10755000Y-10755000D02*
X10725000Y-10785000D01*
X10730000Y-11410000D02*
X10760000Y-11440000D01*
X10760000Y-11410000D02*
X10730000Y-11440000D01*
X10730000Y-12745000D02*
X10760000Y-12775000D01*
X10760000Y-12745000D02*
X10730000Y-12775000D01*
X10730000Y-12845000D02*
X10760000Y-12875000D01*
X10760000Y-12845000D02*
X10730000Y-12875000D01*
X10730000Y-12955000D02*
X10760000Y-12985000D01*
X10760000Y-12955000D02*
X10730000Y-12985000D01*
X10735000Y-12645000D02*
X10765000Y-12675000D01*
X10765000Y-12645000D02*
X10735000Y-12675000D01*
X10735000Y-13055000D02*
X10765000Y-13085000D01*
X10765000Y-13055000D02*
X10735000Y-13085000D01*
X10735000Y-13155000D02*
X10765000Y-13185000D01*
X10765000Y-13155000D02*
X10735000Y-13185000D01*
X10735000Y-13265000D02*
X10765000Y-13295000D01*
X10765000Y-13265000D02*
X10735000Y-13295000D01*
X10735000Y-13365000D02*
X10765000Y-13395000D01*
X10765000Y-13365000D02*
X10735000Y-13395000D01*
X10795000Y-9635000D02*
X10825000Y-9665000D01*
X10825000Y-9635000D02*
X10795000Y-9665000D01*
X10830000Y-10415000D02*
X10860000Y-10445000D01*
X10860000Y-10415000D02*
X10830000Y-10445000D01*
X10830000Y-11415000D02*
X10860000Y-11445000D01*
X10860000Y-11415000D02*
X10830000Y-11445000D01*
X10835000Y-10530000D02*
X10865000Y-10560000D01*
X10865000Y-10530000D02*
X10835000Y-10560000D01*
X10835000Y-10640000D02*
X10865000Y-10670000D01*
X10865000Y-10640000D02*
X10835000Y-10670000D01*
X10835000Y-12645000D02*
X10865000Y-12675000D01*
X10865000Y-12645000D02*
X10835000Y-12675000D01*
X10840000Y-10755000D02*
X10870000Y-10785000D01*
X10870000Y-10755000D02*
X10840000Y-10785000D01*
X10840000Y-12745000D02*
X10870000Y-12775000D01*
X10870000Y-12745000D02*
X10840000Y-12775000D01*
X10840000Y-12845000D02*
X10870000Y-12875000D01*
X10870000Y-12845000D02*
X10840000Y-12875000D01*
X10840000Y-12955000D02*
X10870000Y-12985000D01*
X10870000Y-12955000D02*
X10840000Y-12985000D01*
X10845000Y-13055000D02*
X10875000Y-13085000D01*
X10875000Y-13055000D02*
X10845000Y-13085000D01*
X10845000Y-13155000D02*
X10875000Y-13185000D01*
X10875000Y-13155000D02*
X10845000Y-13185000D01*
X10845000Y-13265000D02*
X10875000Y-13295000D01*
X10875000Y-13265000D02*
X10845000Y-13295000D01*
X10845000Y-13365000D02*
X10875000Y-13395000D01*
X10875000Y-13365000D02*
X10845000Y-13395000D01*
X10900000Y-12460000D02*
X10930000Y-12490000D01*
X10930000Y-12460000D02*
X10900000Y-12490000D01*
X10910000Y-9635000D02*
X10940000Y-9665000D01*
X10940000Y-9635000D02*
X10910000Y-9665000D01*
X10910000Y-10375000D02*
X10940000Y-10405000D01*
X10940000Y-10375000D02*
X10910000Y-10405000D01*
X10915000Y-10490000D02*
X10945000Y-10520000D01*
X10945000Y-10490000D02*
X10915000Y-10520000D01*
X10940000Y-10590000D02*
X10970000Y-10620000D01*
X10970000Y-10590000D02*
X10940000Y-10620000D01*
X10945000Y-10705000D02*
X10975000Y-10735000D01*
X10975000Y-10705000D02*
X10945000Y-10735000D01*
X10950000Y-12645000D02*
X10980000Y-12675000D01*
X10980000Y-12645000D02*
X10950000Y-12675000D01*
X10955000Y-12745000D02*
X10985000Y-12775000D01*
X10985000Y-12745000D02*
X10955000Y-12775000D01*
X10955000Y-12845000D02*
X10985000Y-12875000D01*
X10985000Y-12845000D02*
X10955000Y-12875000D01*
X10955000Y-12955000D02*
X10985000Y-12985000D01*
X10985000Y-12955000D02*
X10955000Y-12985000D01*
X10960000Y-13055000D02*
X10990000Y-13085000D01*
X10990000Y-13055000D02*
X10960000Y-13085000D01*
X10960000Y-13155000D02*
X10990000Y-13185000D01*
X10990000Y-13155000D02*
X10960000Y-13185000D01*
X10960000Y-13265000D02*
X10990000Y-13295000D01*
X10990000Y-13265000D02*
X10960000Y-13295000D01*
X10960000Y-13365000D02*
X10990000Y-13395000D01*
X10990000Y-13365000D02*
X10960000Y-13395000D01*
X11020000Y-9635000D02*
X11050000Y-9665000D01*
X11050000Y-9635000D02*
X11020000Y-9665000D01*
X11020000Y-10375000D02*
X11050000Y-10405000D01*
X11050000Y-10375000D02*
X11020000Y-10405000D01*
X11025000Y-10490000D02*
X11055000Y-10520000D01*
X11055000Y-10490000D02*
X11025000Y-10520000D01*
X11050000Y-10590000D02*
X11080000Y-10620000D01*
X11080000Y-10590000D02*
X11050000Y-10620000D01*
X11050000Y-12645000D02*
X11080000Y-12675000D01*
X11080000Y-12645000D02*
X11050000Y-12675000D01*
X11055000Y-10705000D02*
X11085000Y-10735000D01*
X11085000Y-10705000D02*
X11055000Y-10735000D01*
X11055000Y-12745000D02*
X11085000Y-12775000D01*
X11085000Y-12745000D02*
X11055000Y-12775000D01*
X11055000Y-12845000D02*
X11085000Y-12875000D01*
X11085000Y-12845000D02*
X11055000Y-12875000D01*
X11055000Y-12955000D02*
X11085000Y-12985000D01*
X11085000Y-12955000D02*
X11055000Y-12985000D01*
X11060000Y-13055000D02*
X11090000Y-13085000D01*
X11090000Y-13055000D02*
X11060000Y-13085000D01*
X11060000Y-13155000D02*
X11090000Y-13185000D01*
X11090000Y-13155000D02*
X11060000Y-13185000D01*
X11060000Y-13265000D02*
X11090000Y-13295000D01*
X11090000Y-13265000D02*
X11060000Y-13295000D01*
X11060000Y-13365000D02*
X11090000Y-13395000D01*
X11090000Y-13365000D02*
X11060000Y-13395000D01*
X11120000Y-9635000D02*
X11150000Y-9665000D01*
X11150000Y-9635000D02*
X11120000Y-9665000D01*
X11165000Y-10590000D02*
X11195000Y-10620000D01*
X11195000Y-10590000D02*
X11165000Y-10620000D01*
X11165000Y-12835000D02*
X11195000Y-12865000D01*
X11195000Y-12835000D02*
X11165000Y-12865000D01*
X11165000Y-12945000D02*
X11195000Y-12975000D01*
X11195000Y-12945000D02*
X11165000Y-12975000D01*
X11170000Y-10705000D02*
X11200000Y-10735000D01*
X11200000Y-10705000D02*
X11170000Y-10735000D01*
X11170000Y-12735000D02*
X11200000Y-12765000D01*
X11200000Y-12735000D02*
X11170000Y-12765000D01*
X11170000Y-13145000D02*
X11200000Y-13175000D01*
X11200000Y-13145000D02*
X11170000Y-13175000D01*
X11170000Y-13255000D02*
X11200000Y-13285000D01*
X11200000Y-13255000D02*
X11170000Y-13285000D01*
X11170000Y-13355000D02*
X11200000Y-13385000D01*
X11200000Y-13355000D02*
X11170000Y-13385000D01*
X11175000Y-13045000D02*
X11205000Y-13075000D01*
X11205000Y-13045000D02*
X11175000Y-13075000D01*
X11230000Y-9635000D02*
X11260000Y-9665000D01*
X11260000Y-9635000D02*
X11230000Y-9665000D01*
X11245000Y-11780000D02*
X11275000Y-11810000D01*
X11275000Y-11780000D02*
X11245000Y-11810000D01*
X11280000Y-10610000D02*
X11310000Y-10640000D01*
X11310000Y-10610000D02*
X11280000Y-10640000D01*
X11280000Y-10705000D02*
X11310000Y-10735000D01*
X11310000Y-10705000D02*
X11280000Y-10735000D01*
X11280000Y-12735000D02*
X11310000Y-12765000D01*
X11310000Y-12735000D02*
X11280000Y-12765000D01*
X11280000Y-12835000D02*
X11310000Y-12865000D01*
X11310000Y-12835000D02*
X11280000Y-12865000D01*
X11280000Y-12945000D02*
X11310000Y-12975000D01*
X11310000Y-12945000D02*
X11280000Y-12975000D01*
X11285000Y-13045000D02*
X11315000Y-13075000D01*
X11315000Y-13045000D02*
X11285000Y-13075000D01*
X11285000Y-13145000D02*
X11315000Y-13175000D01*
X11315000Y-13145000D02*
X11285000Y-13175000D01*
X11285000Y-13255000D02*
X11315000Y-13285000D01*
X11315000Y-13255000D02*
X11285000Y-13285000D01*
X11285000Y-13355000D02*
X11315000Y-13385000D01*
X11315000Y-13355000D02*
X11285000Y-13385000D01*
X11345000Y-9635000D02*
X11375000Y-9665000D01*
X11375000Y-9635000D02*
X11345000Y-9665000D01*
X11345000Y-11785000D02*
X11375000Y-11815000D01*
X11375000Y-11785000D02*
X11345000Y-11815000D01*
X11375000Y-10650000D02*
X11405000Y-10680000D01*
X11405000Y-10650000D02*
X11375000Y-10680000D01*
X11380000Y-12735000D02*
X11410000Y-12765000D01*
X11410000Y-12735000D02*
X11380000Y-12765000D01*
X11380000Y-12835000D02*
X11410000Y-12865000D01*
X11410000Y-12835000D02*
X11380000Y-12865000D01*
X11380000Y-12945000D02*
X11410000Y-12975000D01*
X11410000Y-12945000D02*
X11380000Y-12975000D01*
X11385000Y-13045000D02*
X11415000Y-13075000D01*
X11415000Y-13045000D02*
X11385000Y-13075000D01*
X11385000Y-13145000D02*
X11415000Y-13175000D01*
X11415000Y-13145000D02*
X11385000Y-13175000D01*
X11385000Y-13255000D02*
X11415000Y-13285000D01*
X11415000Y-13255000D02*
X11385000Y-13285000D01*
X11385000Y-13355000D02*
X11415000Y-13385000D01*
X11415000Y-13355000D02*
X11385000Y-13385000D01*
X11400000Y-6805000D02*
X11430000Y-6835000D01*
X11430000Y-6805000D02*
X11400000Y-6835000D01*
X11405000Y-6905000D02*
X11435000Y-6935000D01*
X11435000Y-6905000D02*
X11405000Y-6935000D01*
X11425000Y-11785000D02*
X11455000Y-11815000D01*
X11455000Y-11785000D02*
X11425000Y-11815000D01*
X11450000Y-10595000D02*
X11480000Y-10625000D01*
X11480000Y-10595000D02*
X11450000Y-10625000D01*
X11455000Y-9635000D02*
X11485000Y-9665000D01*
X11485000Y-9635000D02*
X11455000Y-9665000D01*
X11455000Y-10710000D02*
X11485000Y-10740000D01*
X11485000Y-10710000D02*
X11455000Y-10740000D01*
X11490000Y-12745000D02*
X11520000Y-12775000D01*
X11520000Y-12745000D02*
X11490000Y-12775000D01*
X11490000Y-12845000D02*
X11520000Y-12875000D01*
X11520000Y-12845000D02*
X11490000Y-12875000D01*
X11490000Y-12955000D02*
X11520000Y-12985000D01*
X11520000Y-12955000D02*
X11490000Y-12985000D01*
X11495000Y-13055000D02*
X11525000Y-13085000D01*
X11525000Y-13055000D02*
X11495000Y-13085000D01*
X11495000Y-13155000D02*
X11525000Y-13185000D01*
X11525000Y-13155000D02*
X11495000Y-13185000D01*
X11495000Y-13265000D02*
X11525000Y-13295000D01*
X11525000Y-13265000D02*
X11495000Y-13295000D01*
X11495000Y-13365000D02*
X11525000Y-13395000D01*
X11525000Y-13365000D02*
X11495000Y-13395000D01*
X11505000Y-6805000D02*
X11535000Y-6835000D01*
X11535000Y-6805000D02*
X11505000Y-6835000D01*
X11510000Y-6905000D02*
X11540000Y-6935000D01*
X11540000Y-6905000D02*
X11510000Y-6935000D01*
X11525000Y-11790000D02*
X11555000Y-11820000D01*
X11555000Y-11790000D02*
X11525000Y-11820000D01*
X11555000Y-9635000D02*
X11585000Y-9665000D01*
X11585000Y-9635000D02*
X11555000Y-9665000D01*
X11585000Y-11585000D02*
X11615000Y-11615000D01*
X11615000Y-11585000D02*
X11585000Y-11615000D01*
X11590000Y-11660000D02*
X11620000Y-11690000D01*
X11620000Y-11660000D02*
X11590000Y-11690000D01*
X11590000Y-12745000D02*
X11620000Y-12775000D01*
X11620000Y-12745000D02*
X11590000Y-12775000D01*
X11590000Y-12845000D02*
X11620000Y-12875000D01*
X11620000Y-12845000D02*
X11590000Y-12875000D01*
X11590000Y-12955000D02*
X11620000Y-12985000D01*
X11620000Y-12955000D02*
X11590000Y-12985000D01*
X11595000Y-13055000D02*
X11625000Y-13085000D01*
X11625000Y-13055000D02*
X11595000Y-13085000D01*
X11595000Y-13155000D02*
X11625000Y-13185000D01*
X11625000Y-13155000D02*
X11595000Y-13185000D01*
X11595000Y-13265000D02*
X11625000Y-13295000D01*
X11625000Y-13265000D02*
X11595000Y-13295000D01*
X11595000Y-13365000D02*
X11625000Y-13395000D01*
X11625000Y-13365000D02*
X11595000Y-13395000D01*
X11620000Y-6805000D02*
X11650000Y-6835000D01*
X11650000Y-6805000D02*
X11620000Y-6835000D01*
X11625000Y-6905000D02*
X11655000Y-6935000D01*
X11655000Y-6905000D02*
X11625000Y-6935000D01*
X11655000Y-9635000D02*
X11685000Y-9665000D01*
X11685000Y-9635000D02*
X11655000Y-9665000D01*
X11680000Y-11660000D02*
X11710000Y-11690000D01*
X11710000Y-11660000D02*
X11680000Y-11690000D01*
X11685000Y-11590000D02*
X11715000Y-11620000D01*
X11715000Y-11590000D02*
X11685000Y-11620000D01*
X11700000Y-12745000D02*
X11730000Y-12775000D01*
X11730000Y-12745000D02*
X11700000Y-12775000D01*
X11700000Y-12845000D02*
X11730000Y-12875000D01*
X11730000Y-12845000D02*
X11700000Y-12875000D01*
X11700000Y-12955000D02*
X11730000Y-12985000D01*
X11730000Y-12955000D02*
X11700000Y-12985000D01*
X11705000Y-13055000D02*
X11735000Y-13085000D01*
X11735000Y-13055000D02*
X11705000Y-13085000D01*
X11705000Y-13155000D02*
X11735000Y-13185000D01*
X11735000Y-13155000D02*
X11705000Y-13185000D01*
X11705000Y-13265000D02*
X11735000Y-13295000D01*
X11735000Y-13265000D02*
X11705000Y-13295000D01*
X11705000Y-13365000D02*
X11735000Y-13395000D01*
X11735000Y-13365000D02*
X11705000Y-13395000D01*
X11710000Y-6805000D02*
X11740000Y-6835000D01*
X11740000Y-6805000D02*
X11710000Y-6835000D01*
X11715000Y-6905000D02*
X11745000Y-6935000D01*
X11745000Y-6905000D02*
X11715000Y-6935000D01*
X11770000Y-9635000D02*
X11800000Y-9665000D01*
X11800000Y-9635000D02*
X11770000Y-9665000D01*
X11775000Y-11775000D02*
X11805000Y-11805000D01*
X11805000Y-11775000D02*
X11775000Y-11805000D01*
X11780000Y-11675000D02*
X11810000Y-11705000D01*
X11810000Y-11675000D02*
X11780000Y-11705000D01*
X11785000Y-11590000D02*
X11815000Y-11620000D01*
X11815000Y-11590000D02*
X11785000Y-11620000D01*
X11815000Y-6805000D02*
X11845000Y-6835000D01*
X11845000Y-6805000D02*
X11815000Y-6835000D01*
X11815000Y-12745000D02*
X11845000Y-12775000D01*
X11845000Y-12745000D02*
X11815000Y-12775000D01*
X11815000Y-12845000D02*
X11845000Y-12875000D01*
X11845000Y-12845000D02*
X11815000Y-12875000D01*
X11815000Y-12955000D02*
X11845000Y-12985000D01*
X11845000Y-12955000D02*
X11815000Y-12985000D01*
X11820000Y-6905000D02*
X11850000Y-6935000D01*
X11850000Y-6905000D02*
X11820000Y-6935000D01*
X11820000Y-13055000D02*
X11850000Y-13085000D01*
X11850000Y-13055000D02*
X11820000Y-13085000D01*
X11820000Y-13155000D02*
X11850000Y-13185000D01*
X11850000Y-13155000D02*
X11820000Y-13185000D01*
X11820000Y-13265000D02*
X11850000Y-13295000D01*
X11850000Y-13265000D02*
X11820000Y-13295000D01*
X11820000Y-13365000D02*
X11850000Y-13395000D01*
X11850000Y-13365000D02*
X11820000Y-13395000D01*
X11880000Y-9635000D02*
X11910000Y-9665000D01*
X11910000Y-9635000D02*
X11880000Y-9665000D01*
X11885000Y-11780000D02*
X11915000Y-11810000D01*
X11915000Y-11780000D02*
X11885000Y-11810000D01*
X11885000Y-12155000D02*
X11915000Y-12185000D01*
X11915000Y-12155000D02*
X11885000Y-12185000D01*
X11890000Y-11590000D02*
X11920000Y-11620000D01*
X11920000Y-11590000D02*
X11890000Y-11620000D01*
X11890000Y-11680000D02*
X11920000Y-11710000D01*
X11920000Y-11680000D02*
X11890000Y-11710000D01*
X11890000Y-11880000D02*
X11920000Y-11910000D01*
X11920000Y-11880000D02*
X11890000Y-11910000D01*
X11890000Y-11965000D02*
X11920000Y-11995000D01*
X11920000Y-11965000D02*
X11890000Y-11995000D01*
X11890000Y-12055000D02*
X11920000Y-12085000D01*
X11920000Y-12055000D02*
X11890000Y-12085000D01*
X11910000Y-11050000D02*
X11940000Y-11080000D01*
X11940000Y-11050000D02*
X11910000Y-11080000D01*
X11915000Y-12745000D02*
X11945000Y-12775000D01*
X11945000Y-12745000D02*
X11915000Y-12775000D01*
X11915000Y-12845000D02*
X11945000Y-12875000D01*
X11945000Y-12845000D02*
X11915000Y-12875000D01*
X11915000Y-12955000D02*
X11945000Y-12985000D01*
X11945000Y-12955000D02*
X11915000Y-12985000D01*
X11920000Y-13055000D02*
X11950000Y-13085000D01*
X11950000Y-13055000D02*
X11920000Y-13085000D01*
X11920000Y-13155000D02*
X11950000Y-13185000D01*
X11950000Y-13155000D02*
X11920000Y-13185000D01*
X11920000Y-13265000D02*
X11950000Y-13295000D01*
X11950000Y-13265000D02*
X11920000Y-13295000D01*
X11920000Y-13365000D02*
X11950000Y-13395000D01*
X11950000Y-13365000D02*
X11920000Y-13395000D01*
X11930000Y-6805000D02*
X11960000Y-6835000D01*
X11960000Y-6805000D02*
X11930000Y-6835000D01*
X11935000Y-6905000D02*
X11965000Y-6935000D01*
X11965000Y-6905000D02*
X11935000Y-6935000D01*
X11952500Y-10552500D02*
X11982500Y-10582500D01*
X11982500Y-10552500D02*
X11952500Y-10582500D01*
X11980000Y-9635000D02*
X12010000Y-9665000D01*
X12010000Y-9635000D02*
X11980000Y-9665000D01*
X12025000Y-12735000D02*
X12055000Y-12765000D01*
X12055000Y-12735000D02*
X12025000Y-12765000D01*
X12025000Y-12835000D02*
X12055000Y-12865000D01*
X12055000Y-12835000D02*
X12025000Y-12865000D01*
X12025000Y-12945000D02*
X12055000Y-12975000D01*
X12055000Y-12945000D02*
X12025000Y-12975000D01*
X12030000Y-13045000D02*
X12060000Y-13075000D01*
X12060000Y-13045000D02*
X12030000Y-13075000D01*
X12030000Y-13145000D02*
X12060000Y-13175000D01*
X12060000Y-13145000D02*
X12030000Y-13175000D01*
X12030000Y-13255000D02*
X12060000Y-13285000D01*
X12060000Y-13255000D02*
X12030000Y-13285000D01*
X12030000Y-13355000D02*
X12060000Y-13385000D01*
X12060000Y-13355000D02*
X12030000Y-13385000D01*
X12040000Y-6805000D02*
X12070000Y-6835000D01*
X12070000Y-6805000D02*
X12040000Y-6835000D01*
X12045000Y-6905000D02*
X12075000Y-6935000D01*
X12075000Y-6905000D02*
X12045000Y-6935000D01*
X12080000Y-9635000D02*
X12110000Y-9665000D01*
X12110000Y-9635000D02*
X12080000Y-9665000D01*
X12140000Y-6805000D02*
X12170000Y-6835000D01*
X12170000Y-6805000D02*
X12140000Y-6835000D01*
X12140000Y-12735000D02*
X12170000Y-12765000D01*
X12170000Y-12735000D02*
X12140000Y-12765000D01*
X12140000Y-12835000D02*
X12170000Y-12865000D01*
X12170000Y-12835000D02*
X12140000Y-12865000D01*
X12140000Y-12945000D02*
X12170000Y-12975000D01*
X12170000Y-12945000D02*
X12140000Y-12975000D01*
X12145000Y-6905000D02*
X12175000Y-6935000D01*
X12175000Y-6905000D02*
X12145000Y-6935000D01*
X12145000Y-13045000D02*
X12175000Y-13075000D01*
X12175000Y-13045000D02*
X12145000Y-13075000D01*
X12145000Y-13145000D02*
X12175000Y-13175000D01*
X12175000Y-13145000D02*
X12145000Y-13175000D01*
X12145000Y-13255000D02*
X12175000Y-13285000D01*
X12175000Y-13255000D02*
X12145000Y-13285000D01*
X12145000Y-13355000D02*
X12175000Y-13385000D01*
X12175000Y-13355000D02*
X12145000Y-13385000D01*
X12195000Y-9635000D02*
X12225000Y-9665000D01*
X12225000Y-9635000D02*
X12195000Y-9665000D01*
X12240000Y-6805000D02*
X12270000Y-6835000D01*
X12270000Y-6805000D02*
X12240000Y-6835000D01*
X12240000Y-12735000D02*
X12270000Y-12765000D01*
X12270000Y-12735000D02*
X12240000Y-12765000D01*
X12240000Y-12835000D02*
X12270000Y-12865000D01*
X12270000Y-12835000D02*
X12240000Y-12865000D01*
X12240000Y-12945000D02*
X12270000Y-12975000D01*
X12270000Y-12945000D02*
X12240000Y-12975000D01*
X12245000Y-6905000D02*
X12275000Y-6935000D01*
X12275000Y-6905000D02*
X12245000Y-6935000D01*
X12245000Y-13045000D02*
X12275000Y-13075000D01*
X12275000Y-13045000D02*
X12245000Y-13075000D01*
X12245000Y-13145000D02*
X12275000Y-13175000D01*
X12275000Y-13145000D02*
X12245000Y-13175000D01*
X12245000Y-13255000D02*
X12275000Y-13285000D01*
X12275000Y-13255000D02*
X12245000Y-13285000D01*
X12245000Y-13355000D02*
X12275000Y-13385000D01*
X12275000Y-13355000D02*
X12245000Y-13385000D01*
X12305000Y-9635000D02*
X12335000Y-9665000D01*
X12335000Y-9635000D02*
X12305000Y-9665000D01*
X12345000Y-6805000D02*
X12375000Y-6835000D01*
X12375000Y-6805000D02*
X12345000Y-6835000D01*
X12350000Y-6905000D02*
X12380000Y-6935000D01*
X12380000Y-6905000D02*
X12350000Y-6935000D01*
X12350000Y-10670000D02*
X12380000Y-10700000D01*
X12380000Y-10670000D02*
X12350000Y-10700000D01*
X12350000Y-10780000D02*
X12380000Y-10810000D01*
X12380000Y-10780000D02*
X12350000Y-10810000D01*
X12350000Y-12745000D02*
X12380000Y-12775000D01*
X12380000Y-12745000D02*
X12350000Y-12775000D01*
X12350000Y-12845000D02*
X12380000Y-12875000D01*
X12380000Y-12845000D02*
X12350000Y-12875000D01*
X12350000Y-12955000D02*
X12380000Y-12985000D01*
X12380000Y-12955000D02*
X12350000Y-12985000D01*
X12355000Y-13055000D02*
X12385000Y-13085000D01*
X12385000Y-13055000D02*
X12355000Y-13085000D01*
X12355000Y-13155000D02*
X12385000Y-13185000D01*
X12385000Y-13155000D02*
X12355000Y-13185000D01*
X12355000Y-13265000D02*
X12385000Y-13295000D01*
X12385000Y-13265000D02*
X12355000Y-13295000D01*
X12355000Y-13365000D02*
X12385000Y-13395000D01*
X12385000Y-13365000D02*
X12355000Y-13395000D01*
X12360000Y-11110000D02*
X12390000Y-11140000D01*
X12390000Y-11110000D02*
X12360000Y-11140000D01*
X12405000Y-9635000D02*
X12435000Y-9665000D01*
X12435000Y-9635000D02*
X12405000Y-9665000D01*
X12450000Y-12745000D02*
X12480000Y-12775000D01*
X12480000Y-12745000D02*
X12450000Y-12775000D01*
X12450000Y-12845000D02*
X12480000Y-12875000D01*
X12480000Y-12845000D02*
X12450000Y-12875000D01*
X12450000Y-12955000D02*
X12480000Y-12985000D01*
X12480000Y-12955000D02*
X12450000Y-12985000D01*
X12455000Y-13055000D02*
X12485000Y-13085000D01*
X12485000Y-13055000D02*
X12455000Y-13085000D01*
X12455000Y-13155000D02*
X12485000Y-13185000D01*
X12485000Y-13155000D02*
X12455000Y-13185000D01*
X12455000Y-13265000D02*
X12485000Y-13295000D01*
X12485000Y-13265000D02*
X12455000Y-13295000D01*
X12455000Y-13365000D02*
X12485000Y-13395000D01*
X12485000Y-13365000D02*
X12455000Y-13395000D01*
X12460000Y-6805000D02*
X12490000Y-6835000D01*
X12490000Y-6805000D02*
X12460000Y-6835000D01*
X12465000Y-6905000D02*
X12495000Y-6935000D01*
X12495000Y-6905000D02*
X12465000Y-6935000D01*
X12475000Y-11110000D02*
X12505000Y-11140000D01*
X12505000Y-11110000D02*
X12475000Y-11140000D01*
X12505000Y-9635000D02*
X12535000Y-9665000D01*
X12535000Y-9635000D02*
X12505000Y-9665000D01*
X12540000Y-10935000D02*
X12570000Y-10965000D01*
X12570000Y-10935000D02*
X12540000Y-10965000D01*
X12540000Y-11045000D02*
X12570000Y-11075000D01*
X12570000Y-11045000D02*
X12540000Y-11075000D01*
X12540000Y-11160000D02*
X12570000Y-11190000D01*
X12570000Y-11160000D02*
X12540000Y-11190000D01*
X12540000Y-11260000D02*
X12570000Y-11290000D01*
X12570000Y-11260000D02*
X12540000Y-11290000D01*
X12540000Y-11370000D02*
X12570000Y-11400000D01*
X12570000Y-11370000D02*
X12540000Y-11400000D01*
X12540000Y-11485000D02*
X12570000Y-11515000D01*
X12570000Y-11485000D02*
X12540000Y-11515000D01*
X12560000Y-12745000D02*
X12590000Y-12775000D01*
X12590000Y-12745000D02*
X12560000Y-12775000D01*
X12560000Y-12845000D02*
X12590000Y-12875000D01*
X12590000Y-12845000D02*
X12560000Y-12875000D01*
X12560000Y-12955000D02*
X12590000Y-12985000D01*
X12590000Y-12955000D02*
X12560000Y-12985000D01*
X12565000Y-13055000D02*
X12595000Y-13085000D01*
X12595000Y-13055000D02*
X12565000Y-13085000D01*
X12565000Y-13155000D02*
X12595000Y-13185000D01*
X12595000Y-13155000D02*
X12565000Y-13185000D01*
X12565000Y-13265000D02*
X12595000Y-13295000D01*
X12595000Y-13265000D02*
X12565000Y-13295000D01*
X12565000Y-13365000D02*
X12595000Y-13395000D01*
X12595000Y-13365000D02*
X12565000Y-13395000D01*
X12570000Y-6805000D02*
X12600000Y-6835000D01*
X12600000Y-6805000D02*
X12570000Y-6835000D01*
X12575000Y-6905000D02*
X12605000Y-6935000D01*
X12605000Y-6905000D02*
X12575000Y-6935000D01*
X12620000Y-9635000D02*
X12650000Y-9665000D01*
X12650000Y-9635000D02*
X12620000Y-9665000D01*
X12675000Y-12745000D02*
X12705000Y-12775000D01*
X12705000Y-12745000D02*
X12675000Y-12775000D01*
X12675000Y-12845000D02*
X12705000Y-12875000D01*
X12705000Y-12845000D02*
X12675000Y-12875000D01*
X12675000Y-12955000D02*
X12705000Y-12985000D01*
X12705000Y-12955000D02*
X12675000Y-12985000D01*
X12680000Y-13055000D02*
X12710000Y-13085000D01*
X12710000Y-13055000D02*
X12680000Y-13085000D01*
X12680000Y-13155000D02*
X12710000Y-13185000D01*
X12710000Y-13155000D02*
X12680000Y-13185000D01*
X12680000Y-13265000D02*
X12710000Y-13295000D01*
X12710000Y-13265000D02*
X12680000Y-13295000D01*
X12680000Y-13365000D02*
X12710000Y-13395000D01*
X12710000Y-13365000D02*
X12680000Y-13395000D01*
X12705000Y-12040000D02*
X12735000Y-12070000D01*
X12735000Y-12040000D02*
X12705000Y-12070000D01*
X12705000Y-12150000D02*
X12735000Y-12180000D01*
X12735000Y-12150000D02*
X12705000Y-12180000D01*
X12705000Y-12265000D02*
X12735000Y-12295000D01*
X12735000Y-12265000D02*
X12705000Y-12295000D01*
X12705000Y-12360000D02*
X12735000Y-12390000D01*
X12735000Y-12360000D02*
X12705000Y-12390000D01*
X12705000Y-12470000D02*
X12735000Y-12500000D01*
X12735000Y-12470000D02*
X12705000Y-12500000D01*
X12705000Y-12585000D02*
X12735000Y-12615000D01*
X12735000Y-12585000D02*
X12705000Y-12615000D01*
X12730000Y-9635000D02*
X12760000Y-9665000D01*
X12760000Y-9635000D02*
X12730000Y-9665000D01*
X12775000Y-12745000D02*
X12805000Y-12775000D01*
X12805000Y-12745000D02*
X12775000Y-12775000D01*
X12775000Y-12845000D02*
X12805000Y-12875000D01*
X12805000Y-12845000D02*
X12775000Y-12875000D01*
X12775000Y-12955000D02*
X12805000Y-12985000D01*
X12805000Y-12955000D02*
X12775000Y-12985000D01*
X12780000Y-13055000D02*
X12810000Y-13085000D01*
X12810000Y-13055000D02*
X12780000Y-13085000D01*
X12780000Y-13155000D02*
X12810000Y-13185000D01*
X12810000Y-13155000D02*
X12780000Y-13185000D01*
X12780000Y-13265000D02*
X12810000Y-13295000D01*
X12810000Y-13265000D02*
X12780000Y-13295000D01*
X12780000Y-13365000D02*
X12810000Y-13395000D01*
X12810000Y-13365000D02*
X12780000Y-13395000D01*
X12830000Y-9635000D02*
X12860000Y-9665000D01*
X12860000Y-9635000D02*
X12830000Y-9665000D01*
X12875000Y-12215000D02*
X12905000Y-12245000D01*
X12905000Y-12215000D02*
X12875000Y-12245000D01*
X12875000Y-12315000D02*
X12905000Y-12345000D01*
X12905000Y-12315000D02*
X12875000Y-12345000D01*
X12875000Y-12425000D02*
X12905000Y-12455000D01*
X12905000Y-12425000D02*
X12875000Y-12455000D01*
X12875000Y-12525000D02*
X12905000Y-12555000D01*
X12905000Y-12525000D02*
X12875000Y-12555000D01*
X12875000Y-12635000D02*
X12905000Y-12665000D01*
X12905000Y-12635000D02*
X12875000Y-12665000D01*
X12875000Y-12735000D02*
X12905000Y-12765000D01*
X12905000Y-12735000D02*
X12875000Y-12765000D01*
X12875000Y-12845000D02*
X12905000Y-12875000D01*
X12905000Y-12845000D02*
X12875000Y-12875000D01*
X12875000Y-12945000D02*
X12905000Y-12975000D01*
X12905000Y-12945000D02*
X12875000Y-12975000D01*
X12890000Y-13045000D02*
X12920000Y-13075000D01*
X12920000Y-13045000D02*
X12890000Y-13075000D01*
X12890000Y-13145000D02*
X12920000Y-13175000D01*
X12920000Y-13145000D02*
X12890000Y-13175000D01*
X12890000Y-13255000D02*
X12920000Y-13285000D01*
X12920000Y-13255000D02*
X12890000Y-13285000D01*
X12890000Y-13355000D02*
X12920000Y-13385000D01*
X12920000Y-13355000D02*
X12890000Y-13385000D01*
X12945000Y-9640000D02*
X12975000Y-9670000D01*
X12975000Y-9640000D02*
X12945000Y-9670000D01*
X12975000Y-12215000D02*
X13005000Y-12245000D01*
X13005000Y-12215000D02*
X12975000Y-12245000D01*
X12975000Y-12315000D02*
X13005000Y-12345000D01*
X13005000Y-12315000D02*
X12975000Y-12345000D01*
X12975000Y-12425000D02*
X13005000Y-12455000D01*
X13005000Y-12425000D02*
X12975000Y-12455000D01*
X12975000Y-12525000D02*
X13005000Y-12555000D01*
X13005000Y-12525000D02*
X12975000Y-12555000D01*
X12975000Y-12635000D02*
X13005000Y-12665000D01*
X13005000Y-12635000D02*
X12975000Y-12665000D01*
X12975000Y-12735000D02*
X13005000Y-12765000D01*
X13005000Y-12735000D02*
X12975000Y-12765000D01*
X12975000Y-12845000D02*
X13005000Y-12875000D01*
X13005000Y-12845000D02*
X12975000Y-12875000D01*
X12975000Y-12945000D02*
X13005000Y-12975000D01*
X13005000Y-12945000D02*
X12975000Y-12975000D01*
X12985000Y-10835000D02*
X13015000Y-10865000D01*
X13015000Y-10835000D02*
X12985000Y-10865000D01*
X13005000Y-13045000D02*
X13035000Y-13075000D01*
X13035000Y-13045000D02*
X13005000Y-13075000D01*
X13005000Y-13145000D02*
X13035000Y-13175000D01*
X13035000Y-13145000D02*
X13005000Y-13175000D01*
X13005000Y-13255000D02*
X13035000Y-13285000D01*
X13035000Y-13255000D02*
X13005000Y-13285000D01*
X13005000Y-13355000D02*
X13035000Y-13385000D01*
X13035000Y-13355000D02*
X13005000Y-13385000D01*
X13060000Y-9640000D02*
X13090000Y-9670000D01*
X13090000Y-9640000D02*
X13060000Y-9670000D01*
X13085000Y-12215000D02*
X13115000Y-12245000D01*
X13115000Y-12215000D02*
X13085000Y-12245000D01*
X13085000Y-12315000D02*
X13115000Y-12345000D01*
X13115000Y-12315000D02*
X13085000Y-12345000D01*
X13085000Y-12425000D02*
X13115000Y-12455000D01*
X13115000Y-12425000D02*
X13085000Y-12455000D01*
X13085000Y-12525000D02*
X13115000Y-12555000D01*
X13115000Y-12525000D02*
X13085000Y-12555000D01*
X13085000Y-12635000D02*
X13115000Y-12665000D01*
X13115000Y-12635000D02*
X13085000Y-12665000D01*
X13085000Y-12735000D02*
X13115000Y-12765000D01*
X13115000Y-12735000D02*
X13085000Y-12765000D01*
X13085000Y-12845000D02*
X13115000Y-12875000D01*
X13115000Y-12845000D02*
X13085000Y-12875000D01*
X13085000Y-12945000D02*
X13115000Y-12975000D01*
X13115000Y-12945000D02*
X13085000Y-12975000D01*
X13105000Y-13045000D02*
X13135000Y-13075000D01*
X13135000Y-13045000D02*
X13105000Y-13075000D01*
X13105000Y-13145000D02*
X13135000Y-13175000D01*
X13135000Y-13145000D02*
X13105000Y-13175000D01*
X13105000Y-13255000D02*
X13135000Y-13285000D01*
X13135000Y-13255000D02*
X13105000Y-13285000D01*
X13105000Y-13355000D02*
X13135000Y-13385000D01*
X13135000Y-13355000D02*
X13105000Y-13385000D01*
X13170000Y-9640000D02*
X13200000Y-9670000D01*
X13200000Y-9640000D02*
X13170000Y-9670000D01*
X13200000Y-12215000D02*
X13230000Y-12245000D01*
X13230000Y-12215000D02*
X13200000Y-12245000D01*
X13200000Y-12315000D02*
X13230000Y-12345000D01*
X13230000Y-12315000D02*
X13200000Y-12345000D01*
X13200000Y-12425000D02*
X13230000Y-12455000D01*
X13230000Y-12425000D02*
X13200000Y-12455000D01*
X13200000Y-12525000D02*
X13230000Y-12555000D01*
X13230000Y-12525000D02*
X13200000Y-12555000D01*
X13200000Y-12635000D02*
X13230000Y-12665000D01*
X13230000Y-12635000D02*
X13200000Y-12665000D01*
X13200000Y-12735000D02*
X13230000Y-12765000D01*
X13230000Y-12735000D02*
X13200000Y-12765000D01*
X13200000Y-12845000D02*
X13230000Y-12875000D01*
X13230000Y-12845000D02*
X13200000Y-12875000D01*
X13200000Y-12945000D02*
X13230000Y-12975000D01*
X13230000Y-12945000D02*
X13200000Y-12975000D01*
X13230000Y-10140000D02*
X13260000Y-10170000D01*
X13260000Y-10140000D02*
X13230000Y-10170000D01*
X13237500Y-10982500D02*
X13267500Y-11012500D01*
X13267500Y-10982500D02*
X13237500Y-11012500D01*
X13270000Y-9640000D02*
X13300000Y-9670000D01*
X13300000Y-9640000D02*
X13270000Y-9670000D01*
X13300000Y-12215000D02*
X13330000Y-12245000D01*
X13330000Y-12215000D02*
X13300000Y-12245000D01*
X13300000Y-12315000D02*
X13330000Y-12345000D01*
X13330000Y-12315000D02*
X13300000Y-12345000D01*
X13300000Y-12425000D02*
X13330000Y-12455000D01*
X13330000Y-12425000D02*
X13300000Y-12455000D01*
X13300000Y-12525000D02*
X13330000Y-12555000D01*
X13330000Y-12525000D02*
X13300000Y-12555000D01*
X13300000Y-12635000D02*
X13330000Y-12665000D01*
X13330000Y-12635000D02*
X13300000Y-12665000D01*
X13300000Y-12735000D02*
X13330000Y-12765000D01*
X13330000Y-12735000D02*
X13300000Y-12765000D01*
X13300000Y-12845000D02*
X13330000Y-12875000D01*
X13330000Y-12845000D02*
X13300000Y-12875000D01*
X13300000Y-12945000D02*
X13330000Y-12975000D01*
X13330000Y-12945000D02*
X13300000Y-12975000D01*
X13370000Y-9640000D02*
X13400000Y-9670000D01*
X13400000Y-9640000D02*
X13370000Y-9670000D01*
X13410000Y-12215000D02*
X13440000Y-12245000D01*
X13440000Y-12215000D02*
X13410000Y-12245000D01*
X13410000Y-12315000D02*
X13440000Y-12345000D01*
X13440000Y-12315000D02*
X13410000Y-12345000D01*
X13410000Y-12425000D02*
X13440000Y-12455000D01*
X13440000Y-12425000D02*
X13410000Y-12455000D01*
X13410000Y-12525000D02*
X13440000Y-12555000D01*
X13440000Y-12525000D02*
X13410000Y-12555000D01*
X13410000Y-12625000D02*
X13440000Y-12655000D01*
X13440000Y-12625000D02*
X13410000Y-12655000D01*
X13410000Y-12725000D02*
X13440000Y-12755000D01*
X13440000Y-12725000D02*
X13410000Y-12755000D01*
X13410000Y-12835000D02*
X13440000Y-12865000D01*
X13440000Y-12835000D02*
X13410000Y-12865000D01*
X13410000Y-12935000D02*
X13440000Y-12965000D01*
X13440000Y-12935000D02*
X13410000Y-12965000D01*
X13485000Y-9640000D02*
X13515000Y-9670000D01*
X13515000Y-9640000D02*
X13485000Y-9670000D01*
X13525000Y-12215000D02*
X13555000Y-12245000D01*
X13555000Y-12215000D02*
X13525000Y-12245000D01*
X13525000Y-12315000D02*
X13555000Y-12345000D01*
X13555000Y-12315000D02*
X13525000Y-12345000D01*
X13525000Y-12425000D02*
X13555000Y-12455000D01*
X13555000Y-12425000D02*
X13525000Y-12455000D01*
X13525000Y-12525000D02*
X13555000Y-12555000D01*
X13555000Y-12525000D02*
X13525000Y-12555000D01*
X13525000Y-12625000D02*
X13555000Y-12655000D01*
X13555000Y-12625000D02*
X13525000Y-12655000D01*
X13525000Y-12835000D02*
X13555000Y-12865000D01*
X13555000Y-12835000D02*
X13525000Y-12865000D01*
X13525000Y-12935000D02*
X13555000Y-12965000D01*
X13555000Y-12935000D02*
X13525000Y-12965000D01*
X13540000Y-6815000D02*
X13570000Y-6845000D01*
X13570000Y-6815000D02*
X13540000Y-6845000D01*
X13545000Y-6915000D02*
X13575000Y-6945000D01*
X13575000Y-6915000D02*
X13545000Y-6945000D01*
X13595000Y-9640000D02*
X13625000Y-9670000D01*
X13625000Y-9640000D02*
X13595000Y-9670000D01*
X13625000Y-12215000D02*
X13655000Y-12245000D01*
X13655000Y-12215000D02*
X13625000Y-12245000D01*
X13625000Y-12315000D02*
X13655000Y-12345000D01*
X13655000Y-12315000D02*
X13625000Y-12345000D01*
X13625000Y-12425000D02*
X13655000Y-12455000D01*
X13655000Y-12425000D02*
X13625000Y-12455000D01*
X13625000Y-12525000D02*
X13655000Y-12555000D01*
X13655000Y-12525000D02*
X13625000Y-12555000D01*
X13625000Y-12625000D02*
X13655000Y-12655000D01*
X13655000Y-12625000D02*
X13625000Y-12655000D01*
X13625000Y-12725000D02*
X13655000Y-12755000D01*
X13655000Y-12725000D02*
X13625000Y-12755000D01*
X13625000Y-12835000D02*
X13655000Y-12865000D01*
X13655000Y-12835000D02*
X13625000Y-12865000D01*
X13625000Y-12935000D02*
X13655000Y-12965000D01*
X13655000Y-12935000D02*
X13625000Y-12965000D01*
X13625000Y-13165000D02*
X13655000Y-13195000D01*
X13655000Y-13165000D02*
X13625000Y-13195000D01*
X13645000Y-6815000D02*
X13675000Y-6845000D01*
X13675000Y-6815000D02*
X13645000Y-6845000D01*
X13650000Y-6915000D02*
X13680000Y-6945000D01*
X13680000Y-6915000D02*
X13650000Y-6945000D01*
X13695000Y-9640000D02*
X13725000Y-9670000D01*
X13725000Y-9640000D02*
X13695000Y-9670000D01*
X13760000Y-6815000D02*
X13790000Y-6845000D01*
X13790000Y-6815000D02*
X13760000Y-6845000D01*
X13765000Y-6915000D02*
X13795000Y-6945000D01*
X13795000Y-6915000D02*
X13765000Y-6945000D01*
X13810000Y-9640000D02*
X13840000Y-9670000D01*
X13840000Y-9640000D02*
X13810000Y-9670000D01*
X13850000Y-6815000D02*
X13880000Y-6845000D01*
X13880000Y-6815000D02*
X13850000Y-6845000D01*
X13855000Y-6915000D02*
X13885000Y-6945000D01*
X13885000Y-6915000D02*
X13855000Y-6945000D01*
X13875000Y-12935000D02*
X13905000Y-12965000D01*
X13905000Y-12935000D02*
X13875000Y-12965000D01*
X13875000Y-13035000D02*
X13905000Y-13065000D01*
X13905000Y-13035000D02*
X13875000Y-13065000D01*
X13925000Y-9640000D02*
X13955000Y-9670000D01*
X13955000Y-9640000D02*
X13925000Y-9670000D01*
X13940000Y-10210000D02*
X13970000Y-10240000D01*
X13970000Y-10210000D02*
X13940000Y-10240000D01*
X13945000Y-12645000D02*
X13975000Y-12675000D01*
X13975000Y-12645000D02*
X13945000Y-12675000D01*
X13945000Y-12745000D02*
X13975000Y-12775000D01*
X13975000Y-12745000D02*
X13945000Y-12775000D01*
X13955000Y-6815000D02*
X13985000Y-6845000D01*
X13985000Y-6815000D02*
X13955000Y-6845000D01*
X13955000Y-13215000D02*
X13985000Y-13245000D01*
X13985000Y-13215000D02*
X13955000Y-13245000D01*
X13955000Y-13315000D02*
X13985000Y-13345000D01*
X13985000Y-13315000D02*
X13955000Y-13345000D01*
X13960000Y-6915000D02*
X13990000Y-6945000D01*
X13990000Y-6915000D02*
X13960000Y-6945000D01*
X13990000Y-12935000D02*
X14020000Y-12965000D01*
X14020000Y-12935000D02*
X13990000Y-12965000D01*
X13990000Y-13035000D02*
X14020000Y-13065000D01*
X14020000Y-13035000D02*
X13990000Y-13065000D01*
X14035000Y-9640000D02*
X14065000Y-9670000D01*
X14065000Y-9640000D02*
X14035000Y-9670000D01*
X14045000Y-12645000D02*
X14075000Y-12675000D01*
X14075000Y-12645000D02*
X14045000Y-12675000D01*
X14045000Y-12745000D02*
X14075000Y-12775000D01*
X14075000Y-12745000D02*
X14045000Y-12775000D01*
X14070000Y-6815000D02*
X14100000Y-6845000D01*
X14100000Y-6815000D02*
X14070000Y-6845000D01*
X14070000Y-13215000D02*
X14100000Y-13245000D01*
X14100000Y-13215000D02*
X14070000Y-13245000D01*
X14070000Y-13315000D02*
X14100000Y-13345000D01*
X14100000Y-13315000D02*
X14070000Y-13345000D01*
X14075000Y-6915000D02*
X14105000Y-6945000D01*
X14105000Y-6915000D02*
X14075000Y-6945000D01*
X14090000Y-10840000D02*
X14120000Y-10870000D01*
X14120000Y-10840000D02*
X14090000Y-10870000D01*
X14135000Y-9640000D02*
X14165000Y-9670000D01*
X14165000Y-9640000D02*
X14135000Y-9670000D01*
X14155000Y-12645000D02*
X14185000Y-12675000D01*
X14185000Y-12645000D02*
X14155000Y-12675000D01*
X14155000Y-12745000D02*
X14185000Y-12775000D01*
X14185000Y-12745000D02*
X14155000Y-12775000D01*
X14170000Y-13215000D02*
X14200000Y-13245000D01*
X14200000Y-13215000D02*
X14170000Y-13245000D01*
X14170000Y-13315000D02*
X14200000Y-13345000D01*
X14200000Y-13315000D02*
X14170000Y-13345000D01*
X14180000Y-6815000D02*
X14210000Y-6845000D01*
X14210000Y-6815000D02*
X14180000Y-6845000D01*
X14185000Y-6915000D02*
X14215000Y-6945000D01*
X14215000Y-6915000D02*
X14185000Y-6945000D01*
X14230000Y-9995000D02*
X14260000Y-10025000D01*
X14260000Y-9995000D02*
X14230000Y-10025000D01*
X14235000Y-9640000D02*
X14265000Y-9670000D01*
X14265000Y-9640000D02*
X14235000Y-9670000D01*
X14270000Y-12645000D02*
X14300000Y-12675000D01*
X14300000Y-12645000D02*
X14270000Y-12675000D01*
X14270000Y-12745000D02*
X14300000Y-12775000D01*
X14300000Y-12745000D02*
X14270000Y-12775000D01*
X14280000Y-6815000D02*
X14310000Y-6845000D01*
X14310000Y-6815000D02*
X14280000Y-6845000D01*
X14285000Y-6915000D02*
X14315000Y-6945000D01*
X14315000Y-6915000D02*
X14285000Y-6945000D01*
X14285000Y-13215000D02*
X14315000Y-13245000D01*
X14315000Y-13215000D02*
X14285000Y-13245000D01*
X14285000Y-13315000D02*
X14315000Y-13345000D01*
X14315000Y-13315000D02*
X14285000Y-13345000D01*
X14350000Y-9640000D02*
X14380000Y-9670000D01*
X14380000Y-9640000D02*
X14350000Y-9670000D01*
X14370000Y-12645000D02*
X14400000Y-12675000D01*
X14400000Y-12645000D02*
X14370000Y-12675000D01*
X14370000Y-12745000D02*
X14400000Y-12775000D01*
X14400000Y-12745000D02*
X14370000Y-12775000D01*
X14380000Y-6815000D02*
X14410000Y-6845000D01*
X14410000Y-6815000D02*
X14380000Y-6845000D01*
X14385000Y-6915000D02*
X14415000Y-6945000D01*
X14415000Y-6915000D02*
X14385000Y-6945000D01*
X14385000Y-13215000D02*
X14415000Y-13245000D01*
X14415000Y-13215000D02*
X14385000Y-13245000D01*
X14385000Y-13315000D02*
X14415000Y-13345000D01*
X14415000Y-13315000D02*
X14385000Y-13345000D01*
X14460000Y-9640000D02*
X14490000Y-9670000D01*
X14490000Y-9640000D02*
X14460000Y-9670000D01*
X14485000Y-6815000D02*
X14515000Y-6845000D01*
X14515000Y-6815000D02*
X14485000Y-6845000D01*
X14490000Y-6915000D02*
X14520000Y-6945000D01*
X14520000Y-6915000D02*
X14490000Y-6945000D01*
X14495000Y-12655000D02*
X14525000Y-12685000D01*
X14525000Y-12655000D02*
X14495000Y-12685000D01*
X14495000Y-12755000D02*
X14525000Y-12785000D01*
X14525000Y-12755000D02*
X14495000Y-12785000D01*
X14495000Y-13215000D02*
X14525000Y-13245000D01*
X14525000Y-13215000D02*
X14495000Y-13245000D01*
X14495000Y-13315000D02*
X14525000Y-13345000D01*
X14525000Y-13315000D02*
X14495000Y-13345000D01*
X14520000Y-10175000D02*
X14550000Y-10205000D01*
X14550000Y-10175000D02*
X14520000Y-10205000D01*
X14520000Y-10315000D02*
X14550000Y-10345000D01*
X14550000Y-10315000D02*
X14520000Y-10345000D01*
X14560000Y-9640000D02*
X14590000Y-9670000D01*
X14590000Y-9640000D02*
X14560000Y-9670000D01*
X14600000Y-6815000D02*
X14630000Y-6845000D01*
X14630000Y-6815000D02*
X14600000Y-6845000D01*
X14605000Y-6915000D02*
X14635000Y-6945000D01*
X14635000Y-6915000D02*
X14605000Y-6945000D01*
X14610000Y-13215000D02*
X14640000Y-13245000D01*
X14640000Y-13215000D02*
X14610000Y-13245000D01*
X14610000Y-13315000D02*
X14640000Y-13345000D01*
X14640000Y-13315000D02*
X14610000Y-13345000D01*
X14630000Y-9930000D02*
X14660000Y-9960000D01*
X14660000Y-9930000D02*
X14630000Y-9960000D01*
X14630000Y-10030000D02*
X14660000Y-10060000D01*
X14660000Y-10030000D02*
X14630000Y-10060000D01*
X14660000Y-9640000D02*
X14690000Y-9670000D01*
X14690000Y-9640000D02*
X14660000Y-9670000D01*
X14705000Y-12655000D02*
X14735000Y-12685000D01*
X14735000Y-12655000D02*
X14705000Y-12685000D01*
X14705000Y-12755000D02*
X14735000Y-12785000D01*
X14735000Y-12755000D02*
X14705000Y-12785000D01*
X14710000Y-6815000D02*
X14740000Y-6845000D01*
X14740000Y-6815000D02*
X14710000Y-6845000D01*
X14710000Y-13215000D02*
X14740000Y-13245000D01*
X14740000Y-13215000D02*
X14710000Y-13245000D01*
X14710000Y-13315000D02*
X14740000Y-13345000D01*
X14740000Y-13315000D02*
X14710000Y-13345000D01*
X14715000Y-6915000D02*
X14745000Y-6945000D01*
X14745000Y-6915000D02*
X14715000Y-6945000D01*
X14745000Y-10955000D02*
X14775000Y-10985000D01*
X14775000Y-10955000D02*
X14745000Y-10985000D01*
X14765000Y-10717500D02*
X14795000Y-10747500D01*
X14795000Y-10717500D02*
X14765000Y-10747500D01*
X14775000Y-9640000D02*
X14805000Y-9670000D01*
X14805000Y-9640000D02*
X14775000Y-9670000D01*
X14810000Y-6815000D02*
X14840000Y-6845000D01*
X14840000Y-6815000D02*
X14810000Y-6845000D01*
X14815000Y-6915000D02*
X14845000Y-6945000D01*
X14845000Y-6915000D02*
X14815000Y-6945000D01*
X14820000Y-12655000D02*
X14850000Y-12685000D01*
X14850000Y-12655000D02*
X14820000Y-12685000D01*
X14820000Y-12755000D02*
X14850000Y-12785000D01*
X14850000Y-12755000D02*
X14820000Y-12785000D01*
X14835000Y-13215000D02*
X14865000Y-13245000D01*
X14865000Y-13215000D02*
X14835000Y-13245000D01*
X14835000Y-13315000D02*
X14865000Y-13345000D01*
X14865000Y-13315000D02*
X14835000Y-13345000D01*
X14885000Y-9640000D02*
X14915000Y-9670000D01*
X14915000Y-9640000D02*
X14885000Y-9670000D01*
X14920000Y-12655000D02*
X14950000Y-12685000D01*
X14950000Y-12655000D02*
X14920000Y-12685000D01*
X14920000Y-12755000D02*
X14950000Y-12785000D01*
X14950000Y-12755000D02*
X14920000Y-12785000D01*
X14935000Y-13215000D02*
X14965000Y-13245000D01*
X14965000Y-13215000D02*
X14935000Y-13245000D01*
X14935000Y-13315000D02*
X14965000Y-13345000D01*
X14965000Y-13315000D02*
X14935000Y-13345000D01*
X14985000Y-9640000D02*
X15015000Y-9670000D01*
X15015000Y-9640000D02*
X14985000Y-9670000D01*
X15045000Y-13215000D02*
X15075000Y-13245000D01*
X15075000Y-13215000D02*
X15045000Y-13245000D01*
X15045000Y-13315000D02*
X15075000Y-13345000D01*
X15075000Y-13315000D02*
X15045000Y-13345000D01*
X15055000Y-12680000D02*
X15085000Y-12710000D01*
X15085000Y-12680000D02*
X15055000Y-12710000D01*
X15055000Y-12780000D02*
X15085000Y-12810000D01*
X15085000Y-12780000D02*
X15055000Y-12810000D01*
X15055000Y-12895000D02*
X15085000Y-12925000D01*
X15085000Y-12895000D02*
X15055000Y-12925000D01*
X15055000Y-13005000D02*
X15085000Y-13035000D01*
X15085000Y-13005000D02*
X15055000Y-13035000D01*
X15055000Y-13105000D02*
X15085000Y-13135000D01*
X15085000Y-13105000D02*
X15055000Y-13135000D01*
X15085000Y-9640000D02*
X15115000Y-9670000D01*
X15115000Y-9640000D02*
X15085000Y-9670000D01*
X15155000Y-12680000D02*
X15185000Y-12710000D01*
X15185000Y-12680000D02*
X15155000Y-12710000D01*
X15155000Y-12780000D02*
X15185000Y-12810000D01*
X15185000Y-12780000D02*
X15155000Y-12810000D01*
X15155000Y-12895000D02*
X15185000Y-12925000D01*
X15185000Y-12895000D02*
X15155000Y-12925000D01*
X15155000Y-13005000D02*
X15185000Y-13035000D01*
X15185000Y-13005000D02*
X15155000Y-13035000D01*
X15155000Y-13105000D02*
X15185000Y-13135000D01*
X15185000Y-13105000D02*
X15155000Y-13135000D01*
X15160000Y-13215000D02*
X15190000Y-13245000D01*
X15190000Y-13215000D02*
X15160000Y-13245000D01*
X15160000Y-13315000D02*
X15190000Y-13345000D01*
X15190000Y-13315000D02*
X15160000Y-13345000D01*
X15200000Y-9640000D02*
X15230000Y-9670000D01*
X15230000Y-9640000D02*
X15200000Y-9670000D01*
X15260000Y-13215000D02*
X15290000Y-13245000D01*
X15290000Y-13215000D02*
X15260000Y-13245000D01*
X15260000Y-13315000D02*
X15290000Y-13345000D01*
X15290000Y-13315000D02*
X15260000Y-13345000D01*
X15310000Y-9640000D02*
X15340000Y-9670000D01*
X15340000Y-9640000D02*
X15310000Y-9670000D01*
X15395000Y-13215000D02*
X15425000Y-13245000D01*
X15425000Y-13215000D02*
X15395000Y-13245000D01*
X15395000Y-13315000D02*
X15425000Y-13345000D01*
X15425000Y-13315000D02*
X15395000Y-13345000D01*
X15410000Y-9640000D02*
X15440000Y-9670000D01*
X15440000Y-9640000D02*
X15410000Y-9670000D01*
X15455000Y-12725000D02*
X15485000Y-12755000D01*
X15485000Y-12725000D02*
X15455000Y-12755000D01*
X15495000Y-13215000D02*
X15525000Y-13245000D01*
X15525000Y-13215000D02*
X15495000Y-13245000D01*
X15495000Y-13315000D02*
X15525000Y-13345000D01*
X15525000Y-13315000D02*
X15495000Y-13345000D01*
X15520000Y-9645000D02*
X15550000Y-9675000D01*
X15550000Y-9645000D02*
X15520000Y-9675000D01*
X15555000Y-12625000D02*
X15585000Y-12655000D01*
X15585000Y-12625000D02*
X15555000Y-12655000D01*
X15555000Y-12725000D02*
X15585000Y-12755000D01*
X15585000Y-12725000D02*
X15555000Y-12755000D01*
X15605000Y-13215000D02*
X15635000Y-13245000D01*
X15635000Y-13215000D02*
X15605000Y-13245000D01*
X15605000Y-13315000D02*
X15635000Y-13345000D01*
X15635000Y-13315000D02*
X15605000Y-13345000D01*
X15635000Y-9645000D02*
X15665000Y-9675000D01*
X15665000Y-9645000D02*
X15635000Y-9675000D01*
X15665000Y-12625000D02*
X15695000Y-12655000D01*
X15695000Y-12625000D02*
X15665000Y-12655000D01*
X15665000Y-12725000D02*
X15695000Y-12755000D01*
X15695000Y-12725000D02*
X15665000Y-12755000D01*
X15695000Y-8935000D02*
X15725000Y-8965000D01*
X15725000Y-8935000D02*
X15695000Y-8965000D01*
X15695000Y-9035000D02*
X15725000Y-9065000D01*
X15725000Y-9035000D02*
X15695000Y-9065000D01*
X15705000Y-11455000D02*
X15735000Y-11485000D01*
X15735000Y-11455000D02*
X15705000Y-11485000D01*
X15705000Y-11555000D02*
X15735000Y-11585000D01*
X15735000Y-11555000D02*
X15705000Y-11585000D01*
X15705000Y-11655000D02*
X15735000Y-11685000D01*
X15735000Y-11655000D02*
X15705000Y-11685000D01*
X15720000Y-13215000D02*
X15750000Y-13245000D01*
X15750000Y-13215000D02*
X15720000Y-13245000D01*
X15720000Y-13315000D02*
X15750000Y-13345000D01*
X15750000Y-13315000D02*
X15720000Y-13345000D01*
X15745000Y-9645000D02*
X15775000Y-9675000D01*
X15775000Y-9645000D02*
X15745000Y-9675000D01*
X15780000Y-8985000D02*
X15810000Y-9015000D01*
X15810000Y-8985000D02*
X15780000Y-9015000D01*
X15780000Y-12625000D02*
X15810000Y-12655000D01*
X15810000Y-12625000D02*
X15780000Y-12655000D01*
X15780000Y-12725000D02*
X15810000Y-12755000D01*
X15810000Y-12725000D02*
X15780000Y-12755000D01*
X15805000Y-11455000D02*
X15835000Y-11485000D01*
X15835000Y-11455000D02*
X15805000Y-11485000D01*
X15805000Y-11555000D02*
X15835000Y-11585000D01*
X15835000Y-11555000D02*
X15805000Y-11585000D01*
X15805000Y-11655000D02*
X15835000Y-11685000D01*
X15835000Y-11655000D02*
X15805000Y-11685000D01*
X15815000Y-6855000D02*
X15845000Y-6885000D01*
X15845000Y-6855000D02*
X15815000Y-6885000D01*
X15820000Y-13215000D02*
X15850000Y-13245000D01*
X15850000Y-13215000D02*
X15820000Y-13245000D01*
X15820000Y-13315000D02*
X15850000Y-13345000D01*
X15850000Y-13315000D02*
X15820000Y-13345000D01*
X15845000Y-9645000D02*
X15875000Y-9675000D01*
X15875000Y-9645000D02*
X15845000Y-9675000D01*
X15865000Y-8935000D02*
X15895000Y-8965000D01*
X15895000Y-8935000D02*
X15865000Y-8965000D01*
X15865000Y-9035000D02*
X15895000Y-9065000D01*
X15895000Y-9035000D02*
X15865000Y-9065000D01*
X15880000Y-12625000D02*
X15910000Y-12655000D01*
X15910000Y-12625000D02*
X15880000Y-12655000D01*
X15880000Y-12725000D02*
X15910000Y-12755000D01*
X15910000Y-12725000D02*
X15880000Y-12755000D01*
X15885000Y-11025000D02*
X15915000Y-11055000D01*
X15915000Y-11025000D02*
X15885000Y-11055000D01*
X15885000Y-11125000D02*
X15915000Y-11155000D01*
X15915000Y-11125000D02*
X15885000Y-11155000D01*
X15885000Y-11225000D02*
X15915000Y-11255000D01*
X15915000Y-11225000D02*
X15885000Y-11255000D01*
X15915000Y-6855000D02*
X15945000Y-6885000D01*
X15945000Y-6855000D02*
X15915000Y-6885000D01*
X15915000Y-11455000D02*
X15945000Y-11485000D01*
X15945000Y-11455000D02*
X15915000Y-11485000D01*
X15915000Y-11555000D02*
X15945000Y-11585000D01*
X15945000Y-11555000D02*
X15915000Y-11585000D01*
X15915000Y-11655000D02*
X15945000Y-11685000D01*
X15945000Y-11655000D02*
X15915000Y-11685000D01*
X15945000Y-9645000D02*
X15975000Y-9675000D01*
X15975000Y-9645000D02*
X15945000Y-9675000D01*
X15975000Y-11795000D02*
X16005000Y-11825000D01*
X16005000Y-11795000D02*
X15975000Y-11825000D01*
X15975000Y-11895000D02*
X16005000Y-11925000D01*
X16005000Y-11895000D02*
X15975000Y-11925000D01*
X15975000Y-12005000D02*
X16005000Y-12035000D01*
X16005000Y-12005000D02*
X15975000Y-12035000D01*
X15975000Y-12105000D02*
X16005000Y-12135000D01*
X16005000Y-12105000D02*
X15975000Y-12135000D01*
X15975000Y-12215000D02*
X16005000Y-12245000D01*
X16005000Y-12215000D02*
X15975000Y-12245000D01*
X15975000Y-12315000D02*
X16005000Y-12345000D01*
X16005000Y-12315000D02*
X15975000Y-12345000D01*
X15975000Y-12425000D02*
X16005000Y-12455000D01*
X16005000Y-12425000D02*
X15975000Y-12455000D01*
X15975000Y-12525000D02*
X16005000Y-12555000D01*
X16005000Y-12525000D02*
X15975000Y-12555000D01*
X15975000Y-12625000D02*
X16005000Y-12655000D01*
X16005000Y-12625000D02*
X15975000Y-12655000D01*
X15975000Y-12725000D02*
X16005000Y-12755000D01*
X16005000Y-12725000D02*
X15975000Y-12755000D01*
X15985000Y-11025000D02*
X16015000Y-11055000D01*
X16015000Y-11025000D02*
X15985000Y-11055000D01*
X15985000Y-11125000D02*
X16015000Y-11155000D01*
X16015000Y-11125000D02*
X15985000Y-11155000D01*
X15985000Y-11225000D02*
X16015000Y-11255000D01*
X16015000Y-11225000D02*
X15985000Y-11255000D01*
X15995000Y-12840000D02*
X16025000Y-12870000D01*
X16025000Y-12840000D02*
X15995000Y-12870000D01*
X15995000Y-12940000D02*
X16025000Y-12970000D01*
X16025000Y-12940000D02*
X15995000Y-12970000D01*
X15995000Y-13055000D02*
X16025000Y-13085000D01*
X16025000Y-13055000D02*
X15995000Y-13085000D01*
X15995000Y-13165000D02*
X16025000Y-13195000D01*
X16025000Y-13165000D02*
X15995000Y-13195000D01*
X15995000Y-13265000D02*
X16025000Y-13295000D01*
X16025000Y-13265000D02*
X15995000Y-13295000D01*
X16025000Y-6855000D02*
X16055000Y-6885000D01*
X16055000Y-6855000D02*
X16025000Y-6885000D01*
X16030000Y-11455000D02*
X16060000Y-11485000D01*
X16060000Y-11455000D02*
X16030000Y-11485000D01*
X16030000Y-11555000D02*
X16060000Y-11585000D01*
X16060000Y-11555000D02*
X16030000Y-11585000D01*
X16030000Y-11655000D02*
X16060000Y-11685000D01*
X16060000Y-11655000D02*
X16030000Y-11685000D01*
X16060000Y-9645000D02*
X16090000Y-9675000D01*
X16090000Y-9645000D02*
X16060000Y-9675000D01*
X16075000Y-11795000D02*
X16105000Y-11825000D01*
X16105000Y-11795000D02*
X16075000Y-11825000D01*
X16075000Y-11895000D02*
X16105000Y-11925000D01*
X16105000Y-11895000D02*
X16075000Y-11925000D01*
X16075000Y-12005000D02*
X16105000Y-12035000D01*
X16105000Y-12005000D02*
X16075000Y-12035000D01*
X16075000Y-12105000D02*
X16105000Y-12135000D01*
X16105000Y-12105000D02*
X16075000Y-12135000D01*
X16075000Y-12215000D02*
X16105000Y-12245000D01*
X16105000Y-12215000D02*
X16075000Y-12245000D01*
X16075000Y-12315000D02*
X16105000Y-12345000D01*
X16105000Y-12315000D02*
X16075000Y-12345000D01*
X16075000Y-12425000D02*
X16105000Y-12455000D01*
X16105000Y-12425000D02*
X16075000Y-12455000D01*
X16075000Y-12525000D02*
X16105000Y-12555000D01*
X16105000Y-12525000D02*
X16075000Y-12555000D01*
X16075000Y-12625000D02*
X16105000Y-12655000D01*
X16105000Y-12625000D02*
X16075000Y-12655000D01*
X16075000Y-12725000D02*
X16105000Y-12755000D01*
X16105000Y-12725000D02*
X16075000Y-12755000D01*
X16095000Y-11025000D02*
X16125000Y-11055000D01*
X16125000Y-11025000D02*
X16095000Y-11055000D01*
X16095000Y-11125000D02*
X16125000Y-11155000D01*
X16125000Y-11125000D02*
X16095000Y-11155000D01*
X16095000Y-11225000D02*
X16125000Y-11255000D01*
X16125000Y-11225000D02*
X16095000Y-11255000D01*
X16095000Y-12840000D02*
X16125000Y-12870000D01*
X16125000Y-12840000D02*
X16095000Y-12870000D01*
X16095000Y-12940000D02*
X16125000Y-12970000D01*
X16125000Y-12940000D02*
X16095000Y-12970000D01*
X16095000Y-13055000D02*
X16125000Y-13085000D01*
X16125000Y-13055000D02*
X16095000Y-13085000D01*
X16095000Y-13165000D02*
X16125000Y-13195000D01*
X16125000Y-13165000D02*
X16095000Y-13195000D01*
X16095000Y-13265000D02*
X16125000Y-13295000D01*
X16125000Y-13265000D02*
X16095000Y-13295000D01*
X16130000Y-11455000D02*
X16160000Y-11485000D01*
X16160000Y-11455000D02*
X16130000Y-11485000D01*
X16130000Y-11555000D02*
X16160000Y-11585000D01*
X16160000Y-11555000D02*
X16130000Y-11585000D01*
X16130000Y-11655000D02*
X16160000Y-11685000D01*
X16160000Y-11655000D02*
X16130000Y-11685000D01*
X16170000Y-9645000D02*
X16200000Y-9675000D01*
X16200000Y-9645000D02*
X16170000Y-9675000D01*
X16185000Y-11795000D02*
X16215000Y-11825000D01*
X16215000Y-11795000D02*
X16185000Y-11825000D01*
X16185000Y-11895000D02*
X16215000Y-11925000D01*
X16215000Y-11895000D02*
X16185000Y-11925000D01*
X16185000Y-12315000D02*
X16215000Y-12345000D01*
X16215000Y-12315000D02*
X16185000Y-12345000D01*
X16185000Y-12425000D02*
X16215000Y-12455000D01*
X16215000Y-12425000D02*
X16185000Y-12455000D01*
X16185000Y-12725000D02*
X16215000Y-12755000D01*
X16215000Y-12725000D02*
X16185000Y-12755000D01*
X16205000Y-12840000D02*
X16235000Y-12870000D01*
X16235000Y-12840000D02*
X16205000Y-12870000D01*
X16205000Y-12940000D02*
X16235000Y-12970000D01*
X16235000Y-12940000D02*
X16205000Y-12970000D01*
X16205000Y-13055000D02*
X16235000Y-13085000D01*
X16235000Y-13055000D02*
X16205000Y-13085000D01*
X16205000Y-13165000D02*
X16235000Y-13195000D01*
X16235000Y-13165000D02*
X16205000Y-13195000D01*
X16205000Y-13265000D02*
X16235000Y-13295000D01*
X16235000Y-13265000D02*
X16205000Y-13295000D01*
X16225000Y-10265000D02*
X16255000Y-10295000D01*
X16255000Y-10265000D02*
X16225000Y-10295000D01*
X16270000Y-9645000D02*
X16300000Y-9675000D01*
X16300000Y-9645000D02*
X16270000Y-9675000D01*
X16300000Y-11795000D02*
X16330000Y-11825000D01*
X16330000Y-11795000D02*
X16300000Y-11825000D01*
X16300000Y-11895000D02*
X16330000Y-11925000D01*
X16330000Y-11895000D02*
X16300000Y-11925000D01*
X16300000Y-12315000D02*
X16330000Y-12345000D01*
X16330000Y-12315000D02*
X16300000Y-12345000D01*
X16300000Y-12725000D02*
X16330000Y-12755000D01*
X16330000Y-12725000D02*
X16300000Y-12755000D01*
X16305000Y-12840000D02*
X16335000Y-12870000D01*
X16335000Y-12840000D02*
X16305000Y-12870000D01*
X16305000Y-12940000D02*
X16335000Y-12970000D01*
X16335000Y-12940000D02*
X16305000Y-12970000D01*
X16305000Y-13055000D02*
X16335000Y-13085000D01*
X16335000Y-13055000D02*
X16305000Y-13085000D01*
X16305000Y-13165000D02*
X16335000Y-13195000D01*
X16335000Y-13165000D02*
X16305000Y-13195000D01*
X16305000Y-13265000D02*
X16335000Y-13295000D01*
X16335000Y-13265000D02*
X16305000Y-13295000D01*
X16325000Y-6945000D02*
X16355000Y-6975000D01*
X16355000Y-6945000D02*
X16325000Y-6975000D01*
X16325000Y-7045000D02*
X16355000Y-7075000D01*
X16355000Y-7045000D02*
X16325000Y-7075000D01*
X16325000Y-7155000D02*
X16355000Y-7185000D01*
X16355000Y-7155000D02*
X16325000Y-7185000D01*
X16325000Y-7270000D02*
X16355000Y-7300000D01*
X16355000Y-7270000D02*
X16325000Y-7300000D01*
X16325000Y-7370000D02*
X16355000Y-7400000D01*
X16355000Y-7370000D02*
X16325000Y-7400000D01*
X16345000Y-10275000D02*
X16375000Y-10305000D01*
X16375000Y-10275000D02*
X16345000Y-10305000D01*
X16395000Y-7555000D02*
X16425000Y-7585000D01*
X16425000Y-7555000D02*
X16395000Y-7585000D01*
X16395000Y-7655000D02*
X16425000Y-7685000D01*
X16425000Y-7655000D02*
X16395000Y-7685000D01*
X16395000Y-7765000D02*
X16425000Y-7795000D01*
X16425000Y-7765000D02*
X16395000Y-7795000D01*
X16395000Y-7880000D02*
X16425000Y-7910000D01*
X16425000Y-7880000D02*
X16395000Y-7910000D01*
X16395000Y-7980000D02*
X16425000Y-8010000D01*
X16425000Y-7980000D02*
X16395000Y-8010000D01*
X16395000Y-8080000D02*
X16425000Y-8110000D01*
X16425000Y-8080000D02*
X16395000Y-8110000D01*
X16395000Y-8190000D02*
X16425000Y-8220000D01*
X16425000Y-8190000D02*
X16395000Y-8220000D01*
X16400000Y-11795000D02*
X16430000Y-11825000D01*
X16430000Y-11795000D02*
X16400000Y-11825000D01*
X16400000Y-11895000D02*
X16430000Y-11925000D01*
X16430000Y-11895000D02*
X16400000Y-11925000D01*
X16400000Y-12005000D02*
X16430000Y-12035000D01*
X16430000Y-12005000D02*
X16400000Y-12035000D01*
X16400000Y-12105000D02*
X16430000Y-12135000D01*
X16430000Y-12105000D02*
X16400000Y-12135000D01*
X16400000Y-12215000D02*
X16430000Y-12245000D01*
X16430000Y-12215000D02*
X16400000Y-12245000D01*
X16400000Y-12315000D02*
X16430000Y-12345000D01*
X16430000Y-12315000D02*
X16400000Y-12345000D01*
X16400000Y-12425000D02*
X16430000Y-12455000D01*
X16430000Y-12425000D02*
X16400000Y-12455000D01*
X16400000Y-12525000D02*
X16430000Y-12555000D01*
X16430000Y-12525000D02*
X16400000Y-12555000D01*
X16400000Y-12625000D02*
X16430000Y-12655000D01*
X16430000Y-12625000D02*
X16400000Y-12655000D01*
X16400000Y-12725000D02*
X16430000Y-12755000D01*
X16430000Y-12725000D02*
X16400000Y-12755000D01*
X16475000Y-7485000D02*
X16505000Y-7515000D01*
X16505000Y-7485000D02*
X16475000Y-7515000D01*
X16535000Y-11795000D02*
X16565000Y-11825000D01*
X16565000Y-11795000D02*
X16535000Y-11825000D01*
X16535000Y-11895000D02*
X16565000Y-11925000D01*
X16565000Y-11895000D02*
X16535000Y-11925000D01*
X16535000Y-12005000D02*
X16565000Y-12035000D01*
X16565000Y-12005000D02*
X16535000Y-12035000D01*
X16535000Y-12105000D02*
X16565000Y-12135000D01*
X16565000Y-12105000D02*
X16535000Y-12135000D01*
X16535000Y-12215000D02*
X16565000Y-12245000D01*
X16565000Y-12215000D02*
X16535000Y-12245000D01*
X16535000Y-12315000D02*
X16565000Y-12345000D01*
X16565000Y-12315000D02*
X16535000Y-12345000D01*
X16535000Y-12425000D02*
X16565000Y-12455000D01*
X16565000Y-12425000D02*
X16535000Y-12455000D01*
X16535000Y-12525000D02*
X16565000Y-12555000D01*
X16565000Y-12525000D02*
X16535000Y-12555000D01*
X16575000Y-7485000D02*
X16605000Y-7515000D01*
X16605000Y-7485000D02*
X16575000Y-7515000D01*
X16635000Y-11795000D02*
X16665000Y-11825000D01*
X16665000Y-11795000D02*
X16635000Y-11825000D01*
X16635000Y-11895000D02*
X16665000Y-11925000D01*
X16665000Y-11895000D02*
X16635000Y-11925000D01*
X16635000Y-12005000D02*
X16665000Y-12035000D01*
X16665000Y-12005000D02*
X16635000Y-12035000D01*
X16635000Y-12105000D02*
X16665000Y-12135000D01*
X16665000Y-12105000D02*
X16635000Y-12135000D01*
X16635000Y-12215000D02*
X16665000Y-12245000D01*
X16665000Y-12215000D02*
X16635000Y-12245000D01*
X16635000Y-12315000D02*
X16665000Y-12345000D01*
X16665000Y-12315000D02*
X16635000Y-12345000D01*
X16635000Y-12425000D02*
X16665000Y-12455000D01*
X16665000Y-12425000D02*
X16635000Y-12455000D01*
X16635000Y-12525000D02*
X16665000Y-12555000D01*
X16665000Y-12525000D02*
X16635000Y-12555000D01*
X16685000Y-7485000D02*
X16715000Y-7515000D01*
X16715000Y-7485000D02*
X16685000Y-7515000D01*
X16745000Y-11795000D02*
X16775000Y-11825000D01*
X16775000Y-11795000D02*
X16745000Y-11825000D01*
X16745000Y-11895000D02*
X16775000Y-11925000D01*
X16775000Y-11895000D02*
X16745000Y-11925000D01*
X16745000Y-12005000D02*
X16775000Y-12035000D01*
X16775000Y-12005000D02*
X16745000Y-12035000D01*
X16745000Y-12105000D02*
X16775000Y-12135000D01*
X16775000Y-12105000D02*
X16745000Y-12135000D01*
X16745000Y-12215000D02*
X16775000Y-12245000D01*
X16775000Y-12215000D02*
X16745000Y-12245000D01*
X16745000Y-12315000D02*
X16775000Y-12345000D01*
X16775000Y-12315000D02*
X16745000Y-12345000D01*
X16745000Y-12425000D02*
X16775000Y-12455000D01*
X16775000Y-12425000D02*
X16745000Y-12455000D01*
X16745000Y-12525000D02*
X16775000Y-12555000D01*
X16775000Y-12525000D02*
X16745000Y-12555000D01*
X16800000Y-7485000D02*
X16830000Y-7515000D01*
X16830000Y-7485000D02*
X16800000Y-7515000D01*
X16805000Y-9985000D02*
X16835000Y-10015000D01*
X16835000Y-9985000D02*
X16805000Y-10015000D01*
X16805000Y-10085000D02*
X16835000Y-10115000D01*
X16835000Y-10085000D02*
X16805000Y-10115000D01*
X16805000Y-10195000D02*
X16835000Y-10225000D01*
X16835000Y-10195000D02*
X16805000Y-10225000D01*
X16805000Y-10310000D02*
X16835000Y-10340000D01*
X16835000Y-10310000D02*
X16805000Y-10340000D01*
X16805000Y-10410000D02*
X16835000Y-10440000D01*
X16835000Y-10410000D02*
X16805000Y-10440000D01*
X16805000Y-10505000D02*
X16835000Y-10535000D01*
X16835000Y-10505000D02*
X16805000Y-10535000D01*
X16805000Y-10605000D02*
X16835000Y-10635000D01*
X16835000Y-10605000D02*
X16805000Y-10635000D01*
X16805000Y-10715000D02*
X16835000Y-10745000D01*
X16835000Y-10715000D02*
X16805000Y-10745000D01*
X16805000Y-10830000D02*
X16835000Y-10860000D01*
X16835000Y-10830000D02*
X16805000Y-10860000D01*
X16805000Y-10930000D02*
X16835000Y-10960000D01*
X16835000Y-10930000D02*
X16805000Y-10960000D01*
X16860000Y-11795000D02*
X16890000Y-11825000D01*
X16890000Y-11795000D02*
X16860000Y-11825000D01*
X16860000Y-11895000D02*
X16890000Y-11925000D01*
X16890000Y-11895000D02*
X16860000Y-11925000D01*
X16860000Y-12005000D02*
X16890000Y-12035000D01*
X16890000Y-12005000D02*
X16860000Y-12035000D01*
X16860000Y-12105000D02*
X16890000Y-12135000D01*
X16890000Y-12105000D02*
X16860000Y-12135000D01*
X16860000Y-12215000D02*
X16890000Y-12245000D01*
X16890000Y-12215000D02*
X16860000Y-12245000D01*
X16860000Y-12315000D02*
X16890000Y-12345000D01*
X16890000Y-12315000D02*
X16860000Y-12345000D01*
X16860000Y-12425000D02*
X16890000Y-12455000D01*
X16890000Y-12425000D02*
X16860000Y-12455000D01*
X16860000Y-12525000D02*
X16890000Y-12555000D01*
X16890000Y-12525000D02*
X16860000Y-12555000D01*
X16900000Y-7485000D02*
X16930000Y-7515000D01*
X16930000Y-7485000D02*
X16900000Y-7515000D01*
X16925000Y-9235000D02*
X16955000Y-9265000D01*
X16955000Y-9235000D02*
X16925000Y-9265000D01*
X16925000Y-9335000D02*
X16955000Y-9365000D01*
X16955000Y-9335000D02*
X16925000Y-9365000D01*
X16925000Y-9445000D02*
X16955000Y-9475000D01*
X16955000Y-9445000D02*
X16925000Y-9475000D01*
X16925000Y-9560000D02*
X16955000Y-9590000D01*
X16955000Y-9560000D02*
X16925000Y-9590000D01*
X16925000Y-9660000D02*
X16955000Y-9690000D01*
X16955000Y-9660000D02*
X16925000Y-9690000D01*
X16925000Y-9760000D02*
X16955000Y-9790000D01*
X16955000Y-9760000D02*
X16925000Y-9790000D01*
X16925000Y-9870000D02*
X16955000Y-9900000D01*
X16955000Y-9870000D02*
X16925000Y-9900000D01*
X16925000Y-9985000D02*
X16955000Y-10015000D01*
X16955000Y-9985000D02*
X16925000Y-10015000D01*
X16925000Y-10085000D02*
X16955000Y-10115000D01*
X16955000Y-10085000D02*
X16925000Y-10115000D01*
X16925000Y-10195000D02*
X16955000Y-10225000D01*
X16955000Y-10195000D02*
X16925000Y-10225000D01*
X16925000Y-10310000D02*
X16955000Y-10340000D01*
X16955000Y-10310000D02*
X16925000Y-10340000D01*
X16925000Y-10410000D02*
X16955000Y-10440000D01*
X16955000Y-10410000D02*
X16925000Y-10440000D01*
X16925000Y-10515000D02*
X16955000Y-10545000D01*
X16955000Y-10515000D02*
X16925000Y-10545000D01*
X16925000Y-10615000D02*
X16955000Y-10645000D01*
X16955000Y-10615000D02*
X16925000Y-10645000D01*
X16925000Y-10725000D02*
X16955000Y-10755000D01*
X16955000Y-10725000D02*
X16925000Y-10755000D01*
X16925000Y-10840000D02*
X16955000Y-10870000D01*
X16955000Y-10840000D02*
X16925000Y-10870000D01*
X16925000Y-10940000D02*
X16955000Y-10970000D01*
X16955000Y-10940000D02*
X16925000Y-10970000D01*
X16955000Y-7575000D02*
X16985000Y-7605000D01*
X16985000Y-7575000D02*
X16955000Y-7605000D01*
X16955000Y-7675000D02*
X16985000Y-7705000D01*
X16985000Y-7675000D02*
X16955000Y-7705000D01*
X16955000Y-7785000D02*
X16985000Y-7815000D01*
X16985000Y-7785000D02*
X16955000Y-7815000D01*
X16955000Y-7900000D02*
X16985000Y-7930000D01*
X16985000Y-7900000D02*
X16955000Y-7930000D01*
X16955000Y-8000000D02*
X16985000Y-8030000D01*
X16985000Y-8000000D02*
X16955000Y-8030000D01*
X16955000Y-8100000D02*
X16985000Y-8130000D01*
X16985000Y-8100000D02*
X16955000Y-8130000D01*
X16955000Y-8210000D02*
X16985000Y-8240000D01*
X16985000Y-8210000D02*
X16955000Y-8240000D01*
X16955000Y-11075000D02*
X16985000Y-11105000D01*
X16985000Y-11075000D02*
X16955000Y-11105000D01*
X16955000Y-11175000D02*
X16985000Y-11205000D01*
X16985000Y-11175000D02*
X16955000Y-11205000D01*
X16955000Y-11285000D02*
X16985000Y-11315000D01*
X16985000Y-11285000D02*
X16955000Y-11315000D01*
X16955000Y-11400000D02*
X16985000Y-11430000D01*
X16985000Y-11400000D02*
X16955000Y-11430000D01*
X16955000Y-11500000D02*
X16985000Y-11530000D01*
X16985000Y-11500000D02*
X16955000Y-11530000D01*
X16960000Y-11795000D02*
X16990000Y-11825000D01*
X16990000Y-11795000D02*
X16960000Y-11825000D01*
X16960000Y-11895000D02*
X16990000Y-11925000D01*
X16990000Y-11895000D02*
X16960000Y-11925000D01*
X16960000Y-12005000D02*
X16990000Y-12035000D01*
X16990000Y-12005000D02*
X16960000Y-12035000D01*
X16960000Y-12105000D02*
X16990000Y-12135000D01*
X16990000Y-12105000D02*
X16960000Y-12135000D01*
X16960000Y-12215000D02*
X16990000Y-12245000D01*
X16990000Y-12215000D02*
X16960000Y-12245000D01*
X16960000Y-12315000D02*
X16990000Y-12345000D01*
X16990000Y-12315000D02*
X16960000Y-12345000D01*
X16960000Y-12425000D02*
X16990000Y-12455000D01*
X16990000Y-12425000D02*
X16960000Y-12455000D01*
X16960000Y-12525000D02*
X16990000Y-12555000D01*
X16990000Y-12525000D02*
X16960000Y-12555000D01*
D11*
X9630777Y-13766484D02*
X9630777Y-13566484D01*
X9630777Y-13566484D02*
X9678396Y-13566484D01*
X9678396Y-13566484D02*
X9706967Y-13576008D01*
X9706967Y-13576008D02*
X9726015Y-13595055D01*
X9726015Y-13595055D02*
X9735539Y-13614103D01*
X9735539Y-13614103D02*
X9745063Y-13652198D01*
X9745063Y-13652198D02*
X9745063Y-13680769D01*
X9745063Y-13680769D02*
X9735539Y-13718865D01*
X9735539Y-13718865D02*
X9726015Y-13737912D01*
X9726015Y-13737912D02*
X9706967Y-13756960D01*
X9706967Y-13756960D02*
X9678396Y-13766484D01*
X9678396Y-13766484D02*
X9630777Y-13766484D01*
X9830777Y-13766484D02*
X9830777Y-13633150D01*
X9830777Y-13671246D02*
X9840301Y-13652198D01*
X9840301Y-13652198D02*
X9849824Y-13642674D01*
X9849824Y-13642674D02*
X9868872Y-13633150D01*
X9868872Y-13633150D02*
X9887920Y-13633150D01*
X9954586Y-13766484D02*
X9954586Y-13633150D01*
X9954586Y-13566484D02*
X9945063Y-13576008D01*
X9945063Y-13576008D02*
X9954586Y-13585531D01*
X9954586Y-13585531D02*
X9964110Y-13576008D01*
X9964110Y-13576008D02*
X9954586Y-13566484D01*
X9954586Y-13566484D02*
X9954586Y-13585531D01*
X10078396Y-13766484D02*
X10059348Y-13756960D01*
X10059348Y-13756960D02*
X10049824Y-13737912D01*
X10049824Y-13737912D02*
X10049824Y-13566484D01*
X10183158Y-13766484D02*
X10164110Y-13756960D01*
X10164110Y-13756960D02*
X10154586Y-13737912D01*
X10154586Y-13737912D02*
X10154586Y-13566484D01*
X10411729Y-13766484D02*
X10411729Y-13566484D01*
X10411729Y-13566484D02*
X10478396Y-13709341D01*
X10478396Y-13709341D02*
X10545063Y-13566484D01*
X10545063Y-13566484D02*
X10545063Y-13766484D01*
X10726015Y-13766484D02*
X10726015Y-13661722D01*
X10726015Y-13661722D02*
X10716491Y-13642674D01*
X10716491Y-13642674D02*
X10697444Y-13633150D01*
X10697444Y-13633150D02*
X10659348Y-13633150D01*
X10659348Y-13633150D02*
X10640301Y-13642674D01*
X10726015Y-13756960D02*
X10706967Y-13766484D01*
X10706967Y-13766484D02*
X10659348Y-13766484D01*
X10659348Y-13766484D02*
X10640301Y-13756960D01*
X10640301Y-13756960D02*
X10630777Y-13737912D01*
X10630777Y-13737912D02*
X10630777Y-13718865D01*
X10630777Y-13718865D02*
X10640301Y-13699817D01*
X10640301Y-13699817D02*
X10659348Y-13690293D01*
X10659348Y-13690293D02*
X10706967Y-13690293D01*
X10706967Y-13690293D02*
X10726015Y-13680769D01*
X10821253Y-13633150D02*
X10821253Y-13833150D01*
X10821253Y-13642674D02*
X10840301Y-13633150D01*
X10840301Y-13633150D02*
X10878396Y-13633150D01*
X10878396Y-13633150D02*
X10897444Y-13642674D01*
X10897444Y-13642674D02*
X10906967Y-13652198D01*
X10906967Y-13652198D02*
X10916491Y-13671246D01*
X10916491Y-13671246D02*
X10916491Y-13728388D01*
X10916491Y-13728388D02*
X10906967Y-13747436D01*
X10906967Y-13747436D02*
X10897444Y-13756960D01*
X10897444Y-13756960D02*
X10878396Y-13766484D01*
X10878396Y-13766484D02*
X10840301Y-13766484D01*
X10840301Y-13766484D02*
X10821253Y-13756960D01*
X11002205Y-13747436D02*
X11011729Y-13756960D01*
X11011729Y-13756960D02*
X11002205Y-13766484D01*
X11002205Y-13766484D02*
X10992682Y-13756960D01*
X10992682Y-13756960D02*
X11002205Y-13747436D01*
X11002205Y-13747436D02*
X11002205Y-13766484D01*
X11002205Y-13642674D02*
X11011729Y-13652198D01*
X11011729Y-13652198D02*
X11002205Y-13661722D01*
X11002205Y-13661722D02*
X10992682Y-13652198D01*
X10992682Y-13652198D02*
X11002205Y-13642674D01*
X11002205Y-13642674D02*
X11002205Y-13661722D01*
D10*
X9340000Y-14080000D02*
X9370000Y-14110000D01*
X9370000Y-14080000D02*
X9340000Y-14110000D01*
D11*
X9668872Y-13986484D02*
X9687920Y-13986484D01*
X9687920Y-13986484D02*
X9706967Y-13996008D01*
X9706967Y-13996008D02*
X9716491Y-14005531D01*
X9716491Y-14005531D02*
X9726015Y-14024579D01*
X9726015Y-14024579D02*
X9735539Y-14062674D01*
X9735539Y-14062674D02*
X9735539Y-14110293D01*
X9735539Y-14110293D02*
X9726015Y-14148388D01*
X9726015Y-14148388D02*
X9716491Y-14167436D01*
X9716491Y-14167436D02*
X9706967Y-14176960D01*
X9706967Y-14176960D02*
X9687920Y-14186484D01*
X9687920Y-14186484D02*
X9668872Y-14186484D01*
X9668872Y-14186484D02*
X9649824Y-14176960D01*
X9649824Y-14176960D02*
X9640301Y-14167436D01*
X9640301Y-14167436D02*
X9630777Y-14148388D01*
X9630777Y-14148388D02*
X9621253Y-14110293D01*
X9621253Y-14110293D02*
X9621253Y-14062674D01*
X9621253Y-14062674D02*
X9630777Y-14024579D01*
X9630777Y-14024579D02*
X9640301Y-14005531D01*
X9640301Y-14005531D02*
X9649824Y-13996008D01*
X9649824Y-13996008D02*
X9668872Y-13986484D01*
X9821253Y-14167436D02*
X9830777Y-14176960D01*
X9830777Y-14176960D02*
X9821253Y-14186484D01*
X9821253Y-14186484D02*
X9811729Y-14176960D01*
X9811729Y-14176960D02*
X9821253Y-14167436D01*
X9821253Y-14167436D02*
X9821253Y-14186484D01*
X9897444Y-13986484D02*
X10021253Y-13986484D01*
X10021253Y-13986484D02*
X9954586Y-14062674D01*
X9954586Y-14062674D02*
X9983158Y-14062674D01*
X9983158Y-14062674D02*
X10002205Y-14072198D01*
X10002205Y-14072198D02*
X10011729Y-14081722D01*
X10011729Y-14081722D02*
X10021253Y-14100769D01*
X10021253Y-14100769D02*
X10021253Y-14148388D01*
X10021253Y-14148388D02*
X10011729Y-14167436D01*
X10011729Y-14167436D02*
X10002205Y-14176960D01*
X10002205Y-14176960D02*
X9983158Y-14186484D01*
X9983158Y-14186484D02*
X9926015Y-14186484D01*
X9926015Y-14186484D02*
X9906967Y-14176960D01*
X9906967Y-14176960D02*
X9897444Y-14167436D01*
X10145063Y-13986484D02*
X10164110Y-13986484D01*
X10164110Y-13986484D02*
X10183158Y-13996008D01*
X10183158Y-13996008D02*
X10192682Y-14005531D01*
X10192682Y-14005531D02*
X10202205Y-14024579D01*
X10202205Y-14024579D02*
X10211729Y-14062674D01*
X10211729Y-14062674D02*
X10211729Y-14110293D01*
X10211729Y-14110293D02*
X10202205Y-14148388D01*
X10202205Y-14148388D02*
X10192682Y-14167436D01*
X10192682Y-14167436D02*
X10183158Y-14176960D01*
X10183158Y-14176960D02*
X10164110Y-14186484D01*
X10164110Y-14186484D02*
X10145063Y-14186484D01*
X10145063Y-14186484D02*
X10126015Y-14176960D01*
X10126015Y-14176960D02*
X10116491Y-14167436D01*
X10116491Y-14167436D02*
X10106967Y-14148388D01*
X10106967Y-14148388D02*
X10097444Y-14110293D01*
X10097444Y-14110293D02*
X10097444Y-14062674D01*
X10097444Y-14062674D02*
X10106967Y-14024579D01*
X10106967Y-14024579D02*
X10116491Y-14005531D01*
X10116491Y-14005531D02*
X10126015Y-13996008D01*
X10126015Y-13996008D02*
X10145063Y-13986484D01*
X10335539Y-13986484D02*
X10354586Y-13986484D01*
X10354586Y-13986484D02*
X10373634Y-13996008D01*
X10373634Y-13996008D02*
X10383158Y-14005531D01*
X10383158Y-14005531D02*
X10392682Y-14024579D01*
X10392682Y-14024579D02*
X10402205Y-14062674D01*
X10402205Y-14062674D02*
X10402205Y-14110293D01*
X10402205Y-14110293D02*
X10392682Y-14148388D01*
X10392682Y-14148388D02*
X10383158Y-14167436D01*
X10383158Y-14167436D02*
X10373634Y-14176960D01*
X10373634Y-14176960D02*
X10354586Y-14186484D01*
X10354586Y-14186484D02*
X10335539Y-14186484D01*
X10335539Y-14186484D02*
X10316491Y-14176960D01*
X10316491Y-14176960D02*
X10306967Y-14167436D01*
X10306967Y-14167436D02*
X10297444Y-14148388D01*
X10297444Y-14148388D02*
X10287920Y-14110293D01*
X10287920Y-14110293D02*
X10287920Y-14062674D01*
X10287920Y-14062674D02*
X10297444Y-14024579D01*
X10297444Y-14024579D02*
X10306967Y-14005531D01*
X10306967Y-14005531D02*
X10316491Y-13996008D01*
X10316491Y-13996008D02*
X10335539Y-13986484D01*
X10487920Y-14186484D02*
X10487920Y-14053150D01*
X10487920Y-14072198D02*
X10497444Y-14062674D01*
X10497444Y-14062674D02*
X10516491Y-14053150D01*
X10516491Y-14053150D02*
X10545063Y-14053150D01*
X10545063Y-14053150D02*
X10564110Y-14062674D01*
X10564110Y-14062674D02*
X10573634Y-14081722D01*
X10573634Y-14081722D02*
X10573634Y-14186484D01*
X10573634Y-14081722D02*
X10583158Y-14062674D01*
X10583158Y-14062674D02*
X10602205Y-14053150D01*
X10602205Y-14053150D02*
X10630777Y-14053150D01*
X10630777Y-14053150D02*
X10649825Y-14062674D01*
X10649825Y-14062674D02*
X10659348Y-14081722D01*
X10659348Y-14081722D02*
X10659348Y-14186484D01*
X10754586Y-14186484D02*
X10754586Y-14053150D01*
X10754586Y-14072198D02*
X10764110Y-14062674D01*
X10764110Y-14062674D02*
X10783158Y-14053150D01*
X10783158Y-14053150D02*
X10811729Y-14053150D01*
X10811729Y-14053150D02*
X10830777Y-14062674D01*
X10830777Y-14062674D02*
X10840301Y-14081722D01*
X10840301Y-14081722D02*
X10840301Y-14186484D01*
X10840301Y-14081722D02*
X10849825Y-14062674D01*
X10849825Y-14062674D02*
X10868872Y-14053150D01*
X10868872Y-14053150D02*
X10897444Y-14053150D01*
X10897444Y-14053150D02*
X10916491Y-14062674D01*
X10916491Y-14062674D02*
X10926015Y-14081722D01*
X10926015Y-14081722D02*
X10926015Y-14186484D01*
X11316491Y-13976960D02*
X11145063Y-14234103D01*
X11573634Y-13986484D02*
X11592682Y-13986484D01*
X11592682Y-13986484D02*
X11611729Y-13996008D01*
X11611729Y-13996008D02*
X11621253Y-14005531D01*
X11621253Y-14005531D02*
X11630777Y-14024579D01*
X11630777Y-14024579D02*
X11640301Y-14062674D01*
X11640301Y-14062674D02*
X11640301Y-14110293D01*
X11640301Y-14110293D02*
X11630777Y-14148388D01*
X11630777Y-14148388D02*
X11621253Y-14167436D01*
X11621253Y-14167436D02*
X11611729Y-14176960D01*
X11611729Y-14176960D02*
X11592682Y-14186484D01*
X11592682Y-14186484D02*
X11573634Y-14186484D01*
X11573634Y-14186484D02*
X11554586Y-14176960D01*
X11554586Y-14176960D02*
X11545063Y-14167436D01*
X11545063Y-14167436D02*
X11535539Y-14148388D01*
X11535539Y-14148388D02*
X11526015Y-14110293D01*
X11526015Y-14110293D02*
X11526015Y-14062674D01*
X11526015Y-14062674D02*
X11535539Y-14024579D01*
X11535539Y-14024579D02*
X11545063Y-14005531D01*
X11545063Y-14005531D02*
X11554586Y-13996008D01*
X11554586Y-13996008D02*
X11573634Y-13986484D01*
X11726015Y-14167436D02*
X11735539Y-14176960D01*
X11735539Y-14176960D02*
X11726015Y-14186484D01*
X11726015Y-14186484D02*
X11716491Y-14176960D01*
X11716491Y-14176960D02*
X11726015Y-14167436D01*
X11726015Y-14167436D02*
X11726015Y-14186484D01*
X11859348Y-13986484D02*
X11878396Y-13986484D01*
X11878396Y-13986484D02*
X11897444Y-13996008D01*
X11897444Y-13996008D02*
X11906967Y-14005531D01*
X11906967Y-14005531D02*
X11916491Y-14024579D01*
X11916491Y-14024579D02*
X11926015Y-14062674D01*
X11926015Y-14062674D02*
X11926015Y-14110293D01*
X11926015Y-14110293D02*
X11916491Y-14148388D01*
X11916491Y-14148388D02*
X11906967Y-14167436D01*
X11906967Y-14167436D02*
X11897444Y-14176960D01*
X11897444Y-14176960D02*
X11878396Y-14186484D01*
X11878396Y-14186484D02*
X11859348Y-14186484D01*
X11859348Y-14186484D02*
X11840301Y-14176960D01*
X11840301Y-14176960D02*
X11830777Y-14167436D01*
X11830777Y-14167436D02*
X11821253Y-14148388D01*
X11821253Y-14148388D02*
X11811729Y-14110293D01*
X11811729Y-14110293D02*
X11811729Y-14062674D01*
X11811729Y-14062674D02*
X11821253Y-14024579D01*
X11821253Y-14024579D02*
X11830777Y-14005531D01*
X11830777Y-14005531D02*
X11840301Y-13996008D01*
X11840301Y-13996008D02*
X11859348Y-13986484D01*
X12116491Y-14186484D02*
X12002206Y-14186484D01*
X12059348Y-14186484D02*
X12059348Y-13986484D01*
X12059348Y-13986484D02*
X12040301Y-14015055D01*
X12040301Y-14015055D02*
X12021253Y-14034103D01*
X12021253Y-14034103D02*
X12002206Y-14043627D01*
X12306967Y-14186484D02*
X12192682Y-14186484D01*
X12249825Y-14186484D02*
X12249825Y-13986484D01*
X12249825Y-13986484D02*
X12230777Y-14015055D01*
X12230777Y-14015055D02*
X12211729Y-14034103D01*
X12211729Y-14034103D02*
X12192682Y-14043627D01*
X12421253Y-14072198D02*
X12402206Y-14062674D01*
X12402206Y-14062674D02*
X12392682Y-14053150D01*
X12392682Y-14053150D02*
X12383158Y-14034103D01*
X12383158Y-14034103D02*
X12383158Y-14024579D01*
X12383158Y-14024579D02*
X12392682Y-14005531D01*
X12392682Y-14005531D02*
X12402206Y-13996008D01*
X12402206Y-13996008D02*
X12421253Y-13986484D01*
X12421253Y-13986484D02*
X12459348Y-13986484D01*
X12459348Y-13986484D02*
X12478396Y-13996008D01*
X12478396Y-13996008D02*
X12487920Y-14005531D01*
X12487920Y-14005531D02*
X12497444Y-14024579D01*
X12497444Y-14024579D02*
X12497444Y-14034103D01*
X12497444Y-14034103D02*
X12487920Y-14053150D01*
X12487920Y-14053150D02*
X12478396Y-14062674D01*
X12478396Y-14062674D02*
X12459348Y-14072198D01*
X12459348Y-14072198D02*
X12421253Y-14072198D01*
X12421253Y-14072198D02*
X12402206Y-14081722D01*
X12402206Y-14081722D02*
X12392682Y-14091246D01*
X12392682Y-14091246D02*
X12383158Y-14110293D01*
X12383158Y-14110293D02*
X12383158Y-14148388D01*
X12383158Y-14148388D02*
X12392682Y-14167436D01*
X12392682Y-14167436D02*
X12402206Y-14176960D01*
X12402206Y-14176960D02*
X12421253Y-14186484D01*
X12421253Y-14186484D02*
X12459348Y-14186484D01*
X12459348Y-14186484D02*
X12478396Y-14176960D01*
X12478396Y-14176960D02*
X12487920Y-14167436D01*
X12487920Y-14167436D02*
X12497444Y-14148388D01*
X12497444Y-14148388D02*
X12497444Y-14110293D01*
X12497444Y-14110293D02*
X12487920Y-14091246D01*
X12487920Y-14091246D02*
X12478396Y-14081722D01*
X12478396Y-14081722D02*
X12459348Y-14072198D01*
X12573634Y-13986484D02*
X12573634Y-14024579D01*
X12649825Y-13986484D02*
X12649825Y-14024579D01*
X12945063Y-14262674D02*
X12935539Y-14253150D01*
X12935539Y-14253150D02*
X12916491Y-14224579D01*
X12916491Y-14224579D02*
X12906968Y-14205531D01*
X12906968Y-14205531D02*
X12897444Y-14176960D01*
X12897444Y-14176960D02*
X12887920Y-14129341D01*
X12887920Y-14129341D02*
X12887920Y-14091246D01*
X12887920Y-14091246D02*
X12897444Y-14043627D01*
X12897444Y-14043627D02*
X12906968Y-14015055D01*
X12906968Y-14015055D02*
X12916491Y-13996008D01*
X12916491Y-13996008D02*
X12935539Y-13967436D01*
X12935539Y-13967436D02*
X12945063Y-13957912D01*
X13049825Y-14072198D02*
X13030777Y-14062674D01*
X13030777Y-14062674D02*
X13021253Y-14053150D01*
X13021253Y-14053150D02*
X13011729Y-14034103D01*
X13011729Y-14034103D02*
X13011729Y-14024579D01*
X13011729Y-14024579D02*
X13021253Y-14005531D01*
X13021253Y-14005531D02*
X13030777Y-13996008D01*
X13030777Y-13996008D02*
X13049825Y-13986484D01*
X13049825Y-13986484D02*
X13087920Y-13986484D01*
X13087920Y-13986484D02*
X13106968Y-13996008D01*
X13106968Y-13996008D02*
X13116491Y-14005531D01*
X13116491Y-14005531D02*
X13126015Y-14024579D01*
X13126015Y-14024579D02*
X13126015Y-14034103D01*
X13126015Y-14034103D02*
X13116491Y-14053150D01*
X13116491Y-14053150D02*
X13106968Y-14062674D01*
X13106968Y-14062674D02*
X13087920Y-14072198D01*
X13087920Y-14072198D02*
X13049825Y-14072198D01*
X13049825Y-14072198D02*
X13030777Y-14081722D01*
X13030777Y-14081722D02*
X13021253Y-14091246D01*
X13021253Y-14091246D02*
X13011729Y-14110293D01*
X13011729Y-14110293D02*
X13011729Y-14148388D01*
X13011729Y-14148388D02*
X13021253Y-14167436D01*
X13021253Y-14167436D02*
X13030777Y-14176960D01*
X13030777Y-14176960D02*
X13049825Y-14186484D01*
X13049825Y-14186484D02*
X13087920Y-14186484D01*
X13087920Y-14186484D02*
X13106968Y-14176960D01*
X13106968Y-14176960D02*
X13116491Y-14167436D01*
X13116491Y-14167436D02*
X13126015Y-14148388D01*
X13126015Y-14148388D02*
X13126015Y-14110293D01*
X13126015Y-14110293D02*
X13116491Y-14091246D01*
X13116491Y-14091246D02*
X13106968Y-14081722D01*
X13106968Y-14081722D02*
X13087920Y-14072198D01*
X13306968Y-13986484D02*
X13211729Y-13986484D01*
X13211729Y-13986484D02*
X13202206Y-14081722D01*
X13202206Y-14081722D02*
X13211729Y-14072198D01*
X13211729Y-14072198D02*
X13230777Y-14062674D01*
X13230777Y-14062674D02*
X13278396Y-14062674D01*
X13278396Y-14062674D02*
X13297444Y-14072198D01*
X13297444Y-14072198D02*
X13306968Y-14081722D01*
X13306968Y-14081722D02*
X13316491Y-14100769D01*
X13316491Y-14100769D02*
X13316491Y-14148388D01*
X13316491Y-14148388D02*
X13306968Y-14167436D01*
X13306968Y-14167436D02*
X13297444Y-14176960D01*
X13297444Y-14176960D02*
X13278396Y-14186484D01*
X13278396Y-14186484D02*
X13230777Y-14186484D01*
X13230777Y-14186484D02*
X13211729Y-14176960D01*
X13211729Y-14176960D02*
X13202206Y-14167436D01*
X13487920Y-13986484D02*
X13449825Y-13986484D01*
X13449825Y-13986484D02*
X13430777Y-13996008D01*
X13430777Y-13996008D02*
X13421253Y-14005531D01*
X13421253Y-14005531D02*
X13402206Y-14034103D01*
X13402206Y-14034103D02*
X13392682Y-14072198D01*
X13392682Y-14072198D02*
X13392682Y-14148388D01*
X13392682Y-14148388D02*
X13402206Y-14167436D01*
X13402206Y-14167436D02*
X13411729Y-14176960D01*
X13411729Y-14176960D02*
X13430777Y-14186484D01*
X13430777Y-14186484D02*
X13468872Y-14186484D01*
X13468872Y-14186484D02*
X13487920Y-14176960D01*
X13487920Y-14176960D02*
X13497444Y-14167436D01*
X13497444Y-14167436D02*
X13506968Y-14148388D01*
X13506968Y-14148388D02*
X13506968Y-14100769D01*
X13506968Y-14100769D02*
X13497444Y-14081722D01*
X13497444Y-14081722D02*
X13487920Y-14072198D01*
X13487920Y-14072198D02*
X13468872Y-14062674D01*
X13468872Y-14062674D02*
X13430777Y-14062674D01*
X13430777Y-14062674D02*
X13411729Y-14072198D01*
X13411729Y-14072198D02*
X13402206Y-14081722D01*
X13402206Y-14081722D02*
X13392682Y-14100769D01*
X13745063Y-14186484D02*
X13745063Y-13986484D01*
X13830777Y-14186484D02*
X13830777Y-14081722D01*
X13830777Y-14081722D02*
X13821253Y-14062674D01*
X13821253Y-14062674D02*
X13802206Y-14053150D01*
X13802206Y-14053150D02*
X13773634Y-14053150D01*
X13773634Y-14053150D02*
X13754587Y-14062674D01*
X13754587Y-14062674D02*
X13745063Y-14072198D01*
X13954587Y-14186484D02*
X13935539Y-14176960D01*
X13935539Y-14176960D02*
X13926015Y-14167436D01*
X13926015Y-14167436D02*
X13916491Y-14148388D01*
X13916491Y-14148388D02*
X13916491Y-14091246D01*
X13916491Y-14091246D02*
X13926015Y-14072198D01*
X13926015Y-14072198D02*
X13935539Y-14062674D01*
X13935539Y-14062674D02*
X13954587Y-14053150D01*
X13954587Y-14053150D02*
X13983158Y-14053150D01*
X13983158Y-14053150D02*
X14002206Y-14062674D01*
X14002206Y-14062674D02*
X14011730Y-14072198D01*
X14011730Y-14072198D02*
X14021253Y-14091246D01*
X14021253Y-14091246D02*
X14021253Y-14148388D01*
X14021253Y-14148388D02*
X14011730Y-14167436D01*
X14011730Y-14167436D02*
X14002206Y-14176960D01*
X14002206Y-14176960D02*
X13983158Y-14186484D01*
X13983158Y-14186484D02*
X13954587Y-14186484D01*
X14135539Y-14186484D02*
X14116491Y-14176960D01*
X14116491Y-14176960D02*
X14106968Y-14157912D01*
X14106968Y-14157912D02*
X14106968Y-13986484D01*
X14287920Y-14176960D02*
X14268872Y-14186484D01*
X14268872Y-14186484D02*
X14230777Y-14186484D01*
X14230777Y-14186484D02*
X14211730Y-14176960D01*
X14211730Y-14176960D02*
X14202206Y-14157912D01*
X14202206Y-14157912D02*
X14202206Y-14081722D01*
X14202206Y-14081722D02*
X14211730Y-14062674D01*
X14211730Y-14062674D02*
X14230777Y-14053150D01*
X14230777Y-14053150D02*
X14268872Y-14053150D01*
X14268872Y-14053150D02*
X14287920Y-14062674D01*
X14287920Y-14062674D02*
X14297444Y-14081722D01*
X14297444Y-14081722D02*
X14297444Y-14100769D01*
X14297444Y-14100769D02*
X14202206Y-14119817D01*
X14373634Y-14176960D02*
X14392682Y-14186484D01*
X14392682Y-14186484D02*
X14430777Y-14186484D01*
X14430777Y-14186484D02*
X14449825Y-14176960D01*
X14449825Y-14176960D02*
X14459349Y-14157912D01*
X14459349Y-14157912D02*
X14459349Y-14148388D01*
X14459349Y-14148388D02*
X14449825Y-14129341D01*
X14449825Y-14129341D02*
X14430777Y-14119817D01*
X14430777Y-14119817D02*
X14402206Y-14119817D01*
X14402206Y-14119817D02*
X14383158Y-14110293D01*
X14383158Y-14110293D02*
X14373634Y-14091246D01*
X14373634Y-14091246D02*
X14373634Y-14081722D01*
X14373634Y-14081722D02*
X14383158Y-14062674D01*
X14383158Y-14062674D02*
X14402206Y-14053150D01*
X14402206Y-14053150D02*
X14430777Y-14053150D01*
X14430777Y-14053150D02*
X14449825Y-14062674D01*
X14526015Y-14262674D02*
X14535539Y-14253150D01*
X14535539Y-14253150D02*
X14554587Y-14224579D01*
X14554587Y-14224579D02*
X14564111Y-14205531D01*
X14564111Y-14205531D02*
X14573634Y-14176960D01*
X14573634Y-14176960D02*
X14583158Y-14129341D01*
X14583158Y-14129341D02*
X14583158Y-14091246D01*
X14583158Y-14091246D02*
X14573634Y-14043627D01*
X14573634Y-14043627D02*
X14564111Y-14015055D01*
X14564111Y-14015055D02*
X14554587Y-13996008D01*
X14554587Y-13996008D02*
X14535539Y-13967436D01*
X14535539Y-13967436D02*
X14526015Y-13957912D01*
M02*
