%TF.GenerationSoftware,KiCad,Pcbnew,8.0.4*%
%TF.CreationDate,2024-12-09T12:19:11+01:00*%
%TF.ProjectId,BLDC motor controller,424c4443-206d-46f7-946f-7220636f6e74,1.1*%
%TF.SameCoordinates,Original*%
%TF.FileFunction,Copper,L5,Inr*%
%TF.FilePolarity,Positive*%
%FSLAX46Y46*%
G04 Gerber Fmt 4.6, Leading zero omitted, Abs format (unit mm)*
G04 Created by KiCad (PCBNEW 8.0.4) date 2024-12-09 12:19:11*
%MOMM*%
%LPD*%
G01*
G04 APERTURE LIST*
G04 Aperture macros list*
%AMRoundRect*
0 Rectangle with rounded corners*
0 $1 Rounding radius*
0 $2 $3 $4 $5 $6 $7 $8 $9 X,Y pos of 4 corners*
0 Add a 4 corners polygon primitive as box body*
4,1,4,$2,$3,$4,$5,$6,$7,$8,$9,$2,$3,0*
0 Add four circle primitives for the rounded corners*
1,1,$1+$1,$2,$3*
1,1,$1+$1,$4,$5*
1,1,$1+$1,$6,$7*
1,1,$1+$1,$8,$9*
0 Add four rect primitives between the rounded corners*
20,1,$1+$1,$2,$3,$4,$5,0*
20,1,$1+$1,$4,$5,$6,$7,0*
20,1,$1+$1,$6,$7,$8,$9,0*
20,1,$1+$1,$8,$9,$2,$3,0*%
G04 Aperture macros list end*
%TA.AperFunction,ComponentPad*%
%ADD10C,0.800000*%
%TD*%
%TA.AperFunction,ComponentPad*%
%ADD11C,6.000000*%
%TD*%
%TA.AperFunction,ComponentPad*%
%ADD12RoundRect,0.200000X-0.200000X-0.450000X0.200000X-0.450000X0.200000X0.450000X-0.200000X0.450000X0*%
%TD*%
%TA.AperFunction,ComponentPad*%
%ADD13O,0.800000X1.300000*%
%TD*%
%TA.AperFunction,ComponentPad*%
%ADD14RoundRect,0.200000X-0.450000X0.200000X-0.450000X-0.200000X0.450000X-0.200000X0.450000X0.200000X0*%
%TD*%
%TA.AperFunction,ComponentPad*%
%ADD15O,1.300000X0.800000*%
%TD*%
%TA.AperFunction,ComponentPad*%
%ADD16C,0.550000*%
%TD*%
%TA.AperFunction,ComponentPad*%
%ADD17C,2.000000*%
%TD*%
%TA.AperFunction,ComponentPad*%
%ADD18RoundRect,0.325000X-2.925000X-2.925000X2.925000X-2.925000X2.925000X2.925000X-2.925000X2.925000X0*%
%TD*%
%TA.AperFunction,ComponentPad*%
%ADD19RoundRect,0.200000X0.450000X-0.200000X0.450000X0.200000X-0.450000X0.200000X-0.450000X-0.200000X0*%
%TD*%
%TA.AperFunction,ComponentPad*%
%ADD20R,2.000000X0.900000*%
%TD*%
%TA.AperFunction,ComponentPad*%
%ADD21RoundRect,1.025000X-1.025000X1.025000X-1.025000X-1.025000X1.025000X-1.025000X1.025000X1.025000X0*%
%TD*%
%TA.AperFunction,ComponentPad*%
%ADD22C,4.100000*%
%TD*%
%TA.AperFunction,ComponentPad*%
%ADD23RoundRect,1.025000X1.025000X-1.025000X1.025000X1.025000X-1.025000X1.025000X-1.025000X-1.025000X0*%
%TD*%
%TA.AperFunction,ViaPad*%
%ADD24C,0.550000*%
%TD*%
%TA.AperFunction,ViaPad*%
%ADD25C,0.600000*%
%TD*%
G04 APERTURE END LIST*
D10*
%TO.N,GND*%
%TO.C,H2303*%
X164750000Y-71250000D03*
X165409010Y-69659010D03*
X165409010Y-72840990D03*
X167000000Y-69000000D03*
D11*
X167000000Y-71250000D03*
D10*
X167000000Y-73500000D03*
X168590990Y-69659010D03*
X168590990Y-72840990D03*
X169250000Y-71250000D03*
%TD*%
D12*
%TO.N,+3V3*%
%TO.C,J2202*%
X153750000Y-129750000D03*
D13*
%TO.N,+5V*%
X155000000Y-129750000D03*
%TO.N,/Project Architecture/Interface - Interconnects/AUXP_2_SCL*%
X156250000Y-129750000D03*
%TO.N,/Project Architecture/Interface - Interconnects/AUXP_2_SDA*%
X157500000Y-129750000D03*
%TO.N,GND*%
X158750000Y-129750000D03*
%TD*%
D10*
%TO.N,GND*%
%TO.C,H2304*%
X164750000Y-131000000D03*
X165409010Y-129409010D03*
X165409010Y-132590990D03*
X167000000Y-128750000D03*
D11*
X167000000Y-131000000D03*
D10*
X167000000Y-133250000D03*
X168590990Y-129409010D03*
X168590990Y-132590990D03*
X169250000Y-131000000D03*
%TD*%
D14*
%TO.N,/Project Architecture/Interface - FD-CAN/FDCAN_P*%
%TO.C,J2004*%
X98600000Y-118750000D03*
D15*
%TO.N,GND*%
X98600000Y-120000000D03*
%TO.N,/Project Architecture/Interface - FD-CAN/FDCAN_N*%
X98600000Y-121250000D03*
%TD*%
D16*
%TO.N,/Project Architecture/Motor Control - Inverter - Phase C/PHASE_C*%
%TO.C,J1301*%
X106550000Y-69140000D03*
X106550000Y-71070000D03*
X106550000Y-71580000D03*
X106550000Y-72090000D03*
X106550000Y-72600000D03*
X106550000Y-73110000D03*
X106550000Y-75040000D03*
X107000000Y-71325000D03*
X107000000Y-71835000D03*
X107000000Y-72345000D03*
X107000000Y-72855000D03*
D17*
X107350000Y-69940000D03*
X107350000Y-74240000D03*
D16*
X107450000Y-71070000D03*
X107450000Y-71580000D03*
X107450000Y-72090000D03*
X107450000Y-72600000D03*
X107450000Y-73110000D03*
X108480000Y-69140000D03*
X108480000Y-70040000D03*
X108480000Y-74140000D03*
X108480000Y-75040000D03*
X108735000Y-69590000D03*
X108735000Y-74590000D03*
X108990000Y-69140000D03*
X108990000Y-70040000D03*
X108990000Y-74140000D03*
X108990000Y-75040000D03*
X109245000Y-69590000D03*
X109245000Y-74590000D03*
X109500000Y-69140000D03*
X109500000Y-70040000D03*
D18*
X109500000Y-72090000D03*
D16*
X109500000Y-74140000D03*
X109500000Y-75040000D03*
X109755000Y-69590000D03*
X109755000Y-74590000D03*
X110010000Y-69140000D03*
X110010000Y-70040000D03*
X110010000Y-74140000D03*
X110010000Y-75040000D03*
X110265000Y-69590000D03*
X110265000Y-74590000D03*
X110520000Y-69140000D03*
X110520000Y-70040000D03*
X110520000Y-74140000D03*
X110520000Y-75040000D03*
X111550000Y-71070000D03*
X111550000Y-71580000D03*
X111550000Y-72090000D03*
X111550000Y-72600000D03*
X111550000Y-73110000D03*
D17*
X111650000Y-69940000D03*
X111650000Y-74240000D03*
D16*
X112000000Y-71325000D03*
X112000000Y-71835000D03*
X112000000Y-72345000D03*
X112000000Y-72855000D03*
X112450000Y-69140000D03*
X112450000Y-71070000D03*
X112450000Y-71580000D03*
X112450000Y-72090000D03*
X112450000Y-72600000D03*
X112450000Y-73110000D03*
X112450000Y-75040000D03*
%TD*%
D19*
%TO.N,/Project Architecture/Interface - Interconnects/RS485_P*%
%TO.C,J2008*%
X165300000Y-110525000D03*
D15*
%TO.N,GND*%
X165300000Y-109275000D03*
%TO.N,/Project Architecture/Interface - Interconnects/RS485_N*%
X165300000Y-108025000D03*
%TD*%
D16*
%TO.N,/Project Architecture/Motor Control - Inverter - Phase A/PHASE_A*%
%TO.C,J1101*%
X150300000Y-69130000D03*
X150300000Y-71060000D03*
X150300000Y-71570000D03*
X150300000Y-72080000D03*
X150300000Y-72590000D03*
X150300000Y-73100000D03*
X150300000Y-75030000D03*
X150750000Y-71315000D03*
X150750000Y-71825000D03*
X150750000Y-72335000D03*
X150750000Y-72845000D03*
D17*
X151100000Y-69930000D03*
X151100000Y-74230000D03*
D16*
X151200000Y-71060000D03*
X151200000Y-71570000D03*
X151200000Y-72080000D03*
X151200000Y-72590000D03*
X151200000Y-73100000D03*
X152230000Y-69130000D03*
X152230000Y-70030000D03*
X152230000Y-74130000D03*
X152230000Y-75030000D03*
X152485000Y-69580000D03*
X152485000Y-74580000D03*
X152740000Y-69130000D03*
X152740000Y-70030000D03*
X152740000Y-74130000D03*
X152740000Y-75030000D03*
X152995000Y-69580000D03*
X152995000Y-74580000D03*
X153250000Y-69130000D03*
X153250000Y-70030000D03*
D18*
X153250000Y-72080000D03*
D16*
X153250000Y-74130000D03*
X153250000Y-75030000D03*
X153505000Y-69580000D03*
X153505000Y-74580000D03*
X153760000Y-69130000D03*
X153760000Y-70030000D03*
X153760000Y-74130000D03*
X153760000Y-75030000D03*
X154015000Y-69580000D03*
X154015000Y-74580000D03*
X154270000Y-69130000D03*
X154270000Y-70030000D03*
X154270000Y-74130000D03*
X154270000Y-75030000D03*
X155300000Y-71060000D03*
X155300000Y-71570000D03*
X155300000Y-72080000D03*
X155300000Y-72590000D03*
X155300000Y-73100000D03*
D17*
X155400000Y-69930000D03*
X155400000Y-74230000D03*
D16*
X155750000Y-71315000D03*
X155750000Y-71825000D03*
X155750000Y-72335000D03*
X155750000Y-72845000D03*
X156200000Y-69130000D03*
X156200000Y-71060000D03*
X156200000Y-71570000D03*
X156200000Y-72080000D03*
X156200000Y-72590000D03*
X156200000Y-73100000D03*
X156200000Y-75030000D03*
%TD*%
%TO.N,/Project Architecture/Motor Control - Inverter - Phase B/PHASE_B*%
%TO.C,J1201*%
X128050000Y-69150000D03*
X128050000Y-71080000D03*
X128050000Y-71590000D03*
X128050000Y-72100000D03*
X128050000Y-72610000D03*
X128050000Y-73120000D03*
X128050000Y-75050000D03*
X128500000Y-71335000D03*
X128500000Y-71845000D03*
X128500000Y-72355000D03*
X128500000Y-72865000D03*
D17*
X128850000Y-69950000D03*
X128850000Y-74250000D03*
D16*
X128950000Y-71080000D03*
X128950000Y-71590000D03*
X128950000Y-72100000D03*
X128950000Y-72610000D03*
X128950000Y-73120000D03*
X129980000Y-69150000D03*
X129980000Y-70050000D03*
X129980000Y-74150000D03*
X129980000Y-75050000D03*
X130235000Y-69600000D03*
X130235000Y-74600000D03*
X130490000Y-69150000D03*
X130490000Y-70050000D03*
X130490000Y-74150000D03*
X130490000Y-75050000D03*
X130745000Y-69600000D03*
X130745000Y-74600000D03*
X131000000Y-69150000D03*
X131000000Y-70050000D03*
D18*
X131000000Y-72100000D03*
D16*
X131000000Y-74150000D03*
X131000000Y-75050000D03*
X131255000Y-69600000D03*
X131255000Y-74600000D03*
X131510000Y-69150000D03*
X131510000Y-70050000D03*
X131510000Y-74150000D03*
X131510000Y-75050000D03*
X131765000Y-69600000D03*
X131765000Y-74600000D03*
X132020000Y-69150000D03*
X132020000Y-70050000D03*
X132020000Y-74150000D03*
X132020000Y-75050000D03*
X133050000Y-71080000D03*
X133050000Y-71590000D03*
X133050000Y-72100000D03*
X133050000Y-72610000D03*
X133050000Y-73120000D03*
D17*
X133150000Y-69950000D03*
X133150000Y-74250000D03*
D16*
X133500000Y-71335000D03*
X133500000Y-71845000D03*
X133500000Y-72355000D03*
X133500000Y-72865000D03*
X133950000Y-69150000D03*
X133950000Y-71080000D03*
X133950000Y-71590000D03*
X133950000Y-72100000D03*
X133950000Y-72610000D03*
X133950000Y-73120000D03*
X133950000Y-75050000D03*
%TD*%
D19*
%TO.N,/Project Architecture/Interface - Fan Control/FAN_CONTROL_PWM*%
%TO.C,J2012*%
X165300000Y-116125000D03*
D15*
%TO.N,+12V*%
X165300000Y-114875000D03*
%TD*%
D10*
%TO.N,GND*%
%TO.C,H2301*%
X95000000Y-71000000D03*
X95659010Y-69409010D03*
X95659010Y-72590990D03*
X97250000Y-68750000D03*
D11*
X97250000Y-71000000D03*
D10*
X97250000Y-73250000D03*
X98840990Y-69409010D03*
X98840990Y-72590990D03*
X99500000Y-71000000D03*
%TD*%
D14*
%TO.N,/Project Architecture/Interface - Interconnects/TEMP_MOT_L*%
%TO.C,J2011*%
X98600000Y-106625000D03*
D15*
%TO.N,/Project Architecture/Interface - Interconnects/TEMP_MOT_H*%
X98600000Y-107875000D03*
%TD*%
D19*
%TO.N,/Project Architecture/Interface - Interconnects/RS485_N*%
%TO.C,J2009*%
X165300000Y-103775000D03*
D15*
%TO.N,GND*%
X165300000Y-102525000D03*
%TO.N,/Project Architecture/Interface - Interconnects/RS485_P*%
X165300000Y-101275000D03*
%TD*%
D14*
%TO.N,/Project Architecture/Interface - FD-CAN/FDCAN_N*%
%TO.C,J2005*%
X98650000Y-112050000D03*
D15*
%TO.N,GND*%
X98650000Y-113300000D03*
%TO.N,/Project Architecture/Interface - FD-CAN/FDCAN_P*%
X98650000Y-114550000D03*
%TD*%
D12*
%TO.N,+3V3*%
%TO.C,J2001*%
X142000000Y-129750000D03*
D13*
%TO.N,+5V*%
X143250000Y-129750000D03*
%TO.N,/Project Architecture/Interface - Interconnects/AUXP_1_CS*%
X144500000Y-129750000D03*
%TO.N,/Project Architecture/Interface - Interconnects/AUXP_1_MISO*%
X145750000Y-129750000D03*
%TO.N,/Project Architecture/Interface - Interconnects/AUXP_1_MOSI*%
X147000000Y-129750000D03*
%TO.N,/Project Architecture/Interface - Interconnects/AUXP_1_SCK*%
X148250000Y-129750000D03*
%TO.N,GND*%
X149500000Y-129750000D03*
%TD*%
D10*
%TO.N,GND*%
%TO.C,H2302*%
X95000000Y-130900000D03*
X95659010Y-129309010D03*
X95659010Y-132490990D03*
X97250000Y-128650000D03*
D11*
X97250000Y-130900000D03*
D10*
X97250000Y-133150000D03*
X98840990Y-129309010D03*
X98840990Y-132490990D03*
X99500000Y-130900000D03*
%TD*%
D20*
%TO.N,*%
%TO.C,J402*%
X90750000Y-75800000D03*
X90750000Y-89300000D03*
D21*
%TO.N,+VBAT_SAFE*%
X96750000Y-86150000D03*
D22*
%TO.N,GND*%
X96750000Y-78950000D03*
%TD*%
D20*
%TO.N,*%
%TO.C,J401*%
X172905000Y-89875000D03*
X172905000Y-76375000D03*
D23*
%TO.N,GND*%
X166905000Y-79525000D03*
D22*
%TO.N,+VBAT_SAFE*%
X166905000Y-86725000D03*
%TD*%
D24*
%TO.N,+VBAT_SAFE*%
X125950000Y-81400000D03*
X152500000Y-81100000D03*
X125250000Y-79800000D03*
X115250000Y-85550000D03*
X125950000Y-80600000D03*
X129100000Y-85400000D03*
X128600000Y-81400000D03*
X154650000Y-84900000D03*
X155200000Y-81100000D03*
X125250000Y-81400000D03*
X125250000Y-86200000D03*
X127950000Y-79100000D03*
X112600000Y-86900000D03*
X127250000Y-84250000D03*
X127300000Y-81400000D03*
X128500000Y-86300000D03*
X115250000Y-86850000D03*
X128650000Y-79100000D03*
X113650000Y-79200000D03*
X112000000Y-87500000D03*
X127850000Y-86900000D03*
X126650000Y-81400000D03*
X113950000Y-87500000D03*
X125250000Y-83550000D03*
X127900000Y-81400000D03*
X129150000Y-86250000D03*
X127300000Y-80600000D03*
X153250000Y-86900000D03*
X124650000Y-79100000D03*
X127350000Y-79100000D03*
X154550000Y-81100000D03*
X154650000Y-85550000D03*
X124600000Y-79800000D03*
X113300000Y-87500000D03*
X153850000Y-80300000D03*
X113950000Y-86900000D03*
X115050000Y-79200000D03*
X114600000Y-86900000D03*
X113000000Y-79200000D03*
X116250000Y-81500000D03*
X113100000Y-86200000D03*
X115250000Y-84900000D03*
X116250000Y-79900000D03*
X112950000Y-79900000D03*
X127300000Y-79800000D03*
X112600000Y-83800000D03*
X114350000Y-79200000D03*
X126600000Y-83550000D03*
X127200000Y-86900000D03*
X114000000Y-83700000D03*
X127900000Y-79800000D03*
X153850000Y-79500000D03*
X153150000Y-79500000D03*
X113100000Y-84400000D03*
X116300000Y-79200000D03*
X154600000Y-78800000D03*
X125950000Y-79800000D03*
X152850000Y-84250000D03*
X114850000Y-83750000D03*
X124600000Y-81400000D03*
X155800000Y-80300000D03*
X129150000Y-84050000D03*
X117850000Y-83000000D03*
X155200000Y-79500000D03*
X152850000Y-85550000D03*
X119950000Y-83000000D03*
X112950000Y-80700000D03*
X152600000Y-86900000D03*
X127300000Y-83550000D03*
X157550000Y-82150000D03*
X115250000Y-84250000D03*
X120650000Y-82300000D03*
X115000000Y-80700000D03*
X116250000Y-80700000D03*
X113600000Y-81500000D03*
X120000000Y-82250000D03*
X115000000Y-81500000D03*
X125250000Y-85500000D03*
X128600000Y-79800000D03*
X115700000Y-79200000D03*
X113600000Y-80700000D03*
X155250000Y-78800000D03*
X153900000Y-86900000D03*
X153850000Y-81100000D03*
X152550000Y-78800000D03*
X152850000Y-84900000D03*
X152250000Y-83550000D03*
X125250000Y-84850000D03*
X113100000Y-84950000D03*
X153150000Y-80300000D03*
X111950000Y-83800000D03*
X156500000Y-81100000D03*
X154550000Y-79500000D03*
X128500000Y-86900000D03*
X152850000Y-86200000D03*
X152500000Y-79500000D03*
X156550000Y-78800000D03*
X128600000Y-83600000D03*
X116950000Y-79900000D03*
X126650000Y-80600000D03*
X117850000Y-82350000D03*
X155200000Y-80300000D03*
X125250000Y-86850000D03*
X116950000Y-81500000D03*
X129150000Y-84700000D03*
X125900000Y-86900000D03*
X127950000Y-83550000D03*
X129150000Y-86900000D03*
X115000000Y-79900000D03*
X114300000Y-80700000D03*
X137400000Y-94750000D03*
X156500000Y-79500000D03*
X113300000Y-86900000D03*
X120650000Y-79600000D03*
X153650000Y-83550000D03*
X151950000Y-86900000D03*
X115650000Y-81500000D03*
X154650000Y-84150000D03*
X115650000Y-80700000D03*
X127250000Y-85600000D03*
X120650000Y-81650000D03*
X113100000Y-85600000D03*
X125950000Y-83550000D03*
X127200000Y-86300000D03*
X117000000Y-79200000D03*
X115250000Y-87500000D03*
X128600000Y-80600000D03*
X126550000Y-86900000D03*
X155850000Y-78800000D03*
X124600000Y-80600000D03*
X114300000Y-81500000D03*
X115650000Y-79900000D03*
X153150000Y-81100000D03*
X116950000Y-80700000D03*
X114600000Y-87500000D03*
X112650000Y-87500000D03*
X114300000Y-79900000D03*
X125250000Y-84200000D03*
X154650000Y-86200000D03*
X127250000Y-84900000D03*
X113250000Y-83800000D03*
X154550000Y-86900000D03*
X112950000Y-81500000D03*
X156500000Y-80300000D03*
X155800000Y-79500000D03*
X111950000Y-86900000D03*
X127900000Y-80600000D03*
X154300000Y-83550000D03*
X113600000Y-79900000D03*
X126700000Y-79100000D03*
X120650000Y-80250000D03*
X120650000Y-80900000D03*
X152950000Y-83550000D03*
X120650000Y-82950000D03*
X155800000Y-81100000D03*
X157550000Y-82900000D03*
X153200000Y-78800000D03*
X125250000Y-80600000D03*
X152500000Y-80300000D03*
X125300000Y-79100000D03*
X126000000Y-79100000D03*
X120650000Y-78950000D03*
X127850000Y-86300000D03*
X154550000Y-80300000D03*
X153900000Y-78800000D03*
X126650000Y-79800000D03*
X115250000Y-86200000D03*
%TO.N,GND*%
X163500000Y-79100000D03*
X101200000Y-95600000D03*
X95700000Y-126200000D03*
X117800000Y-90700000D03*
X94600000Y-123000000D03*
X97000000Y-124000000D03*
X98400000Y-94400000D03*
X105500000Y-95600000D03*
X103700000Y-97900000D03*
X105600000Y-94400000D03*
X101200000Y-98900000D03*
X116800000Y-93700000D03*
X162100000Y-119700000D03*
X103700000Y-94400000D03*
X100300000Y-101400000D03*
X102700000Y-101400000D03*
X114900000Y-93700000D03*
X163100000Y-121600000D03*
X100900000Y-133700000D03*
X98800000Y-125000000D03*
X155100000Y-98900000D03*
X116800000Y-91700000D03*
X163200000Y-97400000D03*
X99300000Y-98900000D03*
X152200000Y-99900000D03*
X164200000Y-96400000D03*
X155300000Y-95300000D03*
X105500000Y-97900000D03*
X94700000Y-124300000D03*
X97000000Y-127100000D03*
X158300000Y-99800000D03*
X163500000Y-81200000D03*
X153300000Y-98900000D03*
X162100000Y-121500000D03*
X120700000Y-90700000D03*
X100200000Y-97900000D03*
X159300000Y-99800000D03*
X163500000Y-77300000D03*
X99400000Y-97900000D03*
X104600000Y-94400000D03*
X163500000Y-76200000D03*
X162200000Y-126800000D03*
X145100000Y-95300000D03*
X155100000Y-99900000D03*
X104500000Y-95600000D03*
X102700000Y-131600000D03*
X102700000Y-100400000D03*
X100200000Y-98900000D03*
X100300000Y-94400000D03*
X94700000Y-127200000D03*
X162200000Y-125700000D03*
X99900000Y-127100000D03*
X163500000Y-78100000D03*
X139900000Y-96300000D03*
X102600000Y-97900000D03*
X162100000Y-122600000D03*
X98000000Y-125000000D03*
X164200000Y-95600000D03*
X116000000Y-92700000D03*
X103700000Y-101400000D03*
X163200000Y-123900000D03*
X98900000Y-124000000D03*
X104500000Y-97900000D03*
X104600000Y-100400000D03*
X116800000Y-92700000D03*
X98900000Y-126100000D03*
X99900000Y-126100000D03*
X103500000Y-95600000D03*
X103600000Y-98900000D03*
X95600000Y-123000000D03*
X159300000Y-98800000D03*
X95600000Y-121100000D03*
X102700000Y-132700000D03*
X99400000Y-93400000D03*
X95700000Y-125300000D03*
X153500000Y-95300000D03*
X117800000Y-92700000D03*
X100300000Y-100400000D03*
X102600000Y-98900000D03*
X162200000Y-124900000D03*
X104600000Y-101400000D03*
X100200000Y-95600000D03*
X98300000Y-97900000D03*
X115900000Y-93700000D03*
X163100000Y-120700000D03*
X101200000Y-97900000D03*
X101300000Y-101400000D03*
X100900000Y-131600000D03*
X162500000Y-82000000D03*
X154100000Y-98900000D03*
X143200000Y-95300000D03*
X103800000Y-100400000D03*
X95600000Y-120100000D03*
X163500000Y-82000000D03*
X118900000Y-90700000D03*
X152200000Y-98900000D03*
X140800000Y-95300000D03*
X121700000Y-90700000D03*
X94600000Y-121100000D03*
X98400000Y-101400000D03*
X99400000Y-101400000D03*
X103700000Y-93400000D03*
X162500000Y-81100000D03*
X105600000Y-93400000D03*
X101300000Y-93400000D03*
X94700000Y-126100000D03*
X101300000Y-94400000D03*
X97000000Y-125000000D03*
X99400000Y-94400000D03*
X98400000Y-93400000D03*
X163500000Y-80100000D03*
X98300000Y-95600000D03*
X101300000Y-100400000D03*
X104600000Y-93400000D03*
X144300000Y-95300000D03*
X157500000Y-98800000D03*
X94600000Y-121900000D03*
X162200000Y-123900000D03*
X156400000Y-99800000D03*
X163100000Y-119700000D03*
X157400000Y-99800000D03*
X98400000Y-100400000D03*
X102700000Y-93400000D03*
X117800000Y-91700000D03*
X95700000Y-127200000D03*
X98300000Y-98900000D03*
X94700000Y-125300000D03*
X163200000Y-124900000D03*
X156400000Y-98800000D03*
X102600000Y-95600000D03*
X99500000Y-100400000D03*
X105600000Y-100400000D03*
X98800000Y-127100000D03*
X141800000Y-95300000D03*
X99200000Y-95600000D03*
X97000000Y-126100000D03*
X164200000Y-94500000D03*
X101800000Y-133700000D03*
X154100000Y-99900000D03*
X101800000Y-132700000D03*
X117800000Y-93700000D03*
X146100000Y-95300000D03*
X162500000Y-80100000D03*
X102700000Y-94400000D03*
X100300000Y-93400000D03*
X105500000Y-98900000D03*
X162500000Y-83000000D03*
X152400000Y-95300000D03*
X94600000Y-120100000D03*
X163200000Y-125800000D03*
X163100000Y-122600000D03*
X162100000Y-120700000D03*
X163200000Y-95500000D03*
X98000000Y-124000000D03*
X95600000Y-122000000D03*
X101800000Y-131600000D03*
X140000000Y-95300000D03*
X158300000Y-98800000D03*
X98000000Y-126100000D03*
X154300000Y-95300000D03*
X98000000Y-127100000D03*
X119900000Y-90700000D03*
X95700000Y-124300000D03*
X104500000Y-98900000D03*
X153200000Y-99900000D03*
X163500000Y-83000000D03*
X102600000Y-133700000D03*
X116800000Y-90700000D03*
X163200000Y-126800000D03*
X164200000Y-97400000D03*
X100900000Y-132700000D03*
D25*
X103550000Y-68200000D03*
X110700000Y-129700000D03*
X141850000Y-132300000D03*
X157350000Y-133300000D03*
X102900000Y-109450000D03*
X124650000Y-128600000D03*
X109750000Y-130700000D03*
X116050000Y-116750000D03*
X125750000Y-127600000D03*
X160900000Y-122300000D03*
X106500000Y-89450000D03*
X162200000Y-131800000D03*
X115250000Y-69200000D03*
X169150000Y-75000000D03*
X94800000Y-119100000D03*
X157200000Y-114700000D03*
X106450000Y-129700000D03*
X114000000Y-131600000D03*
X111850000Y-131600000D03*
X158200000Y-114700000D03*
X119350000Y-132800000D03*
X127200000Y-121650000D03*
X104250000Y-128600000D03*
X169700000Y-75900000D03*
X155100000Y-133300000D03*
X105100000Y-104250000D03*
X167600000Y-119100000D03*
X95700000Y-92200000D03*
X122100000Y-96500000D03*
X163400000Y-73850000D03*
X146200000Y-69300000D03*
X127900000Y-127600000D03*
X111800000Y-128500000D03*
X123700000Y-131700000D03*
X162000000Y-123300000D03*
X117000000Y-116050000D03*
X157950000Y-127400000D03*
X117300000Y-69200000D03*
X114000000Y-130600000D03*
X148500000Y-133300000D03*
X143850000Y-126600000D03*
X116400000Y-69200000D03*
X118300000Y-129700000D03*
X119675000Y-105675000D03*
X139750000Y-69300000D03*
X113600000Y-96500000D03*
X116100000Y-132800000D03*
X108550000Y-107700000D03*
X128900000Y-122300000D03*
X145750000Y-96550000D03*
X169700000Y-78000000D03*
X135400000Y-124400000D03*
X119050000Y-116950000D03*
X147900000Y-96550000D03*
X100900000Y-112800000D03*
X107500000Y-131700000D03*
X98000000Y-76000000D03*
X105450000Y-133800000D03*
X125550000Y-111750000D03*
X151700000Y-130200000D03*
X163600000Y-102900000D03*
X101600000Y-69200000D03*
X94500000Y-109600000D03*
X161100000Y-112400000D03*
X102700000Y-120450000D03*
X135400000Y-126400000D03*
X103200000Y-133800000D03*
X133850000Y-96550000D03*
X124200000Y-96500000D03*
X157100000Y-90500000D03*
X125900000Y-69200000D03*
X119450000Y-68200000D03*
X141050000Y-108550000D03*
X164100000Y-77800000D03*
X119350000Y-130700000D03*
X120400000Y-127500000D03*
X94800000Y-118100000D03*
X138900000Y-130500000D03*
X102950000Y-107650000D03*
X160750000Y-96600000D03*
X95400000Y-103800000D03*
X115050000Y-129700000D03*
X131200000Y-133700000D03*
X167600000Y-120200000D03*
X136400000Y-125400000D03*
X116350000Y-68200000D03*
X119300000Y-127600000D03*
X119050000Y-120700000D03*
X110650000Y-126600000D03*
X103150000Y-127600000D03*
X101550000Y-68200000D03*
X97800000Y-125600000D03*
X169400000Y-102100000D03*
X160000000Y-111400000D03*
X113950000Y-128500000D03*
X149350000Y-127700000D03*
X164100000Y-75700000D03*
X165500000Y-121200000D03*
X160450000Y-115700000D03*
X163200000Y-132800000D03*
X138250000Y-96550000D03*
X102200000Y-130700000D03*
X160450000Y-114700000D03*
X169700000Y-79150000D03*
X169700000Y-82250000D03*
X148350000Y-126700000D03*
X143850000Y-127600000D03*
X106500000Y-90450000D03*
X101900000Y-109450000D03*
X121600000Y-132700000D03*
X119050000Y-116050000D03*
X102800000Y-96500000D03*
X96500000Y-109550000D03*
X149000000Y-96550000D03*
X101900000Y-80000000D03*
X169700000Y-113000000D03*
X101900000Y-84300000D03*
X108550000Y-128600000D03*
X167600000Y-118100000D03*
X111800000Y-106050000D03*
X162000000Y-119100000D03*
X168200000Y-107300000D03*
X132850000Y-96550000D03*
X161100000Y-128550000D03*
X168750000Y-120200000D03*
X115100000Y-133800000D03*
X94800000Y-126650000D03*
X128450000Y-96500000D03*
X126950000Y-131700000D03*
X112950000Y-127500000D03*
X109300000Y-105050000D03*
X137750000Y-68300000D03*
X168750000Y-118100000D03*
X130200000Y-132700000D03*
X169750000Y-125400000D03*
X102700000Y-122700000D03*
X136400000Y-124400000D03*
X118350000Y-131700000D03*
X163400000Y-71700000D03*
X125550000Y-113850000D03*
X94800000Y-81700000D03*
X136400000Y-123300000D03*
X160100000Y-132800000D03*
X108450000Y-114300000D03*
X143000000Y-132300000D03*
X104050000Y-107650000D03*
X116050000Y-129700000D03*
X108600000Y-133800000D03*
X95700000Y-97600000D03*
X164150000Y-125400000D03*
X147250000Y-132300000D03*
X108450000Y-104300000D03*
X150700000Y-131200000D03*
X145350000Y-103300000D03*
X135550000Y-68300000D03*
X107450000Y-114250000D03*
X136650000Y-69300000D03*
X166500000Y-125400000D03*
X95950000Y-75000000D03*
X141700000Y-127600000D03*
X119950000Y-96500000D03*
X157950000Y-126400000D03*
X102900000Y-111650000D03*
X95500000Y-116150000D03*
X96800000Y-81700000D03*
X113000000Y-133700000D03*
X105150000Y-106500000D03*
X105150000Y-105400000D03*
X159300000Y-68700000D03*
X124700000Y-132800000D03*
X101900000Y-79000000D03*
X94500000Y-112950000D03*
X102900000Y-113750000D03*
X163150000Y-119100000D03*
X141500000Y-96550000D03*
X96500000Y-106250000D03*
X133150000Y-122300000D03*
X113000000Y-131600000D03*
X95700000Y-96550000D03*
X159900000Y-122300000D03*
X106100000Y-96500000D03*
X104200000Y-126600000D03*
X101900000Y-81100000D03*
X164150000Y-123300000D03*
X123650000Y-128600000D03*
X106500000Y-131700000D03*
X114700000Y-96500000D03*
X105650000Y-89950000D03*
X107400000Y-107700000D03*
X160000000Y-110400000D03*
X115100000Y-132800000D03*
X104000000Y-106500000D03*
X101900000Y-110500000D03*
X169400000Y-106300000D03*
X164150000Y-119100000D03*
X119500000Y-69200000D03*
X94950000Y-76000000D03*
X159900000Y-121200000D03*
X124800000Y-69200000D03*
X165900000Y-75000000D03*
X156500000Y-96600000D03*
X123650000Y-69200000D03*
X165500000Y-118100000D03*
X157600000Y-96600000D03*
X125550000Y-115000000D03*
X127950000Y-131700000D03*
X119050000Y-118950000D03*
X129900000Y-123300000D03*
X136400000Y-131800000D03*
X140050000Y-130500000D03*
X159300000Y-115700000D03*
X149350000Y-126700000D03*
X169750000Y-123300000D03*
X159900000Y-127400000D03*
X140600000Y-127600000D03*
X162200000Y-128550000D03*
X160900000Y-125400000D03*
X164150000Y-124400000D03*
X114200000Y-69200000D03*
X157350000Y-132300000D03*
X123700000Y-133800000D03*
X162400000Y-102800000D03*
X130200000Y-133700000D03*
X132150000Y-129600000D03*
X160900000Y-118100000D03*
X131000000Y-129600000D03*
X150700000Y-127950000D03*
X120450000Y-133700000D03*
X98800000Y-81600000D03*
X101900000Y-86500000D03*
X148300000Y-69300000D03*
X129900000Y-125400000D03*
X107500000Y-126600000D03*
X97850000Y-81700000D03*
X136400000Y-127400000D03*
X168200000Y-109450000D03*
X121550000Y-68200000D03*
X122600000Y-131600000D03*
X112950000Y-106250000D03*
X100550000Y-96500000D03*
X120400000Y-129600000D03*
X95800000Y-119050000D03*
X113900000Y-106650000D03*
X143000000Y-69300000D03*
X129050000Y-132700000D03*
X94500000Y-116200000D03*
X109150000Y-124750000D03*
X115200000Y-68200000D03*
X158200000Y-115700000D03*
X101900000Y-111650000D03*
X154250000Y-96550000D03*
X162000000Y-124400000D03*
X99600000Y-96500000D03*
X96600000Y-104800000D03*
X116950000Y-116750000D03*
X168200000Y-101000000D03*
X139700000Y-68300000D03*
X163150000Y-118100000D03*
X147250000Y-68300000D03*
X124650000Y-127600000D03*
X94900000Y-75000000D03*
X130200000Y-131600000D03*
X135400000Y-129500000D03*
X163150000Y-127400000D03*
X140850000Y-133300000D03*
X159300000Y-114700000D03*
X103100000Y-126600000D03*
X134250000Y-123300000D03*
X105200000Y-107650000D03*
X145050000Y-69300000D03*
X95500000Y-112900000D03*
X95800000Y-118050000D03*
X167600000Y-124400000D03*
X109750000Y-132800000D03*
X101900000Y-76800000D03*
X106300000Y-107700000D03*
X99800000Y-123400000D03*
X165500000Y-123300000D03*
X165500000Y-120200000D03*
X159000000Y-111400000D03*
X120450000Y-132700000D03*
X127950000Y-133800000D03*
X131000000Y-123300000D03*
X108500000Y-126600000D03*
X116700000Y-96500000D03*
X112950000Y-107200000D03*
X131000000Y-122300000D03*
X160900000Y-123300000D03*
X104550000Y-69100000D03*
X151700000Y-131200000D03*
X169750000Y-122300000D03*
X98950000Y-75900000D03*
X100500000Y-68200000D03*
X166500000Y-118100000D03*
X111900000Y-130600000D03*
X102700000Y-119400000D03*
X105400000Y-129700000D03*
X125200000Y-96500000D03*
X168750000Y-124400000D03*
X159900000Y-123300000D03*
X167600000Y-122300000D03*
X125550000Y-109500000D03*
X158200000Y-116700000D03*
X142450000Y-100100000D03*
X105450000Y-132800000D03*
X155100000Y-132300000D03*
X113000000Y-130600000D03*
X169700000Y-111900000D03*
X163150000Y-123300000D03*
X107500000Y-133800000D03*
X115400000Y-118050000D03*
X164100000Y-76700000D03*
X166500000Y-119100000D03*
X148350000Y-127700000D03*
X168200000Y-100000000D03*
X169400000Y-98850000D03*
X159900000Y-120200000D03*
X122550000Y-68200000D03*
X132150000Y-122300000D03*
X94500000Y-107350000D03*
X168200000Y-105200000D03*
X160000000Y-112400000D03*
X100900000Y-110550000D03*
X133150000Y-126500000D03*
X158350000Y-133300000D03*
X95700000Y-93250000D03*
X151750000Y-132300000D03*
X126900000Y-128600000D03*
X169750000Y-124400000D03*
X102900000Y-105400000D03*
X104250000Y-129700000D03*
X169400000Y-104250000D03*
X105250000Y-108750000D03*
X110400000Y-105050000D03*
X118350000Y-132800000D03*
X123650000Y-129700000D03*
X139550000Y-102250000D03*
X166500000Y-123300000D03*
X129050000Y-133700000D03*
X94400000Y-104800000D03*
X168200000Y-102100000D03*
X96550000Y-103800000D03*
X111850000Y-107200000D03*
X94500000Y-114100000D03*
X156200000Y-133300000D03*
X135400000Y-128500000D03*
X118300000Y-128600000D03*
X138650000Y-68300000D03*
X112450000Y-96500000D03*
X156800000Y-126400000D03*
X101900000Y-75700000D03*
X131000000Y-124400000D03*
X117150000Y-128600000D03*
X125550000Y-110600000D03*
X111850000Y-127500000D03*
X128900000Y-126500000D03*
X109250000Y-96500000D03*
X120550000Y-68200000D03*
X161100000Y-131800000D03*
X155350000Y-96600000D03*
X168750000Y-125400000D03*
X117950000Y-116900000D03*
X162200000Y-130700000D03*
X135400000Y-122300000D03*
X113950000Y-127500000D03*
X104300000Y-132800000D03*
X142500000Y-96550000D03*
X114700000Y-107250000D03*
X95700000Y-94400000D03*
X128900000Y-127500000D03*
X110350000Y-96500000D03*
X113950000Y-129600000D03*
X169400000Y-109550000D03*
X144750000Y-96550000D03*
X107450000Y-127600000D03*
X107300000Y-104300000D03*
X141950000Y-68300000D03*
X143000000Y-133300000D03*
X163400000Y-72850000D03*
X94500000Y-106300000D03*
X163200000Y-131800000D03*
X125800000Y-130700000D03*
X98800000Y-123400000D03*
X108600000Y-132800000D03*
X162850000Y-96600000D03*
X164150000Y-126400000D03*
X102150000Y-127600000D03*
X167600000Y-121200000D03*
X116100000Y-130700000D03*
X125800000Y-132800000D03*
X97950000Y-75000000D03*
X102100000Y-126600000D03*
X123750000Y-111250000D03*
X111800000Y-129600000D03*
X161450000Y-116700000D03*
X141850000Y-133300000D03*
X104300000Y-133800000D03*
X95500000Y-114050000D03*
X160900000Y-124400000D03*
X105450000Y-131700000D03*
X133150000Y-124400000D03*
X108550000Y-129700000D03*
X159000000Y-110400000D03*
X161100000Y-111400000D03*
X107450000Y-129700000D03*
X109550000Y-106050000D03*
X119350000Y-131700000D03*
X168200000Y-108450000D03*
X109700000Y-128600000D03*
X121550000Y-127500000D03*
X99850000Y-124400000D03*
X106500000Y-133800000D03*
X169700000Y-115150000D03*
X157200000Y-115700000D03*
X96500000Y-115150000D03*
X96500000Y-107300000D03*
X105000000Y-96500000D03*
X104300000Y-131700000D03*
X132150000Y-124400000D03*
X114000000Y-133700000D03*
X127950000Y-132800000D03*
X169400000Y-92500000D03*
X135400000Y-125400000D03*
X123600000Y-68200000D03*
X109250000Y-103900000D03*
X152750000Y-133300000D03*
X159900000Y-125400000D03*
X136400000Y-129500000D03*
X118350000Y-130700000D03*
X107450000Y-128600000D03*
X119050000Y-119800000D03*
X123650000Y-106850000D03*
X101700000Y-119450000D03*
X133150000Y-125400000D03*
X159900000Y-118100000D03*
X123700000Y-130700000D03*
X110650000Y-106050000D03*
X113600000Y-118000000D03*
X125800000Y-133800000D03*
X136400000Y-122300000D03*
X149500000Y-133300000D03*
X108100000Y-96500000D03*
X165500000Y-119100000D03*
X96500000Y-110550000D03*
X158950000Y-126400000D03*
X108600000Y-131700000D03*
X169750000Y-120200000D03*
X109650000Y-126600000D03*
X121600000Y-130600000D03*
X130750000Y-96550000D03*
X134250000Y-124400000D03*
X132525000Y-109975000D03*
X102700000Y-123700000D03*
X128900000Y-125400000D03*
X163200000Y-129550000D03*
X129050000Y-131600000D03*
X124750000Y-68200000D03*
X146250000Y-133300000D03*
X154700000Y-127400000D03*
X103850000Y-96500000D03*
X102500000Y-68200000D03*
X101700000Y-122750000D03*
X128900000Y-124400000D03*
X132150000Y-126500000D03*
X139700000Y-132300000D03*
X161100000Y-132800000D03*
X95450000Y-104800000D03*
X128900000Y-129600000D03*
X95500000Y-106250000D03*
X118300000Y-127600000D03*
X157200000Y-116700000D03*
X160100000Y-131800000D03*
X144000000Y-69300000D03*
X120450000Y-130600000D03*
X147200000Y-126700000D03*
X169400000Y-107400000D03*
X94500000Y-110600000D03*
X160400000Y-68700000D03*
X126950000Y-133800000D03*
X95500000Y-110550000D03*
X131000000Y-125400000D03*
X98700000Y-104800000D03*
X169400000Y-100000000D03*
X114650000Y-106100000D03*
X125800000Y-131700000D03*
X131000000Y-128600000D03*
X158800000Y-89500000D03*
X160900000Y-120200000D03*
X140900000Y-69300000D03*
X101900000Y-85450000D03*
X169700000Y-80150000D03*
X128900000Y-128600000D03*
X115100000Y-131700000D03*
X111850000Y-132700000D03*
X108500000Y-106550000D03*
X102550000Y-69200000D03*
X100900000Y-113800000D03*
X114000000Y-132700000D03*
X121600000Y-69200000D03*
X160900000Y-126400000D03*
X161850000Y-96600000D03*
X112950000Y-129600000D03*
X95700000Y-98700000D03*
X125750000Y-129700000D03*
X110750000Y-131700000D03*
X104000000Y-105400000D03*
X134250000Y-126400000D03*
X162000000Y-118100000D03*
X164900000Y-75000000D03*
X127200000Y-122800000D03*
X124700000Y-131700000D03*
X131200000Y-132700000D03*
X134250000Y-128500000D03*
X118300000Y-68200000D03*
X104250000Y-127600000D03*
X132150000Y-127500000D03*
X154100000Y-133300000D03*
X159600000Y-96600000D03*
X114400000Y-118000000D03*
X160100000Y-129550000D03*
X161100000Y-130700000D03*
X106450000Y-127600000D03*
X147250000Y-133300000D03*
X103150000Y-128600000D03*
X160900000Y-121200000D03*
X103150000Y-129700000D03*
X115700000Y-96500000D03*
X94500000Y-108500000D03*
X119000000Y-121700000D03*
X167000000Y-75000000D03*
X104800000Y-90450000D03*
X164150000Y-121200000D03*
X150700000Y-126950000D03*
X147800000Y-107325000D03*
X156800000Y-127400000D03*
X103200000Y-130700000D03*
X161450000Y-115700000D03*
X102850000Y-104250000D03*
X169700000Y-76900000D03*
X164150000Y-127400000D03*
X163200000Y-130700000D03*
X94500000Y-111900000D03*
X134250000Y-122300000D03*
X143950000Y-68300000D03*
X138700000Y-69300000D03*
X101900000Y-77850000D03*
X124650000Y-129700000D03*
X169700000Y-110900000D03*
X151700000Y-127950000D03*
X122550000Y-128500000D03*
X101700000Y-118350000D03*
X129900000Y-126500000D03*
X96500000Y-112900000D03*
X120600000Y-69200000D03*
X168750000Y-123300000D03*
X130200000Y-130600000D03*
X117250000Y-68200000D03*
X101700000Y-117350000D03*
X110700000Y-107200000D03*
X111350000Y-96500000D03*
X155700000Y-126400000D03*
X145100000Y-126700000D03*
X140500000Y-96550000D03*
X113000000Y-132700000D03*
X167600000Y-123300000D03*
X146450000Y-99450000D03*
X133150000Y-127500000D03*
X117200000Y-130700000D03*
X152150000Y-96550000D03*
X145000000Y-68300000D03*
X150600000Y-133300000D03*
X110700000Y-127600000D03*
X96500000Y-114050000D03*
X167600000Y-125400000D03*
X96500000Y-108450000D03*
X96000000Y-76000000D03*
X102900000Y-112750000D03*
X118350000Y-133800000D03*
X135000000Y-96550000D03*
X101700000Y-121650000D03*
X159900000Y-126400000D03*
X140850000Y-132300000D03*
X106500000Y-132800000D03*
X95500000Y-108450000D03*
X122600000Y-69200000D03*
X116050000Y-128600000D03*
X150700000Y-129100000D03*
X140050000Y-129500000D03*
X120400000Y-128500000D03*
X101900000Y-83300000D03*
X119300000Y-128600000D03*
X152750000Y-132300000D03*
X160100000Y-128550000D03*
X101700000Y-120500000D03*
X127200000Y-123750000D03*
X105400000Y-127600000D03*
X168200000Y-106200000D03*
X101700000Y-115200000D03*
X103950000Y-104250000D03*
X121550000Y-129600000D03*
X98650000Y-103800000D03*
X125750000Y-128600000D03*
X110350000Y-103900000D03*
X106250000Y-106550000D03*
X128900000Y-123300000D03*
X169400000Y-96750000D03*
X109700000Y-127600000D03*
X102150000Y-129700000D03*
X95700000Y-91100000D03*
X148500000Y-132300000D03*
X158600000Y-96600000D03*
X163200000Y-128550000D03*
X158350000Y-132300000D03*
X101700000Y-123750000D03*
X122600000Y-132700000D03*
X95700000Y-95400000D03*
X119350000Y-133800000D03*
X102700000Y-121600000D03*
X169750000Y-119100000D03*
X118950000Y-96500000D03*
X165500000Y-125400000D03*
X129900000Y-128600000D03*
X160900000Y-119100000D03*
X127200000Y-120550000D03*
X97700000Y-104800000D03*
X126900000Y-129700000D03*
X146750000Y-96550000D03*
X122550000Y-129600000D03*
X96500000Y-111850000D03*
X145350000Y-101900000D03*
X116000000Y-116000000D03*
X142850000Y-127600000D03*
X108500000Y-105450000D03*
X110750000Y-132800000D03*
X133150000Y-123300000D03*
X95700000Y-100800000D03*
X132450000Y-101550000D03*
X106200000Y-104300000D03*
X161450000Y-114700000D03*
X127200000Y-126000000D03*
X125550000Y-112750000D03*
X132150000Y-125400000D03*
X136400000Y-126400000D03*
X102900000Y-106500000D03*
X109700000Y-129700000D03*
X111850000Y-133700000D03*
X156200000Y-132300000D03*
X115050000Y-127600000D03*
X123650000Y-107950000D03*
X169750000Y-118100000D03*
X164100000Y-79950000D03*
X110750000Y-130700000D03*
X110750000Y-133800000D03*
X100900000Y-111700000D03*
X137100000Y-96550000D03*
X146150000Y-68300000D03*
X117850000Y-96500000D03*
X129900000Y-124400000D03*
X107500000Y-130700000D03*
X124700000Y-133800000D03*
X115050000Y-128600000D03*
X162200000Y-129550000D03*
X161100000Y-110400000D03*
X109750000Y-131700000D03*
X96900000Y-75000000D03*
X164100000Y-80950000D03*
X101700000Y-116200000D03*
X126350000Y-96500000D03*
X142850000Y-126600000D03*
X169700000Y-114150000D03*
X122550000Y-127500000D03*
X142000000Y-69300000D03*
X127900000Y-129700000D03*
X147200000Y-127700000D03*
X164100000Y-82050000D03*
X105450000Y-130700000D03*
X129900000Y-122300000D03*
X107350000Y-105450000D03*
X136400000Y-128500000D03*
X164150000Y-122300000D03*
X169400000Y-93500000D03*
X150700000Y-130200000D03*
X103000000Y-108750000D03*
X117150000Y-129700000D03*
X164150000Y-118100000D03*
X135400000Y-123300000D03*
X121600000Y-131600000D03*
X118000000Y-116050000D03*
X169700000Y-81150000D03*
X107100000Y-96500000D03*
X107500000Y-132800000D03*
X162000000Y-127400000D03*
X132150000Y-123300000D03*
X110700000Y-128600000D03*
X124900000Y-111250000D03*
X102900000Y-110500000D03*
X127200000Y-124850000D03*
X163400000Y-69600000D03*
X117200000Y-132800000D03*
X121550000Y-128500000D03*
X131000000Y-127500000D03*
X150600000Y-132300000D03*
X124700000Y-130700000D03*
X100900000Y-109500000D03*
X97650000Y-103800000D03*
X145100000Y-127700000D03*
X169400000Y-95750000D03*
X164150000Y-120200000D03*
X139600000Y-127600000D03*
X131200000Y-130600000D03*
X158800000Y-90500000D03*
X122600000Y-130600000D03*
X166500000Y-120200000D03*
X123650000Y-127600000D03*
X139400000Y-96550000D03*
X104500000Y-68100000D03*
X108600000Y-130700000D03*
X138900000Y-129500000D03*
X134250000Y-129500000D03*
X117200000Y-133800000D03*
X95500000Y-115150000D03*
X126950000Y-130700000D03*
X151700000Y-129100000D03*
X120450000Y-131600000D03*
X133150000Y-128600000D03*
X131200000Y-131600000D03*
X129900000Y-127500000D03*
X137800000Y-69300000D03*
X112950000Y-128500000D03*
X133150000Y-129600000D03*
X109750000Y-133800000D03*
X116100000Y-133800000D03*
X135600000Y-69300000D03*
X158300000Y-68700000D03*
X144000000Y-133300000D03*
X109600000Y-107200000D03*
X94500000Y-115200000D03*
X114150000Y-68200000D03*
X136100000Y-96550000D03*
X160100000Y-130700000D03*
X126950000Y-132800000D03*
X107350000Y-106550000D03*
X149500000Y-132300000D03*
X169400000Y-105300000D03*
X101900000Y-82150000D03*
X158950000Y-127400000D03*
X168750000Y-119100000D03*
X95700000Y-99850000D03*
X112600000Y-117950000D03*
X151000000Y-96550000D03*
X157950000Y-90000000D03*
X157100000Y-89500000D03*
X131850000Y-96550000D03*
X120950000Y-96500000D03*
X118350000Y-69200000D03*
X145100000Y-133300000D03*
X115100000Y-130700000D03*
X168200000Y-104250000D03*
X129900000Y-129600000D03*
X139600000Y-126600000D03*
X116100000Y-131700000D03*
X146450000Y-100450000D03*
X147300000Y-69300000D03*
X106250000Y-105450000D03*
X159900000Y-119100000D03*
X165500000Y-122300000D03*
X108550000Y-127600000D03*
X129050000Y-130600000D03*
X106400000Y-126600000D03*
X161100000Y-129550000D03*
X117900000Y-117900000D03*
X102150000Y-128600000D03*
X117150000Y-127600000D03*
X101700000Y-96500000D03*
X162200000Y-132800000D03*
X169400000Y-108550000D03*
X163400000Y-70600000D03*
X131000000Y-126500000D03*
X139700000Y-133300000D03*
X134250000Y-127400000D03*
X125850000Y-68200000D03*
X146250000Y-132300000D03*
X116050000Y-127600000D03*
X145100000Y-132300000D03*
X102700000Y-118400000D03*
X101900000Y-113750000D03*
X96950000Y-76000000D03*
X127950000Y-130700000D03*
X151700000Y-126950000D03*
X96500000Y-116150000D03*
X148250000Y-68300000D03*
X106450000Y-128600000D03*
X169400000Y-103250000D03*
X97700000Y-123400000D03*
X159000000Y-112400000D03*
X160450000Y-116700000D03*
X98900000Y-74900000D03*
X105350000Y-126600000D03*
X117200000Y-131700000D03*
X95500000Y-107300000D03*
X95500000Y-111850000D03*
X105400000Y-128600000D03*
X104800000Y-89450000D03*
X100550000Y-69200000D03*
X168150000Y-75000000D03*
X147600000Y-109700000D03*
X150000000Y-96550000D03*
X143650000Y-96550000D03*
X151750000Y-133300000D03*
X160900000Y-127400000D03*
X136600000Y-68300000D03*
X101900000Y-112750000D03*
X132150000Y-128600000D03*
X168200000Y-103250000D03*
X154100000Y-132300000D03*
X103600000Y-69200000D03*
X142950000Y-68300000D03*
X123200000Y-96500000D03*
X123700000Y-132800000D03*
X119300000Y-129700000D03*
X140600000Y-126600000D03*
X104300000Y-130700000D03*
X95500000Y-109550000D03*
X126900000Y-127600000D03*
X169750000Y-121200000D03*
X141700000Y-126600000D03*
X102700000Y-117300000D03*
X121600000Y-133700000D03*
X119250000Y-110650000D03*
X164100000Y-78950000D03*
X144000000Y-132300000D03*
X130000000Y-108500000D03*
X119000000Y-117950000D03*
X169400000Y-101000000D03*
X134250000Y-125400000D03*
X159300000Y-116700000D03*
X94350000Y-103800000D03*
X166500000Y-121200000D03*
X168750000Y-122300000D03*
X165500000Y-124400000D03*
X122600000Y-133700000D03*
X168750000Y-121200000D03*
X166500000Y-124400000D03*
X155700000Y-127400000D03*
X106500000Y-130700000D03*
X140850000Y-68300000D03*
X159900000Y-124400000D03*
X129600000Y-96550000D03*
X127900000Y-128600000D03*
X169400000Y-97750000D03*
X153250000Y-96550000D03*
X104100000Y-108750000D03*
X127450000Y-96500000D03*
X95850000Y-81700000D03*
X169400000Y-94600000D03*
X166500000Y-122300000D03*
%TO.N,+5V*%
X118250000Y-114750000D03*
X117650000Y-113250000D03*
X119150000Y-113300000D03*
X118300000Y-114000000D03*
X119050000Y-114800000D03*
X119100000Y-114050000D03*
X118350000Y-113250000D03*
%TO.N,+12V*%
X157825000Y-105250000D03*
X147775000Y-104650000D03*
D24*
%TO.N,+3V3*%
X133250000Y-132150000D03*
D25*
X145300000Y-111750000D03*
X140550000Y-111750000D03*
X116950000Y-121050000D03*
X130975000Y-109925000D03*
X140900000Y-99900000D03*
X115300000Y-122750000D03*
X117700000Y-121050000D03*
X117800000Y-121900000D03*
X115350000Y-121050000D03*
X116150000Y-121050000D03*
X115350000Y-121900000D03*
X127400000Y-101000000D03*
X117750000Y-122750000D03*
X117000000Y-121900000D03*
X116950000Y-122750000D03*
X116150000Y-121900000D03*
X114500000Y-122750000D03*
X114550000Y-121900000D03*
X116100000Y-122750000D03*
X114550000Y-121050000D03*
%TO.N,+3V3A*%
X122450000Y-124700000D03*
X120900000Y-124700000D03*
X120100000Y-124700000D03*
X121700000Y-124700000D03*
X119300000Y-124700000D03*
%TO.N,/Project Architecture/Interface - Interconnects/AUX_1_SCK*%
X129800000Y-117440065D03*
X149950000Y-121050000D03*
%TO.N,/Project Architecture/Interface - Interconnects/AUX_1_MISO*%
X129650000Y-119150000D03*
X143550000Y-120900000D03*
X130350000Y-102900000D03*
X127300000Y-107300000D03*
%TO.N,/Project Architecture/Interface - Interconnects/AUX_1_MOSI*%
X146700000Y-120950000D03*
X129550000Y-118200000D03*
X128200000Y-107200000D03*
X131800000Y-102950000D03*
%TO.N,/Project Architecture/Interface - Interconnects/AUX_1_CS*%
X140350000Y-120950000D03*
X129050000Y-120400000D03*
%TO.N,/Project Architecture/Interface - Interconnects/AUX_2_SCL*%
X138511357Y-122252354D03*
X155750000Y-120750000D03*
%TO.N,/Project Architecture/Interface - Interconnects/AUX_2_SDA*%
X157350000Y-120800000D03*
X138450000Y-123250000D03*
%TO.N,/Project Architecture/Power Generation - Buck Converter/BUCK_5V_PG*%
X115675000Y-103900000D03*
X112925000Y-102525000D03*
%TO.N,/Project Architecture/Power Generation - Buck Converter/BUCK_12V_MODE*%
X149100000Y-102250000D03*
X147650000Y-106425000D03*
%TO.N,/Project Architecture/Interface - Interconnects/AUX_1_V*%
X129800000Y-116350000D03*
X136700000Y-104200000D03*
X138400000Y-103950000D03*
%TO.N,/Project Architecture/Interface - Interconnects/AUX_1_U*%
X132800000Y-115400000D03*
%TO.N,/Project Architecture/Interface - Interconnects/AUX_1_I*%
X138100000Y-102900000D03*
X136400000Y-103200000D03*
%TO.N,/Project Architecture/Interface - Interconnects/AUX_1_B*%
X131800000Y-115350000D03*
X133900000Y-108550000D03*
X133700000Y-102800000D03*
%TO.N,/Project Architecture/Interface - Interconnects/AUX_1_A*%
X130165380Y-115115380D03*
%TO.N,/Project Architecture/Interface - Interconnects/AUX_2_PWM*%
X140450000Y-116600000D03*
%TD*%
%TA.AperFunction,Conductor*%
%TO.N,GND*%
G36*
X167003173Y-67750662D02*
G01*
X167326554Y-67767272D01*
X167339205Y-67768574D01*
X167656044Y-67817739D01*
X167668481Y-67820329D01*
X167893662Y-67879408D01*
X167978610Y-67901696D01*
X167990732Y-67905551D01*
X168001361Y-67909542D01*
X168290897Y-68018263D01*
X168302540Y-68023331D01*
X168589583Y-68166205D01*
X168600656Y-68172444D01*
X168864483Y-68339500D01*
X168871543Y-68343970D01*
X168881923Y-68351315D01*
X169039414Y-68475347D01*
X169133800Y-68549681D01*
X169143377Y-68558053D01*
X169373614Y-68781189D01*
X169382283Y-68790499D01*
X169588446Y-69036047D01*
X169596115Y-69046196D01*
X169776034Y-69311569D01*
X169782623Y-69322450D01*
X169934407Y-69604859D01*
X169939847Y-69616358D01*
X170061905Y-69912846D01*
X170066137Y-69924842D01*
X170157171Y-70232253D01*
X170160153Y-70244620D01*
X170219215Y-70559751D01*
X170220914Y-70572357D01*
X170247380Y-70891886D01*
X170247778Y-70904601D01*
X170241305Y-71228329D01*
X170241015Y-71234683D01*
X170238094Y-71275571D01*
X170238095Y-71275575D01*
X170244747Y-71298903D01*
X170249500Y-71332905D01*
X170249500Y-130996753D01*
X170249330Y-131003243D01*
X170232038Y-131333178D01*
X170230681Y-131346086D01*
X170179508Y-131669184D01*
X170176810Y-131681880D01*
X170092139Y-131997875D01*
X170088128Y-132010218D01*
X169970895Y-132315622D01*
X169965616Y-132327480D01*
X169817098Y-132618964D01*
X169810612Y-132630197D01*
X169726223Y-132760146D01*
X169632442Y-132904555D01*
X169624813Y-132915055D01*
X169418935Y-133169293D01*
X169410250Y-133178938D01*
X169178938Y-133410250D01*
X169169293Y-133418935D01*
X168915055Y-133624813D01*
X168904555Y-133632442D01*
X168630197Y-133810612D01*
X168618964Y-133817098D01*
X168327480Y-133965616D01*
X168315622Y-133970895D01*
X168010218Y-134088128D01*
X167997875Y-134092139D01*
X167681880Y-134176810D01*
X167669184Y-134179508D01*
X167346086Y-134230681D01*
X167333178Y-134232038D01*
X167003244Y-134249330D01*
X166996754Y-134249500D01*
X97253246Y-134249500D01*
X97246756Y-134249330D01*
X96916821Y-134232038D01*
X96903913Y-134230681D01*
X96580815Y-134179508D01*
X96568119Y-134176810D01*
X96252124Y-134092139D01*
X96239781Y-134088128D01*
X95934377Y-133970895D01*
X95922519Y-133965616D01*
X95631029Y-133817094D01*
X95619810Y-133810617D01*
X95345438Y-133632438D01*
X95334944Y-133624813D01*
X95080706Y-133418935D01*
X95071061Y-133410250D01*
X94839749Y-133178938D01*
X94831064Y-133169293D01*
X94625186Y-132915055D01*
X94617564Y-132904565D01*
X94439378Y-132630183D01*
X94432908Y-132618977D01*
X94284378Y-132327470D01*
X94279104Y-132315622D01*
X94259683Y-132265029D01*
X94161871Y-132010218D01*
X94157860Y-131997875D01*
X94152090Y-131976343D01*
X94073187Y-131681874D01*
X94070491Y-131669184D01*
X94059756Y-131601408D01*
X94019318Y-131346086D01*
X94017961Y-131333178D01*
X94000670Y-131003243D01*
X94000500Y-130996753D01*
X94000500Y-130846465D01*
X131844200Y-130846465D01*
X131844200Y-130983534D01*
X131870937Y-131117949D01*
X131870940Y-131117961D01*
X131923386Y-131244578D01*
X131923393Y-131244591D01*
X131999536Y-131358546D01*
X131999539Y-131358550D01*
X132096449Y-131455460D01*
X132096453Y-131455463D01*
X132210408Y-131531606D01*
X132210421Y-131531613D01*
X132337038Y-131584059D01*
X132337043Y-131584061D01*
X132471470Y-131610800D01*
X132473938Y-131611291D01*
X132535849Y-131643675D01*
X132570423Y-131704391D01*
X132566684Y-131774160D01*
X132554742Y-131798878D01*
X132546878Y-131811393D01*
X132489159Y-131976341D01*
X132489157Y-131976351D01*
X132469593Y-132149996D01*
X132469593Y-132150003D01*
X132489157Y-132323648D01*
X132489159Y-132323658D01*
X132506966Y-132374546D01*
X132546878Y-132488606D01*
X132639853Y-132636576D01*
X132763424Y-132760147D01*
X132911394Y-132853122D01*
X133076343Y-132910841D01*
X133076349Y-132910841D01*
X133076351Y-132910842D01*
X133249996Y-132930407D01*
X133250000Y-132930407D01*
X133250004Y-132930407D01*
X133423648Y-132910842D01*
X133423647Y-132910842D01*
X133423657Y-132910841D01*
X133588606Y-132853122D01*
X133736576Y-132760147D01*
X133860147Y-132636576D01*
X133953122Y-132488606D01*
X134010841Y-132323657D01*
X134030407Y-132150000D01*
X134028599Y-132133957D01*
X134010842Y-131976351D01*
X134010841Y-131976349D01*
X134010841Y-131976343D01*
X133970993Y-131862465D01*
X136924200Y-131862465D01*
X136924200Y-131999534D01*
X136950937Y-132133949D01*
X136950940Y-132133961D01*
X137003386Y-132260578D01*
X137003393Y-132260591D01*
X137079536Y-132374546D01*
X137079539Y-132374550D01*
X137176449Y-132471460D01*
X137176453Y-132471463D01*
X137290408Y-132547606D01*
X137290421Y-132547613D01*
X137417038Y-132600059D01*
X137417043Y-132600061D01*
X137541164Y-132624750D01*
X137551465Y-132626799D01*
X137551469Y-132626800D01*
X137551470Y-132626800D01*
X137688531Y-132626800D01*
X137688532Y-132626799D01*
X137822957Y-132600061D01*
X137949585Y-132547610D01*
X138063547Y-132471463D01*
X138160463Y-132374547D01*
X138236610Y-132260585D01*
X138289061Y-132133957D01*
X138315800Y-131999530D01*
X138315800Y-131862470D01*
X138289061Y-131728043D01*
X138240701Y-131611291D01*
X138236613Y-131601421D01*
X138236606Y-131601408D01*
X138160463Y-131487453D01*
X138160460Y-131487449D01*
X138063550Y-131390539D01*
X138063546Y-131390536D01*
X137949591Y-131314393D01*
X137949578Y-131314386D01*
X137822961Y-131261940D01*
X137822949Y-131261937D01*
X137688534Y-131235200D01*
X137688530Y-131235200D01*
X137551470Y-131235200D01*
X137551465Y-131235200D01*
X137417050Y-131261937D01*
X137417038Y-131261940D01*
X137290421Y-131314386D01*
X137290408Y-131314393D01*
X137176453Y-131390536D01*
X137176449Y-131390539D01*
X137079539Y-131487449D01*
X137079536Y-131487453D01*
X137003393Y-131601408D01*
X137003386Y-131601421D01*
X136950940Y-131728038D01*
X136950937Y-131728050D01*
X136924200Y-131862465D01*
X133970993Y-131862465D01*
X133953122Y-131811394D01*
X133860147Y-131663424D01*
X133736576Y-131539853D01*
X133588606Y-131446878D01*
X133588605Y-131446877D01*
X133588604Y-131446877D01*
X133423658Y-131389159D01*
X133423648Y-131389157D01*
X133275034Y-131372413D01*
X133210620Y-131345347D01*
X133171065Y-131287752D01*
X133168927Y-131217915D01*
X133174350Y-131201756D01*
X133209061Y-131117957D01*
X133235800Y-130983530D01*
X133235800Y-130846470D01*
X133209061Y-130712043D01*
X133208812Y-130711442D01*
X133156613Y-130585421D01*
X133156606Y-130585408D01*
X133080463Y-130471453D01*
X133080460Y-130471449D01*
X132983550Y-130374539D01*
X132983546Y-130374536D01*
X132869591Y-130298393D01*
X132869578Y-130298386D01*
X132742961Y-130245940D01*
X132742949Y-130245937D01*
X132608534Y-130219200D01*
X132608530Y-130219200D01*
X132471470Y-130219200D01*
X132471465Y-130219200D01*
X132337050Y-130245937D01*
X132337038Y-130245940D01*
X132210421Y-130298386D01*
X132210408Y-130298393D01*
X132096453Y-130374536D01*
X132096449Y-130374539D01*
X131999539Y-130471449D01*
X131999536Y-130471453D01*
X131923393Y-130585408D01*
X131923386Y-130585421D01*
X131870940Y-130712038D01*
X131870937Y-130712050D01*
X131844200Y-130846465D01*
X94000500Y-130846465D01*
X94000500Y-129830465D01*
X136924200Y-129830465D01*
X136924200Y-129967534D01*
X136950937Y-130101949D01*
X136950940Y-130101961D01*
X137003386Y-130228578D01*
X137003393Y-130228591D01*
X137079536Y-130342546D01*
X137079539Y-130342550D01*
X137176449Y-130439460D01*
X137176453Y-130439463D01*
X137290408Y-130515606D01*
X137290421Y-130515613D01*
X137417038Y-130568059D01*
X137417043Y-130568061D01*
X137551465Y-130594799D01*
X137551469Y-130594800D01*
X137551470Y-130594800D01*
X137688531Y-130594800D01*
X137688532Y-130594799D01*
X137822957Y-130568061D01*
X137949585Y-130515610D01*
X138063547Y-130439463D01*
X138160463Y-130342547D01*
X138236610Y-130228585D01*
X138289061Y-130101957D01*
X138315800Y-129967530D01*
X138315800Y-129830470D01*
X138289061Y-129696043D01*
X138289059Y-129696038D01*
X138236613Y-129569421D01*
X138236606Y-129569408D01*
X138160463Y-129455453D01*
X138160460Y-129455449D01*
X138063550Y-129358539D01*
X138063546Y-129358536D01*
X137949591Y-129282393D01*
X137949578Y-129282386D01*
X137855423Y-129243386D01*
X141099500Y-129243386D01*
X141099500Y-130256613D01*
X141105913Y-130327192D01*
X141105913Y-130327194D01*
X141105914Y-130327196D01*
X141156522Y-130489606D01*
X141214444Y-130585421D01*
X141244530Y-130635188D01*
X141364811Y-130755469D01*
X141364813Y-130755470D01*
X141364815Y-130755472D01*
X141510394Y-130843478D01*
X141672804Y-130894086D01*
X141743384Y-130900500D01*
X141743387Y-130900500D01*
X142256613Y-130900500D01*
X142256616Y-130900500D01*
X142327196Y-130894086D01*
X142489606Y-130843478D01*
X142633125Y-130756717D01*
X142700676Y-130738882D01*
X142766162Y-130759733D01*
X142823450Y-130798011D01*
X142823457Y-130798015D01*
X142932707Y-130843267D01*
X142987334Y-130865894D01*
X142987336Y-130865894D01*
X142987341Y-130865896D01*
X143161304Y-130900499D01*
X143161307Y-130900500D01*
X143161309Y-130900500D01*
X143338693Y-130900500D01*
X143338694Y-130900499D01*
X143396682Y-130888964D01*
X143512658Y-130865896D01*
X143512661Y-130865894D01*
X143512666Y-130865894D01*
X143676547Y-130798013D01*
X143805199Y-130712050D01*
X143806109Y-130711442D01*
X143872786Y-130690564D01*
X143940166Y-130709048D01*
X143943891Y-130711442D01*
X143944801Y-130712050D01*
X144073453Y-130798013D01*
X144073455Y-130798014D01*
X144073459Y-130798016D01*
X144183214Y-130843477D01*
X144237334Y-130865894D01*
X144237336Y-130865894D01*
X144237341Y-130865896D01*
X144411304Y-130900499D01*
X144411307Y-130900500D01*
X144411309Y-130900500D01*
X144588693Y-130900500D01*
X144588694Y-130900499D01*
X144646682Y-130888964D01*
X144762658Y-130865896D01*
X144762661Y-130865894D01*
X144762666Y-130865894D01*
X144926547Y-130798013D01*
X145055199Y-130712050D01*
X145056109Y-130711442D01*
X145122786Y-130690564D01*
X145190166Y-130709048D01*
X145193891Y-130711442D01*
X145194801Y-130712050D01*
X145323453Y-130798013D01*
X145323455Y-130798014D01*
X145323459Y-130798016D01*
X145433214Y-130843477D01*
X145487334Y-130865894D01*
X145487336Y-130865894D01*
X145487341Y-130865896D01*
X145661304Y-130900499D01*
X145661307Y-130900500D01*
X145661309Y-130900500D01*
X145838693Y-130900500D01*
X145838694Y-130900499D01*
X145896682Y-130888964D01*
X146012658Y-130865896D01*
X146012661Y-130865894D01*
X146012666Y-130865894D01*
X146176547Y-130798013D01*
X146305199Y-130712050D01*
X146306109Y-130711442D01*
X146372786Y-130690564D01*
X146440166Y-130709048D01*
X146443891Y-130711442D01*
X146444801Y-130712050D01*
X146573453Y-130798013D01*
X146573455Y-130798014D01*
X146573459Y-130798016D01*
X146683214Y-130843477D01*
X146737334Y-130865894D01*
X146737336Y-130865894D01*
X146737341Y-130865896D01*
X146911304Y-130900499D01*
X146911307Y-130900500D01*
X146911309Y-130900500D01*
X147088693Y-130900500D01*
X147088694Y-130900499D01*
X147146682Y-130888964D01*
X147262658Y-130865896D01*
X147262661Y-130865894D01*
X147262666Y-130865894D01*
X147426547Y-130798013D01*
X147555199Y-130712050D01*
X147556109Y-130711442D01*
X147622786Y-130690564D01*
X147690166Y-130709048D01*
X147693891Y-130711442D01*
X147694801Y-130712050D01*
X147823453Y-130798013D01*
X147823455Y-130798014D01*
X147823459Y-130798016D01*
X147933214Y-130843477D01*
X147987334Y-130865894D01*
X147987336Y-130865894D01*
X147987341Y-130865896D01*
X148161304Y-130900499D01*
X148161307Y-130900500D01*
X148161309Y-130900500D01*
X148338693Y-130900500D01*
X148338694Y-130900499D01*
X148396682Y-130888964D01*
X148512658Y-130865896D01*
X148512661Y-130865894D01*
X148512666Y-130865894D01*
X148676547Y-130798013D01*
X148824035Y-130699464D01*
X148949464Y-130574035D01*
X149048013Y-130426547D01*
X149115894Y-130262666D01*
X149117098Y-130256616D01*
X149150499Y-130088695D01*
X149150500Y-130088693D01*
X149150500Y-129411306D01*
X149150499Y-129411304D01*
X149117098Y-129243386D01*
X152849500Y-129243386D01*
X152849500Y-130256613D01*
X152855913Y-130327192D01*
X152855913Y-130327194D01*
X152855914Y-130327196D01*
X152906522Y-130489606D01*
X152964444Y-130585421D01*
X152994530Y-130635188D01*
X153114811Y-130755469D01*
X153114813Y-130755470D01*
X153114815Y-130755472D01*
X153260394Y-130843478D01*
X153422804Y-130894086D01*
X153493384Y-130900500D01*
X153493387Y-130900500D01*
X154006613Y-130900500D01*
X154006616Y-130900500D01*
X154077196Y-130894086D01*
X154239606Y-130843478D01*
X154383125Y-130756717D01*
X154450676Y-130738882D01*
X154516162Y-130759733D01*
X154573450Y-130798011D01*
X154573457Y-130798015D01*
X154682707Y-130843267D01*
X154737334Y-130865894D01*
X154737336Y-130865894D01*
X154737341Y-130865896D01*
X154911304Y-130900499D01*
X154911307Y-130900500D01*
X154911309Y-130900500D01*
X155088693Y-130900500D01*
X155088694Y-130900499D01*
X155146682Y-130888964D01*
X155262658Y-130865896D01*
X155262661Y-130865894D01*
X155262666Y-130865894D01*
X155426547Y-130798013D01*
X155555199Y-130712050D01*
X155556109Y-130711442D01*
X155622786Y-130690564D01*
X155690166Y-130709048D01*
X155693891Y-130711442D01*
X155694801Y-130712050D01*
X155823453Y-130798013D01*
X155823455Y-130798014D01*
X155823459Y-130798016D01*
X155933214Y-130843477D01*
X155987334Y-130865894D01*
X155987336Y-130865894D01*
X155987341Y-130865896D01*
X156161304Y-130900499D01*
X156161307Y-130900500D01*
X156161309Y-130900500D01*
X156338693Y-130900500D01*
X156338694Y-130900499D01*
X156396682Y-130888964D01*
X156512658Y-130865896D01*
X156512661Y-130865894D01*
X156512666Y-130865894D01*
X156676547Y-130798013D01*
X156805199Y-130712050D01*
X156806109Y-130711442D01*
X156872786Y-130690564D01*
X156940166Y-130709048D01*
X156943891Y-130711442D01*
X156944801Y-130712050D01*
X157073453Y-130798013D01*
X157073455Y-130798014D01*
X157073459Y-130798016D01*
X157183214Y-130843477D01*
X157237334Y-130865894D01*
X157237336Y-130865894D01*
X157237341Y-130865896D01*
X157411304Y-130900499D01*
X157411307Y-130900500D01*
X157411309Y-130900500D01*
X157588693Y-130900500D01*
X157588694Y-130900499D01*
X157646682Y-130888964D01*
X157762658Y-130865896D01*
X157762661Y-130865894D01*
X157762666Y-130865894D01*
X157926547Y-130798013D01*
X158074035Y-130699464D01*
X158199464Y-130574035D01*
X158298013Y-130426547D01*
X158365894Y-130262666D01*
X158367098Y-130256616D01*
X158400499Y-130088695D01*
X158400500Y-130088693D01*
X158400500Y-129411306D01*
X158400499Y-129411304D01*
X158365896Y-129237341D01*
X158365893Y-129237332D01*
X158298016Y-129073459D01*
X158298009Y-129073446D01*
X158199464Y-128925965D01*
X158199461Y-128925961D01*
X158074038Y-128800538D01*
X158074034Y-128800535D01*
X157926553Y-128701990D01*
X157926540Y-128701983D01*
X157762667Y-128634106D01*
X157762658Y-128634103D01*
X157588694Y-128599500D01*
X157588691Y-128599500D01*
X157411309Y-128599500D01*
X157411306Y-128599500D01*
X157237341Y-128634103D01*
X157237332Y-128634106D01*
X157073459Y-128701983D01*
X157073446Y-128701990D01*
X156943891Y-128788557D01*
X156877213Y-128809435D01*
X156809833Y-128790950D01*
X156806109Y-128788557D01*
X156676553Y-128701990D01*
X156676540Y-128701983D01*
X156512667Y-128634106D01*
X156512658Y-128634103D01*
X156338694Y-128599500D01*
X156338691Y-128599500D01*
X156161309Y-128599500D01*
X156161306Y-128599500D01*
X155987341Y-128634103D01*
X155987332Y-128634106D01*
X155823459Y-128701983D01*
X155823446Y-128701990D01*
X155693891Y-128788557D01*
X155627213Y-128809435D01*
X155559833Y-128790950D01*
X155556109Y-128788557D01*
X155426553Y-128701990D01*
X155426540Y-128701983D01*
X155262667Y-128634106D01*
X155262658Y-128634103D01*
X155088694Y-128599500D01*
X155088691Y-128599500D01*
X154911309Y-128599500D01*
X154911306Y-128599500D01*
X154737341Y-128634103D01*
X154737332Y-128634106D01*
X154573460Y-128701983D01*
X154573449Y-128701989D01*
X154516162Y-128740267D01*
X154449484Y-128761144D01*
X154383122Y-128743281D01*
X154239606Y-128656522D01*
X154167659Y-128634103D01*
X154077196Y-128605914D01*
X154077194Y-128605913D01*
X154077192Y-128605913D01*
X154027778Y-128601423D01*
X154006616Y-128599500D01*
X153493384Y-128599500D01*
X153474145Y-128601248D01*
X153422807Y-128605913D01*
X153260393Y-128656522D01*
X153114811Y-128744530D01*
X152994530Y-128864811D01*
X152906522Y-129010393D01*
X152855913Y-129172807D01*
X152849500Y-129243386D01*
X149117098Y-129243386D01*
X149115896Y-129237341D01*
X149115893Y-129237332D01*
X149048016Y-129073459D01*
X149048009Y-129073446D01*
X148949464Y-128925965D01*
X148949461Y-128925961D01*
X148824038Y-128800538D01*
X148824034Y-128800535D01*
X148676553Y-128701990D01*
X148676540Y-128701983D01*
X148512667Y-128634106D01*
X148512658Y-128634103D01*
X148338694Y-128599500D01*
X148338691Y-128599500D01*
X148161309Y-128599500D01*
X148161306Y-128599500D01*
X147987341Y-128634103D01*
X147987332Y-128634106D01*
X147823459Y-128701983D01*
X147823446Y-128701990D01*
X147693891Y-128788557D01*
X147627213Y-128809435D01*
X147559833Y-128790950D01*
X147556109Y-128788557D01*
X147426553Y-128701990D01*
X147426540Y-128701983D01*
X147262667Y-128634106D01*
X147262658Y-128634103D01*
X147088694Y-128599500D01*
X147088691Y-128599500D01*
X146911309Y-128599500D01*
X146911306Y-128599500D01*
X146737341Y-128634103D01*
X146737332Y-128634106D01*
X146573459Y-128701983D01*
X146573446Y-128701990D01*
X146443891Y-128788557D01*
X146377213Y-128809435D01*
X146309833Y-128790950D01*
X146306109Y-128788557D01*
X146176553Y-128701990D01*
X146176540Y-128701983D01*
X146012667Y-128634106D01*
X146012658Y-128634103D01*
X145838694Y-128599500D01*
X145838691Y-128599500D01*
X145661309Y-128599500D01*
X145661306Y-128599500D01*
X145487341Y-128634103D01*
X145487332Y-128634106D01*
X145323459Y-128701983D01*
X145323446Y-128701990D01*
X145193891Y-128788557D01*
X145127213Y-128809435D01*
X145059833Y-128790950D01*
X145056109Y-128788557D01*
X144926553Y-128701990D01*
X144926540Y-128701983D01*
X144762667Y-128634106D01*
X144762658Y-128634103D01*
X144588694Y-128599500D01*
X144588691Y-128599500D01*
X144411309Y-128599500D01*
X144411306Y-128599500D01*
X144237341Y-128634103D01*
X144237332Y-128634106D01*
X144073459Y-128701983D01*
X144073446Y-128701990D01*
X143943891Y-128788557D01*
X143877213Y-128809435D01*
X143809833Y-128790950D01*
X143806109Y-128788557D01*
X143676553Y-128701990D01*
X143676540Y-128701983D01*
X143512667Y-128634106D01*
X143512658Y-128634103D01*
X143338694Y-128599500D01*
X143338691Y-128599500D01*
X143161309Y-128599500D01*
X143161306Y-128599500D01*
X142987341Y-128634103D01*
X142987332Y-128634106D01*
X142823460Y-128701983D01*
X142823449Y-128701989D01*
X142766162Y-128740267D01*
X142699484Y-128761144D01*
X142633122Y-128743281D01*
X142489606Y-128656522D01*
X142417659Y-128634103D01*
X142327196Y-128605914D01*
X142327194Y-128605913D01*
X142327192Y-128605913D01*
X142277778Y-128601423D01*
X142256616Y-128599500D01*
X141743384Y-128599500D01*
X141724145Y-128601248D01*
X141672807Y-128605913D01*
X141510393Y-128656522D01*
X141364811Y-128744530D01*
X141244530Y-128864811D01*
X141156522Y-129010393D01*
X141105913Y-129172807D01*
X141099500Y-129243386D01*
X137855423Y-129243386D01*
X137822961Y-129229940D01*
X137822949Y-129229937D01*
X137688534Y-129203200D01*
X137688530Y-129203200D01*
X137551470Y-129203200D01*
X137551465Y-129203200D01*
X137417050Y-129229937D01*
X137417038Y-129229940D01*
X137290421Y-129282386D01*
X137290408Y-129282393D01*
X137176453Y-129358536D01*
X137176449Y-129358539D01*
X137079539Y-129455449D01*
X137079536Y-129455453D01*
X137003393Y-129569408D01*
X137003386Y-129569421D01*
X136950940Y-129696038D01*
X136950937Y-129696050D01*
X136924200Y-129830465D01*
X94000500Y-129830465D01*
X94000500Y-124699996D01*
X118494435Y-124699996D01*
X118494435Y-124700003D01*
X118514630Y-124879249D01*
X118514631Y-124879254D01*
X118574211Y-125049523D01*
X118670184Y-125202262D01*
X118797738Y-125329816D01*
X118888080Y-125386582D01*
X118948254Y-125424392D01*
X118950478Y-125425789D01*
X119120739Y-125485366D01*
X119120745Y-125485368D01*
X119120750Y-125485369D01*
X119299996Y-125505565D01*
X119300000Y-125505565D01*
X119300004Y-125505565D01*
X119479249Y-125485369D01*
X119479251Y-125485368D01*
X119479255Y-125485368D01*
X119479258Y-125485366D01*
X119479262Y-125485366D01*
X119656095Y-125423489D01*
X119656846Y-125425637D01*
X119715128Y-125416035D01*
X119743588Y-125424392D01*
X119743905Y-125423489D01*
X119920737Y-125485366D01*
X119920743Y-125485367D01*
X119920745Y-125485368D01*
X119920746Y-125485368D01*
X119920750Y-125485369D01*
X120099996Y-125505565D01*
X120100000Y-125505565D01*
X120100004Y-125505565D01*
X120279249Y-125485369D01*
X120279251Y-125485368D01*
X120279255Y-125485368D01*
X120279258Y-125485366D01*
X120279262Y-125485366D01*
X120456095Y-125423489D01*
X120456846Y-125425637D01*
X120515128Y-125416035D01*
X120543588Y-125424392D01*
X120543905Y-125423489D01*
X120720737Y-125485366D01*
X120720743Y-125485367D01*
X120720745Y-125485368D01*
X120720746Y-125485368D01*
X120720750Y-125485369D01*
X120899996Y-125505565D01*
X120900000Y-125505565D01*
X120900004Y-125505565D01*
X121079249Y-125485369D01*
X121079251Y-125485368D01*
X121079255Y-125485368D01*
X121079258Y-125485366D01*
X121079262Y-125485366D01*
X121256095Y-125423489D01*
X121256846Y-125425637D01*
X121315128Y-125416035D01*
X121343588Y-125424392D01*
X121343905Y-125423489D01*
X121520737Y-125485366D01*
X121520743Y-125485367D01*
X121520745Y-125485368D01*
X121520746Y-125485368D01*
X121520750Y-125485369D01*
X121699996Y-125505565D01*
X121700000Y-125505565D01*
X121700004Y-125505565D01*
X121879249Y-125485369D01*
X121879251Y-125485368D01*
X121879255Y-125485368D01*
X121879258Y-125485366D01*
X121879262Y-125485366D01*
X122034045Y-125431205D01*
X122103824Y-125427643D01*
X122115955Y-125431205D01*
X122270737Y-125485366D01*
X122270743Y-125485367D01*
X122270745Y-125485368D01*
X122270746Y-125485368D01*
X122270750Y-125485369D01*
X122449996Y-125505565D01*
X122450000Y-125505565D01*
X122450004Y-125505565D01*
X122629249Y-125485369D01*
X122629252Y-125485368D01*
X122629255Y-125485368D01*
X122799522Y-125425789D01*
X122952262Y-125329816D01*
X123079816Y-125202262D01*
X123175789Y-125049522D01*
X123235368Y-124879255D01*
X123255565Y-124700000D01*
X123235368Y-124520745D01*
X123175789Y-124350478D01*
X123079816Y-124197738D01*
X122952262Y-124070184D01*
X122928996Y-124055565D01*
X122799523Y-123974211D01*
X122629254Y-123914631D01*
X122629249Y-123914630D01*
X122450004Y-123894435D01*
X122449996Y-123894435D01*
X122270750Y-123914630D01*
X122270742Y-123914632D01*
X122115954Y-123968795D01*
X122046176Y-123972356D01*
X122034046Y-123968795D01*
X121879257Y-123914632D01*
X121879249Y-123914630D01*
X121700004Y-123894435D01*
X121699996Y-123894435D01*
X121520750Y-123914630D01*
X121520737Y-123914633D01*
X121343906Y-123976510D01*
X121343155Y-123974364D01*
X121284856Y-123983962D01*
X121256409Y-123975609D01*
X121256094Y-123976510D01*
X121079262Y-123914633D01*
X121079249Y-123914630D01*
X120900004Y-123894435D01*
X120899996Y-123894435D01*
X120720750Y-123914630D01*
X120720737Y-123914633D01*
X120543906Y-123976510D01*
X120543155Y-123974364D01*
X120484856Y-123983962D01*
X120456409Y-123975609D01*
X120456094Y-123976510D01*
X120279262Y-123914633D01*
X120279249Y-123914630D01*
X120100004Y-123894435D01*
X120099996Y-123894435D01*
X119920750Y-123914630D01*
X119920737Y-123914633D01*
X119743906Y-123976510D01*
X119743155Y-123974364D01*
X119684856Y-123983962D01*
X119656409Y-123975609D01*
X119656094Y-123976510D01*
X119479262Y-123914633D01*
X119479249Y-123914630D01*
X119300004Y-123894435D01*
X119299996Y-123894435D01*
X119120750Y-123914630D01*
X119120745Y-123914631D01*
X118950476Y-123974211D01*
X118797737Y-124070184D01*
X118670184Y-124197737D01*
X118574211Y-124350476D01*
X118514631Y-124520745D01*
X118514630Y-124520750D01*
X118494435Y-124699996D01*
X94000500Y-124699996D01*
X94000500Y-122749996D01*
X113694435Y-122749996D01*
X113694435Y-122750003D01*
X113714630Y-122929249D01*
X113714631Y-122929254D01*
X113774211Y-123099523D01*
X113868760Y-123249996D01*
X113870184Y-123252262D01*
X113997738Y-123379816D01*
X114076410Y-123429249D01*
X114148254Y-123474392D01*
X114150478Y-123475789D01*
X114320739Y-123535366D01*
X114320745Y-123535368D01*
X114320750Y-123535369D01*
X114499996Y-123555565D01*
X114500000Y-123555565D01*
X114500004Y-123555565D01*
X114679249Y-123535369D01*
X114679251Y-123535368D01*
X114679255Y-123535368D01*
X114679258Y-123535366D01*
X114679262Y-123535366D01*
X114856095Y-123473489D01*
X114856846Y-123475637D01*
X114915128Y-123466035D01*
X114943588Y-123474392D01*
X114943905Y-123473489D01*
X115120737Y-123535366D01*
X115120743Y-123535367D01*
X115120745Y-123535368D01*
X115120746Y-123535368D01*
X115120750Y-123535369D01*
X115299996Y-123555565D01*
X115300000Y-123555565D01*
X115300004Y-123555565D01*
X115479249Y-123535369D01*
X115479251Y-123535368D01*
X115479255Y-123535368D01*
X115479258Y-123535366D01*
X115479262Y-123535366D01*
X115656095Y-123473489D01*
X115656846Y-123475637D01*
X115715128Y-123466035D01*
X115743588Y-123474392D01*
X115743905Y-123473489D01*
X115920737Y-123535366D01*
X115920743Y-123535367D01*
X115920745Y-123535368D01*
X115920746Y-123535368D01*
X115920750Y-123535369D01*
X116099996Y-123555565D01*
X116100000Y-123555565D01*
X116100004Y-123555565D01*
X116279249Y-123535369D01*
X116279251Y-123535368D01*
X116279255Y-123535368D01*
X116279258Y-123535366D01*
X116279262Y-123535366D01*
X116345840Y-123512068D01*
X116449522Y-123475789D01*
X116459028Y-123469815D01*
X116526263Y-123450815D01*
X116590971Y-123469815D01*
X116600478Y-123475789D01*
X116652318Y-123493928D01*
X116770737Y-123535366D01*
X116770743Y-123535367D01*
X116770745Y-123535368D01*
X116770746Y-123535368D01*
X116770750Y-123535369D01*
X116949996Y-123555565D01*
X116950000Y-123555565D01*
X116950004Y-123555565D01*
X117129249Y-123535369D01*
X117129251Y-123535368D01*
X117129255Y-123535368D01*
X117129258Y-123535366D01*
X117129262Y-123535366D01*
X117306095Y-123473489D01*
X117306846Y-123475637D01*
X117365128Y-123466035D01*
X117393588Y-123474392D01*
X117393905Y-123473489D01*
X117570737Y-123535366D01*
X117570743Y-123535367D01*
X117570745Y-123535368D01*
X117570746Y-123535368D01*
X117570750Y-123535369D01*
X117749996Y-123555565D01*
X117750000Y-123555565D01*
X117750004Y-123555565D01*
X117929249Y-123535369D01*
X117929252Y-123535368D01*
X117929255Y-123535368D01*
X118099522Y-123475789D01*
X118252262Y-123379816D01*
X118379816Y-123252262D01*
X118381240Y-123249996D01*
X137644435Y-123249996D01*
X137644435Y-123250003D01*
X137664630Y-123429249D01*
X137664631Y-123429254D01*
X137724211Y-123599523D01*
X137820184Y-123752262D01*
X137947738Y-123879816D01*
X138003149Y-123914633D01*
X138100191Y-123975609D01*
X138100478Y-123975789D01*
X138270745Y-124035368D01*
X138270750Y-124035369D01*
X138449996Y-124055565D01*
X138450000Y-124055565D01*
X138450004Y-124055565D01*
X138629249Y-124035369D01*
X138629252Y-124035368D01*
X138629255Y-124035368D01*
X138799522Y-123975789D01*
X138952262Y-123879816D01*
X139079816Y-123752262D01*
X139175789Y-123599522D01*
X139235368Y-123429255D01*
X139235469Y-123428362D01*
X139255565Y-123250003D01*
X139255565Y-123249996D01*
X139235369Y-123070750D01*
X139235368Y-123070745D01*
X139175788Y-122900475D01*
X139154109Y-122865974D01*
X139135108Y-122798737D01*
X139154109Y-122734028D01*
X139167504Y-122712711D01*
X139237146Y-122601876D01*
X139296725Y-122431609D01*
X139316922Y-122252354D01*
X139297419Y-122079262D01*
X139296726Y-122073104D01*
X139296725Y-122073099D01*
X139237145Y-121902830D01*
X139194756Y-121835369D01*
X139141173Y-121750092D01*
X139013619Y-121622538D01*
X138954465Y-121585369D01*
X138860880Y-121526565D01*
X138690611Y-121466985D01*
X138690606Y-121466984D01*
X138511361Y-121446789D01*
X138511353Y-121446789D01*
X138332107Y-121466984D01*
X138332102Y-121466985D01*
X138161833Y-121526565D01*
X138009094Y-121622538D01*
X137881541Y-121750091D01*
X137785568Y-121902830D01*
X137725988Y-122073099D01*
X137725987Y-122073104D01*
X137705792Y-122252350D01*
X137705792Y-122252357D01*
X137725987Y-122431603D01*
X137725990Y-122431616D01*
X137785566Y-122601872D01*
X137785568Y-122601876D01*
X137807248Y-122636380D01*
X137826248Y-122703617D01*
X137807248Y-122768324D01*
X137724211Y-122900476D01*
X137664631Y-123070745D01*
X137664630Y-123070750D01*
X137644435Y-123249996D01*
X118381240Y-123249996D01*
X118475789Y-123099522D01*
X118535368Y-122929255D01*
X118535369Y-122929249D01*
X118555565Y-122750003D01*
X118555565Y-122749996D01*
X118535369Y-122570750D01*
X118535366Y-122570737D01*
X118496746Y-122460371D01*
X118479467Y-122410991D01*
X118475905Y-122341215D01*
X118491514Y-122304068D01*
X118525789Y-122249522D01*
X118572547Y-122115896D01*
X118585366Y-122079262D01*
X118585369Y-122079249D01*
X118605565Y-121900003D01*
X118605565Y-121899996D01*
X118585369Y-121720750D01*
X118585368Y-121720745D01*
X118571046Y-121679815D01*
X118525789Y-121550478D01*
X118459399Y-121444820D01*
X118440400Y-121377585D01*
X118447353Y-121337894D01*
X118485368Y-121229255D01*
X118496636Y-121129249D01*
X118505565Y-121050003D01*
X118505565Y-121049996D01*
X118485369Y-120870750D01*
X118485368Y-120870745D01*
X118450376Y-120770745D01*
X118425789Y-120700478D01*
X118410386Y-120675965D01*
X118386582Y-120638080D01*
X118329816Y-120547738D01*
X118202262Y-120420184D01*
X118170144Y-120400003D01*
X118170133Y-120399996D01*
X128244435Y-120399996D01*
X128244435Y-120400003D01*
X128264630Y-120579249D01*
X128264631Y-120579254D01*
X128324211Y-120749523D01*
X128400384Y-120870750D01*
X128420184Y-120902262D01*
X128547738Y-121029816D01*
X128700478Y-121125789D01*
X128870745Y-121185368D01*
X128870750Y-121185369D01*
X129049996Y-121205565D01*
X129050000Y-121205565D01*
X129050004Y-121205565D01*
X129229249Y-121185369D01*
X129229252Y-121185368D01*
X129229255Y-121185368D01*
X129399522Y-121125789D01*
X129552262Y-121029816D01*
X129632082Y-120949996D01*
X139544435Y-120949996D01*
X139544435Y-120950003D01*
X139564630Y-121129249D01*
X139564631Y-121129254D01*
X139624211Y-121299523D01*
X139716745Y-121446789D01*
X139720184Y-121452262D01*
X139847738Y-121579816D01*
X140000478Y-121675789D01*
X140085573Y-121705565D01*
X140170745Y-121735368D01*
X140170750Y-121735369D01*
X140349996Y-121755565D01*
X140350000Y-121755565D01*
X140350004Y-121755565D01*
X140529249Y-121735369D01*
X140529252Y-121735368D01*
X140529255Y-121735368D01*
X140699522Y-121675789D01*
X140852262Y-121579816D01*
X140979816Y-121452262D01*
X141075789Y-121299522D01*
X141135368Y-121129255D01*
X141141002Y-121079254D01*
X141155565Y-120950003D01*
X141155565Y-120949996D01*
X141149931Y-120899996D01*
X142744435Y-120899996D01*
X142744435Y-120900003D01*
X142764630Y-121079249D01*
X142764631Y-121079254D01*
X142824211Y-121249523D01*
X142880241Y-121338693D01*
X142920184Y-121402262D01*
X143047738Y-121529816D01*
X143200478Y-121625789D01*
X143354878Y-121679816D01*
X143370745Y-121685368D01*
X143370750Y-121685369D01*
X143549996Y-121705565D01*
X143550000Y-121705565D01*
X143550004Y-121705565D01*
X143729249Y-121685369D01*
X143729252Y-121685368D01*
X143729255Y-121685368D01*
X143899522Y-121625789D01*
X144052262Y-121529816D01*
X144179816Y-121402262D01*
X144275789Y-121249522D01*
X144335368Y-121079255D01*
X144338664Y-121050003D01*
X144349932Y-120949996D01*
X145894435Y-120949996D01*
X145894435Y-120950003D01*
X145914630Y-121129249D01*
X145914631Y-121129254D01*
X145974211Y-121299523D01*
X146066745Y-121446789D01*
X146070184Y-121452262D01*
X146197738Y-121579816D01*
X146350478Y-121675789D01*
X146435573Y-121705565D01*
X146520745Y-121735368D01*
X146520750Y-121735369D01*
X146699996Y-121755565D01*
X146700000Y-121755565D01*
X146700004Y-121755565D01*
X146879249Y-121735369D01*
X146879252Y-121735368D01*
X146879255Y-121735368D01*
X147049522Y-121675789D01*
X147202262Y-121579816D01*
X147329816Y-121452262D01*
X147425789Y-121299522D01*
X147485368Y-121129255D01*
X147491002Y-121079254D01*
X147494299Y-121049996D01*
X149144435Y-121049996D01*
X149144435Y-121050003D01*
X149164630Y-121229249D01*
X149164631Y-121229254D01*
X149224211Y-121399523D01*
X149319061Y-121550474D01*
X149320184Y-121552262D01*
X149447738Y-121679816D01*
X149512876Y-121720745D01*
X149559581Y-121750092D01*
X149600478Y-121775789D01*
X149738354Y-121824034D01*
X149770745Y-121835368D01*
X149770750Y-121835369D01*
X149949996Y-121855565D01*
X149950000Y-121855565D01*
X149950004Y-121855565D01*
X150129249Y-121835369D01*
X150129252Y-121835368D01*
X150129255Y-121835368D01*
X150299522Y-121775789D01*
X150452262Y-121679816D01*
X150579816Y-121552262D01*
X150675789Y-121399522D01*
X150735368Y-121229255D01*
X150735369Y-121229246D01*
X150755565Y-121050003D01*
X150755565Y-121049996D01*
X150735369Y-120870750D01*
X150735368Y-120870745D01*
X150700376Y-120770745D01*
X150693116Y-120749996D01*
X154944435Y-120749996D01*
X154944435Y-120750003D01*
X154964630Y-120929249D01*
X154964631Y-120929254D01*
X155024211Y-121099523D01*
X155078152Y-121185369D01*
X155120184Y-121252262D01*
X155247738Y-121379816D01*
X155338080Y-121436582D01*
X155386466Y-121466985D01*
X155400478Y-121475789D01*
X155554878Y-121529816D01*
X155570745Y-121535368D01*
X155570750Y-121535369D01*
X155749996Y-121555565D01*
X155750000Y-121555565D01*
X155750004Y-121555565D01*
X155929249Y-121535369D01*
X155929252Y-121535368D01*
X155929255Y-121535368D01*
X156099522Y-121475789D01*
X156252262Y-121379816D01*
X156379816Y-121252262D01*
X156429297Y-121173512D01*
X156481631Y-121127221D01*
X156550685Y-121116572D01*
X156614533Y-121144947D01*
X156639284Y-121173511D01*
X156720184Y-121302262D01*
X156847738Y-121429816D01*
X157000478Y-121525789D01*
X157154878Y-121579816D01*
X157170745Y-121585368D01*
X157170750Y-121585369D01*
X157349996Y-121605565D01*
X157350000Y-121605565D01*
X157350004Y-121605565D01*
X157529249Y-121585369D01*
X157529252Y-121585368D01*
X157529255Y-121585368D01*
X157699522Y-121525789D01*
X157852262Y-121429816D01*
X157979816Y-121302262D01*
X158075789Y-121149522D01*
X158135368Y-120979255D01*
X158138664Y-120950003D01*
X158155565Y-120800003D01*
X158155565Y-120799996D01*
X158135369Y-120620750D01*
X158135368Y-120620745D01*
X158117872Y-120570745D01*
X158075789Y-120450478D01*
X158074067Y-120447738D01*
X158012340Y-120349500D01*
X157979816Y-120297738D01*
X157852262Y-120170184D01*
X157843426Y-120164632D01*
X157699523Y-120074211D01*
X157529254Y-120014631D01*
X157529249Y-120014630D01*
X157350004Y-119994435D01*
X157349996Y-119994435D01*
X157170750Y-120014630D01*
X157170745Y-120014631D01*
X157000476Y-120074211D01*
X156847737Y-120170184D01*
X156720184Y-120297737D01*
X156720182Y-120297740D01*
X156670701Y-120376488D01*
X156618366Y-120422779D01*
X156549313Y-120433426D01*
X156485465Y-120405051D01*
X156460714Y-120376487D01*
X156437925Y-120340219D01*
X156379816Y-120247738D01*
X156252262Y-120120184D01*
X156243426Y-120114632D01*
X156099523Y-120024211D01*
X155929254Y-119964631D01*
X155929249Y-119964630D01*
X155750004Y-119944435D01*
X155749996Y-119944435D01*
X155570750Y-119964630D01*
X155570745Y-119964631D01*
X155400476Y-120024211D01*
X155247737Y-120120184D01*
X155120184Y-120247737D01*
X155024211Y-120400476D01*
X154964631Y-120570745D01*
X154964630Y-120570750D01*
X154944435Y-120749996D01*
X150693116Y-120749996D01*
X150675789Y-120700478D01*
X150660386Y-120675965D01*
X150636582Y-120638080D01*
X150579816Y-120547738D01*
X150452262Y-120420184D01*
X150420144Y-120400003D01*
X150299523Y-120324211D01*
X150129254Y-120264631D01*
X150129249Y-120264630D01*
X149950004Y-120244435D01*
X149949996Y-120244435D01*
X149770750Y-120264630D01*
X149770745Y-120264631D01*
X149600476Y-120324211D01*
X149447737Y-120420184D01*
X149320184Y-120547737D01*
X149224211Y-120700476D01*
X149164631Y-120870745D01*
X149164630Y-120870750D01*
X149144435Y-121049996D01*
X147494299Y-121049996D01*
X147505565Y-120950003D01*
X147505565Y-120949996D01*
X147485369Y-120770750D01*
X147485368Y-120770745D01*
X147467872Y-120720745D01*
X147425789Y-120600478D01*
X147407106Y-120570745D01*
X147386582Y-120538080D01*
X147329816Y-120447738D01*
X147202262Y-120320184D01*
X147166543Y-120297740D01*
X147049523Y-120224211D01*
X146879254Y-120164631D01*
X146879249Y-120164630D01*
X146700004Y-120144435D01*
X146699996Y-120144435D01*
X146520750Y-120164630D01*
X146520745Y-120164631D01*
X146350476Y-120224211D01*
X146197737Y-120320184D01*
X146070184Y-120447737D01*
X145974211Y-120600476D01*
X145914631Y-120770745D01*
X145914630Y-120770750D01*
X145894435Y-120949996D01*
X144349932Y-120949996D01*
X144355565Y-120900003D01*
X144355565Y-120899996D01*
X144335369Y-120720750D01*
X144335368Y-120720745D01*
X144293284Y-120600476D01*
X144275789Y-120550478D01*
X144274067Y-120547738D01*
X144212955Y-120450478D01*
X144179816Y-120397738D01*
X144052262Y-120270184D01*
X144043426Y-120264632D01*
X143899523Y-120174211D01*
X143729254Y-120114631D01*
X143729249Y-120114630D01*
X143550004Y-120094435D01*
X143549996Y-120094435D01*
X143370750Y-120114630D01*
X143370745Y-120114631D01*
X143200476Y-120174211D01*
X143047737Y-120270184D01*
X142920184Y-120397737D01*
X142824211Y-120550476D01*
X142764631Y-120720745D01*
X142764630Y-120720750D01*
X142744435Y-120899996D01*
X141149931Y-120899996D01*
X141135369Y-120770750D01*
X141135368Y-120770745D01*
X141117872Y-120720745D01*
X141075789Y-120600478D01*
X141057106Y-120570745D01*
X141036582Y-120538080D01*
X140979816Y-120447738D01*
X140852262Y-120320184D01*
X140816543Y-120297740D01*
X140699523Y-120224211D01*
X140529254Y-120164631D01*
X140529249Y-120164630D01*
X140350004Y-120144435D01*
X140349996Y-120144435D01*
X140170750Y-120164630D01*
X140170745Y-120164631D01*
X140000476Y-120224211D01*
X139847737Y-120320184D01*
X139720184Y-120447737D01*
X139624211Y-120600476D01*
X139564631Y-120770745D01*
X139564630Y-120770750D01*
X139544435Y-120949996D01*
X129632082Y-120949996D01*
X129679816Y-120902262D01*
X129775789Y-120749522D01*
X129835368Y-120579255D01*
X129835369Y-120579249D01*
X129855565Y-120400003D01*
X129855565Y-120399996D01*
X129835369Y-120220750D01*
X129835368Y-120220745D01*
X129786691Y-120081634D01*
X129783130Y-120011855D01*
X129817859Y-119951227D01*
X129862777Y-119923638D01*
X129999522Y-119875789D01*
X130152262Y-119779816D01*
X130279816Y-119652262D01*
X130375789Y-119499522D01*
X130435368Y-119329255D01*
X130455565Y-119150000D01*
X130439409Y-119006613D01*
X130435369Y-118970750D01*
X130435368Y-118970745D01*
X130375788Y-118800476D01*
X130286925Y-118659052D01*
X130267925Y-118591815D01*
X130274878Y-118552125D01*
X130335366Y-118379262D01*
X130335369Y-118379249D01*
X130355565Y-118200003D01*
X130355565Y-118199997D01*
X130345967Y-118114815D01*
X130343677Y-118094491D01*
X130355731Y-118025670D01*
X130379217Y-117992926D01*
X130429813Y-117942330D01*
X130429813Y-117942329D01*
X130429816Y-117942327D01*
X130525789Y-117789587D01*
X130585368Y-117619320D01*
X130585923Y-117614395D01*
X130605565Y-117440068D01*
X130605565Y-117440061D01*
X130585369Y-117260815D01*
X130585368Y-117260810D01*
X130574522Y-117229815D01*
X130525789Y-117090543D01*
X130444393Y-116961003D01*
X130425394Y-116893768D01*
X130444395Y-116829059D01*
X130525788Y-116699524D01*
X130560613Y-116600000D01*
X130560614Y-116599996D01*
X139644435Y-116599996D01*
X139644435Y-116600003D01*
X139664630Y-116779249D01*
X139664631Y-116779254D01*
X139724211Y-116949523D01*
X139767921Y-117019086D01*
X139820184Y-117102262D01*
X139947738Y-117229816D01*
X140100478Y-117325789D01*
X140270745Y-117385368D01*
X140270750Y-117385369D01*
X140449996Y-117405565D01*
X140450000Y-117405565D01*
X140450004Y-117405565D01*
X140629249Y-117385369D01*
X140629252Y-117385368D01*
X140629255Y-117385368D01*
X140799522Y-117325789D01*
X140952262Y-117229816D01*
X141079816Y-117102262D01*
X141175789Y-116949522D01*
X141235368Y-116779255D01*
X141235369Y-116779249D01*
X141255565Y-116600003D01*
X141255565Y-116599996D01*
X141235369Y-116420750D01*
X141235368Y-116420745D01*
X141175788Y-116250476D01*
X141134878Y-116185368D01*
X141079816Y-116097738D01*
X140952262Y-115970184D01*
X140799523Y-115874211D01*
X140629254Y-115814631D01*
X140629249Y-115814630D01*
X140450004Y-115794435D01*
X140449996Y-115794435D01*
X140270750Y-115814630D01*
X140270745Y-115814631D01*
X140100476Y-115874211D01*
X139947737Y-115970184D01*
X139820184Y-116097737D01*
X139724211Y-116250476D01*
X139664631Y-116420745D01*
X139664630Y-116420750D01*
X139644435Y-116599996D01*
X130560614Y-116599996D01*
X130585368Y-116529255D01*
X130585369Y-116529249D01*
X130605565Y-116350003D01*
X130605565Y-116349996D01*
X130585369Y-116170750D01*
X130585366Y-116170737D01*
X130525790Y-116000481D01*
X130525786Y-116000472D01*
X130516913Y-115986350D01*
X130497913Y-115919113D01*
X130518281Y-115852278D01*
X130555934Y-115815386D01*
X130667642Y-115745196D01*
X130795196Y-115617642D01*
X130819014Y-115579734D01*
X130871345Y-115533445D01*
X130940399Y-115522795D01*
X131004248Y-115551169D01*
X131041048Y-115604752D01*
X131074209Y-115699519D01*
X131087194Y-115720184D01*
X131170184Y-115852262D01*
X131297738Y-115979816D01*
X131450478Y-116075789D01*
X131513202Y-116097737D01*
X131620745Y-116135368D01*
X131620750Y-116135369D01*
X131799996Y-116155565D01*
X131800000Y-116155565D01*
X131800004Y-116155565D01*
X131979249Y-116135369D01*
X131979252Y-116135368D01*
X131979255Y-116135368D01*
X132149522Y-116075789D01*
X132194242Y-116047688D01*
X132261475Y-116028689D01*
X132326183Y-116047689D01*
X132368256Y-116074125D01*
X132450475Y-116125788D01*
X132620745Y-116185368D01*
X132620750Y-116185369D01*
X132799996Y-116205565D01*
X132800000Y-116205565D01*
X132800004Y-116205565D01*
X132979249Y-116185369D01*
X132979252Y-116185368D01*
X132979255Y-116185368D01*
X133149522Y-116125789D01*
X133302262Y-116029816D01*
X133429816Y-115902262D01*
X133525789Y-115749522D01*
X133585368Y-115579255D01*
X133585369Y-115579249D01*
X133605565Y-115400003D01*
X133605565Y-115399996D01*
X133585369Y-115220750D01*
X133585368Y-115220745D01*
X133556297Y-115137666D01*
X133525789Y-115050478D01*
X133429816Y-114897738D01*
X133318382Y-114786304D01*
X164149500Y-114786304D01*
X164149500Y-114963695D01*
X164184103Y-115137658D01*
X164184106Y-115137667D01*
X164251983Y-115301540D01*
X164251991Y-115301555D01*
X164290265Y-115358834D01*
X164311144Y-115425511D01*
X164293281Y-115491875D01*
X164206523Y-115635391D01*
X164155913Y-115797807D01*
X164149500Y-115868386D01*
X164149500Y-116381613D01*
X164155913Y-116452192D01*
X164206522Y-116614606D01*
X164294530Y-116760188D01*
X164414811Y-116880469D01*
X164414813Y-116880470D01*
X164414815Y-116880472D01*
X164560394Y-116968478D01*
X164722804Y-117019086D01*
X164793384Y-117025500D01*
X164793387Y-117025500D01*
X165806613Y-117025500D01*
X165806616Y-117025500D01*
X165877196Y-117019086D01*
X166039606Y-116968478D01*
X166185185Y-116880472D01*
X166305472Y-116760185D01*
X166393478Y-116614606D01*
X166444086Y-116452196D01*
X166450500Y-116381616D01*
X166450500Y-115868384D01*
X166444086Y-115797804D01*
X166393478Y-115635394D01*
X166306716Y-115491873D01*
X166288881Y-115424322D01*
X166309731Y-115358839D01*
X166348013Y-115301547D01*
X166415894Y-115137666D01*
X166418606Y-115124035D01*
X166438964Y-115021682D01*
X166450500Y-114963691D01*
X166450500Y-114786309D01*
X166450500Y-114786306D01*
X166450499Y-114786304D01*
X166415896Y-114612341D01*
X166415893Y-114612331D01*
X166348016Y-114448459D01*
X166348009Y-114448446D01*
X166249464Y-114300965D01*
X166249461Y-114300961D01*
X166124038Y-114175538D01*
X166124034Y-114175535D01*
X165976553Y-114076990D01*
X165976540Y-114076983D01*
X165812667Y-114009106D01*
X165812658Y-114009103D01*
X165638694Y-113974500D01*
X165638691Y-113974500D01*
X164961309Y-113974500D01*
X164961306Y-113974500D01*
X164787341Y-114009103D01*
X164787332Y-114009106D01*
X164623459Y-114076983D01*
X164623446Y-114076990D01*
X164475965Y-114175535D01*
X164475961Y-114175538D01*
X164350538Y-114300961D01*
X164350535Y-114300965D01*
X164251990Y-114448446D01*
X164251983Y-114448459D01*
X164184107Y-114612331D01*
X164184103Y-114612341D01*
X164149500Y-114786304D01*
X133318382Y-114786304D01*
X133302262Y-114770184D01*
X133270144Y-114750003D01*
X133149523Y-114674211D01*
X132979254Y-114614631D01*
X132979249Y-114614630D01*
X132800004Y-114594435D01*
X132799996Y-114594435D01*
X132620750Y-114614630D01*
X132620737Y-114614633D01*
X132450480Y-114674209D01*
X132405757Y-114702310D01*
X132338520Y-114721309D01*
X132273815Y-114702309D01*
X132149523Y-114624211D01*
X131979254Y-114564631D01*
X131979249Y-114564630D01*
X131800004Y-114544435D01*
X131799996Y-114544435D01*
X131620750Y-114564630D01*
X131620745Y-114564631D01*
X131450476Y-114624211D01*
X131297737Y-114720184D01*
X131170182Y-114847739D01*
X131146365Y-114885645D01*
X131094031Y-114931935D01*
X131024977Y-114942583D01*
X130961129Y-114914208D01*
X130924330Y-114860627D01*
X130898323Y-114786304D01*
X130891169Y-114765858D01*
X130795196Y-114613118D01*
X130667642Y-114485564D01*
X130641056Y-114468859D01*
X130514903Y-114389591D01*
X130344634Y-114330011D01*
X130344629Y-114330010D01*
X130165384Y-114309815D01*
X130165376Y-114309815D01*
X129986130Y-114330010D01*
X129986125Y-114330011D01*
X129815856Y-114389591D01*
X129663117Y-114485564D01*
X129535564Y-114613117D01*
X129439591Y-114765856D01*
X129380011Y-114936125D01*
X129380010Y-114936130D01*
X129359815Y-115115376D01*
X129359815Y-115115383D01*
X129380010Y-115294629D01*
X129380013Y-115294642D01*
X129439589Y-115464900D01*
X129448467Y-115479029D01*
X129467466Y-115546267D01*
X129447097Y-115613101D01*
X129409445Y-115649992D01*
X129297740Y-115720182D01*
X129297737Y-115720184D01*
X129170184Y-115847737D01*
X129074211Y-116000476D01*
X129014631Y-116170745D01*
X129014630Y-116170750D01*
X128994435Y-116349996D01*
X128994435Y-116350003D01*
X129014630Y-116529249D01*
X129014631Y-116529254D01*
X129074211Y-116699523D01*
X129155605Y-116829060D01*
X129174605Y-116896297D01*
X129155605Y-116961004D01*
X129074211Y-117090541D01*
X129014631Y-117260810D01*
X129014630Y-117260815D01*
X128994435Y-117440061D01*
X128994435Y-117440068D01*
X129006322Y-117545573D01*
X128994267Y-117614395D01*
X128970784Y-117647136D01*
X128920186Y-117697734D01*
X128824211Y-117850476D01*
X128764631Y-118020745D01*
X128764630Y-118020750D01*
X128744435Y-118199996D01*
X128744435Y-118200003D01*
X128764630Y-118379249D01*
X128764631Y-118379254D01*
X128804567Y-118493384D01*
X128824211Y-118549522D01*
X128893033Y-118659052D01*
X128913074Y-118690946D01*
X128932074Y-118758182D01*
X128925122Y-118797872D01*
X128864632Y-118970742D01*
X128864630Y-118970750D01*
X128844435Y-119149996D01*
X128844435Y-119150003D01*
X128864630Y-119329249D01*
X128864633Y-119329262D01*
X128913308Y-119468365D01*
X128916870Y-119538144D01*
X128882142Y-119598771D01*
X128837222Y-119626361D01*
X128700480Y-119674209D01*
X128547737Y-119770184D01*
X128420184Y-119897737D01*
X128324211Y-120050476D01*
X128264631Y-120220745D01*
X128264630Y-120220750D01*
X128244435Y-120399996D01*
X118170133Y-120399996D01*
X118049523Y-120324211D01*
X117879254Y-120264631D01*
X117879249Y-120264630D01*
X117700004Y-120244435D01*
X117699996Y-120244435D01*
X117520750Y-120264630D01*
X117520742Y-120264632D01*
X117365954Y-120318795D01*
X117296176Y-120322356D01*
X117284046Y-120318795D01*
X117129257Y-120264632D01*
X117129249Y-120264630D01*
X116950004Y-120244435D01*
X116949996Y-120244435D01*
X116770750Y-120264630D01*
X116770737Y-120264633D01*
X116593906Y-120326510D01*
X116593155Y-120324364D01*
X116534856Y-120333962D01*
X116506409Y-120325609D01*
X116506094Y-120326510D01*
X116329262Y-120264633D01*
X116329249Y-120264630D01*
X116150004Y-120244435D01*
X116149996Y-120244435D01*
X115970750Y-120264630D01*
X115970737Y-120264633D01*
X115793906Y-120326510D01*
X115793155Y-120324364D01*
X115734856Y-120333962D01*
X115706409Y-120325609D01*
X115706094Y-120326510D01*
X115529262Y-120264633D01*
X115529249Y-120264630D01*
X115350004Y-120244435D01*
X115349996Y-120244435D01*
X115170750Y-120264630D01*
X115170737Y-120264633D01*
X114993906Y-120326510D01*
X114993155Y-120324364D01*
X114934856Y-120333962D01*
X114906409Y-120325609D01*
X114906094Y-120326510D01*
X114729262Y-120264633D01*
X114729249Y-120264630D01*
X114550004Y-120244435D01*
X114549996Y-120244435D01*
X114370750Y-120264630D01*
X114370745Y-120264631D01*
X114200476Y-120324211D01*
X114047737Y-120420184D01*
X113920184Y-120547737D01*
X113824211Y-120700476D01*
X113764631Y-120870745D01*
X113764630Y-120870750D01*
X113744435Y-121049996D01*
X113744435Y-121050003D01*
X113764630Y-121229249D01*
X113764631Y-121229254D01*
X113824212Y-121399525D01*
X113830185Y-121409032D01*
X113849183Y-121476269D01*
X113830185Y-121540968D01*
X113824212Y-121550474D01*
X113764631Y-121720745D01*
X113764630Y-121720750D01*
X113744435Y-121899996D01*
X113744435Y-121900003D01*
X113764630Y-122079249D01*
X113764633Y-122079262D01*
X113820531Y-122239005D01*
X113824093Y-122308784D01*
X113808484Y-122345931D01*
X113774209Y-122400478D01*
X113714633Y-122570737D01*
X113714630Y-122570750D01*
X113694435Y-122749996D01*
X94000500Y-122749996D01*
X94000500Y-121161304D01*
X97449500Y-121161304D01*
X97449500Y-121338695D01*
X97484103Y-121512658D01*
X97484106Y-121512667D01*
X97551983Y-121676540D01*
X97551990Y-121676553D01*
X97650535Y-121824034D01*
X97650538Y-121824038D01*
X97775961Y-121949461D01*
X97775965Y-121949464D01*
X97923446Y-122048009D01*
X97923459Y-122048016D01*
X98046363Y-122098923D01*
X98087334Y-122115894D01*
X98087336Y-122115894D01*
X98087341Y-122115896D01*
X98261304Y-122150499D01*
X98261307Y-122150500D01*
X98261309Y-122150500D01*
X98938693Y-122150500D01*
X98938694Y-122150499D01*
X98996682Y-122138964D01*
X99112658Y-122115896D01*
X99112661Y-122115894D01*
X99112666Y-122115894D01*
X99276547Y-122048013D01*
X99424035Y-121949464D01*
X99549464Y-121824035D01*
X99648013Y-121676547D01*
X99715894Y-121512666D01*
X99723230Y-121475789D01*
X99750499Y-121338695D01*
X99750500Y-121338693D01*
X99750500Y-121161306D01*
X99750499Y-121161304D01*
X99715896Y-120987341D01*
X99715893Y-120987332D01*
X99712547Y-120979255D01*
X99691835Y-120929249D01*
X99648016Y-120823459D01*
X99648009Y-120823446D01*
X99549464Y-120675965D01*
X99549461Y-120675961D01*
X99424038Y-120550538D01*
X99424034Y-120550535D01*
X99276553Y-120451990D01*
X99276540Y-120451983D01*
X99112667Y-120384106D01*
X99112658Y-120384103D01*
X98938694Y-120349500D01*
X98938691Y-120349500D01*
X98261309Y-120349500D01*
X98261306Y-120349500D01*
X98087341Y-120384103D01*
X98087332Y-120384106D01*
X97923459Y-120451983D01*
X97923446Y-120451990D01*
X97775965Y-120550535D01*
X97775961Y-120550538D01*
X97650538Y-120675961D01*
X97650535Y-120675965D01*
X97551990Y-120823446D01*
X97551983Y-120823459D01*
X97484106Y-120987332D01*
X97484103Y-120987341D01*
X97449500Y-121161304D01*
X94000500Y-121161304D01*
X94000500Y-118493386D01*
X97449500Y-118493386D01*
X97449500Y-119006613D01*
X97455913Y-119077192D01*
X97506522Y-119239606D01*
X97594530Y-119385188D01*
X97714811Y-119505469D01*
X97714813Y-119505470D01*
X97714815Y-119505472D01*
X97860394Y-119593478D01*
X98022804Y-119644086D01*
X98093384Y-119650500D01*
X98093387Y-119650500D01*
X99106613Y-119650500D01*
X99106616Y-119650500D01*
X99177196Y-119644086D01*
X99339606Y-119593478D01*
X99485185Y-119505472D01*
X99605472Y-119385185D01*
X99693478Y-119239606D01*
X99744086Y-119077196D01*
X99750500Y-119006616D01*
X99750500Y-118493384D01*
X99744086Y-118422804D01*
X99693478Y-118260394D01*
X99605472Y-118114815D01*
X99605470Y-118114813D01*
X99605469Y-118114811D01*
X99485188Y-117994530D01*
X99339606Y-117906522D01*
X99177196Y-117855914D01*
X99177194Y-117855913D01*
X99177192Y-117855913D01*
X99127778Y-117851423D01*
X99106616Y-117849500D01*
X98093384Y-117849500D01*
X98074145Y-117851248D01*
X98022807Y-117855913D01*
X97860393Y-117906522D01*
X97714811Y-117994530D01*
X97594530Y-118114811D01*
X97506522Y-118260393D01*
X97455913Y-118422807D01*
X97449500Y-118493386D01*
X94000500Y-118493386D01*
X94000500Y-114461304D01*
X97499500Y-114461304D01*
X97499500Y-114638695D01*
X97534103Y-114812658D01*
X97534106Y-114812667D01*
X97601983Y-114976540D01*
X97601990Y-114976553D01*
X97700535Y-115124034D01*
X97700538Y-115124038D01*
X97825961Y-115249461D01*
X97825965Y-115249464D01*
X97973446Y-115348009D01*
X97973459Y-115348016D01*
X98050233Y-115379816D01*
X98137334Y-115415894D01*
X98137336Y-115415894D01*
X98137341Y-115415896D01*
X98311304Y-115450499D01*
X98311307Y-115450500D01*
X98311309Y-115450500D01*
X98988693Y-115450500D01*
X98988694Y-115450499D01*
X99046682Y-115438964D01*
X99162658Y-115415896D01*
X99162661Y-115415894D01*
X99162666Y-115415894D01*
X99326547Y-115348013D01*
X99474035Y-115249464D01*
X99599464Y-115124035D01*
X99698013Y-114976547D01*
X99765894Y-114812666D01*
X99768414Y-114800000D01*
X99800499Y-114638695D01*
X99800500Y-114638693D01*
X99800500Y-114461306D01*
X99800499Y-114461304D01*
X99765896Y-114287341D01*
X99765893Y-114287332D01*
X99698016Y-114123459D01*
X99698009Y-114123446D01*
X99599464Y-113975965D01*
X99599461Y-113975961D01*
X99474038Y-113850538D01*
X99474034Y-113850535D01*
X99326553Y-113751990D01*
X99326540Y-113751983D01*
X99162667Y-113684106D01*
X99162658Y-113684103D01*
X98988694Y-113649500D01*
X98988691Y-113649500D01*
X98311309Y-113649500D01*
X98311306Y-113649500D01*
X98137341Y-113684103D01*
X98137332Y-113684106D01*
X97973459Y-113751983D01*
X97973446Y-113751990D01*
X97825965Y-113850535D01*
X97825961Y-113850538D01*
X97700538Y-113975961D01*
X97700535Y-113975965D01*
X97601990Y-114123446D01*
X97601983Y-114123459D01*
X97534106Y-114287332D01*
X97534103Y-114287341D01*
X97499500Y-114461304D01*
X94000500Y-114461304D01*
X94000500Y-113249996D01*
X116844435Y-113249996D01*
X116844435Y-113250003D01*
X116864630Y-113429249D01*
X116864631Y-113429254D01*
X116924211Y-113599523D01*
X116990766Y-113705444D01*
X117020184Y-113752262D01*
X117147738Y-113879816D01*
X117300478Y-113975789D01*
X117426012Y-114019715D01*
X117482788Y-114060437D01*
X117508278Y-114122872D01*
X117514630Y-114179250D01*
X117514631Y-114179254D01*
X117548056Y-114274777D01*
X117551617Y-114344556D01*
X117536010Y-114381699D01*
X117531052Y-114389591D01*
X117524208Y-114400482D01*
X117464633Y-114570737D01*
X117464630Y-114570750D01*
X117444435Y-114749996D01*
X117444435Y-114750003D01*
X117464630Y-114929249D01*
X117464631Y-114929254D01*
X117524211Y-115099523D01*
X117600384Y-115220750D01*
X117620184Y-115252262D01*
X117747738Y-115379816D01*
X117900478Y-115475789D01*
X118043364Y-115525787D01*
X118070745Y-115535368D01*
X118070750Y-115535369D01*
X118249996Y-115555565D01*
X118250000Y-115555565D01*
X118250004Y-115555565D01*
X118429249Y-115535369D01*
X118429251Y-115535368D01*
X118429255Y-115535368D01*
X118429258Y-115535366D01*
X118429262Y-115535366D01*
X118556890Y-115490707D01*
X118626669Y-115487145D01*
X118663816Y-115502754D01*
X118700474Y-115525787D01*
X118700475Y-115525787D01*
X118700478Y-115525789D01*
X118853258Y-115579249D01*
X118870745Y-115585368D01*
X118870750Y-115585369D01*
X119049996Y-115605565D01*
X119050000Y-115605565D01*
X119050004Y-115605565D01*
X119229249Y-115585369D01*
X119229252Y-115585368D01*
X119229255Y-115585368D01*
X119399522Y-115525789D01*
X119552262Y-115429816D01*
X119679816Y-115302262D01*
X119775789Y-115149522D01*
X119835368Y-114979255D01*
X119835369Y-114979249D01*
X119855565Y-114800003D01*
X119855565Y-114799996D01*
X119835369Y-114620750D01*
X119835366Y-114620737D01*
X119801944Y-114525223D01*
X119798382Y-114455444D01*
X119813991Y-114418296D01*
X119825789Y-114399522D01*
X119885368Y-114229255D01*
X119891002Y-114179250D01*
X119905565Y-114050003D01*
X119905565Y-114049996D01*
X119885369Y-113870750D01*
X119885366Y-113870737D01*
X119851944Y-113775223D01*
X119848382Y-113705444D01*
X119863991Y-113668296D01*
X119875789Y-113649522D01*
X119935368Y-113479255D01*
X119941002Y-113429254D01*
X119955565Y-113300003D01*
X119955565Y-113299996D01*
X119935369Y-113120750D01*
X119935368Y-113120745D01*
X119917872Y-113070745D01*
X119875789Y-112950478D01*
X119839973Y-112893478D01*
X119836582Y-112888080D01*
X119779816Y-112797738D01*
X119652262Y-112670184D01*
X119572688Y-112620184D01*
X119499523Y-112574211D01*
X119329254Y-112514631D01*
X119329249Y-112514630D01*
X119150004Y-112494435D01*
X119149996Y-112494435D01*
X118970750Y-112514630D01*
X118970737Y-112514633D01*
X118843109Y-112559293D01*
X118773330Y-112562855D01*
X118736183Y-112547246D01*
X118699520Y-112524209D01*
X118529262Y-112464633D01*
X118529249Y-112464630D01*
X118350004Y-112444435D01*
X118349996Y-112444435D01*
X118170750Y-112464630D01*
X118170742Y-112464632D01*
X118040954Y-112510047D01*
X117971175Y-112513608D01*
X117959046Y-112510047D01*
X117829257Y-112464632D01*
X117829249Y-112464630D01*
X117650004Y-112444435D01*
X117649996Y-112444435D01*
X117470750Y-112464630D01*
X117470745Y-112464631D01*
X117300476Y-112524211D01*
X117147737Y-112620184D01*
X117020184Y-112747737D01*
X116924211Y-112900476D01*
X116864631Y-113070745D01*
X116864630Y-113070750D01*
X116844435Y-113249996D01*
X94000500Y-113249996D01*
X94000500Y-111793386D01*
X97499500Y-111793386D01*
X97499500Y-112306613D01*
X97505913Y-112377192D01*
X97505913Y-112377194D01*
X97505914Y-112377196D01*
X97526866Y-112444435D01*
X97556522Y-112539606D01*
X97644530Y-112685188D01*
X97764811Y-112805469D01*
X97764813Y-112805470D01*
X97764815Y-112805472D01*
X97910394Y-112893478D01*
X98072804Y-112944086D01*
X98143384Y-112950500D01*
X98143387Y-112950500D01*
X99156613Y-112950500D01*
X99156616Y-112950500D01*
X99227196Y-112944086D01*
X99389606Y-112893478D01*
X99535185Y-112805472D01*
X99655472Y-112685185D01*
X99743478Y-112539606D01*
X99794086Y-112377196D01*
X99800500Y-112306616D01*
X99800500Y-111793384D01*
X99796557Y-111749996D01*
X139744435Y-111749996D01*
X139744435Y-111750003D01*
X139764630Y-111929249D01*
X139764631Y-111929254D01*
X139824211Y-112099523D01*
X139920184Y-112252262D01*
X140047738Y-112379816D01*
X140138080Y-112436582D01*
X140182721Y-112464632D01*
X140200478Y-112475789D01*
X140370745Y-112535368D01*
X140370750Y-112535369D01*
X140549996Y-112555565D01*
X140550000Y-112555565D01*
X140550004Y-112555565D01*
X140729249Y-112535369D01*
X140729252Y-112535368D01*
X140729255Y-112535368D01*
X140899522Y-112475789D01*
X141052262Y-112379816D01*
X141179816Y-112252262D01*
X141275789Y-112099522D01*
X141335368Y-111929255D01*
X141355565Y-111750000D01*
X141355565Y-111749996D01*
X144494435Y-111749996D01*
X144494435Y-111750003D01*
X144514630Y-111929249D01*
X144514631Y-111929254D01*
X144574211Y-112099523D01*
X144670184Y-112252262D01*
X144797738Y-112379816D01*
X144888080Y-112436582D01*
X144932721Y-112464632D01*
X144950478Y-112475789D01*
X145120745Y-112535368D01*
X145120750Y-112535369D01*
X145299996Y-112555565D01*
X145300000Y-112555565D01*
X145300004Y-112555565D01*
X145479249Y-112535369D01*
X145479252Y-112535368D01*
X145479255Y-112535368D01*
X145649522Y-112475789D01*
X145802262Y-112379816D01*
X145929816Y-112252262D01*
X146025789Y-112099522D01*
X146085368Y-111929255D01*
X146105565Y-111750000D01*
X146102501Y-111722807D01*
X146085369Y-111570750D01*
X146085368Y-111570745D01*
X146081746Y-111560393D01*
X146025789Y-111400478D01*
X146005681Y-111368477D01*
X145929815Y-111247737D01*
X145802262Y-111120184D01*
X145649523Y-111024211D01*
X145479254Y-110964631D01*
X145479249Y-110964630D01*
X145300004Y-110944435D01*
X145299996Y-110944435D01*
X145120750Y-110964630D01*
X145120745Y-110964631D01*
X144950476Y-111024211D01*
X144797737Y-111120184D01*
X144670184Y-111247737D01*
X144574211Y-111400476D01*
X144514631Y-111570745D01*
X144514630Y-111570750D01*
X144494435Y-111749996D01*
X141355565Y-111749996D01*
X141352501Y-111722807D01*
X141335369Y-111570750D01*
X141335368Y-111570745D01*
X141331746Y-111560393D01*
X141275789Y-111400478D01*
X141255681Y-111368477D01*
X141179815Y-111247737D01*
X141052262Y-111120184D01*
X140899523Y-111024211D01*
X140729254Y-110964631D01*
X140729249Y-110964630D01*
X140550004Y-110944435D01*
X140549996Y-110944435D01*
X140370750Y-110964630D01*
X140370745Y-110964631D01*
X140200476Y-111024211D01*
X140047737Y-111120184D01*
X139920184Y-111247737D01*
X139824211Y-111400476D01*
X139764631Y-111570745D01*
X139764630Y-111570750D01*
X139744435Y-111749996D01*
X99796557Y-111749996D01*
X99794086Y-111722804D01*
X99743478Y-111560394D01*
X99655472Y-111414815D01*
X99655470Y-111414813D01*
X99655469Y-111414811D01*
X99535188Y-111294530D01*
X99511933Y-111280472D01*
X99389606Y-111206522D01*
X99227196Y-111155914D01*
X99227194Y-111155913D01*
X99227192Y-111155913D01*
X99177778Y-111151423D01*
X99156616Y-111149500D01*
X98143384Y-111149500D01*
X98124145Y-111151248D01*
X98072807Y-111155913D01*
X97910393Y-111206522D01*
X97764811Y-111294530D01*
X97644530Y-111414811D01*
X97556522Y-111560393D01*
X97505913Y-111722807D01*
X97499500Y-111793386D01*
X94000500Y-111793386D01*
X94000500Y-109924996D01*
X130169435Y-109924996D01*
X130169435Y-109925003D01*
X130189630Y-110104249D01*
X130189631Y-110104254D01*
X130249211Y-110274523D01*
X130345184Y-110427262D01*
X130472738Y-110554816D01*
X130625478Y-110650789D01*
X130795745Y-110710368D01*
X130795750Y-110710369D01*
X130974996Y-110730565D01*
X130975000Y-110730565D01*
X130975004Y-110730565D01*
X131154249Y-110710369D01*
X131154252Y-110710368D01*
X131154255Y-110710368D01*
X131324522Y-110650789D01*
X131477262Y-110554816D01*
X131604816Y-110427262D01*
X131700789Y-110274522D01*
X131702936Y-110268386D01*
X164149500Y-110268386D01*
X164149500Y-110781613D01*
X164155913Y-110852192D01*
X164155913Y-110852194D01*
X164155914Y-110852196D01*
X164206522Y-111014606D01*
X164291945Y-111155913D01*
X164294530Y-111160188D01*
X164414811Y-111280469D01*
X164414813Y-111280470D01*
X164414815Y-111280472D01*
X164560394Y-111368478D01*
X164722804Y-111419086D01*
X164793384Y-111425500D01*
X164793387Y-111425500D01*
X165806613Y-111425500D01*
X165806616Y-111425500D01*
X165877196Y-111419086D01*
X166039606Y-111368478D01*
X166185185Y-111280472D01*
X166305472Y-111160185D01*
X166393478Y-111014606D01*
X166444086Y-110852196D01*
X166450500Y-110781616D01*
X166450500Y-110268384D01*
X166444086Y-110197804D01*
X166393478Y-110035394D01*
X166305472Y-109889815D01*
X166305470Y-109889813D01*
X166305469Y-109889811D01*
X166185188Y-109769530D01*
X166145851Y-109745750D01*
X166039606Y-109681522D01*
X165877196Y-109630914D01*
X165877194Y-109630913D01*
X165877192Y-109630913D01*
X165827778Y-109626423D01*
X165806616Y-109624500D01*
X164793384Y-109624500D01*
X164774145Y-109626248D01*
X164722807Y-109630913D01*
X164560393Y-109681522D01*
X164414811Y-109769530D01*
X164294530Y-109889811D01*
X164206522Y-110035393D01*
X164155913Y-110197807D01*
X164149500Y-110268386D01*
X131702936Y-110268386D01*
X131760368Y-110104255D01*
X131780565Y-109925000D01*
X131776600Y-109889811D01*
X131760369Y-109745750D01*
X131760368Y-109745745D01*
X131720187Y-109630914D01*
X131700789Y-109575478D01*
X131604816Y-109422738D01*
X131477262Y-109295184D01*
X131446395Y-109275789D01*
X131324523Y-109199211D01*
X131154254Y-109139631D01*
X131154249Y-109139630D01*
X130975004Y-109119435D01*
X130974996Y-109119435D01*
X130795750Y-109139630D01*
X130795745Y-109139631D01*
X130625476Y-109199211D01*
X130472737Y-109295184D01*
X130345184Y-109422737D01*
X130249211Y-109575476D01*
X130189631Y-109745745D01*
X130189630Y-109745750D01*
X130169435Y-109924996D01*
X94000500Y-109924996D01*
X94000500Y-106368386D01*
X97449500Y-106368386D01*
X97449500Y-106881613D01*
X97455913Y-106952192D01*
X97455913Y-106952194D01*
X97455914Y-106952196D01*
X97506522Y-107114606D01*
X97564412Y-107210368D01*
X97593281Y-107258122D01*
X97611117Y-107325677D01*
X97590267Y-107391162D01*
X97551989Y-107448449D01*
X97551983Y-107448460D01*
X97484106Y-107612332D01*
X97484103Y-107612341D01*
X97449500Y-107786304D01*
X97449500Y-107963695D01*
X97484103Y-108137658D01*
X97484106Y-108137667D01*
X97551983Y-108301540D01*
X97551990Y-108301553D01*
X97650535Y-108449034D01*
X97650538Y-108449038D01*
X97775961Y-108574461D01*
X97775965Y-108574464D01*
X97923446Y-108673009D01*
X97923459Y-108673016D01*
X98046363Y-108723923D01*
X98087334Y-108740894D01*
X98087336Y-108740894D01*
X98087341Y-108740896D01*
X98261304Y-108775499D01*
X98261307Y-108775500D01*
X98261309Y-108775500D01*
X98938693Y-108775500D01*
X98938694Y-108775499D01*
X98996682Y-108763964D01*
X99112658Y-108740896D01*
X99112661Y-108740894D01*
X99112666Y-108740894D01*
X99276547Y-108673013D01*
X99424035Y-108574464D01*
X99448503Y-108549996D01*
X133094435Y-108549996D01*
X133094435Y-108550003D01*
X133114630Y-108729249D01*
X133114631Y-108729254D01*
X133174211Y-108899523D01*
X133190533Y-108925499D01*
X133270184Y-109052262D01*
X133397738Y-109179816D01*
X133550478Y-109275789D01*
X133605906Y-109295184D01*
X133720745Y-109335368D01*
X133720750Y-109335369D01*
X133899996Y-109355565D01*
X133900000Y-109355565D01*
X133900004Y-109355565D01*
X134079249Y-109335369D01*
X134079252Y-109335368D01*
X134079255Y-109335368D01*
X134249522Y-109275789D01*
X134402262Y-109179816D01*
X134529816Y-109052262D01*
X134625789Y-108899522D01*
X134685368Y-108729255D01*
X134691705Y-108673013D01*
X134705565Y-108550003D01*
X134705565Y-108549996D01*
X134685369Y-108370750D01*
X134685368Y-108370745D01*
X134661157Y-108301553D01*
X134625789Y-108200478D01*
X134529816Y-108047738D01*
X134418382Y-107936304D01*
X164149500Y-107936304D01*
X164149500Y-108113695D01*
X164184103Y-108287658D01*
X164184106Y-108287667D01*
X164251983Y-108451540D01*
X164251990Y-108451553D01*
X164350535Y-108599034D01*
X164350538Y-108599038D01*
X164475961Y-108724461D01*
X164475965Y-108724464D01*
X164623446Y-108823009D01*
X164623459Y-108823016D01*
X164746363Y-108873923D01*
X164787334Y-108890894D01*
X164787336Y-108890894D01*
X164787341Y-108890896D01*
X164961304Y-108925499D01*
X164961307Y-108925500D01*
X164961309Y-108925500D01*
X165638693Y-108925500D01*
X165638694Y-108925499D01*
X165696682Y-108913964D01*
X165812658Y-108890896D01*
X165812661Y-108890894D01*
X165812666Y-108890894D01*
X165976547Y-108823013D01*
X166124035Y-108724464D01*
X166249464Y-108599035D01*
X166348013Y-108451547D01*
X166349054Y-108449035D01*
X166381482Y-108370745D01*
X166415894Y-108287666D01*
X166450500Y-108113691D01*
X166450500Y-107936309D01*
X166450500Y-107936306D01*
X166450499Y-107936304D01*
X166415896Y-107762341D01*
X166415893Y-107762332D01*
X166348016Y-107598459D01*
X166348009Y-107598446D01*
X166249464Y-107450965D01*
X166249461Y-107450961D01*
X166124038Y-107325538D01*
X166124034Y-107325535D01*
X165976553Y-107226990D01*
X165976540Y-107226983D01*
X165812667Y-107159106D01*
X165812658Y-107159103D01*
X165638694Y-107124500D01*
X165638691Y-107124500D01*
X164961309Y-107124500D01*
X164961306Y-107124500D01*
X164787341Y-107159103D01*
X164787332Y-107159106D01*
X164623459Y-107226983D01*
X164623446Y-107226990D01*
X164475965Y-107325535D01*
X164475961Y-107325538D01*
X164350538Y-107450961D01*
X164350535Y-107450965D01*
X164251990Y-107598446D01*
X164251983Y-107598459D01*
X164184106Y-107762332D01*
X164184103Y-107762341D01*
X164149500Y-107936304D01*
X134418382Y-107936304D01*
X134402262Y-107920184D01*
X134384044Y-107908737D01*
X134249523Y-107824211D01*
X134079254Y-107764631D01*
X134079249Y-107764630D01*
X133900004Y-107744435D01*
X133899996Y-107744435D01*
X133720750Y-107764630D01*
X133720745Y-107764631D01*
X133550476Y-107824211D01*
X133397737Y-107920184D01*
X133270184Y-108047737D01*
X133174211Y-108200476D01*
X133114631Y-108370745D01*
X133114630Y-108370750D01*
X133094435Y-108549996D01*
X99448503Y-108549996D01*
X99549464Y-108449035D01*
X99648013Y-108301547D01*
X99715894Y-108137666D01*
X99722280Y-108105565D01*
X99750499Y-107963695D01*
X99750500Y-107963693D01*
X99750500Y-107786306D01*
X99750499Y-107786304D01*
X99715896Y-107612341D01*
X99715893Y-107612332D01*
X99648015Y-107448457D01*
X99648011Y-107448450D01*
X99609733Y-107391162D01*
X99588855Y-107324485D01*
X99595447Y-107299996D01*
X126494435Y-107299996D01*
X126494435Y-107300003D01*
X126514630Y-107479249D01*
X126514631Y-107479254D01*
X126574211Y-107649523D01*
X126645100Y-107762341D01*
X126670184Y-107802262D01*
X126797738Y-107929816D01*
X126950478Y-108025789D01*
X127013202Y-108047737D01*
X127120745Y-108085368D01*
X127120750Y-108085369D01*
X127299996Y-108105565D01*
X127300000Y-108105565D01*
X127300004Y-108105565D01*
X127479249Y-108085369D01*
X127479252Y-108085368D01*
X127479255Y-108085368D01*
X127649522Y-108025789D01*
X127773062Y-107948163D01*
X127840297Y-107929163D01*
X127879988Y-107936115D01*
X128020745Y-107985368D01*
X128020750Y-107985369D01*
X128199996Y-108005565D01*
X128200000Y-108005565D01*
X128200004Y-108005565D01*
X128379249Y-107985369D01*
X128379252Y-107985368D01*
X128379255Y-107985368D01*
X128549522Y-107925789D01*
X128702262Y-107829816D01*
X128829816Y-107702262D01*
X128925789Y-107549522D01*
X128985368Y-107379255D01*
X128991405Y-107325677D01*
X129005565Y-107200003D01*
X129005565Y-107199996D01*
X128985369Y-107020750D01*
X128985368Y-107020745D01*
X128961380Y-106952192D01*
X128925789Y-106850478D01*
X128829816Y-106697738D01*
X128702262Y-106570184D01*
X128692236Y-106563884D01*
X128549523Y-106474211D01*
X128408875Y-106424996D01*
X146844435Y-106424996D01*
X146844435Y-106425003D01*
X146864630Y-106604249D01*
X146864631Y-106604254D01*
X146924211Y-106774523D01*
X146971936Y-106850476D01*
X147020184Y-106927262D01*
X147147738Y-107054816D01*
X147300478Y-107150789D01*
X147324247Y-107159106D01*
X147470745Y-107210368D01*
X147470750Y-107210369D01*
X147649996Y-107230565D01*
X147650000Y-107230565D01*
X147650004Y-107230565D01*
X147829249Y-107210369D01*
X147829252Y-107210368D01*
X147829255Y-107210368D01*
X147999522Y-107150789D01*
X148152262Y-107054816D01*
X148279816Y-106927262D01*
X148375789Y-106774522D01*
X148435368Y-106604255D01*
X148438753Y-106574211D01*
X148455565Y-106425003D01*
X148455565Y-106424996D01*
X148435369Y-106245750D01*
X148435368Y-106245745D01*
X148375789Y-106075478D01*
X148279816Y-105922738D01*
X148152262Y-105795184D01*
X148130519Y-105781522D01*
X147999519Y-105699208D01*
X147930927Y-105675207D01*
X147874151Y-105634485D01*
X147848404Y-105569532D01*
X147861861Y-105500971D01*
X147910248Y-105450568D01*
X147947782Y-105438293D01*
X147947468Y-105436917D01*
X147954253Y-105435368D01*
X147954255Y-105435368D01*
X148124522Y-105375789D01*
X148277262Y-105279816D01*
X148307082Y-105249996D01*
X157019435Y-105249996D01*
X157019435Y-105250003D01*
X157039630Y-105429249D01*
X157039631Y-105429254D01*
X157099211Y-105599523D01*
X157181770Y-105730914D01*
X157195184Y-105752262D01*
X157322738Y-105879816D01*
X157475478Y-105975789D01*
X157645745Y-106035368D01*
X157645750Y-106035369D01*
X157824996Y-106055565D01*
X157825000Y-106055565D01*
X157825004Y-106055565D01*
X158004249Y-106035369D01*
X158004252Y-106035368D01*
X158004255Y-106035368D01*
X158174522Y-105975789D01*
X158327262Y-105879816D01*
X158454816Y-105752262D01*
X158550789Y-105599522D01*
X158610368Y-105429255D01*
X158616392Y-105375789D01*
X158630565Y-105250003D01*
X158630565Y-105249996D01*
X158610369Y-105070750D01*
X158610368Y-105070745D01*
X158550789Y-104900478D01*
X158454816Y-104747738D01*
X158327262Y-104620184D01*
X158263017Y-104579816D01*
X158174523Y-104524211D01*
X158004254Y-104464631D01*
X158004249Y-104464630D01*
X157825004Y-104444435D01*
X157824996Y-104444435D01*
X157645750Y-104464630D01*
X157645745Y-104464631D01*
X157475476Y-104524211D01*
X157322737Y-104620184D01*
X157195184Y-104747737D01*
X157099211Y-104900476D01*
X157039631Y-105070745D01*
X157039630Y-105070750D01*
X157019435Y-105249996D01*
X148307082Y-105249996D01*
X148404816Y-105152262D01*
X148500789Y-104999522D01*
X148560368Y-104829255D01*
X148569553Y-104747737D01*
X148580565Y-104650003D01*
X148580565Y-104649996D01*
X148560369Y-104470750D01*
X148560368Y-104470745D01*
X148558228Y-104464630D01*
X148500789Y-104300478D01*
X148500188Y-104299522D01*
X148404815Y-104147737D01*
X148277262Y-104020184D01*
X148124523Y-103924211D01*
X147954254Y-103864631D01*
X147954249Y-103864630D01*
X147775004Y-103844435D01*
X147774996Y-103844435D01*
X147595750Y-103864630D01*
X147595745Y-103864631D01*
X147425476Y-103924211D01*
X147272737Y-104020184D01*
X147145184Y-104147737D01*
X147049211Y-104300476D01*
X146989631Y-104470745D01*
X146989630Y-104470750D01*
X146969435Y-104649996D01*
X146969435Y-104650003D01*
X146989630Y-104829249D01*
X146989631Y-104829254D01*
X147049211Y-104999523D01*
X147145184Y-105152262D01*
X147272738Y-105279816D01*
X147425478Y-105375789D01*
X147494072Y-105399791D01*
X147550848Y-105440513D01*
X147576595Y-105505466D01*
X147563139Y-105574027D01*
X147514752Y-105624430D01*
X147477219Y-105636711D01*
X147477532Y-105638083D01*
X147470745Y-105639631D01*
X147300476Y-105699211D01*
X147147737Y-105795184D01*
X147020184Y-105922737D01*
X146924211Y-106075476D01*
X146864631Y-106245745D01*
X146864630Y-106245750D01*
X146844435Y-106424996D01*
X128408875Y-106424996D01*
X128379254Y-106414631D01*
X128379249Y-106414630D01*
X128200004Y-106394435D01*
X128199996Y-106394435D01*
X128020750Y-106414630D01*
X128020745Y-106414631D01*
X127850476Y-106474211D01*
X127726937Y-106551836D01*
X127659700Y-106570836D01*
X127620011Y-106563884D01*
X127479257Y-106514632D01*
X127479249Y-106514630D01*
X127300004Y-106494435D01*
X127299996Y-106494435D01*
X127120750Y-106514630D01*
X127120745Y-106514631D01*
X126950476Y-106574211D01*
X126797737Y-106670184D01*
X126670184Y-106797737D01*
X126574211Y-106950476D01*
X126514631Y-107120745D01*
X126514630Y-107120750D01*
X126494435Y-107299996D01*
X99595447Y-107299996D01*
X99606717Y-107258125D01*
X99693478Y-107114606D01*
X99744086Y-106952196D01*
X99750500Y-106881616D01*
X99750500Y-106368384D01*
X99744086Y-106297804D01*
X99693478Y-106135394D01*
X99605472Y-105989815D01*
X99605470Y-105989813D01*
X99605469Y-105989811D01*
X99485188Y-105869530D01*
X99339606Y-105781522D01*
X99245705Y-105752262D01*
X99177196Y-105730914D01*
X99177194Y-105730913D01*
X99177192Y-105730913D01*
X99127778Y-105726423D01*
X99106616Y-105724500D01*
X98093384Y-105724500D01*
X98074145Y-105726248D01*
X98022807Y-105730913D01*
X97860393Y-105781522D01*
X97714811Y-105869530D01*
X97594530Y-105989811D01*
X97506522Y-106135393D01*
X97455913Y-106297807D01*
X97449500Y-106368386D01*
X94000500Y-106368386D01*
X94000500Y-103899996D01*
X114869435Y-103899996D01*
X114869435Y-103900003D01*
X114889630Y-104079249D01*
X114889631Y-104079254D01*
X114949211Y-104249523D01*
X115030724Y-104379249D01*
X115045184Y-104402262D01*
X115172738Y-104529816D01*
X115263080Y-104586582D01*
X115316557Y-104620184D01*
X115325478Y-104625789D01*
X115394678Y-104650003D01*
X115495745Y-104685368D01*
X115495750Y-104685369D01*
X115674996Y-104705565D01*
X115675000Y-104705565D01*
X115675004Y-104705565D01*
X115854249Y-104685369D01*
X115854252Y-104685368D01*
X115854255Y-104685368D01*
X116024522Y-104625789D01*
X116177262Y-104529816D01*
X116304816Y-104402262D01*
X116400789Y-104249522D01*
X116460368Y-104079255D01*
X116465736Y-104031613D01*
X116480565Y-103900003D01*
X116480565Y-103899996D01*
X116460369Y-103720750D01*
X116460368Y-103720745D01*
X116455056Y-103705565D01*
X116400789Y-103550478D01*
X116400188Y-103549522D01*
X116336276Y-103447807D01*
X116304816Y-103397738D01*
X116177262Y-103270184D01*
X116146395Y-103250789D01*
X116024523Y-103174211D01*
X115854254Y-103114631D01*
X115854249Y-103114630D01*
X115675004Y-103094435D01*
X115674996Y-103094435D01*
X115495750Y-103114630D01*
X115495745Y-103114631D01*
X115325476Y-103174211D01*
X115172737Y-103270184D01*
X115045184Y-103397737D01*
X114949211Y-103550476D01*
X114889631Y-103720745D01*
X114889630Y-103720750D01*
X114869435Y-103899996D01*
X94000500Y-103899996D01*
X94000500Y-102524996D01*
X112119435Y-102524996D01*
X112119435Y-102525003D01*
X112139630Y-102704249D01*
X112139631Y-102704254D01*
X112199211Y-102874523D01*
X112265019Y-102979255D01*
X112295184Y-103027262D01*
X112422738Y-103154816D01*
X112494648Y-103200000D01*
X112573461Y-103249522D01*
X112575478Y-103250789D01*
X112705821Y-103296398D01*
X112745745Y-103310368D01*
X112745750Y-103310369D01*
X112924996Y-103330565D01*
X112925000Y-103330565D01*
X112925004Y-103330565D01*
X113104249Y-103310369D01*
X113104252Y-103310368D01*
X113104255Y-103310368D01*
X113274522Y-103250789D01*
X113427262Y-103154816D01*
X113554816Y-103027262D01*
X113634783Y-102899996D01*
X129544435Y-102899996D01*
X129544435Y-102900003D01*
X129564630Y-103079249D01*
X129564631Y-103079254D01*
X129624211Y-103249523D01*
X129697745Y-103366551D01*
X129720184Y-103402262D01*
X129847738Y-103529816D01*
X129930266Y-103581672D01*
X129960192Y-103600476D01*
X130000478Y-103625789D01*
X130071744Y-103650726D01*
X130170745Y-103685368D01*
X130170750Y-103685369D01*
X130349996Y-103705565D01*
X130350000Y-103705565D01*
X130350004Y-103705565D01*
X130529249Y-103685369D01*
X130529252Y-103685368D01*
X130529255Y-103685368D01*
X130699522Y-103625789D01*
X130852262Y-103529816D01*
X130967485Y-103414592D01*
X131028804Y-103381110D01*
X131098496Y-103386094D01*
X131154430Y-103427965D01*
X131160156Y-103436303D01*
X131170182Y-103452260D01*
X131170184Y-103452262D01*
X131297738Y-103579816D01*
X131370902Y-103625788D01*
X131410590Y-103650726D01*
X131450478Y-103675789D01*
X131535573Y-103705565D01*
X131620745Y-103735368D01*
X131620750Y-103735369D01*
X131799996Y-103755565D01*
X131800000Y-103755565D01*
X131800004Y-103755565D01*
X131979249Y-103735369D01*
X131979252Y-103735368D01*
X131979255Y-103735368D01*
X132149522Y-103675789D01*
X132302262Y-103579816D01*
X132429816Y-103452262D01*
X132525789Y-103299522D01*
X132585368Y-103129255D01*
X132587016Y-103114630D01*
X132605565Y-102950003D01*
X132605565Y-102949996D01*
X132588664Y-102799996D01*
X132894435Y-102799996D01*
X132894435Y-102800003D01*
X132914630Y-102979249D01*
X132914631Y-102979254D01*
X132974211Y-103149523D01*
X133037841Y-103250789D01*
X133070184Y-103302262D01*
X133197738Y-103429816D01*
X133350478Y-103525789D01*
X133504878Y-103579816D01*
X133520745Y-103585368D01*
X133520750Y-103585369D01*
X133699996Y-103605565D01*
X133700000Y-103605565D01*
X133700004Y-103605565D01*
X133879249Y-103585369D01*
X133879252Y-103585368D01*
X133879255Y-103585368D01*
X134049522Y-103525789D01*
X134202262Y-103429816D01*
X134329816Y-103302262D01*
X134394074Y-103199996D01*
X135594435Y-103199996D01*
X135594435Y-103200003D01*
X135614630Y-103379249D01*
X135614631Y-103379254D01*
X135674211Y-103549523D01*
X135770184Y-103702262D01*
X135902662Y-103834740D01*
X135900936Y-103836465D01*
X135934539Y-103884359D01*
X135937375Y-103954171D01*
X135934120Y-103965047D01*
X135914631Y-104020745D01*
X135914631Y-104020746D01*
X135894435Y-104199996D01*
X135894435Y-104200003D01*
X135914630Y-104379249D01*
X135914631Y-104379254D01*
X135974211Y-104549523D01*
X136037347Y-104650003D01*
X136070184Y-104702262D01*
X136197738Y-104829816D01*
X136288080Y-104886582D01*
X136310192Y-104900476D01*
X136350478Y-104925789D01*
X136520745Y-104985368D01*
X136520750Y-104985369D01*
X136699996Y-105005565D01*
X136700000Y-105005565D01*
X136700004Y-105005565D01*
X136879249Y-104985369D01*
X136879252Y-104985368D01*
X136879255Y-104985368D01*
X137049522Y-104925789D01*
X137202262Y-104829816D01*
X137329816Y-104702262D01*
X137425789Y-104549522D01*
X137485368Y-104379255D01*
X137485368Y-104379253D01*
X137485792Y-104378042D01*
X137526514Y-104321266D01*
X137591466Y-104295518D01*
X137660028Y-104308974D01*
X137707827Y-104353023D01*
X137770182Y-104452260D01*
X137770184Y-104452262D01*
X137897738Y-104579816D01*
X138050478Y-104675789D01*
X138135573Y-104705565D01*
X138220745Y-104735368D01*
X138220750Y-104735369D01*
X138399996Y-104755565D01*
X138400000Y-104755565D01*
X138400004Y-104755565D01*
X138579249Y-104735369D01*
X138579252Y-104735368D01*
X138579255Y-104735368D01*
X138749522Y-104675789D01*
X138902262Y-104579816D01*
X139029816Y-104452262D01*
X139125789Y-104299522D01*
X139185368Y-104129255D01*
X139188417Y-104102196D01*
X139205565Y-103950003D01*
X139205565Y-103949996D01*
X139185369Y-103770750D01*
X139185368Y-103770745D01*
X139167872Y-103720745D01*
X139125789Y-103600478D01*
X139116295Y-103585369D01*
X139074207Y-103518386D01*
X164149500Y-103518386D01*
X164149500Y-104031613D01*
X164155913Y-104102192D01*
X164155913Y-104102194D01*
X164155914Y-104102196D01*
X164206522Y-104264606D01*
X164289738Y-104402262D01*
X164294530Y-104410188D01*
X164414811Y-104530469D01*
X164414813Y-104530470D01*
X164414815Y-104530472D01*
X164560394Y-104618478D01*
X164722804Y-104669086D01*
X164793384Y-104675500D01*
X164793387Y-104675500D01*
X165806613Y-104675500D01*
X165806616Y-104675500D01*
X165877196Y-104669086D01*
X166039606Y-104618478D01*
X166185185Y-104530472D01*
X166305472Y-104410185D01*
X166393478Y-104264606D01*
X166444086Y-104102196D01*
X166450500Y-104031616D01*
X166450500Y-103518384D01*
X166444086Y-103447804D01*
X166393478Y-103285394D01*
X166305472Y-103139815D01*
X166305470Y-103139813D01*
X166305469Y-103139811D01*
X166185188Y-103019530D01*
X166118565Y-102979255D01*
X166039606Y-102931522D01*
X165877196Y-102880914D01*
X165877194Y-102880913D01*
X165877192Y-102880913D01*
X165827778Y-102876423D01*
X165806616Y-102874500D01*
X164793384Y-102874500D01*
X164774145Y-102876248D01*
X164722807Y-102880913D01*
X164560393Y-102931522D01*
X164414811Y-103019530D01*
X164294530Y-103139811D01*
X164206522Y-103285393D01*
X164155913Y-103447807D01*
X164149500Y-103518386D01*
X139074207Y-103518386D01*
X139072494Y-103515660D01*
X139029816Y-103447738D01*
X138902262Y-103320184D01*
X138902260Y-103320182D01*
X138896812Y-103315837D01*
X138897735Y-103314679D01*
X138856741Y-103268331D01*
X138846094Y-103199278D01*
X138851964Y-103174719D01*
X138885366Y-103079262D01*
X138885369Y-103079249D01*
X138905565Y-102900003D01*
X138905565Y-102899996D01*
X138885369Y-102720750D01*
X138885368Y-102720745D01*
X138879596Y-102704249D01*
X138825789Y-102550478D01*
X138729816Y-102397738D01*
X138602262Y-102270184D01*
X138570144Y-102250003D01*
X138570133Y-102249996D01*
X148294435Y-102249996D01*
X148294435Y-102250003D01*
X148314630Y-102429249D01*
X148314631Y-102429254D01*
X148374211Y-102599523D01*
X148450381Y-102720746D01*
X148470184Y-102752262D01*
X148597738Y-102879816D01*
X148750478Y-102975789D01*
X148875477Y-103019528D01*
X148920745Y-103035368D01*
X148920750Y-103035369D01*
X149099996Y-103055565D01*
X149100000Y-103055565D01*
X149100004Y-103055565D01*
X149279249Y-103035369D01*
X149279252Y-103035368D01*
X149279255Y-103035368D01*
X149449522Y-102975789D01*
X149602262Y-102879816D01*
X149729816Y-102752262D01*
X149825789Y-102599522D01*
X149885368Y-102429255D01*
X149887016Y-102414630D01*
X149905565Y-102250003D01*
X149905565Y-102249996D01*
X149885369Y-102070750D01*
X149885368Y-102070745D01*
X149865733Y-102014631D01*
X149825789Y-101900478D01*
X149729816Y-101747738D01*
X149602262Y-101620184D01*
X149449523Y-101524211D01*
X149279254Y-101464631D01*
X149279249Y-101464630D01*
X149100004Y-101444435D01*
X149099996Y-101444435D01*
X148920750Y-101464630D01*
X148920745Y-101464631D01*
X148750476Y-101524211D01*
X148597737Y-101620184D01*
X148470184Y-101747737D01*
X148374211Y-101900476D01*
X148314631Y-102070745D01*
X148314630Y-102070750D01*
X148294435Y-102249996D01*
X138570133Y-102249996D01*
X138449523Y-102174211D01*
X138279254Y-102114631D01*
X138279249Y-102114630D01*
X138100004Y-102094435D01*
X138099996Y-102094435D01*
X137920750Y-102114630D01*
X137920745Y-102114631D01*
X137750476Y-102174211D01*
X137597737Y-102270184D01*
X137470184Y-102397737D01*
X137374211Y-102550476D01*
X137314631Y-102720745D01*
X137314631Y-102720746D01*
X137313199Y-102733456D01*
X137286129Y-102797868D01*
X137228533Y-102837421D01*
X137158696Y-102839556D01*
X137098791Y-102803595D01*
X137084985Y-102785539D01*
X137029816Y-102697738D01*
X136902262Y-102570184D01*
X136830357Y-102525003D01*
X136749523Y-102474211D01*
X136579254Y-102414631D01*
X136579249Y-102414630D01*
X136400004Y-102394435D01*
X136399996Y-102394435D01*
X136220750Y-102414630D01*
X136220745Y-102414631D01*
X136050476Y-102474211D01*
X135897737Y-102570184D01*
X135770184Y-102697737D01*
X135674211Y-102850476D01*
X135614631Y-103020745D01*
X135614630Y-103020750D01*
X135594435Y-103199996D01*
X134394074Y-103199996D01*
X134425789Y-103149522D01*
X134485368Y-102979255D01*
X134488664Y-102950003D01*
X134505565Y-102800003D01*
X134505565Y-102799996D01*
X134485369Y-102620750D01*
X134485368Y-102620745D01*
X134467676Y-102570184D01*
X134425789Y-102450478D01*
X134424067Y-102447738D01*
X134359981Y-102345745D01*
X134329816Y-102297738D01*
X134202262Y-102170184D01*
X134193426Y-102164632D01*
X134049523Y-102074211D01*
X133879254Y-102014631D01*
X133879249Y-102014630D01*
X133700004Y-101994435D01*
X133699996Y-101994435D01*
X133520750Y-102014630D01*
X133520745Y-102014631D01*
X133350476Y-102074211D01*
X133197737Y-102170184D01*
X133070184Y-102297737D01*
X132974211Y-102450476D01*
X132914631Y-102620745D01*
X132914630Y-102620750D01*
X132894435Y-102799996D01*
X132588664Y-102799996D01*
X132585369Y-102770750D01*
X132585368Y-102770745D01*
X132525789Y-102600478D01*
X132525188Y-102599522D01*
X132439974Y-102463905D01*
X132429816Y-102447738D01*
X132302262Y-102320184D01*
X132302260Y-102320183D01*
X132149523Y-102224211D01*
X131979254Y-102164631D01*
X131979249Y-102164630D01*
X131800004Y-102144435D01*
X131799996Y-102144435D01*
X131620750Y-102164630D01*
X131620745Y-102164631D01*
X131450476Y-102224211D01*
X131297739Y-102320183D01*
X131182517Y-102435405D01*
X131121194Y-102468889D01*
X131051502Y-102463905D01*
X130995569Y-102422033D01*
X130989842Y-102413694D01*
X130979818Y-102397740D01*
X130852262Y-102270184D01*
X130699523Y-102174211D01*
X130529254Y-102114631D01*
X130529249Y-102114630D01*
X130350004Y-102094435D01*
X130349996Y-102094435D01*
X130170750Y-102114630D01*
X130170745Y-102114631D01*
X130000476Y-102174211D01*
X129847737Y-102270184D01*
X129720184Y-102397737D01*
X129624211Y-102550476D01*
X129564631Y-102720745D01*
X129564630Y-102720750D01*
X129544435Y-102899996D01*
X113634783Y-102899996D01*
X113650789Y-102874522D01*
X113710368Y-102704255D01*
X113710369Y-102704249D01*
X113730565Y-102525003D01*
X113730565Y-102524996D01*
X113710369Y-102345750D01*
X113710368Y-102345745D01*
X113667841Y-102224211D01*
X113650789Y-102175478D01*
X113643973Y-102164631D01*
X113554815Y-102022737D01*
X113427262Y-101895184D01*
X113274523Y-101799211D01*
X113104254Y-101739631D01*
X113104249Y-101739630D01*
X112925004Y-101719435D01*
X112924996Y-101719435D01*
X112745750Y-101739630D01*
X112745745Y-101739631D01*
X112575476Y-101799211D01*
X112422737Y-101895184D01*
X112295184Y-102022737D01*
X112199211Y-102175476D01*
X112139631Y-102345745D01*
X112139630Y-102345750D01*
X112119435Y-102524996D01*
X94000500Y-102524996D01*
X94000500Y-100999996D01*
X126594435Y-100999996D01*
X126594435Y-101000003D01*
X126614630Y-101179249D01*
X126614631Y-101179254D01*
X126674211Y-101349523D01*
X126683115Y-101363693D01*
X126770184Y-101502262D01*
X126897738Y-101629816D01*
X126988080Y-101686582D01*
X127040365Y-101719435D01*
X127050478Y-101725789D01*
X127113202Y-101747737D01*
X127220745Y-101785368D01*
X127220750Y-101785369D01*
X127399996Y-101805565D01*
X127400000Y-101805565D01*
X127400004Y-101805565D01*
X127579249Y-101785369D01*
X127579252Y-101785368D01*
X127579255Y-101785368D01*
X127749522Y-101725789D01*
X127902262Y-101629816D01*
X128029816Y-101502262D01*
X128125789Y-101349522D01*
X128182901Y-101186304D01*
X164149500Y-101186304D01*
X164149500Y-101363695D01*
X164184103Y-101537658D01*
X164184106Y-101537667D01*
X164251983Y-101701540D01*
X164251990Y-101701553D01*
X164350535Y-101849034D01*
X164350538Y-101849038D01*
X164475961Y-101974461D01*
X164475965Y-101974464D01*
X164623446Y-102073009D01*
X164623459Y-102073016D01*
X164723926Y-102114630D01*
X164787334Y-102140894D01*
X164787336Y-102140894D01*
X164787341Y-102140896D01*
X164961304Y-102175499D01*
X164961307Y-102175500D01*
X164961309Y-102175500D01*
X165638693Y-102175500D01*
X165638694Y-102175499D01*
X165696682Y-102163964D01*
X165812658Y-102140896D01*
X165812661Y-102140894D01*
X165812666Y-102140894D01*
X165976547Y-102073013D01*
X166124035Y-101974464D01*
X166249464Y-101849035D01*
X166348013Y-101701547D01*
X166415894Y-101537666D01*
X166418571Y-101524211D01*
X166450499Y-101363695D01*
X166450500Y-101363693D01*
X166450500Y-101186306D01*
X166450499Y-101186304D01*
X166415896Y-101012341D01*
X166415893Y-101012332D01*
X166348016Y-100848459D01*
X166348009Y-100848446D01*
X166249464Y-100700965D01*
X166249461Y-100700961D01*
X166124038Y-100575538D01*
X166124034Y-100575535D01*
X165976553Y-100476990D01*
X165976540Y-100476983D01*
X165812667Y-100409106D01*
X165812658Y-100409103D01*
X165638694Y-100374500D01*
X165638691Y-100374500D01*
X164961309Y-100374500D01*
X164961306Y-100374500D01*
X164787341Y-100409103D01*
X164787332Y-100409106D01*
X164623459Y-100476983D01*
X164623446Y-100476990D01*
X164475965Y-100575535D01*
X164475961Y-100575538D01*
X164350538Y-100700961D01*
X164350535Y-100700965D01*
X164251990Y-100848446D01*
X164251983Y-100848459D01*
X164184106Y-101012332D01*
X164184103Y-101012341D01*
X164149500Y-101186304D01*
X128182901Y-101186304D01*
X128185368Y-101179255D01*
X128204175Y-101012341D01*
X128205565Y-101000003D01*
X128205565Y-100999996D01*
X128185369Y-100820750D01*
X128185368Y-100820745D01*
X128137998Y-100685369D01*
X128125789Y-100650478D01*
X128029816Y-100497738D01*
X127902262Y-100370184D01*
X127749523Y-100274211D01*
X127579254Y-100214631D01*
X127579249Y-100214630D01*
X127400004Y-100194435D01*
X127399996Y-100194435D01*
X127220750Y-100214630D01*
X127220745Y-100214631D01*
X127050476Y-100274211D01*
X126897737Y-100370184D01*
X126770184Y-100497737D01*
X126674211Y-100650476D01*
X126614631Y-100820745D01*
X126614630Y-100820750D01*
X126594435Y-100999996D01*
X94000500Y-100999996D01*
X94000500Y-99899996D01*
X140094435Y-99899996D01*
X140094435Y-99900003D01*
X140114630Y-100079249D01*
X140114631Y-100079254D01*
X140174211Y-100249523D01*
X140189724Y-100274211D01*
X140270184Y-100402262D01*
X140397738Y-100529816D01*
X140550478Y-100625789D01*
X140720745Y-100685368D01*
X140720750Y-100685369D01*
X140899996Y-100705565D01*
X140900000Y-100705565D01*
X140900004Y-100705565D01*
X141079249Y-100685369D01*
X141079252Y-100685368D01*
X141079255Y-100685368D01*
X141249522Y-100625789D01*
X141402262Y-100529816D01*
X141529816Y-100402262D01*
X141625789Y-100249522D01*
X141685368Y-100079255D01*
X141705565Y-99900000D01*
X141685368Y-99720745D01*
X141625789Y-99550478D01*
X141529816Y-99397738D01*
X141402262Y-99270184D01*
X141249523Y-99174211D01*
X141079254Y-99114631D01*
X141079249Y-99114630D01*
X140900004Y-99094435D01*
X140899996Y-99094435D01*
X140720750Y-99114630D01*
X140720745Y-99114631D01*
X140550476Y-99174211D01*
X140397737Y-99270184D01*
X140270184Y-99397737D01*
X140174211Y-99550476D01*
X140114631Y-99720745D01*
X140114630Y-99720750D01*
X140094435Y-99899996D01*
X94000500Y-99899996D01*
X94000500Y-94749996D01*
X136619593Y-94749996D01*
X136619593Y-94750003D01*
X136639157Y-94923648D01*
X136639159Y-94923657D01*
X136696878Y-95088606D01*
X136789853Y-95236576D01*
X136913424Y-95360147D01*
X137061394Y-95453122D01*
X137226343Y-95510841D01*
X137226349Y-95510841D01*
X137226351Y-95510842D01*
X137399996Y-95530407D01*
X137400000Y-95530407D01*
X137400004Y-95530407D01*
X137573648Y-95510842D01*
X137573647Y-95510842D01*
X137573657Y-95510841D01*
X137738606Y-95453122D01*
X137886576Y-95360147D01*
X138010147Y-95236576D01*
X138103122Y-95088606D01*
X138160841Y-94923657D01*
X138180407Y-94750000D01*
X138160841Y-94576343D01*
X138103122Y-94411394D01*
X138010147Y-94263424D01*
X137886576Y-94139853D01*
X137738606Y-94046878D01*
X137738605Y-94046877D01*
X137738604Y-94046877D01*
X137573658Y-93989159D01*
X137573648Y-93989157D01*
X137400004Y-93969593D01*
X137399996Y-93969593D01*
X137226351Y-93989157D01*
X137226341Y-93989159D01*
X137061395Y-94046877D01*
X136913423Y-94139853D01*
X136789853Y-94263423D01*
X136696877Y-94411395D01*
X136639159Y-94576341D01*
X136639157Y-94576351D01*
X136619593Y-94749996D01*
X94000500Y-94749996D01*
X94000500Y-87576017D01*
X94020185Y-87508978D01*
X94072989Y-87463223D01*
X94142147Y-87453279D01*
X94205703Y-87482304D01*
X94243477Y-87541082D01*
X94245470Y-87548773D01*
X94263834Y-87630314D01*
X94263835Y-87630319D01*
X94281278Y-87673658D01*
X94355795Y-87858809D01*
X94483216Y-88069589D01*
X94483219Y-88069592D01*
X94642798Y-88257201D01*
X94751309Y-88349500D01*
X94830411Y-88416784D01*
X95041191Y-88544205D01*
X95269683Y-88636165D01*
X95509966Y-88690281D01*
X95654705Y-88700500D01*
X97845294Y-88700499D01*
X97990034Y-88690281D01*
X98230317Y-88636165D01*
X98458809Y-88544205D01*
X98669589Y-88416784D01*
X98857201Y-88257201D01*
X99016784Y-88069589D01*
X99144205Y-87858809D01*
X99236165Y-87630317D01*
X99290281Y-87390034D01*
X99300500Y-87245295D01*
X99300499Y-85054706D01*
X99290281Y-84909966D01*
X99236165Y-84669683D01*
X99144205Y-84441191D01*
X99016784Y-84230411D01*
X98938693Y-84138604D01*
X98857201Y-84042798D01*
X98702716Y-83911394D01*
X98669589Y-83883216D01*
X98531926Y-83799996D01*
X111169593Y-83799996D01*
X111169593Y-83800003D01*
X111189157Y-83973648D01*
X111189159Y-83973658D01*
X111246877Y-84138604D01*
X111246878Y-84138606D01*
X111339853Y-84286576D01*
X111463424Y-84410147D01*
X111611394Y-84503122D01*
X111776343Y-84560841D01*
X111776349Y-84560841D01*
X111776351Y-84560842D01*
X111949996Y-84580407D01*
X111950000Y-84580407D01*
X111950004Y-84580407D01*
X112123648Y-84560842D01*
X112123647Y-84560842D01*
X112123657Y-84560841D01*
X112194616Y-84536010D01*
X112264390Y-84532448D01*
X112325018Y-84567176D01*
X112352611Y-84612102D01*
X112360290Y-84634050D01*
X112363849Y-84703829D01*
X112360289Y-84715953D01*
X112339158Y-84776343D01*
X112339158Y-84776344D01*
X112319593Y-84949996D01*
X112319593Y-84950003D01*
X112339157Y-85123651D01*
X112339159Y-85123659D01*
X112377785Y-85234046D01*
X112381346Y-85303825D01*
X112377785Y-85315954D01*
X112339159Y-85426340D01*
X112339157Y-85426348D01*
X112319593Y-85599996D01*
X112319593Y-85600003D01*
X112339158Y-85773654D01*
X112369037Y-85859045D01*
X112372598Y-85928824D01*
X112369037Y-85940953D01*
X112339158Y-86026343D01*
X112336164Y-86052915D01*
X112309096Y-86117328D01*
X112251501Y-86156882D01*
X112181664Y-86159019D01*
X112171990Y-86156071D01*
X112123659Y-86139159D01*
X112123651Y-86139157D01*
X111950004Y-86119593D01*
X111949996Y-86119593D01*
X111776351Y-86139157D01*
X111776341Y-86139159D01*
X111611395Y-86196877D01*
X111463423Y-86289853D01*
X111339853Y-86413423D01*
X111246877Y-86561395D01*
X111189159Y-86726341D01*
X111189157Y-86726351D01*
X111169593Y-86899996D01*
X111169593Y-86900003D01*
X111189157Y-87073648D01*
X111189159Y-87073659D01*
X111244037Y-87230488D01*
X111247599Y-87300267D01*
X111244039Y-87312393D01*
X111239158Y-87326341D01*
X111239158Y-87326344D01*
X111219593Y-87499996D01*
X111219593Y-87500003D01*
X111239157Y-87673648D01*
X111239159Y-87673657D01*
X111296878Y-87838606D01*
X111389853Y-87986576D01*
X111513424Y-88110147D01*
X111661394Y-88203122D01*
X111826343Y-88260841D01*
X111826349Y-88260841D01*
X111826351Y-88260842D01*
X111999996Y-88280407D01*
X112000000Y-88280407D01*
X112000004Y-88280407D01*
X112173648Y-88260842D01*
X112173647Y-88260842D01*
X112173657Y-88260841D01*
X112284048Y-88222212D01*
X112353823Y-88218650D01*
X112365932Y-88222206D01*
X112476343Y-88260841D01*
X112476347Y-88260841D01*
X112476351Y-88260842D01*
X112649996Y-88280407D01*
X112650000Y-88280407D01*
X112650004Y-88280407D01*
X112823648Y-88260842D01*
X112823647Y-88260842D01*
X112823657Y-88260841D01*
X112934048Y-88222212D01*
X113003823Y-88218650D01*
X113015932Y-88222206D01*
X113126343Y-88260841D01*
X113126347Y-88260841D01*
X113126351Y-88260842D01*
X113299996Y-88280407D01*
X113300000Y-88280407D01*
X113300004Y-88280407D01*
X113473648Y-88260842D01*
X113473647Y-88260842D01*
X113473657Y-88260841D01*
X113584048Y-88222212D01*
X113653823Y-88218650D01*
X113665932Y-88222206D01*
X113776343Y-88260841D01*
X113776347Y-88260841D01*
X113776351Y-88260842D01*
X113949996Y-88280407D01*
X113950000Y-88280407D01*
X113950004Y-88280407D01*
X114123648Y-88260842D01*
X114123647Y-88260842D01*
X114123657Y-88260841D01*
X114234048Y-88222212D01*
X114303823Y-88218650D01*
X114315932Y-88222206D01*
X114426343Y-88260841D01*
X114426347Y-88260841D01*
X114426351Y-88260842D01*
X114599996Y-88280407D01*
X114600000Y-88280407D01*
X114600004Y-88280407D01*
X114773648Y-88260842D01*
X114773647Y-88260842D01*
X114773657Y-88260841D01*
X114884048Y-88222212D01*
X114953823Y-88218650D01*
X114965932Y-88222206D01*
X115076343Y-88260841D01*
X115076347Y-88260841D01*
X115076351Y-88260842D01*
X115249996Y-88280407D01*
X115250000Y-88280407D01*
X115250004Y-88280407D01*
X115423648Y-88260842D01*
X115423647Y-88260842D01*
X115423657Y-88260841D01*
X115588606Y-88203122D01*
X115736576Y-88110147D01*
X115860147Y-87986576D01*
X115953122Y-87838606D01*
X116010841Y-87673657D01*
X116015724Y-87630317D01*
X116030407Y-87500003D01*
X116030407Y-87499996D01*
X116010842Y-87326351D01*
X116010841Y-87326344D01*
X116010840Y-87326341D01*
X115972212Y-87215951D01*
X115968650Y-87146177D01*
X115972206Y-87134067D01*
X116010841Y-87023657D01*
X116024773Y-86900003D01*
X116030407Y-86850003D01*
X116030407Y-86849996D01*
X116010842Y-86676351D01*
X116010841Y-86676344D01*
X116010840Y-86676340D01*
X115972212Y-86565951D01*
X115968650Y-86496177D01*
X115972206Y-86484067D01*
X116010841Y-86373657D01*
X116024773Y-86250003D01*
X116030407Y-86200003D01*
X116030407Y-86199996D01*
X116010842Y-86026351D01*
X116010841Y-86026344D01*
X116010841Y-86026343D01*
X115972212Y-85915951D01*
X115968650Y-85846177D01*
X115972206Y-85834067D01*
X116010841Y-85723657D01*
X116024773Y-85600003D01*
X116030407Y-85550003D01*
X116030407Y-85549996D01*
X116010842Y-85376351D01*
X116010841Y-85376344D01*
X116010840Y-85376340D01*
X115972212Y-85265951D01*
X115968650Y-85196177D01*
X115972206Y-85184067D01*
X116010841Y-85073657D01*
X116024773Y-84950003D01*
X116030407Y-84900003D01*
X116030407Y-84899996D01*
X116010842Y-84726351D01*
X116010841Y-84726344D01*
X116010014Y-84723981D01*
X115972212Y-84615951D01*
X115968650Y-84546177D01*
X115972206Y-84534067D01*
X116010841Y-84423657D01*
X116025152Y-84296643D01*
X116030407Y-84250003D01*
X116030407Y-84249996D01*
X116010842Y-84076351D01*
X116010841Y-84076349D01*
X116010841Y-84076343D01*
X115953122Y-83911394D01*
X115860147Y-83763424D01*
X115736576Y-83639853D01*
X115640628Y-83579565D01*
X115594338Y-83527231D01*
X115589560Y-83515527D01*
X115553122Y-83411394D01*
X115460147Y-83263424D01*
X115336576Y-83139853D01*
X115188606Y-83046878D01*
X115188605Y-83046877D01*
X115188604Y-83046877D01*
X115023658Y-82989159D01*
X115023648Y-82989157D01*
X114850004Y-82969593D01*
X114849996Y-82969593D01*
X114676351Y-82989157D01*
X114676346Y-82989158D01*
X114507886Y-83048105D01*
X114438108Y-83051666D01*
X114400961Y-83036057D01*
X114338607Y-82996878D01*
X114173658Y-82939159D01*
X114173648Y-82939157D01*
X114000004Y-82919593D01*
X113999996Y-82919593D01*
X113826351Y-82939157D01*
X113826341Y-82939159D01*
X113661393Y-82996878D01*
X113583696Y-83045697D01*
X113516459Y-83064696D01*
X113476772Y-83057744D01*
X113423659Y-83039159D01*
X113423651Y-83039157D01*
X113250004Y-83019593D01*
X113249996Y-83019593D01*
X113076348Y-83039157D01*
X113076340Y-83039159D01*
X112965954Y-83077785D01*
X112896175Y-83081346D01*
X112884046Y-83077785D01*
X112773659Y-83039159D01*
X112773651Y-83039157D01*
X112600004Y-83019593D01*
X112599996Y-83019593D01*
X112426348Y-83039157D01*
X112426340Y-83039159D01*
X112315954Y-83077785D01*
X112246175Y-83081346D01*
X112234046Y-83077785D01*
X112123659Y-83039159D01*
X112123651Y-83039157D01*
X111950004Y-83019593D01*
X111949996Y-83019593D01*
X111776351Y-83039157D01*
X111776341Y-83039159D01*
X111611395Y-83096877D01*
X111463423Y-83189853D01*
X111339853Y-83313423D01*
X111246877Y-83461395D01*
X111189159Y-83626341D01*
X111189157Y-83626351D01*
X111169593Y-83799996D01*
X98531926Y-83799996D01*
X98458809Y-83755795D01*
X98378956Y-83723657D01*
X98230318Y-83663835D01*
X97990036Y-83609719D01*
X97990029Y-83609718D01*
X97845296Y-83599500D01*
X95654707Y-83599500D01*
X95654701Y-83599501D01*
X95509972Y-83609718D01*
X95509966Y-83609718D01*
X95509966Y-83609719D01*
X95509963Y-83609719D01*
X95509961Y-83609720D01*
X95269685Y-83663834D01*
X95269680Y-83663835D01*
X95041190Y-83755795D01*
X95041185Y-83755798D01*
X94830417Y-83883212D01*
X94830407Y-83883219D01*
X94642798Y-84042798D01*
X94483219Y-84230407D01*
X94483212Y-84230417D01*
X94355798Y-84441185D01*
X94355795Y-84441190D01*
X94263835Y-84669680D01*
X94263835Y-84669682D01*
X94245470Y-84751226D01*
X94211537Y-84812302D01*
X94149970Y-84845337D01*
X94080317Y-84839842D01*
X94024691Y-84797562D01*
X94000754Y-84731921D01*
X94000500Y-84723981D01*
X94000500Y-79899996D01*
X112169593Y-79899996D01*
X112169593Y-79900003D01*
X112189157Y-80073648D01*
X112189159Y-80073658D01*
X112246878Y-80238607D01*
X112249900Y-80244882D01*
X112247415Y-80246078D01*
X112263000Y-80301318D01*
X112247536Y-80353980D01*
X112249900Y-80355118D01*
X112246878Y-80361392D01*
X112189159Y-80526341D01*
X112189157Y-80526351D01*
X112169593Y-80699996D01*
X112169593Y-80700003D01*
X112189157Y-80873648D01*
X112189159Y-80873658D01*
X112246878Y-81038607D01*
X112249900Y-81044882D01*
X112247415Y-81046078D01*
X112263000Y-81101318D01*
X112247536Y-81153980D01*
X112249900Y-81155118D01*
X112246878Y-81161392D01*
X112189159Y-81326341D01*
X112189157Y-81326351D01*
X112169593Y-81499996D01*
X112169593Y-81500003D01*
X112189157Y-81673648D01*
X112189159Y-81673658D01*
X112241644Y-81823648D01*
X112246878Y-81838606D01*
X112339853Y-81986576D01*
X112463424Y-82110147D01*
X112611394Y-82203122D01*
X112776343Y-82260841D01*
X112776349Y-82260841D01*
X112776351Y-82260842D01*
X112949996Y-82280407D01*
X112950000Y-82280407D01*
X112950004Y-82280407D01*
X113123648Y-82260842D01*
X113123647Y-82260842D01*
X113123657Y-82260841D01*
X113234048Y-82222212D01*
X113303823Y-82218650D01*
X113315932Y-82222206D01*
X113426343Y-82260841D01*
X113426347Y-82260841D01*
X113426351Y-82260842D01*
X113599996Y-82280407D01*
X113600000Y-82280407D01*
X113600004Y-82280407D01*
X113773648Y-82260842D01*
X113773647Y-82260842D01*
X113773657Y-82260841D01*
X113909045Y-82213466D01*
X113978824Y-82209904D01*
X113990955Y-82213466D01*
X114126343Y-82260841D01*
X114126349Y-82260841D01*
X114126351Y-82260842D01*
X114299996Y-82280407D01*
X114300000Y-82280407D01*
X114300004Y-82280407D01*
X114473648Y-82260842D01*
X114473647Y-82260842D01*
X114473657Y-82260841D01*
X114609045Y-82213466D01*
X114678824Y-82209904D01*
X114690955Y-82213466D01*
X114826343Y-82260841D01*
X114826349Y-82260841D01*
X114826351Y-82260842D01*
X114999996Y-82280407D01*
X115000000Y-82280407D01*
X115000004Y-82280407D01*
X115173648Y-82260842D01*
X115173647Y-82260842D01*
X115173657Y-82260841D01*
X115284048Y-82222212D01*
X115353823Y-82218650D01*
X115365932Y-82222206D01*
X115476343Y-82260841D01*
X115476347Y-82260841D01*
X115476351Y-82260842D01*
X115649996Y-82280407D01*
X115650000Y-82280407D01*
X115650004Y-82280407D01*
X115823648Y-82260842D01*
X115823647Y-82260842D01*
X115823657Y-82260841D01*
X115909048Y-82230960D01*
X115978823Y-82227398D01*
X115990932Y-82230953D01*
X116076343Y-82260841D01*
X116076347Y-82260841D01*
X116076351Y-82260842D01*
X116249996Y-82280407D01*
X116250000Y-82280407D01*
X116250004Y-82280407D01*
X116423648Y-82260842D01*
X116423647Y-82260842D01*
X116423657Y-82260841D01*
X116559045Y-82213466D01*
X116628824Y-82209904D01*
X116640955Y-82213466D01*
X116776343Y-82260841D01*
X116776348Y-82260841D01*
X116776350Y-82260842D01*
X116949997Y-82280407D01*
X116950938Y-82280407D01*
X116951523Y-82280579D01*
X116956920Y-82281187D01*
X116956813Y-82282132D01*
X117017977Y-82300092D01*
X117063732Y-82352896D01*
X117074158Y-82390524D01*
X117089157Y-82523651D01*
X117089159Y-82523659D01*
X117127785Y-82634046D01*
X117131346Y-82703825D01*
X117127785Y-82715954D01*
X117089159Y-82826340D01*
X117089157Y-82826348D01*
X117069593Y-82999996D01*
X117069593Y-83000003D01*
X117089157Y-83173648D01*
X117089159Y-83173658D01*
X117119855Y-83261381D01*
X117146878Y-83338606D01*
X117239853Y-83486576D01*
X117363424Y-83610147D01*
X117511394Y-83703122D01*
X117676343Y-83760841D01*
X117676349Y-83760841D01*
X117676351Y-83760842D01*
X117849996Y-83780407D01*
X117850000Y-83780407D01*
X117850004Y-83780407D01*
X118023648Y-83760842D01*
X118023647Y-83760842D01*
X118023657Y-83760841D01*
X118188606Y-83703122D01*
X118336576Y-83610147D01*
X118460147Y-83486576D01*
X118553122Y-83338606D01*
X118610841Y-83173657D01*
X118616476Y-83123648D01*
X118630407Y-83000003D01*
X118630407Y-82999996D01*
X119169593Y-82999996D01*
X119169593Y-83000003D01*
X119189157Y-83173648D01*
X119189159Y-83173658D01*
X119219855Y-83261381D01*
X119246878Y-83338606D01*
X119339853Y-83486576D01*
X119463424Y-83610147D01*
X119611394Y-83703122D01*
X119776343Y-83760841D01*
X119776349Y-83760841D01*
X119776351Y-83760842D01*
X119949996Y-83780407D01*
X119950000Y-83780407D01*
X119950004Y-83780407D01*
X120123648Y-83760842D01*
X120123647Y-83760842D01*
X120123657Y-83760841D01*
X120288606Y-83703122D01*
X120297302Y-83697658D01*
X120364538Y-83678655D01*
X120404231Y-83685607D01*
X120476343Y-83710841D01*
X120476349Y-83710841D01*
X120476351Y-83710842D01*
X120649996Y-83730407D01*
X120650000Y-83730407D01*
X120650004Y-83730407D01*
X120823648Y-83710842D01*
X120823647Y-83710842D01*
X120823657Y-83710841D01*
X120988606Y-83653122D01*
X121136576Y-83560147D01*
X121146727Y-83549996D01*
X124469593Y-83549996D01*
X124469593Y-83550003D01*
X124489157Y-83723651D01*
X124489159Y-83723659D01*
X124527785Y-83834046D01*
X124531346Y-83903825D01*
X124527785Y-83915954D01*
X124489159Y-84026340D01*
X124489157Y-84026348D01*
X124469593Y-84199996D01*
X124469593Y-84200003D01*
X124489157Y-84373651D01*
X124489159Y-84373659D01*
X124527785Y-84484046D01*
X124531346Y-84553825D01*
X124527785Y-84565954D01*
X124489159Y-84676340D01*
X124489157Y-84676348D01*
X124469593Y-84849996D01*
X124469593Y-84850003D01*
X124489157Y-85023651D01*
X124489159Y-85023659D01*
X124527785Y-85134046D01*
X124531346Y-85203825D01*
X124527785Y-85215954D01*
X124489159Y-85326340D01*
X124489157Y-85326348D01*
X124469593Y-85499996D01*
X124469593Y-85500003D01*
X124489157Y-85673648D01*
X124489158Y-85673653D01*
X124489158Y-85673655D01*
X124489159Y-85673657D01*
X124506652Y-85723648D01*
X124536534Y-85809046D01*
X124540095Y-85878824D01*
X124536534Y-85890954D01*
X124489158Y-86026346D01*
X124489157Y-86026351D01*
X124469593Y-86199996D01*
X124469593Y-86200003D01*
X124489157Y-86373651D01*
X124489159Y-86373659D01*
X124527785Y-86484046D01*
X124531346Y-86553825D01*
X124527785Y-86565954D01*
X124489159Y-86676340D01*
X124489157Y-86676348D01*
X124469593Y-86849996D01*
X124469593Y-86850003D01*
X124489157Y-87023648D01*
X124489159Y-87023658D01*
X124532031Y-87146177D01*
X124546878Y-87188606D01*
X124639853Y-87336576D01*
X124763424Y-87460147D01*
X124911394Y-87553122D01*
X125076343Y-87610841D01*
X125076349Y-87610841D01*
X125076351Y-87610842D01*
X125249996Y-87630407D01*
X125250000Y-87630407D01*
X125250004Y-87630407D01*
X125423650Y-87610842D01*
X125423651Y-87610841D01*
X125423657Y-87610841D01*
X125464231Y-87596642D01*
X125534008Y-87593079D01*
X125558993Y-87601965D01*
X125561387Y-87603118D01*
X125561394Y-87603122D01*
X125726343Y-87660841D01*
X125726349Y-87660841D01*
X125726351Y-87660842D01*
X125899996Y-87680407D01*
X125900000Y-87680407D01*
X125900004Y-87680407D01*
X126073648Y-87660842D01*
X126073647Y-87660842D01*
X126073657Y-87660841D01*
X126184048Y-87622212D01*
X126253823Y-87618650D01*
X126265932Y-87622206D01*
X126376343Y-87660841D01*
X126376347Y-87660841D01*
X126376351Y-87660842D01*
X126549996Y-87680407D01*
X126550000Y-87680407D01*
X126550004Y-87680407D01*
X126723648Y-87660842D01*
X126723647Y-87660842D01*
X126723657Y-87660841D01*
X126834048Y-87622212D01*
X126903823Y-87618650D01*
X126915932Y-87622206D01*
X127026343Y-87660841D01*
X127026347Y-87660841D01*
X127026351Y-87660842D01*
X127199996Y-87680407D01*
X127200000Y-87680407D01*
X127200004Y-87680407D01*
X127373648Y-87660842D01*
X127373647Y-87660842D01*
X127373657Y-87660841D01*
X127484048Y-87622212D01*
X127553823Y-87618650D01*
X127565932Y-87622206D01*
X127676343Y-87660841D01*
X127676347Y-87660841D01*
X127676351Y-87660842D01*
X127849996Y-87680407D01*
X127850000Y-87680407D01*
X127850004Y-87680407D01*
X128023648Y-87660842D01*
X128023647Y-87660842D01*
X128023657Y-87660841D01*
X128134048Y-87622212D01*
X128203823Y-87618650D01*
X128215932Y-87622206D01*
X128326343Y-87660841D01*
X128326347Y-87660841D01*
X128326351Y-87660842D01*
X128499996Y-87680407D01*
X128500000Y-87680407D01*
X128500004Y-87680407D01*
X128673648Y-87660842D01*
X128673647Y-87660842D01*
X128673657Y-87660841D01*
X128784048Y-87622212D01*
X128853823Y-87618650D01*
X128865932Y-87622206D01*
X128976343Y-87660841D01*
X128976347Y-87660841D01*
X128976351Y-87660842D01*
X129149996Y-87680407D01*
X129150000Y-87680407D01*
X129150004Y-87680407D01*
X129323648Y-87660842D01*
X129323647Y-87660842D01*
X129323657Y-87660841D01*
X129488606Y-87603122D01*
X129636576Y-87510147D01*
X129760147Y-87386576D01*
X129853122Y-87238606D01*
X129910841Y-87073657D01*
X129930407Y-86900000D01*
X129930407Y-86899996D01*
X151169593Y-86899996D01*
X151169593Y-86900003D01*
X151189157Y-87073648D01*
X151189159Y-87073658D01*
X151214535Y-87146177D01*
X151246878Y-87238606D01*
X151339853Y-87386576D01*
X151463424Y-87510147D01*
X151611394Y-87603122D01*
X151776343Y-87660841D01*
X151776349Y-87660841D01*
X151776351Y-87660842D01*
X151949996Y-87680407D01*
X151950000Y-87680407D01*
X151950004Y-87680407D01*
X152123648Y-87660842D01*
X152123647Y-87660842D01*
X152123657Y-87660841D01*
X152234048Y-87622212D01*
X152303823Y-87618650D01*
X152315932Y-87622206D01*
X152426343Y-87660841D01*
X152426347Y-87660841D01*
X152426351Y-87660842D01*
X152599996Y-87680407D01*
X152600000Y-87680407D01*
X152600004Y-87680407D01*
X152773648Y-87660842D01*
X152773647Y-87660842D01*
X152773657Y-87660841D01*
X152884048Y-87622212D01*
X152953823Y-87618650D01*
X152965932Y-87622206D01*
X153076343Y-87660841D01*
X153076347Y-87660841D01*
X153076351Y-87660842D01*
X153249996Y-87680407D01*
X153250000Y-87680407D01*
X153250004Y-87680407D01*
X153423648Y-87660842D01*
X153423647Y-87660842D01*
X153423657Y-87660841D01*
X153534048Y-87622212D01*
X153603823Y-87618650D01*
X153615932Y-87622206D01*
X153726343Y-87660841D01*
X153726347Y-87660841D01*
X153726351Y-87660842D01*
X153899996Y-87680407D01*
X153900000Y-87680407D01*
X153900004Y-87680407D01*
X154073648Y-87660842D01*
X154073647Y-87660842D01*
X154073657Y-87660841D01*
X154184048Y-87622212D01*
X154253823Y-87618650D01*
X154265932Y-87622206D01*
X154376343Y-87660841D01*
X154376347Y-87660841D01*
X154376351Y-87660842D01*
X154549996Y-87680407D01*
X154550000Y-87680407D01*
X154550004Y-87680407D01*
X154723648Y-87660842D01*
X154723647Y-87660842D01*
X154723657Y-87660841D01*
X154888606Y-87603122D01*
X155036576Y-87510147D01*
X155160147Y-87386576D01*
X155253122Y-87238606D01*
X155310841Y-87073657D01*
X155330407Y-86900000D01*
X155324773Y-86850000D01*
X155310842Y-86726351D01*
X155310841Y-86726344D01*
X155310841Y-86726343D01*
X155310369Y-86724994D01*
X164349457Y-86724994D01*
X164349457Y-86725005D01*
X164369606Y-87045283D01*
X164369607Y-87045290D01*
X164375019Y-87073658D01*
X164423222Y-87326351D01*
X164429745Y-87360542D01*
X164528916Y-87665759D01*
X164528918Y-87665764D01*
X164665558Y-87956138D01*
X164665562Y-87956144D01*
X164837520Y-88227108D01*
X164837522Y-88227111D01*
X165042087Y-88474388D01*
X165042089Y-88474390D01*
X165271991Y-88690281D01*
X165276034Y-88694078D01*
X165276044Y-88694086D01*
X165535660Y-88882708D01*
X165535666Y-88882711D01*
X165535672Y-88882716D01*
X165816903Y-89037324D01*
X166115294Y-89155466D01*
X166115293Y-89155466D01*
X166221243Y-89182669D01*
X166426139Y-89235277D01*
X166492935Y-89243715D01*
X166744524Y-89275499D01*
X166744533Y-89275499D01*
X166744536Y-89275500D01*
X166744538Y-89275500D01*
X167065462Y-89275500D01*
X167065464Y-89275500D01*
X167065467Y-89275499D01*
X167065475Y-89275499D01*
X167255463Y-89251497D01*
X167383861Y-89235277D01*
X167694706Y-89155466D01*
X167993097Y-89037324D01*
X168274328Y-88882716D01*
X168533964Y-88694080D01*
X168767911Y-88474390D01*
X168972478Y-88227110D01*
X169144439Y-87956142D01*
X169281084Y-87665758D01*
X169380256Y-87360538D01*
X169440392Y-87045294D01*
X169440393Y-87045283D01*
X169460543Y-86725005D01*
X169460543Y-86724994D01*
X169440393Y-86404716D01*
X169440392Y-86404709D01*
X169440392Y-86404706D01*
X169380256Y-86089462D01*
X169281084Y-85784242D01*
X169276102Y-85773654D01*
X169144441Y-85493861D01*
X169144437Y-85493855D01*
X169124026Y-85461693D01*
X169038129Y-85326340D01*
X168972479Y-85222891D01*
X168972477Y-85222888D01*
X168767912Y-84975611D01*
X168721679Y-84932195D01*
X168533964Y-84755920D01*
X168533961Y-84755918D01*
X168533955Y-84755913D01*
X168274339Y-84567291D01*
X168274321Y-84567280D01*
X167993096Y-84412675D01*
X167993093Y-84412674D01*
X167777258Y-84327219D01*
X167694706Y-84294534D01*
X167694704Y-84294533D01*
X167694706Y-84294533D01*
X167383864Y-84214723D01*
X167383851Y-84214721D01*
X167065475Y-84174500D01*
X167065464Y-84174500D01*
X166744536Y-84174500D01*
X166744524Y-84174500D01*
X166426148Y-84214721D01*
X166426135Y-84214723D01*
X166115294Y-84294533D01*
X165816906Y-84412674D01*
X165816903Y-84412675D01*
X165535678Y-84567280D01*
X165535660Y-84567291D01*
X165276044Y-84755913D01*
X165276034Y-84755921D01*
X165042087Y-84975611D01*
X164837522Y-85222888D01*
X164837520Y-85222891D01*
X164665562Y-85493855D01*
X164665558Y-85493861D01*
X164528918Y-85784235D01*
X164528916Y-85784240D01*
X164429745Y-86089457D01*
X164369607Y-86404709D01*
X164369606Y-86404716D01*
X164349457Y-86724994D01*
X155310369Y-86724994D01*
X155303492Y-86705343D01*
X155299931Y-86635565D01*
X155315541Y-86598416D01*
X155335938Y-86565954D01*
X155353122Y-86538606D01*
X155410841Y-86373657D01*
X155424773Y-86250003D01*
X155430407Y-86200003D01*
X155430407Y-86199996D01*
X155410842Y-86026351D01*
X155410841Y-86026344D01*
X155410841Y-86026343D01*
X155372212Y-85915951D01*
X155368650Y-85846177D01*
X155372206Y-85834067D01*
X155410841Y-85723657D01*
X155424773Y-85600003D01*
X155430407Y-85550003D01*
X155430407Y-85549996D01*
X155410842Y-85376351D01*
X155410841Y-85376344D01*
X155410840Y-85376340D01*
X155372212Y-85265951D01*
X155368650Y-85196177D01*
X155372206Y-85184067D01*
X155410841Y-85073657D01*
X155424773Y-84950003D01*
X155430407Y-84900003D01*
X155430407Y-84899996D01*
X155410842Y-84726351D01*
X155410841Y-84726349D01*
X155410841Y-84726343D01*
X155354718Y-84565954D01*
X155351156Y-84496176D01*
X155354718Y-84484045D01*
X155362837Y-84460842D01*
X155410841Y-84323657D01*
X155419140Y-84250000D01*
X155430407Y-84150003D01*
X155430407Y-84149996D01*
X155410842Y-83976351D01*
X155410841Y-83976349D01*
X155410841Y-83976343D01*
X155353122Y-83811394D01*
X155260147Y-83663424D01*
X155136576Y-83539853D01*
X155136575Y-83539852D01*
X155125457Y-83532866D01*
X155079167Y-83480530D01*
X155068211Y-83441755D01*
X155060842Y-83376351D01*
X155060841Y-83376349D01*
X155060841Y-83376343D01*
X155003122Y-83211394D01*
X154910147Y-83063424D01*
X154786576Y-82939853D01*
X154638606Y-82846878D01*
X154638605Y-82846877D01*
X154638604Y-82846877D01*
X154473658Y-82789159D01*
X154473648Y-82789157D01*
X154300004Y-82769593D01*
X154299996Y-82769593D01*
X154126348Y-82789157D01*
X154126340Y-82789159D01*
X154015954Y-82827785D01*
X153946175Y-82831346D01*
X153934046Y-82827785D01*
X153823659Y-82789159D01*
X153823651Y-82789157D01*
X153650004Y-82769593D01*
X153649996Y-82769593D01*
X153476351Y-82789157D01*
X153476346Y-82789158D01*
X153340954Y-82836534D01*
X153271176Y-82840095D01*
X153259046Y-82836534D01*
X153195208Y-82814196D01*
X153123657Y-82789159D01*
X153123655Y-82789158D01*
X153123653Y-82789158D01*
X153123648Y-82789157D01*
X152950004Y-82769593D01*
X152949996Y-82769593D01*
X152776351Y-82789157D01*
X152776346Y-82789158D01*
X152640954Y-82836534D01*
X152571176Y-82840095D01*
X152559046Y-82836534D01*
X152495208Y-82814196D01*
X152423657Y-82789159D01*
X152423655Y-82789158D01*
X152423653Y-82789158D01*
X152423648Y-82789157D01*
X152250004Y-82769593D01*
X152249996Y-82769593D01*
X152076351Y-82789157D01*
X152076341Y-82789159D01*
X151911395Y-82846877D01*
X151763423Y-82939853D01*
X151639853Y-83063423D01*
X151546877Y-83211395D01*
X151489159Y-83376341D01*
X151489157Y-83376351D01*
X151469593Y-83549996D01*
X151469593Y-83550003D01*
X151489157Y-83723648D01*
X151489159Y-83723658D01*
X151544992Y-83883216D01*
X151546878Y-83888606D01*
X151639853Y-84036576D01*
X151763424Y-84160147D01*
X151911394Y-84253122D01*
X152002910Y-84285145D01*
X152059686Y-84325866D01*
X152085175Y-84388303D01*
X152089157Y-84423651D01*
X152089159Y-84423659D01*
X152127785Y-84534046D01*
X152131346Y-84603825D01*
X152127785Y-84615954D01*
X152089159Y-84726340D01*
X152089157Y-84726348D01*
X152069593Y-84899996D01*
X152069593Y-84900003D01*
X152089157Y-85073651D01*
X152089159Y-85073659D01*
X152127785Y-85184046D01*
X152131346Y-85253825D01*
X152127785Y-85265954D01*
X152089159Y-85376340D01*
X152089157Y-85376348D01*
X152069593Y-85549996D01*
X152069593Y-85550003D01*
X152089157Y-85723651D01*
X152089159Y-85723659D01*
X152127785Y-85834046D01*
X152131346Y-85903825D01*
X152127785Y-85915953D01*
X152111883Y-85961401D01*
X152089160Y-86026342D01*
X152086860Y-86032914D01*
X152085203Y-86032334D01*
X152055457Y-86085496D01*
X151993791Y-86118345D01*
X151954814Y-86120134D01*
X151950009Y-86119593D01*
X151949996Y-86119593D01*
X151776351Y-86139157D01*
X151776341Y-86139159D01*
X151611395Y-86196877D01*
X151463423Y-86289853D01*
X151339853Y-86413423D01*
X151246877Y-86561395D01*
X151189159Y-86726341D01*
X151189157Y-86726351D01*
X151169593Y-86899996D01*
X129930407Y-86899996D01*
X129924773Y-86850000D01*
X129910842Y-86726351D01*
X129910841Y-86726344D01*
X129910840Y-86726341D01*
X129872212Y-86615951D01*
X129868650Y-86546177D01*
X129872206Y-86534067D01*
X129910841Y-86423657D01*
X129930407Y-86250000D01*
X129924773Y-86200000D01*
X129910842Y-86076351D01*
X129910841Y-86076349D01*
X129910841Y-86076343D01*
X129853122Y-85911394D01*
X129820229Y-85859045D01*
X129813942Y-85849039D01*
X129794942Y-85781802D01*
X129801895Y-85742112D01*
X129808353Y-85723657D01*
X129860841Y-85573657D01*
X129869140Y-85500000D01*
X129880407Y-85400003D01*
X129880407Y-85399996D01*
X129860842Y-85226351D01*
X129860841Y-85226349D01*
X129860841Y-85226343D01*
X129835607Y-85154232D01*
X129832045Y-85084455D01*
X129847658Y-85047302D01*
X129853119Y-85038610D01*
X129853122Y-85038606D01*
X129910841Y-84873657D01*
X129921805Y-84776344D01*
X129930407Y-84700003D01*
X129930407Y-84699996D01*
X129910842Y-84526351D01*
X129910841Y-84526344D01*
X129910371Y-84525000D01*
X129872212Y-84415951D01*
X129868650Y-84346177D01*
X129872206Y-84334067D01*
X129910841Y-84223657D01*
X129919140Y-84150000D01*
X129930407Y-84050003D01*
X129930407Y-84049996D01*
X129910842Y-83876351D01*
X129910841Y-83876349D01*
X129910841Y-83876343D01*
X129853122Y-83711394D01*
X129760147Y-83563424D01*
X129636576Y-83439853D01*
X129488606Y-83346878D01*
X129441513Y-83330399D01*
X129360650Y-83302103D01*
X129303875Y-83261381D01*
X129296612Y-83251034D01*
X129271705Y-83211395D01*
X129210147Y-83113424D01*
X129086576Y-82989853D01*
X128938606Y-82896878D01*
X128938605Y-82896877D01*
X128938604Y-82896877D01*
X128773658Y-82839159D01*
X128773648Y-82839157D01*
X128600004Y-82819593D01*
X128599996Y-82819593D01*
X128426351Y-82839157D01*
X128426339Y-82839160D01*
X128385764Y-82853357D01*
X128315985Y-82856918D01*
X128291022Y-82848041D01*
X128288607Y-82846878D01*
X128123658Y-82789159D01*
X128123648Y-82789157D01*
X127950004Y-82769593D01*
X127949996Y-82769593D01*
X127776348Y-82789157D01*
X127776340Y-82789159D01*
X127665954Y-82827785D01*
X127596175Y-82831346D01*
X127584046Y-82827785D01*
X127473659Y-82789159D01*
X127473651Y-82789157D01*
X127300004Y-82769593D01*
X127299996Y-82769593D01*
X127126351Y-82789157D01*
X127126346Y-82789158D01*
X126990954Y-82836534D01*
X126921176Y-82840095D01*
X126909046Y-82836534D01*
X126845208Y-82814196D01*
X126773657Y-82789159D01*
X126773655Y-82789158D01*
X126773653Y-82789158D01*
X126773648Y-82789157D01*
X126600004Y-82769593D01*
X126599996Y-82769593D01*
X126426348Y-82789157D01*
X126426340Y-82789159D01*
X126315954Y-82827785D01*
X126246175Y-82831346D01*
X126234046Y-82827785D01*
X126123659Y-82789159D01*
X126123651Y-82789157D01*
X125950004Y-82769593D01*
X125949996Y-82769593D01*
X125776351Y-82789157D01*
X125776346Y-82789158D01*
X125640954Y-82836534D01*
X125571176Y-82840095D01*
X125559046Y-82836534D01*
X125495208Y-82814196D01*
X125423657Y-82789159D01*
X125423655Y-82789158D01*
X125423653Y-82789158D01*
X125423648Y-82789157D01*
X125250004Y-82769593D01*
X125249996Y-82769593D01*
X125076351Y-82789157D01*
X125076341Y-82789159D01*
X124911395Y-82846877D01*
X124763423Y-82939853D01*
X124639853Y-83063423D01*
X124546877Y-83211395D01*
X124489159Y-83376341D01*
X124489157Y-83376351D01*
X124469593Y-83549996D01*
X121146727Y-83549996D01*
X121260147Y-83436576D01*
X121353122Y-83288606D01*
X121410841Y-83123657D01*
X121417484Y-83064696D01*
X121430407Y-82950003D01*
X121430407Y-82949996D01*
X121410842Y-82776351D01*
X121410841Y-82776344D01*
X121408479Y-82769593D01*
X121372212Y-82665951D01*
X121368650Y-82596177D01*
X121372206Y-82584067D01*
X121410841Y-82473657D01*
X121424773Y-82350003D01*
X121430407Y-82300003D01*
X121430407Y-82299996D01*
X121410842Y-82126351D01*
X121410841Y-82126344D01*
X121410841Y-82126343D01*
X121372212Y-82015951D01*
X121368650Y-81946177D01*
X121372206Y-81934067D01*
X121410841Y-81823657D01*
X121414730Y-81789137D01*
X121430407Y-81650003D01*
X121430407Y-81649996D01*
X121410842Y-81476351D01*
X121410841Y-81476349D01*
X121410841Y-81476343D01*
X121354718Y-81315955D01*
X121351156Y-81246176D01*
X121354718Y-81234045D01*
X121380140Y-81161394D01*
X121410841Y-81073657D01*
X121414790Y-81038605D01*
X121430407Y-80900003D01*
X121430407Y-80899996D01*
X121410842Y-80726351D01*
X121410841Y-80726344D01*
X121401624Y-80700003D01*
X121372212Y-80615951D01*
X121368650Y-80546177D01*
X121372206Y-80534067D01*
X121410841Y-80423657D01*
X121417856Y-80361394D01*
X121430407Y-80250003D01*
X121430407Y-80249996D01*
X121410842Y-80076351D01*
X121410841Y-80076344D01*
X121409898Y-80073648D01*
X121372212Y-79965951D01*
X121368650Y-79896177D01*
X121372206Y-79884067D01*
X121401624Y-79799996D01*
X123819593Y-79799996D01*
X123819593Y-79800003D01*
X123839157Y-79973648D01*
X123839159Y-79973658D01*
X123896878Y-80138607D01*
X123899900Y-80144882D01*
X123897415Y-80146078D01*
X123913000Y-80201318D01*
X123897536Y-80253980D01*
X123899900Y-80255118D01*
X123896878Y-80261392D01*
X123839159Y-80426341D01*
X123839157Y-80426351D01*
X123819593Y-80599996D01*
X123819593Y-80600003D01*
X123839157Y-80773648D01*
X123839159Y-80773658D01*
X123896878Y-80938607D01*
X123899900Y-80944882D01*
X123897415Y-80946078D01*
X123913000Y-81001318D01*
X123897536Y-81053980D01*
X123899900Y-81055118D01*
X123896878Y-81061392D01*
X123839159Y-81226341D01*
X123839157Y-81226351D01*
X123819593Y-81399996D01*
X123819593Y-81400003D01*
X123839157Y-81573648D01*
X123839159Y-81573658D01*
X123896877Y-81738604D01*
X123896878Y-81738606D01*
X123989853Y-81886576D01*
X124113424Y-82010147D01*
X124261394Y-82103122D01*
X124426343Y-82160841D01*
X124426349Y-82160841D01*
X124426351Y-82160842D01*
X124599996Y-82180407D01*
X124600000Y-82180407D01*
X124600004Y-82180407D01*
X124773648Y-82160842D01*
X124773647Y-82160842D01*
X124773657Y-82160841D01*
X124884048Y-82122212D01*
X124953823Y-82118650D01*
X124965932Y-82122206D01*
X125076343Y-82160841D01*
X125076347Y-82160841D01*
X125076351Y-82160842D01*
X125249996Y-82180407D01*
X125250000Y-82180407D01*
X125250004Y-82180407D01*
X125423648Y-82160842D01*
X125423647Y-82160842D01*
X125423657Y-82160841D01*
X125559045Y-82113466D01*
X125628824Y-82109904D01*
X125640955Y-82113466D01*
X125776343Y-82160841D01*
X125776349Y-82160841D01*
X125776351Y-82160842D01*
X125949996Y-82180407D01*
X125950000Y-82180407D01*
X125950004Y-82180407D01*
X126123648Y-82160842D01*
X126123647Y-82160842D01*
X126123657Y-82160841D01*
X126259045Y-82113466D01*
X126328824Y-82109904D01*
X126340955Y-82113466D01*
X126476343Y-82160841D01*
X126476349Y-82160841D01*
X126476351Y-82160842D01*
X126649996Y-82180407D01*
X126650000Y-82180407D01*
X126650004Y-82180407D01*
X126823648Y-82160842D01*
X126823647Y-82160842D01*
X126823657Y-82160841D01*
X126934048Y-82122212D01*
X127003823Y-82118650D01*
X127015932Y-82122206D01*
X127126343Y-82160841D01*
X127126347Y-82160841D01*
X127126351Y-82160842D01*
X127299996Y-82180407D01*
X127300000Y-82180407D01*
X127300004Y-82180407D01*
X127473648Y-82160842D01*
X127473647Y-82160842D01*
X127473657Y-82160841D01*
X127559048Y-82130960D01*
X127628823Y-82127398D01*
X127640932Y-82130953D01*
X127726343Y-82160841D01*
X127726347Y-82160841D01*
X127726351Y-82160842D01*
X127899996Y-82180407D01*
X127900000Y-82180407D01*
X127900004Y-82180407D01*
X128073648Y-82160842D01*
X128073647Y-82160842D01*
X128073657Y-82160841D01*
X128209045Y-82113466D01*
X128278824Y-82109904D01*
X128290955Y-82113466D01*
X128426343Y-82160841D01*
X128426349Y-82160841D01*
X128426351Y-82160842D01*
X128599996Y-82180407D01*
X128600000Y-82180407D01*
X128600004Y-82180407D01*
X128773648Y-82160842D01*
X128773647Y-82160842D01*
X128773657Y-82160841D01*
X128938606Y-82103122D01*
X129086576Y-82010147D01*
X129210147Y-81886576D01*
X129303122Y-81738606D01*
X129360841Y-81573657D01*
X129369140Y-81500000D01*
X129380407Y-81400003D01*
X129380407Y-81399996D01*
X129360842Y-81226351D01*
X129360841Y-81226349D01*
X129360841Y-81226343D01*
X129303122Y-81061394D01*
X129303121Y-81061392D01*
X129300101Y-81055121D01*
X129302601Y-81053916D01*
X129286997Y-80998792D01*
X129302489Y-80946029D01*
X129300101Y-80944879D01*
X129303122Y-80938605D01*
X129307413Y-80926343D01*
X129360841Y-80773657D01*
X129366172Y-80726340D01*
X129380407Y-80600003D01*
X129380407Y-80599996D01*
X129360842Y-80426351D01*
X129360841Y-80426349D01*
X129360841Y-80426343D01*
X129303122Y-80261394D01*
X129303121Y-80261392D01*
X129300101Y-80255121D01*
X129302601Y-80253916D01*
X129286997Y-80198792D01*
X129302489Y-80146029D01*
X129300101Y-80144879D01*
X129303122Y-80138605D01*
X129307413Y-80126343D01*
X129360841Y-79973657D01*
X129363065Y-79953916D01*
X129380407Y-79800003D01*
X129380407Y-79799996D01*
X129360842Y-79626351D01*
X129360841Y-79626349D01*
X129360841Y-79626343D01*
X129335607Y-79554232D01*
X129332838Y-79499996D01*
X151719593Y-79499996D01*
X151719593Y-79500003D01*
X151739157Y-79673648D01*
X151739159Y-79673658D01*
X151796878Y-79838607D01*
X151799900Y-79844882D01*
X151797415Y-79846078D01*
X151813000Y-79901318D01*
X151797536Y-79953980D01*
X151799900Y-79955118D01*
X151796878Y-79961392D01*
X151739159Y-80126341D01*
X151739157Y-80126351D01*
X151719593Y-80299996D01*
X151719593Y-80300003D01*
X151739157Y-80473648D01*
X151739159Y-80473658D01*
X151796878Y-80638607D01*
X151799900Y-80644882D01*
X151797415Y-80646078D01*
X151813000Y-80701318D01*
X151797536Y-80753980D01*
X151799900Y-80755118D01*
X151796878Y-80761392D01*
X151739159Y-80926341D01*
X151739157Y-80926351D01*
X151719593Y-81099996D01*
X151719593Y-81100003D01*
X151739157Y-81273648D01*
X151739159Y-81273658D01*
X151783369Y-81400000D01*
X151796878Y-81438606D01*
X151889853Y-81586576D01*
X152013424Y-81710147D01*
X152161394Y-81803122D01*
X152326343Y-81860841D01*
X152326349Y-81860841D01*
X152326351Y-81860842D01*
X152499996Y-81880407D01*
X152500000Y-81880407D01*
X152500004Y-81880407D01*
X152673648Y-81860842D01*
X152673647Y-81860842D01*
X152673657Y-81860841D01*
X152784048Y-81822212D01*
X152853823Y-81818650D01*
X152865932Y-81822206D01*
X152976343Y-81860841D01*
X152976347Y-81860841D01*
X152976351Y-81860842D01*
X153149996Y-81880407D01*
X153150000Y-81880407D01*
X153150004Y-81880407D01*
X153323648Y-81860842D01*
X153323647Y-81860842D01*
X153323657Y-81860841D01*
X153459045Y-81813466D01*
X153528824Y-81809904D01*
X153540955Y-81813466D01*
X153676343Y-81860841D01*
X153676349Y-81860841D01*
X153676351Y-81860842D01*
X153849996Y-81880407D01*
X153850000Y-81880407D01*
X153850004Y-81880407D01*
X154023648Y-81860842D01*
X154023647Y-81860842D01*
X154023657Y-81860841D01*
X154159045Y-81813466D01*
X154228824Y-81809904D01*
X154240955Y-81813466D01*
X154376343Y-81860841D01*
X154376349Y-81860841D01*
X154376351Y-81860842D01*
X154549996Y-81880407D01*
X154550000Y-81880407D01*
X154550004Y-81880407D01*
X154723648Y-81860842D01*
X154723647Y-81860842D01*
X154723657Y-81860841D01*
X154834048Y-81822212D01*
X154903823Y-81818650D01*
X154915932Y-81822206D01*
X155026343Y-81860841D01*
X155026347Y-81860841D01*
X155026351Y-81860842D01*
X155199996Y-81880407D01*
X155200000Y-81880407D01*
X155200004Y-81880407D01*
X155373648Y-81860842D01*
X155373647Y-81860842D01*
X155373657Y-81860841D01*
X155459048Y-81830960D01*
X155528823Y-81827398D01*
X155540932Y-81830953D01*
X155626343Y-81860841D01*
X155626347Y-81860841D01*
X155626351Y-81860842D01*
X155799996Y-81880407D01*
X155800000Y-81880407D01*
X155800004Y-81880407D01*
X155973648Y-81860842D01*
X155973647Y-81860842D01*
X155973657Y-81860841D01*
X156109045Y-81813466D01*
X156178824Y-81809904D01*
X156190955Y-81813466D01*
X156326343Y-81860841D01*
X156326349Y-81860841D01*
X156326351Y-81860842D01*
X156499996Y-81880407D01*
X156500000Y-81880407D01*
X156500003Y-81880407D01*
X156622778Y-81866573D01*
X156649311Y-81863584D01*
X156718133Y-81875638D01*
X156769513Y-81922987D01*
X156787137Y-81990598D01*
X156786415Y-82000687D01*
X156769593Y-82149995D01*
X156769593Y-82150003D01*
X156789157Y-82323648D01*
X156789158Y-82323653D01*
X156789158Y-82323655D01*
X156789159Y-82323657D01*
X156812557Y-82390524D01*
X156845282Y-82484046D01*
X156848843Y-82553824D01*
X156845282Y-82565954D01*
X156789158Y-82726346D01*
X156789157Y-82726351D01*
X156769593Y-82899996D01*
X156769593Y-82900003D01*
X156789157Y-83073648D01*
X156789159Y-83073658D01*
X156795618Y-83092116D01*
X156846878Y-83238606D01*
X156939853Y-83386576D01*
X157063424Y-83510147D01*
X157211394Y-83603122D01*
X157376343Y-83660841D01*
X157376349Y-83660841D01*
X157376351Y-83660842D01*
X157549996Y-83680407D01*
X157550000Y-83680407D01*
X157550004Y-83680407D01*
X157723648Y-83660842D01*
X157723647Y-83660842D01*
X157723657Y-83660841D01*
X157888606Y-83603122D01*
X158036576Y-83510147D01*
X158160147Y-83386576D01*
X158253122Y-83238606D01*
X158310841Y-83073657D01*
X158315077Y-83036057D01*
X158330407Y-82900003D01*
X158330407Y-82899996D01*
X158310842Y-82726351D01*
X158310841Y-82726346D01*
X158310841Y-82726343D01*
X158254718Y-82565954D01*
X158251156Y-82496176D01*
X158254718Y-82484045D01*
X158258356Y-82473648D01*
X158310841Y-82323657D01*
X158317353Y-82265864D01*
X158330407Y-82150003D01*
X158330407Y-82149996D01*
X158310842Y-81976351D01*
X158310841Y-81976349D01*
X158310841Y-81976343D01*
X158253122Y-81811394D01*
X158160147Y-81663424D01*
X158036576Y-81539853D01*
X157888606Y-81446878D01*
X157888605Y-81446877D01*
X157888604Y-81446877D01*
X157723658Y-81389159D01*
X157723648Y-81389157D01*
X157550004Y-81369593D01*
X157549996Y-81369593D01*
X157400687Y-81386415D01*
X157331865Y-81374360D01*
X157280486Y-81327011D01*
X157262862Y-81259400D01*
X157263584Y-81249311D01*
X157280407Y-81100002D01*
X157280407Y-81099996D01*
X157260842Y-80926351D01*
X157260841Y-80926349D01*
X157260841Y-80926343D01*
X157203122Y-80761394D01*
X157203121Y-80761392D01*
X157200101Y-80755121D01*
X157202601Y-80753916D01*
X157186997Y-80698792D01*
X157202489Y-80646029D01*
X157200101Y-80644879D01*
X157203122Y-80638605D01*
X157260841Y-80473657D01*
X157273490Y-80361392D01*
X157280407Y-80300003D01*
X157280407Y-80299996D01*
X157260842Y-80126351D01*
X157260841Y-80126349D01*
X157260841Y-80126343D01*
X157203122Y-79961394D01*
X157203121Y-79961392D01*
X157200101Y-79955121D01*
X157202601Y-79953916D01*
X157186997Y-79898792D01*
X157202489Y-79846029D01*
X157200101Y-79844879D01*
X157203122Y-79838605D01*
X157225849Y-79773657D01*
X157260841Y-79673657D01*
X157269140Y-79600000D01*
X157280407Y-79500003D01*
X157280407Y-79499996D01*
X157260842Y-79326351D01*
X157260841Y-79326349D01*
X157260841Y-79326343D01*
X157235607Y-79254232D01*
X157232045Y-79184455D01*
X157247658Y-79147302D01*
X157253119Y-79138610D01*
X157253122Y-79138606D01*
X157310841Y-78973657D01*
X157330407Y-78800000D01*
X157327742Y-78776351D01*
X157310842Y-78626351D01*
X157310841Y-78626349D01*
X157310841Y-78626343D01*
X157253122Y-78461394D01*
X157160147Y-78313424D01*
X157036576Y-78189853D01*
X156888606Y-78096878D01*
X156888605Y-78096877D01*
X156888604Y-78096877D01*
X156723658Y-78039159D01*
X156723648Y-78039157D01*
X156550004Y-78019593D01*
X156549996Y-78019593D01*
X156376351Y-78039157D01*
X156376346Y-78039158D01*
X156240954Y-78086534D01*
X156171176Y-78090095D01*
X156159046Y-78086534D01*
X156095208Y-78064196D01*
X156023657Y-78039159D01*
X156023655Y-78039158D01*
X156023653Y-78039158D01*
X156023648Y-78039157D01*
X155850004Y-78019593D01*
X155849996Y-78019593D01*
X155676345Y-78039158D01*
X155590954Y-78069037D01*
X155521175Y-78072598D01*
X155509046Y-78069037D01*
X155423654Y-78039158D01*
X155250004Y-78019593D01*
X155249996Y-78019593D01*
X155076348Y-78039157D01*
X155076340Y-78039159D01*
X154965954Y-78077785D01*
X154896175Y-78081346D01*
X154884046Y-78077785D01*
X154773659Y-78039159D01*
X154773651Y-78039157D01*
X154600004Y-78019593D01*
X154599996Y-78019593D01*
X154426351Y-78039157D01*
X154426346Y-78039158D01*
X154290954Y-78086534D01*
X154221176Y-78090095D01*
X154209046Y-78086534D01*
X154145208Y-78064196D01*
X154073657Y-78039159D01*
X154073655Y-78039158D01*
X154073653Y-78039158D01*
X154073648Y-78039157D01*
X153900004Y-78019593D01*
X153899996Y-78019593D01*
X153726351Y-78039157D01*
X153726346Y-78039158D01*
X153590954Y-78086534D01*
X153521176Y-78090095D01*
X153509046Y-78086534D01*
X153445208Y-78064196D01*
X153373657Y-78039159D01*
X153373655Y-78039158D01*
X153373653Y-78039158D01*
X153373648Y-78039157D01*
X153200004Y-78019593D01*
X153199996Y-78019593D01*
X153026348Y-78039157D01*
X153026340Y-78039159D01*
X152915954Y-78077785D01*
X152846175Y-78081346D01*
X152834046Y-78077785D01*
X152723659Y-78039159D01*
X152723651Y-78039157D01*
X152550004Y-78019593D01*
X152549996Y-78019593D01*
X152376351Y-78039157D01*
X152376341Y-78039159D01*
X152211395Y-78096877D01*
X152063423Y-78189853D01*
X151939853Y-78313423D01*
X151846877Y-78461395D01*
X151789159Y-78626341D01*
X151789157Y-78626351D01*
X151769593Y-78799996D01*
X151769593Y-78800003D01*
X151789157Y-78973651D01*
X151789159Y-78973659D01*
X151814391Y-79045769D01*
X151817952Y-79115548D01*
X151802349Y-79152685D01*
X151796881Y-79161389D01*
X151796873Y-79161403D01*
X151739159Y-79326340D01*
X151739157Y-79326351D01*
X151719593Y-79499996D01*
X129332838Y-79499996D01*
X129332045Y-79484455D01*
X129347658Y-79447302D01*
X129353119Y-79438610D01*
X129353122Y-79438606D01*
X129410841Y-79273657D01*
X129419140Y-79200000D01*
X129430407Y-79100003D01*
X129430407Y-79099996D01*
X129410842Y-78926351D01*
X129410841Y-78926349D01*
X129410841Y-78926343D01*
X129353122Y-78761394D01*
X129260147Y-78613424D01*
X129136576Y-78489853D01*
X128988606Y-78396878D01*
X128988605Y-78396877D01*
X128988604Y-78396877D01*
X128823658Y-78339159D01*
X128823648Y-78339157D01*
X128650004Y-78319593D01*
X128649996Y-78319593D01*
X128476351Y-78339157D01*
X128476346Y-78339158D01*
X128340954Y-78386534D01*
X128271176Y-78390095D01*
X128259046Y-78386534D01*
X128195208Y-78364196D01*
X128123657Y-78339159D01*
X128123655Y-78339158D01*
X128123653Y-78339158D01*
X128123648Y-78339157D01*
X127950004Y-78319593D01*
X127949996Y-78319593D01*
X127776345Y-78339158D01*
X127690954Y-78369037D01*
X127621175Y-78372598D01*
X127609046Y-78369037D01*
X127523654Y-78339158D01*
X127350004Y-78319593D01*
X127349996Y-78319593D01*
X127176348Y-78339157D01*
X127176340Y-78339159D01*
X127065954Y-78377785D01*
X126996175Y-78381346D01*
X126984046Y-78377785D01*
X126873659Y-78339159D01*
X126873651Y-78339157D01*
X126700004Y-78319593D01*
X126699996Y-78319593D01*
X126526351Y-78339157D01*
X126526346Y-78339158D01*
X126390954Y-78386534D01*
X126321176Y-78390095D01*
X126309046Y-78386534D01*
X126245208Y-78364196D01*
X126173657Y-78339159D01*
X126173655Y-78339158D01*
X126173653Y-78339158D01*
X126173648Y-78339157D01*
X126000004Y-78319593D01*
X125999996Y-78319593D01*
X125826351Y-78339157D01*
X125826346Y-78339158D01*
X125690954Y-78386534D01*
X125621176Y-78390095D01*
X125609046Y-78386534D01*
X125545208Y-78364196D01*
X125473657Y-78339159D01*
X125473655Y-78339158D01*
X125473653Y-78339158D01*
X125473648Y-78339157D01*
X125300004Y-78319593D01*
X125299996Y-78319593D01*
X125126348Y-78339157D01*
X125126340Y-78339159D01*
X125015954Y-78377785D01*
X124946175Y-78381346D01*
X124934046Y-78377785D01*
X124823659Y-78339159D01*
X124823651Y-78339157D01*
X124650004Y-78319593D01*
X124649996Y-78319593D01*
X124476351Y-78339157D01*
X124476341Y-78339159D01*
X124311395Y-78396877D01*
X124163423Y-78489853D01*
X124039853Y-78613423D01*
X123946877Y-78761395D01*
X123889159Y-78926341D01*
X123889157Y-78926351D01*
X123869593Y-79099996D01*
X123869593Y-79100003D01*
X123889157Y-79273651D01*
X123889159Y-79273659D01*
X123914391Y-79345769D01*
X123917952Y-79415548D01*
X123902349Y-79452685D01*
X123896881Y-79461389D01*
X123896873Y-79461403D01*
X123839159Y-79626340D01*
X123839157Y-79626351D01*
X123819593Y-79799996D01*
X121401624Y-79799996D01*
X121410841Y-79773657D01*
X121427439Y-79626341D01*
X121430407Y-79600003D01*
X121430407Y-79599996D01*
X121410842Y-79426351D01*
X121410841Y-79426344D01*
X121410840Y-79426340D01*
X121372212Y-79315951D01*
X121368650Y-79246177D01*
X121372206Y-79234067D01*
X121410841Y-79123657D01*
X121421805Y-79026351D01*
X121430407Y-78950003D01*
X121430407Y-78949996D01*
X121410842Y-78776351D01*
X121410841Y-78776349D01*
X121410841Y-78776343D01*
X121353122Y-78611394D01*
X121260147Y-78463424D01*
X121136576Y-78339853D01*
X120988606Y-78246878D01*
X120988605Y-78246877D01*
X120988604Y-78246877D01*
X120823658Y-78189159D01*
X120823648Y-78189157D01*
X120650004Y-78169593D01*
X120649996Y-78169593D01*
X120476351Y-78189157D01*
X120476341Y-78189159D01*
X120311395Y-78246877D01*
X120163423Y-78339853D01*
X120039853Y-78463423D01*
X119946877Y-78611395D01*
X119889159Y-78776341D01*
X119889157Y-78776351D01*
X119869593Y-78949996D01*
X119869593Y-78950003D01*
X119889157Y-79123651D01*
X119889159Y-79123659D01*
X119927785Y-79234046D01*
X119931346Y-79303825D01*
X119927785Y-79315954D01*
X119889159Y-79426340D01*
X119889157Y-79426348D01*
X119869593Y-79599996D01*
X119869593Y-79600003D01*
X119889157Y-79773651D01*
X119889159Y-79773659D01*
X119927785Y-79884046D01*
X119931346Y-79953825D01*
X119927785Y-79965954D01*
X119889159Y-80076340D01*
X119889157Y-80076348D01*
X119869593Y-80249996D01*
X119869593Y-80250003D01*
X119889157Y-80423651D01*
X119889159Y-80423659D01*
X119927785Y-80534046D01*
X119931346Y-80603825D01*
X119927785Y-80615954D01*
X119889159Y-80726340D01*
X119889157Y-80726348D01*
X119869593Y-80899996D01*
X119869593Y-80900003D01*
X119889157Y-81073648D01*
X119889159Y-81073659D01*
X119945281Y-81234044D01*
X119948843Y-81303823D01*
X119945282Y-81315953D01*
X119912373Y-81410002D01*
X119871651Y-81466779D01*
X119832416Y-81485432D01*
X119832916Y-81486859D01*
X119661395Y-81546877D01*
X119513423Y-81639853D01*
X119389853Y-81763423D01*
X119296877Y-81911395D01*
X119239159Y-82076341D01*
X119239157Y-82076351D01*
X119219593Y-82249996D01*
X119219593Y-82250003D01*
X119239157Y-82423648D01*
X119239159Y-82423658D01*
X119275629Y-82527881D01*
X119279191Y-82597660D01*
X119263584Y-82634805D01*
X119246878Y-82661394D01*
X119246877Y-82661395D01*
X119189157Y-82826349D01*
X119189157Y-82826351D01*
X119169593Y-82999996D01*
X118630407Y-82999996D01*
X118610842Y-82826351D01*
X118610841Y-82826344D01*
X118608479Y-82819593D01*
X118572212Y-82715951D01*
X118568650Y-82646177D01*
X118572206Y-82634067D01*
X118610841Y-82523657D01*
X118630407Y-82350000D01*
X118627438Y-82323653D01*
X118610842Y-82176351D01*
X118610841Y-82176349D01*
X118610841Y-82176343D01*
X118553122Y-82011394D01*
X118460147Y-81863424D01*
X118336576Y-81739853D01*
X118188606Y-81646878D01*
X118188605Y-81646877D01*
X118188604Y-81646877D01*
X118023658Y-81589159D01*
X118023648Y-81589157D01*
X117850004Y-81569593D01*
X117849062Y-81569593D01*
X117848475Y-81569420D01*
X117843081Y-81568813D01*
X117843187Y-81567868D01*
X117782023Y-81549908D01*
X117736268Y-81497104D01*
X117725842Y-81459476D01*
X117710842Y-81326351D01*
X117710841Y-81326349D01*
X117710841Y-81326343D01*
X117653122Y-81161394D01*
X117653121Y-81161392D01*
X117650101Y-81155121D01*
X117652601Y-81153916D01*
X117636997Y-81098792D01*
X117652489Y-81046029D01*
X117650101Y-81044879D01*
X117653122Y-81038605D01*
X117710841Y-80873657D01*
X117723490Y-80761392D01*
X117730407Y-80700003D01*
X117730407Y-80699996D01*
X117710842Y-80526351D01*
X117710841Y-80526349D01*
X117710841Y-80526343D01*
X117653122Y-80361394D01*
X117653121Y-80361392D01*
X117650101Y-80355121D01*
X117652601Y-80353916D01*
X117636997Y-80298792D01*
X117652489Y-80246029D01*
X117650101Y-80244879D01*
X117653122Y-80238605D01*
X117710841Y-80073657D01*
X117723490Y-79961392D01*
X117730407Y-79900003D01*
X117730407Y-79899996D01*
X117710842Y-79726351D01*
X117710841Y-79726349D01*
X117710841Y-79726343D01*
X117685607Y-79654232D01*
X117682045Y-79584455D01*
X117697658Y-79547302D01*
X117703119Y-79538610D01*
X117703122Y-79538606D01*
X117760841Y-79373657D01*
X117767342Y-79315956D01*
X117780407Y-79200003D01*
X117780407Y-79199996D01*
X117760842Y-79026351D01*
X117760841Y-79026349D01*
X117760841Y-79026343D01*
X117703122Y-78861394D01*
X117610147Y-78713424D01*
X117486576Y-78589853D01*
X117338606Y-78496878D01*
X117338605Y-78496877D01*
X117338604Y-78496877D01*
X117173658Y-78439159D01*
X117173648Y-78439157D01*
X117000004Y-78419593D01*
X116999996Y-78419593D01*
X116826351Y-78439157D01*
X116826346Y-78439158D01*
X116690954Y-78486534D01*
X116621176Y-78490095D01*
X116609046Y-78486534D01*
X116543001Y-78463424D01*
X116473657Y-78439159D01*
X116473655Y-78439158D01*
X116473653Y-78439158D01*
X116473648Y-78439157D01*
X116300004Y-78419593D01*
X116299996Y-78419593D01*
X116126345Y-78439158D01*
X116040954Y-78469037D01*
X115971175Y-78472598D01*
X115959046Y-78469037D01*
X115873654Y-78439158D01*
X115700004Y-78419593D01*
X115699996Y-78419593D01*
X115526348Y-78439157D01*
X115526340Y-78439159D01*
X115415954Y-78477785D01*
X115346175Y-78481346D01*
X115334046Y-78477785D01*
X115223659Y-78439159D01*
X115223651Y-78439157D01*
X115050004Y-78419593D01*
X115049996Y-78419593D01*
X114876351Y-78439157D01*
X114876346Y-78439158D01*
X114740954Y-78486534D01*
X114671176Y-78490095D01*
X114659046Y-78486534D01*
X114593001Y-78463424D01*
X114523657Y-78439159D01*
X114523655Y-78439158D01*
X114523653Y-78439158D01*
X114523648Y-78439157D01*
X114350004Y-78419593D01*
X114349996Y-78419593D01*
X114176351Y-78439157D01*
X114176346Y-78439158D01*
X114040954Y-78486534D01*
X113971176Y-78490095D01*
X113959046Y-78486534D01*
X113893001Y-78463424D01*
X113823657Y-78439159D01*
X113823655Y-78439158D01*
X113823653Y-78439158D01*
X113823648Y-78439157D01*
X113650004Y-78419593D01*
X113649996Y-78419593D01*
X113476348Y-78439157D01*
X113476340Y-78439159D01*
X113365954Y-78477785D01*
X113296175Y-78481346D01*
X113284046Y-78477785D01*
X113173659Y-78439159D01*
X113173651Y-78439157D01*
X113000004Y-78419593D01*
X112999996Y-78419593D01*
X112826351Y-78439157D01*
X112826341Y-78439159D01*
X112661395Y-78496877D01*
X112513423Y-78589853D01*
X112389853Y-78713423D01*
X112296877Y-78861395D01*
X112239159Y-79026341D01*
X112239157Y-79026351D01*
X112219593Y-79199996D01*
X112219593Y-79200003D01*
X112239157Y-79373651D01*
X112239159Y-79373659D01*
X112264391Y-79445769D01*
X112267952Y-79515548D01*
X112252349Y-79552685D01*
X112246881Y-79561389D01*
X112246873Y-79561403D01*
X112189159Y-79726340D01*
X112189157Y-79726351D01*
X112169593Y-79899996D01*
X94000500Y-79899996D01*
X94000500Y-71003246D01*
X94000670Y-70996756D01*
X94005500Y-70904601D01*
X94017961Y-70666819D01*
X94019318Y-70653913D01*
X94051769Y-70449024D01*
X94070493Y-70330804D01*
X94073186Y-70318129D01*
X94157863Y-70002113D01*
X94161871Y-69989781D01*
X94189146Y-69918728D01*
X94279109Y-69684365D01*
X94284375Y-69672536D01*
X94432912Y-69381014D01*
X94439373Y-69369824D01*
X94617570Y-69095425D01*
X94619174Y-69093218D01*
X105749500Y-69093218D01*
X105749500Y-75086781D01*
X105752234Y-75127102D01*
X105795567Y-75301350D01*
X105875346Y-75462209D01*
X105875347Y-75462210D01*
X105987841Y-75602159D01*
X106127790Y-75714653D01*
X106288651Y-75794433D01*
X106462900Y-75837766D01*
X106503216Y-75840500D01*
X106503218Y-75840500D01*
X112496782Y-75840500D01*
X112496784Y-75840500D01*
X112537100Y-75837766D01*
X112711349Y-75794433D01*
X112872210Y-75714653D01*
X113012159Y-75602159D01*
X113124653Y-75462210D01*
X113204433Y-75301349D01*
X113247766Y-75127100D01*
X113250500Y-75086784D01*
X113250500Y-69103218D01*
X127249500Y-69103218D01*
X127249500Y-75096781D01*
X127252234Y-75137102D01*
X127295567Y-75311350D01*
X127375346Y-75472209D01*
X127471765Y-75592159D01*
X127487841Y-75612159D01*
X127627790Y-75724653D01*
X127788651Y-75804433D01*
X127962900Y-75847766D01*
X128003216Y-75850500D01*
X128003218Y-75850500D01*
X133996782Y-75850500D01*
X133996784Y-75850500D01*
X134037100Y-75847766D01*
X134211349Y-75804433D01*
X134372210Y-75724653D01*
X134512159Y-75612159D01*
X134624653Y-75472210D01*
X134704433Y-75311349D01*
X134747766Y-75137100D01*
X134750500Y-75096784D01*
X134750500Y-69103216D01*
X134749144Y-69083218D01*
X149499500Y-69083218D01*
X149499500Y-75076781D01*
X149502234Y-75117102D01*
X149545567Y-75291350D01*
X149625346Y-75452209D01*
X149717983Y-75567454D01*
X149737841Y-75592159D01*
X149877790Y-75704653D01*
X150038651Y-75784433D01*
X150212900Y-75827766D01*
X150253216Y-75830500D01*
X150253218Y-75830500D01*
X156246782Y-75830500D01*
X156246784Y-75830500D01*
X156287100Y-75827766D01*
X156461349Y-75784433D01*
X156622210Y-75704653D01*
X156762159Y-75592159D01*
X156874653Y-75452210D01*
X156954433Y-75291349D01*
X156997766Y-75117100D01*
X157000500Y-75076784D01*
X157000500Y-69083216D01*
X156997766Y-69042900D01*
X156954433Y-68868651D01*
X156874653Y-68707790D01*
X156762159Y-68567841D01*
X156634650Y-68465346D01*
X156622209Y-68455346D01*
X156461350Y-68375567D01*
X156287102Y-68332234D01*
X156287103Y-68332234D01*
X156262910Y-68330593D01*
X156246784Y-68329500D01*
X150253216Y-68329500D01*
X150237089Y-68330593D01*
X150212897Y-68332234D01*
X150038649Y-68375567D01*
X149877790Y-68455346D01*
X149737841Y-68567840D01*
X149737840Y-68567841D01*
X149625346Y-68707790D01*
X149545567Y-68868649D01*
X149502234Y-69042897D01*
X149499500Y-69083218D01*
X134749144Y-69083218D01*
X134747766Y-69062900D01*
X134704433Y-68888651D01*
X134624653Y-68727790D01*
X134512159Y-68587841D01*
X134508813Y-68585151D01*
X134372209Y-68475346D01*
X134211350Y-68395567D01*
X134037102Y-68352234D01*
X134037103Y-68352234D01*
X134012910Y-68350593D01*
X133996784Y-68349500D01*
X128003216Y-68349500D01*
X127987089Y-68350593D01*
X127962897Y-68352234D01*
X127788649Y-68395567D01*
X127627790Y-68475346D01*
X127487841Y-68587840D01*
X127487840Y-68587841D01*
X127375346Y-68727790D01*
X127295567Y-68888649D01*
X127252234Y-69062897D01*
X127249500Y-69103218D01*
X113250500Y-69103218D01*
X113250500Y-69093216D01*
X113247766Y-69052900D01*
X113204433Y-68878651D01*
X113124653Y-68717790D01*
X113012159Y-68577841D01*
X112999719Y-68567841D01*
X112872209Y-68465346D01*
X112711350Y-68385567D01*
X112537102Y-68342234D01*
X112537103Y-68342234D01*
X112512910Y-68340593D01*
X112496784Y-68339500D01*
X106503216Y-68339500D01*
X106487089Y-68340593D01*
X106462897Y-68342234D01*
X106288649Y-68385567D01*
X106127790Y-68465346D01*
X105987841Y-68577840D01*
X105987840Y-68577841D01*
X105875346Y-68717790D01*
X105795567Y-68878649D01*
X105752234Y-69052897D01*
X105749500Y-69093218D01*
X94619174Y-69093218D01*
X94625179Y-69084953D01*
X94831072Y-68830696D01*
X94839739Y-68821071D01*
X95071071Y-68589739D01*
X95080696Y-68581072D01*
X95334953Y-68375179D01*
X95345425Y-68367570D01*
X95619824Y-68189373D01*
X95631014Y-68182912D01*
X95922536Y-68034375D01*
X95934365Y-68029109D01*
X96239785Y-67911869D01*
X96252113Y-67907863D01*
X96568129Y-67823186D01*
X96580804Y-67820493D01*
X96903915Y-67769317D01*
X96916819Y-67767961D01*
X97246756Y-67750669D01*
X97253246Y-67750500D01*
X97294170Y-67750500D01*
X166955830Y-67750500D01*
X166996814Y-67750500D01*
X167003173Y-67750662D01*
G37*
%TD.AperFunction*%
%TD*%
%TA.AperFunction,NonConductor*%
G36*
X153852918Y-84327353D02*
G01*
X153904297Y-84374702D01*
X153915019Y-84397560D01*
X153930284Y-84441185D01*
X153945282Y-84484046D01*
X153948843Y-84553825D01*
X153945282Y-84565954D01*
X153889158Y-84726346D01*
X153889157Y-84726351D01*
X153873220Y-84867804D01*
X153859806Y-84899727D01*
X153872140Y-84924684D01*
X153873220Y-84932195D01*
X153889157Y-85073651D01*
X153889159Y-85073659D01*
X153927785Y-85184046D01*
X153931346Y-85253825D01*
X153927785Y-85265954D01*
X153889159Y-85376340D01*
X153889157Y-85376348D01*
X153873220Y-85517804D01*
X153859806Y-85549727D01*
X153872140Y-85574684D01*
X153873220Y-85582195D01*
X153889157Y-85723651D01*
X153889159Y-85723659D01*
X153927785Y-85834046D01*
X153931346Y-85903825D01*
X153927785Y-85915954D01*
X153889159Y-86026340D01*
X153887610Y-86033130D01*
X153885701Y-86032694D01*
X153862364Y-86088199D01*
X153804760Y-86127741D01*
X153780111Y-86133100D01*
X153748060Y-86136711D01*
X153679238Y-86124656D01*
X153627859Y-86077307D01*
X153612873Y-86033028D01*
X153612392Y-86033138D01*
X153611318Y-86028433D01*
X153610956Y-86027364D01*
X153610841Y-86026343D01*
X153572212Y-85915951D01*
X153568650Y-85846177D01*
X153572206Y-85834067D01*
X153610841Y-85723657D01*
X153610842Y-85723648D01*
X153626780Y-85582195D01*
X153640193Y-85550271D01*
X153627860Y-85525315D01*
X153626780Y-85517804D01*
X153610842Y-85376351D01*
X153610841Y-85376344D01*
X153610840Y-85376340D01*
X153572212Y-85265951D01*
X153568650Y-85196177D01*
X153572206Y-85184067D01*
X153610841Y-85073657D01*
X153613204Y-85052685D01*
X153626780Y-84932195D01*
X153640193Y-84900271D01*
X153627860Y-84875315D01*
X153626780Y-84867804D01*
X153610842Y-84726351D01*
X153610841Y-84726344D01*
X153610014Y-84723981D01*
X153572212Y-84615951D01*
X153568650Y-84546177D01*
X153572206Y-84534067D01*
X153610841Y-84423657D01*
X153610842Y-84423648D01*
X153612076Y-84418247D01*
X153646186Y-84357270D01*
X153707848Y-84324414D01*
X153719074Y-84322624D01*
X153784097Y-84315298D01*
X153852918Y-84327353D01*
G37*
%TD.AperFunction*%
%TA.AperFunction,NonConductor*%
G36*
X128258993Y-84301965D02*
G01*
X128261390Y-84303119D01*
X128261394Y-84303122D01*
X128327770Y-84326348D01*
X128384543Y-84367068D01*
X128410291Y-84432020D01*
X128403855Y-84484342D01*
X128389159Y-84526340D01*
X128389157Y-84526348D01*
X128369593Y-84699996D01*
X128369593Y-84700003D01*
X128389157Y-84873651D01*
X128389159Y-84873659D01*
X128414391Y-84945769D01*
X128417952Y-85015548D01*
X128402349Y-85052685D01*
X128396881Y-85061389D01*
X128396873Y-85061403D01*
X128339159Y-85226340D01*
X128339157Y-85226351D01*
X128319593Y-85399995D01*
X128319593Y-85399996D01*
X128319593Y-85400000D01*
X128322562Y-85426348D01*
X128323862Y-85437889D01*
X128311806Y-85506711D01*
X128264456Y-85558090D01*
X128241595Y-85568813D01*
X128215954Y-85577785D01*
X128146175Y-85581346D01*
X128134047Y-85577785D01*
X128097091Y-85564854D01*
X128040314Y-85524133D01*
X128014823Y-85461695D01*
X128010841Y-85426343D01*
X127963466Y-85290954D01*
X127959904Y-85221176D01*
X127963466Y-85209045D01*
X127982646Y-85154233D01*
X128010841Y-85073657D01*
X128024773Y-84950003D01*
X128030407Y-84900003D01*
X128030407Y-84899996D01*
X128010842Y-84726351D01*
X128010841Y-84726349D01*
X128010841Y-84726343D01*
X127972214Y-84615954D01*
X127968652Y-84546176D01*
X127972212Y-84534050D01*
X128010841Y-84423657D01*
X128011192Y-84420538D01*
X128011981Y-84418660D01*
X128012390Y-84416870D01*
X128012703Y-84416941D01*
X128038252Y-84356125D01*
X128095843Y-84316564D01*
X128120533Y-84311192D01*
X128123657Y-84310841D01*
X128164231Y-84296642D01*
X128234008Y-84293079D01*
X128258993Y-84301965D01*
G37*
%TD.AperFunction*%
%TA.AperFunction,NonConductor*%
G36*
X126315954Y-84272214D02*
G01*
X126404962Y-84303360D01*
X126461738Y-84344082D01*
X126487227Y-84406516D01*
X126489158Y-84423653D01*
X126489159Y-84423659D01*
X126527785Y-84534046D01*
X126531346Y-84603825D01*
X126527785Y-84615954D01*
X126489159Y-84726340D01*
X126489157Y-84726348D01*
X126469593Y-84899996D01*
X126469593Y-84900003D01*
X126489157Y-85073648D01*
X126489158Y-85073653D01*
X126489158Y-85073655D01*
X126489159Y-85073657D01*
X126497631Y-85097868D01*
X126536534Y-85209046D01*
X126540095Y-85278824D01*
X126536534Y-85290954D01*
X126489158Y-85426346D01*
X126489157Y-85426351D01*
X126469593Y-85599996D01*
X126469593Y-85600003D01*
X126489157Y-85773651D01*
X126489159Y-85773659D01*
X126514391Y-85845769D01*
X126517952Y-85915548D01*
X126502349Y-85952685D01*
X126496881Y-85961389D01*
X126496878Y-85961394D01*
X126496876Y-85961397D01*
X126496875Y-85961401D01*
X126462372Y-86060003D01*
X126421650Y-86116778D01*
X126382415Y-86135432D01*
X126382915Y-86136859D01*
X126265953Y-86177785D01*
X126196174Y-86181346D01*
X126184044Y-86177784D01*
X126095037Y-86146639D01*
X126038261Y-86105918D01*
X126012771Y-86043478D01*
X126010841Y-86026343D01*
X125963466Y-85890954D01*
X125959904Y-85821176D01*
X125963466Y-85809045D01*
X125972146Y-85784240D01*
X126010841Y-85673657D01*
X126019140Y-85600000D01*
X126030407Y-85500003D01*
X126030407Y-85499996D01*
X126010842Y-85326351D01*
X126010841Y-85326344D01*
X126007206Y-85315956D01*
X125972212Y-85215951D01*
X125968650Y-85146177D01*
X125972206Y-85134067D01*
X126010841Y-85023657D01*
X126016254Y-84975611D01*
X126030407Y-84850003D01*
X126030407Y-84849996D01*
X126010842Y-84676351D01*
X126010841Y-84676349D01*
X126010841Y-84676343D01*
X125972214Y-84565954D01*
X125968652Y-84496176D01*
X125972214Y-84484045D01*
X126003360Y-84395037D01*
X126044082Y-84338261D01*
X126106519Y-84312771D01*
X126123657Y-84310841D01*
X126234045Y-84272213D01*
X126303822Y-84268651D01*
X126315954Y-84272214D01*
G37*
%TD.AperFunction*%
%TA.AperFunction,NonConductor*%
G36*
X114449038Y-84413942D02*
G01*
X114459367Y-84420432D01*
X114505659Y-84472766D01*
X114510437Y-84484471D01*
X114527784Y-84534045D01*
X114531346Y-84603824D01*
X114527785Y-84615954D01*
X114489159Y-84726340D01*
X114489157Y-84726348D01*
X114469593Y-84899996D01*
X114469593Y-84900003D01*
X114489157Y-85073651D01*
X114489159Y-85073659D01*
X114527785Y-85184046D01*
X114531346Y-85253825D01*
X114527785Y-85265954D01*
X114489159Y-85376340D01*
X114489157Y-85376348D01*
X114469593Y-85549996D01*
X114469593Y-85550003D01*
X114489157Y-85723651D01*
X114489159Y-85723659D01*
X114527785Y-85834046D01*
X114531346Y-85903825D01*
X114527785Y-85915954D01*
X114489159Y-86026340D01*
X114489157Y-86026347D01*
X114487227Y-86043483D01*
X114460159Y-86107897D01*
X114404962Y-86146639D01*
X114315955Y-86177784D01*
X114246176Y-86181346D01*
X114234046Y-86177785D01*
X114123659Y-86139159D01*
X114123652Y-86139157D01*
X113967762Y-86121593D01*
X113903348Y-86094526D01*
X113863793Y-86036931D01*
X113860929Y-86026595D01*
X113860841Y-86026343D01*
X113830960Y-85940951D01*
X113827398Y-85871177D01*
X113830953Y-85859067D01*
X113860841Y-85773657D01*
X113866475Y-85723651D01*
X113880407Y-85600003D01*
X113880407Y-85599996D01*
X113860842Y-85426351D01*
X113860841Y-85426344D01*
X113851624Y-85400003D01*
X113822212Y-85315951D01*
X113818650Y-85246177D01*
X113822206Y-85234067D01*
X113860841Y-85123657D01*
X113866475Y-85073651D01*
X113880407Y-84950003D01*
X113880407Y-84949996D01*
X113860842Y-84776351D01*
X113860841Y-84776347D01*
X113860841Y-84776343D01*
X113839708Y-84715951D01*
X113836146Y-84646178D01*
X113839700Y-84634073D01*
X113860841Y-84573657D01*
X113860841Y-84573653D01*
X113863141Y-84567082D01*
X113864803Y-84567663D01*
X113894521Y-84514523D01*
X113956180Y-84481660D01*
X113995196Y-84479866D01*
X113999997Y-84480407D01*
X114000000Y-84480407D01*
X114000003Y-84480407D01*
X114173649Y-84460842D01*
X114173649Y-84460841D01*
X114173657Y-84460841D01*
X114338606Y-84403122D01*
X114338606Y-84403121D01*
X114342112Y-84401895D01*
X114411891Y-84398333D01*
X114449038Y-84413942D01*
G37*
%TD.AperFunction*%
%TA.AperFunction,NonConductor*%
G36*
X137401203Y-103296398D02*
G01*
X137415013Y-103314460D01*
X137470179Y-103402256D01*
X137470184Y-103402262D01*
X137597737Y-103529815D01*
X137603184Y-103534159D01*
X137602261Y-103535315D01*
X137643260Y-103581672D01*
X137653905Y-103650726D01*
X137648036Y-103675280D01*
X137614207Y-103771958D01*
X137573485Y-103828734D01*
X137508532Y-103854481D01*
X137439971Y-103841025D01*
X137392171Y-103796975D01*
X137353461Y-103735369D01*
X137329816Y-103697738D01*
X137202262Y-103570184D01*
X137197338Y-103565260D01*
X137199064Y-103563533D01*
X137165466Y-103515660D01*
X137162618Y-103445849D01*
X137165879Y-103434950D01*
X137185368Y-103379255D01*
X137186799Y-103366549D01*
X137213865Y-103302137D01*
X137271459Y-103262580D01*
X137341296Y-103260441D01*
X137401203Y-103296398D01*
G37*
%TD.AperFunction*%
M02*
